<svg xmlns="http://www.w3.org/2000/svg" width="45.419" height="47.999" viewBox="0 0 45.419 47.999">
  <g id="calendar-31" transform="translate(-730 -514)">
    <path id="Subtraction_200" data-name="Subtraction 200" d="M40.553,40.306H4.866A4.963,4.963,0,0,1,1.429,38.94,4.532,4.532,0,0,1,0,35.656V13.564H45.419V35.656a4.537,4.537,0,0,1-1.43,3.284A4.962,4.962,0,0,1,40.553,40.306ZM17.936,35.453h0c.121.008.245.012.367.012a5.479,5.479,0,0,0,3.468-1.226A4.993,4.993,0,0,0,23.613,30.8c-.01-1.2-.524-3.386-1.427-4.19.9-.8,1.417-2.988,1.427-4.19a4.993,4.993,0,0,0-1.842-3.436A5.48,5.48,0,0,0,18.3,17.759c-.122,0-.245,0-.367.012l-.17,0a5.969,5.969,0,0,0-4.648,2.2,1.485,1.485,0,0,0-.061,1.471,1.616,1.616,0,0,0,1.252.858,1.706,1.706,0,0,0,.2.012,1.653,1.653,0,0,0,1.233-.542,2.815,2.815,0,0,1,2.077-.9l.112,0c1.434,0,2.434.817,2.434,1.551,0,.673-.754,2.392-1.785,2.578l-.211.046a1.728,1.728,0,0,0-.853.6,1.626,1.626,0,0,0-.331.963,1.691,1.691,0,0,0,.345.954,1.809,1.809,0,0,0,.84.612l.211.046c1.031.185,1.785,1.9,1.785,2.578,0,.733-1,1.55-2.434,1.55l-.115,0a2.812,2.812,0,0,1-2.075-.9,1.631,1.631,0,0,0-1.062-.727,1.7,1.7,0,0,0-.334-.033,1.666,1.666,0,0,0-.944.29,1.543,1.543,0,0,0-.666,1.074,1.508,1.508,0,0,0,.378,1.2,5.969,5.969,0,0,0,4.648,2.2ZM30.1,17.768a1.663,1.663,0,0,0-1.152.454l-1.622,1.55a1.514,1.514,0,0,0,0,2.2,1.69,1.69,0,0,0,1.151.45V33.9a1.541,1.541,0,0,0,.812,1.342,1.685,1.685,0,0,0,1.622,0,1.541,1.541,0,0,0,.811-1.342V19.322a1.544,1.544,0,0,0-.47-1.1A1.666,1.666,0,0,0,30.1,17.768Zm15.317-7.3H0V4.65A4.532,4.532,0,0,1,1.429,1.366,4.963,4.963,0,0,1,4.866,0h3.27V2.99a4.52,4.52,0,0,0,9.041,0V0H28.025V2.99a4.52,4.52,0,0,0,9.041,0V0h3.487a4.965,4.965,0,0,1,3.436,1.366,4.534,4.534,0,0,1,1.43,3.284v5.812Z" transform="translate(730 521.693)" fill="#ec711c"/>
    <rect id="Rectangle_154814" data-name="Rectangle 154814" width="6" height="14" rx="3" transform="translate(759.933 514)" fill="#ec711c"/>
    <rect id="Rectangle_154815" data-name="Rectangle 154815" width="6" height="14" rx="3" transform="translate(739.978 514)" fill="#ec711c"/>
  </g>
</svg>
