<svg xmlns="http://www.w3.org/2000/svg" width="48" height="48" viewBox="0 0 48 48">
  <g id="info-round-bg" transform="translate(-2.189 -2)">
    <g id="noun_Info_83600" transform="translate(2.189 2)">
      <path id="Path_4376" data-name="Path 4376" d="M29,5A24,24,0,1,0,53,29,24,24,0,0,0,29,5Zm0,8.833A4.267,4.267,0,1,1,24.733,18.1,4.267,4.267,0,0,1,29,13.833ZM35.4,43.1c0,.589-.478.833-1.067.833H23.667c-.589,0-1.067-.244-1.067-.833v-.533c0-.589.478-1.3,1.067-1.3h1.067V27.933H23.667c-.589,0-1.067-.244-1.067-.833v-.533c0-.589.478-1.3,1.067-1.3H32.2c.589,0,1.067.711,1.067,1.3v14.7h1.067c.589,0,1.067.711,1.067,1.3Z" transform="translate(-5 -5)" fill="#666"/>
    </g>
  </g>
</svg>
