<svg xmlns="http://www.w3.org/2000/svg" width="49.032" height="48" viewBox="0 0 49.032 48">
  <path id="pallete" d="M27.516,3A24.264,24.264,0,0,0,3,27,24.264,24.264,0,0,0,27.516,51,4.039,4.039,0,0,0,31.6,47,3.984,3.984,0,0,0,30.539,44.3,3.959,3.959,0,0,1,29.5,41.665a4.039,4.039,0,0,1,4.087-4h4.821A13.484,13.484,0,0,0,52.032,24.332C52.032,12.547,41.054,3,27.516,3ZM12.534,27a4.039,4.039,0,1,1,2.873-1.152A4,4,0,0,1,12.534,27Zm8.171-10.666a4.041,4.041,0,1,1,2.873-1.153,4,4,0,0,1-2.873,1.153Zm13.619,0A4.041,4.041,0,1,1,37.2,15.18a4,4,0,0,1-2.873,1.154ZM42.5,27a4.039,4.039,0,1,1,2.874-1.153A4,4,0,0,1,42.5,27Z" transform="translate(-3 -2.999)" fill="#ec711c"/>
</svg>
