<svg xmlns="http://www.w3.org/2000/svg" width="48" height="48.001" viewBox="0 0 48 48.001">
  <g id="telephone-gray" transform="translate(-131.606 -61.654)">
    <path id="Path_111083" data-name="Path 111083" d="M140.817,61.656a4.515,4.515,0,0,0-3.365,1.635l-4.308,4.923a7.637,7.637,0,0,0-1.538,5.135c0,6.207,4.4,15.356,12.673,23.634s17.427,12.673,23.634,12.673a7.587,7.587,0,0,0,5.116-1.538l4.923-4.308a4.532,4.532,0,0,0,1.654-3.365,4.686,4.686,0,0,0-1.6-3.365l-6.769-6.769a4.3,4.3,0,0,0-6.653,0s-2.585,2.576-2.642,2.626c-.5.476-.9.534-1.358.259L148.048,80.655c-.435-.435-.086-.889.183-1.246.064-.085,2.7-2.735,2.7-2.735a4.286,4.286,0,0,0,0-6.673l-6.769-6.769a4.627,4.627,0,0,0-3.346-1.577Zm1.615,3.327,6.769,6.769c.69.69.865.916.865,1.6s-.253.965-.865,1.577c0,0-2.641,2.65-2.716,2.736a4.036,4.036,0,0,0-1.015,1.936,3.114,3.114,0,0,0,.654,2.615l12.923,12.923a3.415,3.415,0,0,0,2.615.654,3.931,3.931,0,0,0,1.888-.989c.1-.083,2.766-2.742,2.766-2.742.612-.612.925-.865,1.6-.865s.906.175,1.6.865l6.769,6.769a2.468,2.468,0,0,1,.865,1.558c-.021.966-.062.9-.808,1.558l-4.923,4.308a5.648,5.648,0,0,1-3.5.942c-4.973,0-13.974-4.033-21.9-11.962s-11.942-16.912-11.942-21.885a5.659,5.659,0,0,1,.923-3.5l4.308-4.923a2.046,2.046,0,0,1,1.538-.816,2.5,2.5,0,0,1,1.6.873Z" fill="#c9c9c9"/>
  </g>
</svg>
