<svg xmlns="http://www.w3.org/2000/svg" width="14" height="14" viewBox="0 0 14 14">
  <g id="Not_Responded" data-name="Not Responded" transform="translate(-1415 -864)">
    <path id="Icon_material-help-outline" data-name="Icon material-help-outline" d="M9.3,14.2h1.4V12.8H9.3ZM10,3a7,7,0,1,0,7,7A7,7,0,0,0,10,3Zm0,12.6A5.6,5.6,0,1,1,15.6,10,5.607,5.607,0,0,1,10,15.6Zm0-9.8A2.8,2.8,0,0,0,7.2,8.6H8.6a1.4,1.4,0,0,1,2.8,0c0,1.4-2.1,1.225-2.1,3.5h1.4c0-1.575,2.1-1.75,2.1-3.5A2.8,2.8,0,0,0,10,5.8Z" transform="translate(1412 861)" fill="#646464"/>
  </g>
</svg>
