<svg xmlns="http://www.w3.org/2000/svg" width="14" height="14" viewBox="0 0 14 14">
  <g id="ready_to_submit" data-name="ready to submit" transform="translate(-163.272 -93.536)">
    <path id="Path_111060" data-name="Path 111060" d="M241.627,143.953l-2.51-1.756a.21.21,0,0,0-.3.052l-.752,1.075a.21.21,0,0,0,.052.3l3.945,2.762a.21.21,0,0,0,.3-.055l5.761-8.237a.21.21,0,0,0-.078-.321,1.749,1.749,0,0,0-2.224.557l-3.89,5.566a.21.21,0,0,1-.3.053Z" transform="translate(-71.947 -42.401)" fill="#059cdf"/>
    <path id="Path_111061" data-name="Path 111061" d="M176.525,97.39a.21.21,0,0,0-.374-.013l-.89,1.26h0a.21.21,0,0,0-.025.193,5.177,5.177,0,0,1,.122,2.988,5.249,5.249,0,1,1-2.665-5.946.21.21,0,0,0,.279-.065l.756-1.079a.223.223,0,0,0-.071-.319,7,7,0,1,0,2.868,2.982Z" transform="translate(0)" fill="#059cdf"/>
  </g>
</svg>
