<svg xmlns="http://www.w3.org/2000/svg" xmlns:xlink="http://www.w3.org/1999/xlink" width="48" height="48" viewBox="0 0 48 48">
  <defs>
    <clipPath id="clip-Backward">
      <rect width="48" height="48"/>
    </clipPath>
  </defs>
  <g id="Backward" clip-path="url(#clip-Backward)">
    <rect width="48" height="48" fill="rgba(255,255,255,0)"/>
    <path id="Union_618" data-name="Union 618" d="M4.266,32A4.267,4.267,0,0,1,0,27.733V4.266A4.267,4.267,0,0,1,4.266,0H27.733A4.267,4.267,0,0,1,32,4.266V27.733A4.267,4.267,0,0,1,27.733,32ZM1.067,4.266V27.733a3.2,3.2,0,0,0,3.2,3.2H27.733a3.2,3.2,0,0,0,3.2-3.2V4.266a3.2,3.2,0,0,0-3.2-3.2H4.266A3.2,3.2,0,0,0,1.067,4.266ZM19.378,26.309l-9.261-9.28a1.535,1.535,0,0,1,.044-2.121l9.224-9.217a1.538,1.538,0,0,1,2.177,2.172L13.421,16l8.135,8.141a1.538,1.538,0,0,1-2.178,2.172Z" transform="translate(8 8)" fill="#059cdf"/>
  </g>
</svg>
