<svg xmlns="http://www.w3.org/2000/svg" xmlns:xlink="http://www.w3.org/1999/xlink" width="48" height="48" viewBox="0 0 48 48">
  <defs>
    <clipPath id="clip-Budget_Modification">
      <rect width="48" height="48"/>
    </clipPath>
  </defs>
  <g id="Budget_Modification" data-name="Budget Modification" clip-path="url(#clip-Budget_Modification)">
    <g id="Group_144138" data-name="Group 144138" transform="translate(19341.93 -22038.275)">
      <path id="Path_48057" data-name="Path 48057" d="M233.457,95.639a4.111,4.111,0,0,1-3.629,1.621h-.955l.382.36a.628.628,0,0,1,0,.946.856.856,0,0,1-1.05,0l-1.576-1.486c-.048-.045-.143-.135-.143-.225a.466.466,0,0,1-.048-.225c0-.045,0-.18.048-.225a.978.978,0,0,1,.143-.225l1.576-1.486a.722.722,0,0,1,1,0,.628.628,0,0,1,0,.946l-.382.36h.955a2.707,2.707,0,0,0,2.387-.946,2.258,2.258,0,0,0-.334-2.432.635.635,0,0,1,.239-.9.719.719,0,0,1,.955.225,3.19,3.19,0,0,1,.43,3.693Zm-4.249-7.521.382.586-.382-.135a.767.767,0,0,0-.907.45.706.706,0,0,0,.478.856l2.148.63c.048,0,.143.045.191.045h.238c.048,0,.048,0,.1-.045s.143-.09.191-.135a.972.972,0,0,0,.143-.225l.668-2.026a.706.706,0,0,0-.478-.856.767.767,0,0,0-.907.45l-.191.54-.478-.766a3.664,3.664,0,0,0-6.684,0,.635.635,0,0,0,.239.9.719.719,0,0,0,.955-.225,2.638,2.638,0,0,1,2.1-1.486,2.557,2.557,0,0,1,2.2,1.441Zm-4.822,7.836A2.707,2.707,0,0,1,222,95.009a2.258,2.258,0,0,1,.334-2.432l.573-.991.191.54a.717.717,0,0,0,.668.45.549.549,0,0,0,.239-.045.687.687,0,0,0,.478-.856l-.668-2.026v-.045c0-.045,0-.045-.048-.045a.045.045,0,0,0-.048-.045l-.238-.225c-.048,0-.048-.045-.1-.045h-.477l-2.148.63a.687.687,0,0,0-.478.856.743.743,0,0,0,.907.45l.382-.135-.478.81a3.577,3.577,0,0,0-.334,3.783,4.111,4.111,0,0,0,3.628,1.621.714.714,0,0,0,.716-.675.651.651,0,0,0-.717-.632ZM238.518,83.03V107.8a.678.678,0,0,1-.43.63.786.786,0,0,1-.764-.135l-1.671-1.4-1.671,1.4a.759.759,0,0,1-.955,0l-1.671-1.4-1.671,1.4a.759.759,0,0,1-.955,0l-1.671-1.4-1.671,1.4a.759.759,0,0,1-.955,0l-1.671-1.4-1.671,1.4a.759.759,0,0,1-.955,0l-1.671-1.4-1.671,1.4a.679.679,0,0,1-.764.09.584.584,0,0,1-.429-.586V76.275a.714.714,0,0,1,.716-.675h14.466c.048,0,.048,0,.1.045h.048c.048,0,.048.045.1.045h.048c.048.045.1.045.1.09l3.581,3.378c2.053,1.936,2.96,2.792,3.39,3.242a.7.7,0,0,1,.382.5c0,.045,0,.09,0,.135ZM231.356,77.9v4.458h4.727Zm5.73,28.416V83.705H230.64a.714.714,0,0,1-.716-.675V76.95H217.033v29.362l.955-.81a.724.724,0,0,1,.955,0l1.671,1.4,1.671-1.4a.759.759,0,0,1,.955,0l1.671,1.4,1.671-1.4a.759.759,0,0,1,.955,0l1.671,1.4,1.671-1.4a.759.759,0,0,1,.955,0l1.671,1.4,1.671-1.4a.759.759,0,0,1,.955,0Zm-2.865-4.593H219.9a.677.677,0,1,0,0,1.351h14.323a.677.677,0,1,0,0-1.351Z" transform="translate(-19544.531 21970.676)" fill="#666"/>
    </g>
  </g>
</svg>
