<svg xmlns="http://www.w3.org/2000/svg" xmlns:xlink="http://www.w3.org/1999/xlink" width="48" height="48" viewBox="0 0 48 48">
  <defs>
    <clipPath id="clip-Direct_Cost">
      <rect width="48" height="48"/>
    </clipPath>
  </defs>
  <g id="Direct_Cost" data-name="Direct Cost" clip-path="url(#clip-Direct_Cost)">
    <g id="Group_144136" data-name="Group 144136" transform="translate(19825.453 -21857)">
      <path id="Path_48055" data-name="Path 48055" d="M142.271,36.956a2.1,2.1,0,0,1-.5,1.679,3.369,3.369,0,0,1-2.17,1.013v.686a.52.52,0,0,1-1.041,0V39.64a3.041,3.041,0,0,1-2.669-2.207.52.52,0,0,1,1.01-.25,2.118,2.118,0,0,0,2.177,1.458h.1a2.567,2.567,0,0,0,1.806-.682,1.068,1.068,0,0,0,.25-.878c-.1-.822-.788-1.293-2.23-1.529-2.275-.371-2.8-1.516-2.848-2.411a2.567,2.567,0,0,1,2.176-2.587q.113-.025.229-.043v-.7a.52.52,0,0,1,1.041,0v.7a3.016,3.016,0,0,1,2.423,1.84.516.516,0,0,1-.278.677.522.522,0,0,1-.681-.277,2.032,2.032,0,0,0-1.945-1.245.539.539,0,0,1-.065,0,2.507,2.507,0,0,0-.493.061,1.546,1.546,0,0,0-1.366,1.528c.014.279.055,1.127,1.977,1.441.707.115,2.855.466,3.095,2.424ZM154.828,40.2l-4.868,5.7a.877.877,0,0,1-1.332,0l-1.948-2.28a11.416,11.416,0,0,1-7.362,2.586l-.2,0h-.2a11.007,11.007,0,0,1-9.546-5.119,9.112,9.112,0,0,1,.1-9.417,40.07,40.07,0,0,1,5.34-6.886,2.051,2.051,0,0,1,.8-3.923l-1.645-1.635a2.089,2.089,0,0,1,0-2.965,2.132,2.132,0,0,1,2.632-.281.278.278,0,0,0,.274.024.275.275,0,0,0,.176-.21,2.112,2.112,0,0,1,4.123,0,.275.275,0,0,0,.177.21.278.278,0,0,0,.274-.024,2.133,2.133,0,0,1,2.632.281,2.089,2.089,0,0,1,0,2.965l-1.645,1.635a2.051,2.051,0,0,1,.8,3.923c1.061,1.154,1.975,2.21,2.762,3.19a1.226,1.226,0,0,1,1.222-1.106h3.787a1.225,1.225,0,0,1,1.228,1.22V38.772h1.747a.867.867,0,0,1,.665,1.431ZM134.706,18.5l2.38,2.365h4.057l2.38-2.365a1.059,1.059,0,0,0,0-1.5,1.08,1.08,0,0,0-1.334-.142,1.34,1.34,0,0,1-2.029-.835,1.07,1.07,0,0,0-2.089,0,1.34,1.34,0,0,1-2.029.835,1.081,1.081,0,0,0-1.334.142,1.059,1.059,0,0,0,0,1.5Zm-.067,4.419a1.024,1.024,0,0,0,1.026,1.02h6.9a1.02,1.02,0,1,0,0-2.039h-6.9A1.024,1.024,0,0,0,134.638,22.916Zm11.367,19.917-2.247-2.63a.856.856,0,0,1-.127-.927.865.865,0,0,1,.793-.5h1.747V29.663a57.125,57.125,0,0,0-4-4.693h-6.114a41.1,41.1,0,0,0-5.681,7.214,8.009,8.009,0,0,0-.112,8.378,9.993,9.993,0,0,0,8.841,4.61h.018a10.4,10.4,0,0,0,6.883-2.339Zm3.161,2.4h0Zm4.635-5.425h-1.907a.519.519,0,0,1-.52-.517v-11.2a.189.189,0,0,0-.187-.186H147.4a.189.189,0,0,0-.187.186v11.2a.519.519,0,0,1-.52.517h-1.907l4.508,5.276Z" transform="translate(-19942.563 21850.854)" fill="#666"/>
    </g>
  </g>
</svg>
