<svg id="draft" xmlns="http://www.w3.org/2000/svg" width="14" height="13" viewBox="0 0 14 13">
  <path id="Icon_awesome-edit" data-name="Icon awesome-edit" d="M9.785,2.117l2.192,2.291a.256.256,0,0,1,0,.35L6.669,10.3l-2.256.262a.484.484,0,0,1-.523-.546l.25-2.357L9.45,2.117A.23.23,0,0,1,9.785,2.117Zm3.938-.582L12.537.3A.922.922,0,0,0,11.2.3l-.86.9a.256.256,0,0,0,0,.35l2.192,2.291a.23.23,0,0,0,.335,0l.86-.9a1.025,1.025,0,0,0,0-1.4ZM9.333,8.8v2.585H1.556V3.255H7.141a.292.292,0,0,0,.207-.089L8.32,2.15a.307.307,0,0,0-.207-.521H1.167A1.194,1.194,0,0,0,0,2.849v8.939a1.194,1.194,0,0,0,1.167,1.219H9.722a1.194,1.194,0,0,0,1.167-1.219V7.781a.291.291,0,0,0-.5-.216L9.418,8.581A.32.32,0,0,0,9.333,8.8Z" transform="translate(0 -0.007)" fill="#bfb80f"/>
</svg>
