<svg id="awarded" xmlns="http://www.w3.org/2000/svg" width="48" height="47.996" viewBox="0 0 48 47.996">
  <path id="Path_111073" data-name="Path 111073" d="M153.464,43.659a4.676,4.676,0,0,0-.316-2.319,2.559,2.559,0,0,0-2.276-1.272h-5.759v-.521a1.971,1.971,0,0,0-2.018-1.879H117.469c-.564,0-1.127-.016-1.7,0a1.979,1.979,0,0,0-1.932,2.056v.349h-4.2c-.6,0-1.213-.043-1.809.011a2.527,2.527,0,0,0-2.346,2.5c-.005.188,0,.37,0,.558V49.1a15.8,15.8,0,0,0,.575,5.7,9.574,9.574,0,0,0,2.925,4.144,9.812,9.812,0,0,0,4.863,2.115,8.78,8.78,0,0,0,.918.086,14.915,14.915,0,0,0,.7,1.664,15.609,15.609,0,0,0,10.58,8.32V75.4h-5.073c-.118,0-.236-.005-.359,0a1.947,1.947,0,0,0-1.825,1.407q-.99,2.906-1.943,5.824a2,2,0,0,0,.853,2.329,2.158,2.158,0,0,0,1.138.279h21.476a1.987,1.987,0,0,0,1.825-2.544c-.069-.241-.161-.478-.236-.714-.4-1.2-.8-2.394-1.2-3.591-.156-.462-.306-.923-.462-1.385-.027-.086-.054-.177-.086-.263A1.93,1.93,0,0,0,139,75.537a4.627,4.627,0,0,0-1.61-.123h-4.482V71.125a15.846,15.846,0,0,0,6.372-3.076,15.669,15.669,0,0,0,4.912-6.9,9.694,9.694,0,0,0,8.105-5.024,9.86,9.86,0,0,0,1.164-4.605V43.659ZM112.616,57.432a7.593,7.593,0,0,1-1.138-.633c-.107-.07-.214-.15-.316-.226h-.005c.032.027.075.07.108.091-.081-.054-.3-.225-.108-.091-.016-.016-.027-.021-.027-.027a6.8,6.8,0,0,1-.542-.5c-.172-.177-.338-.354-.5-.547a.589.589,0,0,0-.049-.059c-.064-.086-.123-.172-.182-.258a8.2,8.2,0,0,1-.649-1.159c.027.07.054.14.086.209l-.161-.386c.027.059.054.118.075.177a8.319,8.319,0,0,1-.446-1.637,33.01,33.01,0,0,1-.048-3.489V43.734c0-.145-.005-.3-.01-.445h5.142V55.608a17.178,17.178,0,0,0,.139,2.227,8.711,8.711,0,0,1-1.368-.4Zm25.442-5.743c-.166.172-.333.338-.5.51q-1.578,1.594-3.162,3.194c.01.07.021.14.037.209q.4,2.415.805,4.825a.834.834,0,0,1-.29.848.815.815,0,0,1-.9.064c-.2-.108-.413-.215-.617-.322-1.3-.682-2.614-1.369-3.918-2.05-.076.037-.145.075-.22.113q-2.191,1.127-4.38,2.26a.815.815,0,0,1-1.181-.907c.037-.236.081-.467.118-.7.247-1.444.494-2.893.741-4.337l-.209-.209-3.494-3.494a.812.812,0,0,1,.354-1.347c.236-.032.467-.07.7-.1,1.5-.22,3-.435,4.5-.655.054-.107.1-.209.15-.311q1.087-2.222,2.174-4.439a.708.708,0,0,1,.43-.354l.048-.016a.217.217,0,0,0,.027-.005c.011,0,.016-.005.027-.005a.627.627,0,0,1,.107-.011h.108a.684.684,0,0,1,.107.011c.016.005.027.005.043.01h.021c.016.006.027.006.043.011a.706.706,0,0,1,.43.354c.107.215.215.429.317.644.682,1.38,1.363,2.754,2.051,4.133l.354.048c1.6.226,3.2.456,4.809.682a.818.818,0,0,1,.359,1.353Zm12.136.709a8.09,8.09,0,0,1-.445,1.626,7.592,7.592,0,0,1-.633,1.138c-.07.107-.15.215-.226.317a.73.73,0,0,0,.086-.1c-.059.086-.22.285-.086.1-.016.016-.021.027-.026.032q-.234.282-.5.548c-.177.177-.354.338-.542.5l-.064.048c-.086.064-.172.123-.257.183a8.768,8.768,0,0,1-1.159.649c.069-.027.139-.054.209-.086l-.386.161c.059-.027.118-.048.177-.075a8.127,8.127,0,0,1-1.38.4,23.035,23.035,0,0,0,.15-2.721V43.289h5.137v7.477C150.243,51.313,150.249,51.856,150.195,52.4Z" transform="translate(-105.469 -37.661)" fill="#ec711c"/>
  <rect id="Rectangle_154719" data-name="Rectangle 154719" width="47.996" height="47.996" fill="none"/>
</svg>
