<svg xmlns="http://www.w3.org/2000/svg" width="48" height="48" viewBox="0 0 48 48">
  <g id="building-gray" transform="translate(-0.5 0)">
    <path id="Path_4022" data-name="Path 4022" d="M47.094,45.187H42.31V16.866l1.456.6a1.406,1.406,0,1,0,1.069-2.6L42.31,13.825v-1.84l1.456.6a1.406,1.406,0,1,0,1.069-2.6L20.8.105a1.406,1.406,0,1,0-1.069,2.6l1.493.614V5.16L20.8,4.986a1.406,1.406,0,0,0-1.069,2.6l1.493.614V11L9.28,17.182A4.737,4.737,0,0,0,6.71,21.405V45.187h-4.8a1.406,1.406,0,0,0,0,2.813H47.094a1.406,1.406,0,0,0,0-2.813ZM24.041,4.477,39.5,10.829v1.84L24.041,6.316ZM16.782,45.187V40.714a1.406,1.406,0,1,0-2.813,0v4.473H9.523v-8.7h5.853a1.406,1.406,0,0,0,0-2.813H9.523v-2.35h5.853a1.406,1.406,0,0,0,0-2.813H9.523V26.086h5.853a1.406,1.406,0,0,0,0-2.813H9.523V21.405a1.935,1.935,0,0,1,1.049-1.725l10.657-5.512V45.187Zm19.206,0V40.714a1.406,1.406,0,1,0-2.813,0v4.473H30.363V40.714a1.406,1.406,0,0,0-2.813,0v4.473H24.041V9.357L39.5,15.71V45.187Zm0,0" transform="translate(0 0)" fill="#a1a0a0"/>
    <path id="Path_4023" data-name="Path 4023" d="M289.767,252.149a.966.966,0,0,0,.966-.966v-1.959a.966.966,0,0,0-1.933,0v1.959A.966.966,0,0,0,289.767,252.149Zm0,0" transform="translate(-260.746 -224.01)" fill="#a1a0a0"/>
    <path id="Path_4024" data-name="Path 4024" d="M350.033,252.149a.966.966,0,0,0,.966-.966v-1.959a.966.966,0,1,0-1.932,0v1.959A.966.966,0,0,0,350.033,252.149Zm0,0" transform="translate(-315.252 -224.01)" fill="#a1a0a0"/>
    <path id="Path_4025" data-name="Path 4025" d="M289.97,328.758a.966.966,0,0,0-.966.966v1.959a.966.966,0,0,0,1.933,0v-1.959A.966.966,0,0,0,289.97,328.758Zm0,0" transform="translate(-260.93 -296.647)" fill="#a1a0a0"/>
    <path id="Path_4026" data-name="Path 4026" d="M350.232,328.758a.966.966,0,0,0-.966.966v1.959a.966.966,0,0,0,1.933,0v-1.959A.966.966,0,0,0,350.232,328.758Zm0,0" transform="translate(-315.432 -296.647)" fill="#a1a0a0"/>
    <path id="Path_4027" data-name="Path 4027" d="M289.869,171.919a.966.966,0,0,0,.966-.966v-1.959a.966.966,0,1,0-1.932,0v1.959A.966.966,0,0,0,289.869,171.919Zm0,0" transform="translate(-260.838 -151.616)" fill="#a1a0a0"/>
    <path id="Path_4028" data-name="Path 4028" d="M350.134,171.919a.967.967,0,0,0,.966-.966v-1.959a.966.966,0,0,0-1.933,0v1.959A.966.966,0,0,0,350.134,171.919Zm0,0" transform="translate(-315.344 -151.616)" fill="#a1a0a0"/>
  </g>
</svg>
