<svg id="draft" xmlns="http://www.w3.org/2000/svg" width="47.998" height="48" viewBox="0 0 47.998 48">
  <path id="Union_610" data-name="Union 610" d="M0,45.469V2.522A2.527,2.527,0,0,1,2.524,0H24V10.1a1.259,1.259,0,0,0,1.266,1.261H35.374v4.331L21.55,29.514l-2.971,11.91,11.91-2.976,4.879-4.889v11.91a2.524,2.524,0,0,1-2.528,2.517L2.524,48A2.531,2.531,0,0,1,0,45.469Zm5.052-8.844A1.263,1.263,0,0,0,6.318,37.89H16.426a1.263,1.263,0,0,0,0-2.526H6.318A1.262,1.262,0,0,0,5.052,36.625Zm0-7.574a1.262,1.262,0,0,0,1.266,1.261H20.21a1.266,1.266,0,0,0,0-2.531H6.318A1.273,1.273,0,0,0,5.052,29.05Zm0-6.318A1.269,1.269,0,0,0,6.318,24H24a1.266,1.266,0,1,0,0-2.531H6.318A1.266,1.266,0,0,0,5.052,22.732Zm0-6.313a1.269,1.269,0,0,0,1.266,1.266H27.793a1.266,1.266,0,0,0,0-2.531H6.318A1.266,1.266,0,0,0,5.052,16.419Zm0-6.318a1.259,1.259,0,0,0,1.266,1.261H20.21a1.258,1.258,0,1,0,0-2.517H6.318A1.261,1.261,0,0,0,5.052,10.1ZM23.836,30.808,40.8,13.831a3.784,3.784,0,0,1,5.357,0h0a3.786,3.786,0,0,1,0,5.362L29.193,36.161l-7.145,1.79Zm2.7-21.963V1.326l7.654,7.518Z" transform="translate(0.003 0.005)" fill="#333"/>
  <rect id="Rectangle_154714" data-name="Rectangle 154714" width="47.998" height="47.998" fill="none"/>
</svg>
