<svg xmlns="http://www.w3.org/2000/svg" width="33.57" height="48" viewBox="0 0 33.57 48">
  <g id="loading" transform="translate(-24.319 -12.314)">
    <path id="Path_22537" data-name="Path 22537" d="M39.468,32.055l.032.016.031.018a5.459,5.459,0,0,0,1.574.636,5.428,5.428,0,0,0,1.569-.636l.031-.018.032-.016c2.723-1.363,5.229-5.239,6.84-9.42H32.628C34.239,26.816,36.746,30.693,39.468,32.055Zm-6.6,22.879H49.323l-8.257-6.289Zm6.924-13.225a1.311,1.311,0,1,0,1.31-1.278A1.293,1.293,0,0,0,39.793,41.709Zm2.621,4.1a1.311,1.311,0,1,0-1.31,1.278A1.293,1.293,0,0,0,42.414,45.814ZM24.36,13.357a2.71,2.71,0,0,0-.041.387,2.643,2.643,0,0,0,.041.4v2.431h2.678c.875,7.194,5.123,16.114,10.639,18.875v1.718c-5.516,2.76-9.764,11.682-10.639,18.877H24.36v4.265H57.889V56.049H55.17c-.874-7.194-5.123-16.114-10.639-18.877V35.454c5.516-2.761,9.765-11.68,10.639-18.875h2.719V12.314H24.36ZM52.534,16.58c-.871,6.36-4.646,14.33-9.2,16.608l-1.42.711v4.829l1.42.71c4.553,2.28,8.328,10.252,9.2,16.612H29.673c.871-6.361,4.645-14.333,9.2-16.61l1.42-.711V33.9l-1.42-.711c-4.552-2.277-8.327-10.249-9.2-16.608Z" transform="translate(0 0)" fill="#fff"/>
  </g>
</svg>
