<svg xmlns="http://www.w3.org/2000/svg" width="48" height="47.998" viewBox="0 0 48 47.998">
  <g id="questions-bordered" transform="translate(11389 -3097.001)">
    <path id="Union_173" data-name="Union 173" d="M0,24A24,24,0,1,1,24,48,24,24,0,0,1,0,24Zm3.842,0A20.159,20.159,0,1,0,24,3.84,20.159,20.159,0,0,0,3.842,24ZM23.264,36.718c-.142-.029-.287-.053-.427-.092a2.66,2.66,0,1,1,1.152.043l-.237.048Zm-.812-9.072a1.973,1.973,0,0,1-1.09-1.482,3.4,3.4,0,0,1,.576-2.545,6.962,6.962,0,0,1,1.507-1.593c.629-.513,1.277-1,1.92-1.516A5.071,5.071,0,0,0,26.679,19a2.817,2.817,0,0,0-.335-3.119,2.606,2.606,0,0,0-1.441-.8,4.623,4.623,0,0,0-2.237.039,2.726,2.726,0,0,0-1.733,1.441c-.224.422-.422.853-.632,1.282a3.152,3.152,0,0,1-.619.868,2.147,2.147,0,0,1-1.626.523,2.262,2.262,0,0,1-1.03-.277,1.779,1.779,0,0,1-.959-1.586,4.646,4.646,0,0,1,.959-2.936,7.4,7.4,0,0,1,2.881-2.333,8.787,8.787,0,0,1,2.731-.788l.538-.053,1.048.01.518.048a10.13,10.13,0,0,1,3.7.959,6.17,6.17,0,0,1,2.552,2.186,5.63,5.63,0,0,1,.87,2.485,5.463,5.463,0,0,1-.183,2.285A5.92,5.92,0,0,1,30.29,21.6a15.8,15.8,0,0,1-2.4,1.972c-.48.333-.907.677-1.359,1.024a2.883,2.883,0,0,0-.887,1.28c-.1.26-.207.518-.306.778a1.794,1.794,0,0,1-1.67,1.186,2.33,2.33,0,0,1-1.214-.193Z" transform="translate(-11389 3097.001)" fill="#6d6d6d"/>
  </g>
</svg>
