<svg xmlns="http://www.w3.org/2000/svg" width="48" height="48" viewBox="0 0 48 48">
  <g id="question-gray-bg" transform="translate(-224.7 -519.893)">
    <ellipse id="Ellipse_16917" data-name="Ellipse 16917" cx="23.204" cy="23.204" rx="23.204" ry="23.204" transform="matrix(0.999, -0.035, 0.035, 0.999, 224.7, 521.512)" fill="#a7a7a7"/>
    <g id="faq" transform="translate(237.454 532.629)">
      <path id="Path_48099" data-name="Path 48099" d="M18.78,0H4.221A4.226,4.226,0,0,0,0,4.221V18.78A4.226,4.226,0,0,0,4.221,23H18.78A4.226,4.226,0,0,0,23,18.78V4.221A4.226,4.226,0,0,0,18.78,0Zm3.015,18.78h0A3.019,3.019,0,0,1,18.78,21.8H4.221A3.019,3.019,0,0,1,1.206,18.78V4.221A3.019,3.019,0,0,1,4.221,1.206H18.78a3.019,3.019,0,0,1,3.015,3.015Zm-5.944-11.2a5.026,5.026,0,0,1-1.8,3.859l-.635.533a4.813,4.813,0,0,0-1.722,3.695.6.6,0,1,1-1.206,0,6.017,6.017,0,0,1,2.153-4.619l.635-.533h0a3.824,3.824,0,0,0,1.368-2.935,2.7,2.7,0,0,0-2.692-2.692h-.9A2.7,2.7,0,0,0,8.356,7.577a.6.6,0,1,1-1.206,0,3.9,3.9,0,0,1,3.9-3.9h.9a3.9,3.9,0,0,1,3.9,3.9ZM11.963,18.124h0a.872.872,0,1,1-.872-.872.872.872,0,0,1,.872.872Z" transform="translate(0 0)" fill="#fff"/>
    </g>
  </g>
</svg>
