<svg xmlns="http://www.w3.org/2000/svg" width="56.514" height="56.538" viewBox="0 0 56.514 56.538">
  <g id="round-check" transform="translate(-95.248 -2.198) rotate(-8)">
    <path id="Path_111109" data-name="Path 111109" d="M141.573,42.577a2.187,2.187,0,1,0-4.285.874,19.667,19.667,0,1,1-9.438-13.11,2.185,2.185,0,0,0,2.185-3.785,24,24,0,1,0,11.536,16.021Z" transform="translate(0 0)" fill="#33a1dd" stroke="#33a1dd" stroke-width="2"/>
    <path id="Path_111110" data-name="Path 111110" d="M236.494,132.365a2.008,2.008,0,1,0-2.839,2.839l7.53,7.53a2.008,2.008,0,0,0,2.839,0l17.067-17.067h0a2.008,2.008,0,1,0-2.839-2.839L242.6,138.475Z" transform="translate(-123.142 -88.918)" fill="#33a1dd" stroke="#33a1dd" stroke-width="2"/>
  </g>
</svg>
