<svg id="Shifts" xmlns="http://www.w3.org/2000/svg" width="48.797" height="48" viewBox="0 0 48.797 48">
  <g id="Group_19" data-name="Group 19" transform="translate(31.167 22.175)">
    <g id="Group_18" data-name="Group 18" transform="translate(0 0)">
      <path id="Path_126" data-name="Path 126" d="M339.342,241a7.342,7.342,0,1,0,7.342,7.342A7.342,7.342,0,0,0,339.342,241Z" transform="translate(-332 -241)" fill="#ec711c"/>
    </g>
  </g>
  <g id="Group_21" data-name="Group 21" transform="translate(2.938)">
    <g id="Group_20" data-name="Group 20">
      <path id="Path_127" data-name="Path 127" d="M37.342,0A7.44,7.44,0,0,0,30,7.445a7.346,7.346,0,1,0,14.693,0A7.44,7.44,0,0,0,37.342,0Z" transform="translate(-30)" fill="#ec711c"/>
    </g>
  </g>
  <g id="Group_23" data-name="Group 23" transform="translate(22.252)">
    <g id="Group_22" data-name="Group 22">
      <path id="Path_128" data-name="Path 128" d="M264.462,12.685a1.468,1.468,0,0,0-1.322-.833h-1.554A13.327,13.327,0,0,0,248.445,0h-5.976a1.468,1.468,0,0,0,0,2.937,10.487,10.487,0,0,1,10.279,8.915h-1.364a1.468,1.468,0,0,0-1.148,2.388l5.874,7.342a1.468,1.468,0,0,0,2.3,0l5.874-7.342a1.469,1.469,0,0,0,.184-1.554Z" transform="translate(-241)" fill="#ec711c"/>
    </g>
  </g>
  <g id="Group_25" data-name="Group 25" transform="translate(2.942 25.894)">
    <g id="Group_24" data-name="Group 24" transform="translate(0 0)">
      <path id="Path_129" data-name="Path 129" d="M52.136,305.456a10.487,10.487,0,0,1-10.279-8.915h1.364a1.468,1.468,0,0,0,1.148-2.388L38.5,286.812a1.521,1.521,0,0,0-2.3,0l-5.874,7.342a1.468,1.468,0,0,0,1.141,2.388h1.551A13.327,13.327,0,0,0,46.16,308.394h5.975a1.468,1.468,0,0,0,0-2.937Z" transform="translate(-30.003 -286.289)" fill="#ec711c"/>
    </g>
  </g>
  <g id="Group_27" data-name="Group 27" transform="translate(28.228 36.149)">
    <g id="Group_26" data-name="Group 26" transform="translate(0)">
      <path id="Path_130" data-name="Path 130" d="M319.461,391a10.229,10.229,0,0,1-14.35,0,10.471,10.471,0,0,0-3.11,7.445v2.937a1.468,1.468,0,0,0,1.468,1.469H321.1a1.468,1.468,0,0,0,1.468-1.469v-2.937A10.47,10.47,0,0,0,319.461,391Z" transform="translate(-302 -391)" fill="#ec711c"/>
    </g>
  </g>
  <g id="Group_29" data-name="Group 29" transform="translate(0 13.963)">
    <g id="Group_28" data-name="Group 28">
      <path id="Path_131" data-name="Path 131" d="M17.461,151A10.229,10.229,0,0,1,3.11,151,10.244,10.244,0,0,0,0,158.342v2.937a1.468,1.468,0,0,0,1.468,1.468H19.1a1.468,1.468,0,0,0,1.468-1.468v-2.937A10.244,10.244,0,0,0,17.461,151Z" transform="translate(0 -151)" fill="#ec711c"/>
    </g>
  </g>
</svg>
