<svg xmlns="http://www.w3.org/2000/svg" width="36.008" height="48" viewBox="0 0 36.008 48">
  <g id="upload-icon" transform="translate(-6 -4)">
    <path id="upload" d="M76.85,11.9,64.4,1.5A7.2,7.2,0,0,0,60.233,0H45.879A3.178,3.178,0,0,0,42.7,3.173c0,.419.022,41.9.022,42.12a2.559,2.559,0,0,0,2.657,2.692L75.664,48a3.1,3.1,0,0,0,3.047-3.209V16.065A5.847,5.847,0,0,0,76.85,11.9ZM60.233.134h0ZM68.887,30.8a.934.934,0,0,1-.871.476H63.761v10.3a1.216,1.216,0,0,1-1.171,1.245H58.936a1.182,1.182,0,0,1-1.128-1.245v-10.3h-4.3a.934.934,0,0,1-.871-.476.961.961,0,0,1,.1-1l7.175-10.387a1,1,0,0,1,1.691,0L68.783,29.8A.962.962,0,0,1,68.887,30.8ZM64.152,15.3c.061,0,.124.006.188.006h0Q64.244,15.3,64.152,15.3Zm.188-.129a2.094,2.094,0,0,1-2.168-2.206V4.156L75.928,15.169Z" transform="translate(-36.703 4)" fill="#ec711c"/>
  </g>
</svg>
