<svg id="active" xmlns="http://www.w3.org/2000/svg" width="14" height="14" viewBox="0 0 14 14">
  <path id="Union_611" data-name="Union 611" d="M10.818,9.26l-.829-.188a.205.205,0,0,1-.159-.209l.019-.433a2.429,2.429,0,0,1-.405-.284l-.4.163a.2.2,0,0,1-.249-.08l-.451-.722a.206.206,0,0,1,.033-.262l.315-.292a2.407,2.407,0,0,1-.082-.491l-.4-.168a.2.2,0,0,1-.12-.234l.186-.836a.2.2,0,0,1,.208-.16l.43.019A2.468,2.468,0,0,1,9.2,4.672l-.161-.4a.2.2,0,0,1,.079-.251l.714-.458a.2.2,0,0,1,.26.033l.293.32a2.275,2.275,0,0,1,.487-.086l.167-.4a.2.2,0,0,1,.233-.121L12.1,3.5a.2.2,0,0,1,.161.21l-.019.433a2.517,2.517,0,0,1,.405.287l.4-.166a.2.2,0,0,1,.249.083l.455.722a.207.207,0,0,1-.033.262L13.4,5.62a2.572,2.572,0,0,1,.085.491l.391.168a.2.2,0,0,1,.121.234l-.183.836a.2.2,0,0,1-.211.163l-.427-.022a2.432,2.432,0,0,1-.284.411l.161.4a.2.2,0,0,1-.079.251l-.717.458a.2.2,0,0,1-.26-.033l-.29-.32a2.1,2.1,0,0,1-.487.083l-.167.4a.205.205,0,0,1-.189.127A.259.259,0,0,1,10.818,9.26ZM9.98,6.045a1.092,1.092,0,1,0,2.129.483v0a1.091,1.091,0,1,0-2.129-.48ZM3.566,8.154a.208.208,0,0,1-.2-.171l-.118-.678a3.253,3.253,0,0,1-.758-.314l-.561.4a.206.206,0,0,1-.262-.025L.788,6.478a.21.21,0,0,1-.024-.265l.391-.565a3.41,3.41,0,0,1-.312-.761L.17,4.768a.207.207,0,0,1-.17-.2V3.315a.209.209,0,0,1,.17-.2L.84,2.993a3.519,3.519,0,0,1,.315-.764L.763,1.664A.21.21,0,0,1,.788,1.4L1.664.516A.206.206,0,0,1,1.927.492l.561.394A3.34,3.34,0,0,1,3.246.572l.118-.678a.208.208,0,0,1,.2-.171H4.8a.206.206,0,0,1,.2.171l.118.678A3.355,3.355,0,0,1,5.88.886L6.441.492A.206.206,0,0,1,6.7.516l.878.883a.206.206,0,0,1,.022.265l-.391.565a3.465,3.465,0,0,1,.315.764l.67.119a.209.209,0,0,1,.17.2V4.564a.206.206,0,0,1-.17.2l-.67.119a3.488,3.488,0,0,1-.315.761l.391.565a.206.206,0,0,1-.022.265L6.7,7.363a.2.2,0,0,1-.263.022L5.88,6.991a3.275,3.275,0,0,1-.755.314l-.118.678a.206.206,0,0,1-.2.171ZM2.5,3.939a1.687,1.687,0,1,0,1.686-1.7A1.7,1.7,0,0,0,2.5,3.939ZM9.816,3.3l-.525-.119a.129.129,0,0,1-.1-.133L9.2,2.778a1.578,1.578,0,0,1-.256-.18l-.253.1a.127.127,0,0,1-.158-.051L8.25,2.193a.131.131,0,0,1,.02-.166l.2-.185a1.506,1.506,0,0,1-.052-.311l-.251-.107a.129.129,0,0,1-.076-.148L8.208.748a.124.124,0,0,1,.132-.1l.272.012A1.543,1.543,0,0,1,8.792.4l-.1-.253a.128.128,0,0,1,.05-.159L9.192-.3a.127.127,0,0,1,.165.021l.185.2A1.442,1.442,0,0,1,9.85-.134l.106-.251A.129.129,0,0,1,10.1-.462l.523.117a.13.13,0,0,1,.1.133l-.012.274a1.636,1.636,0,0,1,.256.182l.251-.1a.13.13,0,0,1,.158.052l.288.457a.131.131,0,0,1-.021.166l-.2.185a1.614,1.614,0,0,1,.054.311l.248.107a.129.129,0,0,1,.076.148l-.116.529a.128.128,0,0,1-.133.1l-.27-.014a1.543,1.543,0,0,1-.18.26l.1.253a.128.128,0,0,1-.05.159l-.454.29a.126.126,0,0,1-.165-.021l-.183-.2a1.3,1.3,0,0,1-.309.053l-.105.253a.13.13,0,0,1-.12.08A.144.144,0,0,1,9.816,3.3Zm-.53-2.035a.691.691,0,1,0,1.348.305v0a.691.691,0,1,0-1.348-.3Z" transform="translate(0 2.465)" fill="#30840a"/>
  <rect id="Rectangle_154715" data-name="Rectangle 154715" width="14" height="14" fill="none"/>
</svg>
