<svg xmlns="http://www.w3.org/2000/svg" xmlns:xlink="http://www.w3.org/1999/xlink" width="48" height="48" viewBox="0 0 48 48">
  <defs>
    <clipPath id="clip-Awarded">
      <rect width="48" height="48"/>
    </clipPath>
  </defs>
  <g id="Awarded" clip-path="url(#clip-Awarded)">
    <rect width="48" height="48" fill="rgba(255,255,255,0)"/>
    <path id="Path_111148" data-name="Path 111148" d="M147.47,42.91a4.091,4.091,0,0,0-.277-2.029,2.24,2.24,0,0,0-1.992-1.113h-5.04v-.456a1.725,1.725,0,0,0-1.766-1.644H115.971c-.493,0-.987-.014-1.485,0a1.732,1.732,0,0,0-1.691,1.8v.305h-3.678c-.526,0-1.062-.038-1.583.009a2.211,2.211,0,0,0-2.053,2.189c0,.164,0,.324,0,.489v5.209a13.827,13.827,0,0,0,.5,4.988,8.379,8.379,0,0,0,2.56,3.626,8.587,8.587,0,0,0,4.256,1.851,7.688,7.688,0,0,0,.8.075,13.057,13.057,0,0,0,.61,1.456,13.659,13.659,0,0,0,9.259,7.281v3.744h-4.439c-.1,0-.207,0-.315,0a1.7,1.7,0,0,0-1.6,1.231q-.866,2.543-1.7,5.1a1.752,1.752,0,0,0,.746,2.039,1.888,1.888,0,0,0,1,.244h18.794a1.739,1.739,0,0,0,1.6-2.227c-.061-.211-.141-.418-.207-.625-.347-1.047-.7-2.095-1.047-3.142-.136-.4-.268-.808-.4-1.212-.023-.075-.047-.155-.075-.23a1.689,1.689,0,0,0-1.005-1.057,4.049,4.049,0,0,0-1.409-.108h-3.923V66.945a13.867,13.867,0,0,0,5.576-2.691,13.712,13.712,0,0,0,4.3-6.036,8.484,8.484,0,0,0,7.093-4.4,8.628,8.628,0,0,0,1.019-4.03V42.91ZM111.725,54.963a6.643,6.643,0,0,1-1-.554c-.094-.061-.188-.131-.277-.2h0c.028.024.066.061.094.08-.071-.047-.259-.2-.094-.08-.014-.014-.023-.019-.023-.023a5.962,5.962,0,0,1-.475-.437c-.15-.155-.3-.31-.437-.479a.512.512,0,0,0-.042-.052c-.056-.075-.108-.15-.16-.226a7.181,7.181,0,0,1-.568-1.014c.023.061.047.122.075.183l-.141-.338c.024.052.047.1.066.155a7.278,7.278,0,0,1-.39-1.433,28.885,28.885,0,0,1-.042-3.053V42.976c0-.127,0-.258-.009-.39h4.5v10.78a15.034,15.034,0,0,0,.122,1.949,7.624,7.624,0,0,1-1.2-.352Zm22.265-5.026c-.145.15-.291.3-.437.446q-1.381,1.4-2.767,2.795c.009.061.019.122.033.183q.353,2.113.7,4.223a.73.73,0,0,1-.254.742.713.713,0,0,1-.784.056l-.54-.282-3.429-1.794c-.066.033-.127.066-.193.1q-1.917.987-3.833,1.978a.713.713,0,0,1-1.033-.794c.033-.207.071-.409.1-.615.216-1.264.432-2.532.648-3.8l-.183-.183-3.058-3.058a.711.711,0,0,1,.31-1.179c.207-.028.409-.061.615-.089,1.315-.193,2.626-.38,3.941-.573.047-.094.089-.183.131-.272q.951-1.945,1.9-3.885a.62.62,0,0,1,.376-.31l.042-.014a.189.189,0,0,0,.023,0c.01,0,.014,0,.024,0a.548.548,0,0,1,.094-.01h.094a.6.6,0,0,1,.094.01c.014,0,.024,0,.038.009h.019c.014,0,.024,0,.037.01a.618.618,0,0,1,.376.31c.094.188.188.376.277.564.6,1.207,1.193,2.41,1.794,3.617l.31.042c1.4.2,2.8.4,4.208.6a.716.716,0,0,1,.315,1.184Zm10.62.62a7.083,7.083,0,0,1-.39,1.423,6.641,6.641,0,0,1-.554,1c-.062.094-.131.188-.2.277a.638.638,0,0,0,.075-.084c-.052.075-.193.249-.075.084-.014.014-.018.024-.023.028q-.2.247-.437.479c-.155.155-.31.3-.475.437l-.056.042c-.075.056-.15.108-.225.16a7.675,7.675,0,0,1-1.014.568c.061-.023.122-.047.183-.075l-.338.141c.052-.024.1-.042.155-.066a7.109,7.109,0,0,1-1.207.352,20.158,20.158,0,0,0,.131-2.381V42.586h4.5v6.543C144.652,49.608,144.657,50.083,144.61,50.557Z" transform="translate(-102.475 -34.661)" fill="#fff"/>
  </g>
</svg>
