<svg id="awarded" xmlns="http://www.w3.org/2000/svg" width="14.001" height="14" viewBox="0 0 14.001 14">
  <path id="Path_111073" data-name="Path 111073" d="M119.474,39.411a1.364,1.364,0,0,0-.092-.676.747.747,0,0,0-.664-.371h-1.68v-.152a.575.575,0,0,0-.589-.548h-7.475c-.164,0-.329,0-.495,0a.577.577,0,0,0-.564.6v.1H106.69c-.175,0-.354-.013-.528,0a.737.737,0,0,0-.684.73c0,.055,0,.108,0,.163V41a4.609,4.609,0,0,0,.168,1.663,2.793,2.793,0,0,0,.853,1.209,2.862,2.862,0,0,0,1.419.617,2.562,2.562,0,0,0,.268.025,4.353,4.353,0,0,0,.2.485,4.553,4.553,0,0,0,3.086,2.427v1.248h-1.48c-.034,0-.069,0-.1,0a.568.568,0,0,0-.532.41q-.289.848-.567,1.7a.584.584,0,0,0,.249.68.629.629,0,0,0,.332.081h6.265a.58.58,0,0,0,.532-.742c-.02-.07-.047-.139-.069-.208-.116-.349-.233-.7-.349-1.047-.045-.135-.089-.269-.135-.4-.008-.025-.016-.052-.025-.077a.563.563,0,0,0-.335-.352,1.35,1.35,0,0,0-.47-.036h-1.307V47.423a4.622,4.622,0,0,0,1.859-.9,4.571,4.571,0,0,0,1.433-2.012,2.828,2.828,0,0,0,2.364-1.466,2.876,2.876,0,0,0,.34-1.343V39.411Zm-11.915,4.018a2.215,2.215,0,0,1-.332-.185c-.031-.02-.062-.044-.092-.066h0c.009.008.022.02.031.027-.024-.016-.086-.066-.031-.027,0,0-.008-.006-.008-.008a1.987,1.987,0,0,1-.158-.146c-.05-.052-.1-.1-.146-.16a.171.171,0,0,0-.014-.017c-.019-.025-.036-.05-.053-.075a2.393,2.393,0,0,1-.189-.338c.008.02.016.041.025.061l-.047-.113c.008.017.016.034.022.052a2.427,2.427,0,0,1-.13-.478,9.63,9.63,0,0,1-.014-1.018V39.433c0-.042,0-.086,0-.13h1.5V42.9a5.012,5.012,0,0,0,.041.65,2.541,2.541,0,0,1-.4-.117Zm7.422-1.675-.146.149q-.46.465-.922.932c0,.02.006.041.011.061l.235,1.408a.243.243,0,0,1-.085.247.238.238,0,0,1-.261.019l-.18-.094-1.143-.6-.064.033-1.278.659a.238.238,0,0,1-.344-.265c.011-.069.024-.136.034-.205l.216-1.265-.061-.061-1.019-1.019a.237.237,0,0,1,.1-.393l.205-.03,1.314-.191c.016-.031.03-.061.044-.091l.634-1.295a.207.207,0,0,1,.125-.1l.014,0,.008,0,.008,0a.183.183,0,0,1,.031,0h.031a.2.2,0,0,1,.031,0l.013,0h.006l.012,0a.206.206,0,0,1,.125.1c.031.063.063.125.092.188.2.4.4.8.6,1.206l.1.014,1.4.2a.239.239,0,0,1,.1.395Zm3.54.207a2.36,2.36,0,0,1-.13.474,2.214,2.214,0,0,1-.185.332c-.021.031-.044.063-.066.092a.212.212,0,0,0,.025-.028c-.017.025-.064.083-.025.028l-.008.009q-.068.082-.146.16c-.052.052-.1.1-.158.146l-.019.014c-.025.019-.05.036-.075.053a2.558,2.558,0,0,1-.338.189c.02-.008.041-.016.061-.025l-.113.047.052-.022a2.37,2.37,0,0,1-.4.117,6.721,6.721,0,0,0,.044-.794V39.3h1.5v2.181C118.534,41.644,118.536,41.8,118.52,41.96Z" transform="translate(-105.475 -37.661)" fill="#07c16b"/>
  <rect id="Rectangle_154719" data-name="Rectangle 154719" width="14" height="14" transform="translate(0 0)" fill="none"/>
</svg>
