<svg id="bidders-gray" xmlns="http://www.w3.org/2000/svg" width="51.2" height="48" viewBox="0 0 51.2 48">
  <path id="Path_42899" data-name="Path 42899" d="M48.4,48.8H46.624a11.2,11.2,0,1,0-15.648,0H29.2A11.212,11.212,0,0,0,18,60v6.4A1.6,1.6,0,0,0,19.6,68H58a1.6,1.6,0,0,0,1.6-1.6V60A11.212,11.212,0,0,0,48.4,48.8Zm-17.6-8a8,8,0,1,1,8,8A8.013,8.013,0,0,1,30.8,40.8Zm25.6,24H21.2V60a8.013,8.013,0,0,1,8-8H48.4a8.013,8.013,0,0,1,8,8ZM69.2,50.4v6.4a1.6,1.6,0,1,1-3.2,0V50.4a8.013,8.013,0,0,0-8-8,1.6,1.6,0,0,1,0-3.2A11.212,11.212,0,0,1,69.2,50.4ZM41.272,24.584a1.587,1.587,0,0,1,.288-2.24A11.05,11.05,0,0,1,48.4,20,11.212,11.212,0,0,1,59.6,31.2a11.051,11.051,0,0,1-2.344,6.84,1.6,1.6,0,1,1-2.528-1.96A7.889,7.889,0,0,0,56.4,31.2a8.013,8.013,0,0,0-8-8,7.872,7.872,0,0,0-4.88,1.672A1.6,1.6,0,0,1,41.272,24.584Z" transform="translate(-18 -20)" fill="#b1b1b1"/>
</svg>
