<svg xmlns="http://www.w3.org/2000/svg" xmlns:xlink="http://www.w3.org/1999/xlink" width="48" height="48" viewBox="0 0 48 48">
  <defs>
    <clipPath id="clip-Closed">
      <rect width="48" height="48"/>
    </clipPath>
  </defs>
  <g id="Closed" clip-path="url(#clip-Closed)">
    <rect width="48" height="48" fill="rgba(255,255,255,0)"/>
    <path id="Path_111149" data-name="Path 111149" d="M198.809,69.591c0-4.593-.205-4.8-4.747-4.95,0-2.041,0-4.593-.05-6.175-.256-6.022-3.981-9.645-9.951-9.747h-3.112c-6.634.051-10.513,4.083-10.411,10.666v5.307h-1.123c-2.96,0-3.623.714-3.623,3.674,0,6.277.05,12.554-.051,18.831-.051,2.4.918,3.521,3.317,3.521h26.587c2.245,0,3.267-1.021,3.215-3.317-.1-5.92-.051-11.839-.051-17.81Zm-14.7,9.135v2.96a1.775,1.775,0,0,1-1.786,1.786,1.853,1.853,0,0,1-1.837-1.786v-2.96a4.349,4.349,0,1,1,6.125-3.981A4.245,4.245,0,0,1,184.112,78.725ZM188.5,64.64c-4.132,0-8.216.051-12.349.051V60.353a5.222,5.222,0,0,0,.051-.867c-.051-3.725,2.041-5.256,6.634-5.154,3.777.051,5.665,1.837,5.665,5.409Z" transform="translate(-158.738 -45.718)" fill="#fff"/>
  </g>
</svg>
