<svg xmlns="http://www.w3.org/2000/svg" xmlns:xlink="http://www.w3.org/1999/xlink" width="48" height="48" viewBox="0 0 48 48">
  <defs>
    <clipPath id="clip-Save_as">
      <rect width="48" height="48"/>
    </clipPath>
  </defs>
  <g id="Save_as" data-name="Save as" clip-path="url(#clip-Save_as)">
    <path id="Union_689" data-name="Union 689" d="M522.9-2601.29H507.119a2.11,2.11,0,0,1-2.12-2.094v-26.521a2.109,2.109,0,0,1,2.12-2.094h19.008l2.549,2.469,3.883,3.762v9.74a8.956,8.956,0,0,0-3.28-.617,9.01,9.01,0,0,0-9,9,8.945,8.945,0,0,0,2.625,6.354l0,0Zm-15.078-25.824v6.281a1.407,1.407,0,0,0,1.414,1.4h15.546a1.406,1.406,0,0,0,1.413-1.4v-6.281a1.405,1.405,0,0,0-1.413-1.4H509.24A1.406,1.406,0,0,0,507.826-2627.114Zm18.839,24.449a.761.761,0,0,1-.692-.724v-7.706a.707.707,0,0,1,.692-.723H532.2a.761.761,0,0,1,.692.723v7.706a.709.709,0,0,1-.692.724Zm-1.845-1.928a.678.678,0,0,1-.49-.21.741.741,0,0,1-.2-.511v-7.708a.74.74,0,0,1,.2-.511.68.68,0,0,1,.49-.212h5.536a.679.679,0,0,1,.489.212.74.74,0,0,1,.2.511v.723h-4.382a1.127,1.127,0,0,0-.815.353,1.234,1.234,0,0,0-.337.852v6.5Zm-.742-16.24h-3.532v-6.281h3.533v6.28h0Z" transform="translate(-495 2641)" fill="#666"/>
  </g>
</svg>
