<svg xmlns="http://www.w3.org/2000/svg" xmlns:xlink="http://www.w3.org/1999/xlink" width="48" height="48" viewBox="0 0 48 48">
  <defs>
    <clipPath id="clip-Streams">
      <rect width="48" height="48"/>
    </clipPath>
  </defs>
  <g id="Streams" clip-path="url(#clip-Streams)">
    <g id="Path_111114" data-name="Path 111114" transform="translate(5 5)" fill="none">
      <path d="M19.5,0A19.5,19.5,0,1,1,0,19.5,19.5,19.5,0,0,1,19.5,0Z" stroke="none"/>
      <path d="M 19.5 1 C 17.0020809173584 1 14.57939910888672 1.488998413085938 12.29927062988281 2.453411102294922 C 10.0964298248291 3.385139465332031 8.117860794067383 4.719188690185547 6.418529510498047 6.418529510498047 C 4.719188690185547 8.117860794067383 3.385139465332031 10.0964298248291 2.453411102294922 12.29927062988281 C 1.488998413085938 14.57939910888672 1 17.0020809173584 1 19.5 C 1 21.9979190826416 1.488998413085938 24.42060089111328 2.453411102294922 26.70072937011719 C 3.385139465332031 28.9035701751709 4.719188690185547 30.88214111328125 6.418529510498047 32.58147048950195 C 8.117860794067383 34.28081130981445 10.0964298248291 35.61486053466797 12.29927062988281 36.54658889770508 C 14.57939910888672 37.51100158691406 17.0020809173584 38 19.5 38 C 21.9979190826416 38 24.42060089111328 37.51100158691406 26.70072937011719 36.54658889770508 C 28.9035701751709 35.61486053466797 30.88214111328125 34.28081130981445 32.58147048950195 32.58147048950195 C 34.28081130981445 30.88214111328125 35.61486053466797 28.9035701751709 36.54658889770508 26.70072937011719 C 37.51100158691406 24.42060089111328 38 21.9979190826416 38 19.5 C 38 17.0020809173584 37.51100158691406 14.57939910888672 36.54658889770508 12.29927062988281 C 35.61486053466797 10.0964298248291 34.28081130981445 8.117860794067383 32.58147048950195 6.418529510498047 C 30.88214111328125 4.719188690185547 28.9035701751709 3.385139465332031 26.70072937011719 2.453411102294922 C 24.42060089111328 1.488998413085938 21.9979190826416 1 19.5 1 M 19.5 0 C 30.26955032348633 0 39 8.730449676513672 39 19.5 C 39 30.26955032348633 30.26955032348633 39 19.5 39 C 8.730449676513672 39 0 30.26955032348633 0 19.5 C 0 8.730449676513672 8.730449676513672 0 19.5 0 Z" stroke="none" fill="#707070"/>
    </g>
    <path id="streams-2" data-name="streams" d="M22.3,26.463c-3.654,0-4.285-1.205-4.285-1.205v-.264a.543.543,0,0,0,.006-.187c.049-2.447.415-3.152,3.036-3.6a1.627,1.627,0,0,0,1.242.452,1.626,1.626,0,0,0,1.242-.452c2.65.452,3,1.169,3.038,3.682a1.536,1.536,0,0,0,0,.174c0,.042,0,.106,0,.2C26.586,25.258,25.956,26.463,22.3,26.463ZM10.542,12.771a.564.564,0,0,1-.671-.414l-.056-.262a.538.538,0,0,1,.436-.637l9.135-1.842a.564.564,0,0,1,.671.414l.056.262a.538.538,0,0,1-.438.637ZM22.3,15.784c1.935,0,2.269,1.169,2.269,2.612A2.459,2.459,0,0,1,22.3,21.007,2.459,2.459,0,0,1,20.033,18.4C20.033,16.953,20.364,15.784,22.3,15.784Zm-11.585-.2-.056-.262a.538.538,0,0,1,.436-.637l9.135-1.842a.564.564,0,0,1,.671.414l.056.262a.538.538,0,0,1-.436.637l-9.135,1.841a.564.564,0,0,1-.671-.413Zm15.257,1.7a.48.48,0,0,1-.559-.371L23.383,5.992,6.956,8.589,9.684,23.261l7.244-1.29a.48.48,0,0,1,.565.366.46.46,0,0,1-.385.535L9.383,24.248a.481.481,0,0,1-.089.008.5.5,0,0,1-.273-.082.456.456,0,0,1-.2-.3l-.189-1.012L4.414,22.42a.466.466,0,0,1-.428-.482l.968-16.5a.446.446,0,0,1,.165-.32.491.491,0,0,1,.357-.113l12.166.965,6.056-.96a.478.478,0,0,1,.554.372l2.112,11.367a.46.46,0,0,1-.391.532Z" transform="translate(9.014 8.996)" fill="#666666" fill-rule="evenodd"/>
  </g>
</svg>
