<svg xmlns="http://www.w3.org/2000/svg" xmlns:xlink="http://www.w3.org/1999/xlink" width="48" height="48" viewBox="0 0 48 48">
  <defs>
    <clipPath id="clip-Transactions_Orange_color">
      <rect width="48" height="48"/>
    </clipPath>
  </defs>
  <g id="Transactions_Orange_color" data-name="Transactions – Orange color" clip-path="url(#clip-Transactions_Orange_color)">
    <path id="Path_111114" data-name="Path 111114" d="M19.5,0A19.5,19.5,0,1,1,0,19.5,19.5,19.5,0,0,1,19.5,0Z" transform="translate(5 5)" fill="#ed7532"/>
    <path id="Path_table-arrow-right" data-name="Path / table-arrow-right" d="M4.321,3H20.568a2.32,2.32,0,0,1,2.321,2.321v8.216A6.975,6.975,0,0,0,17.875,14.6H13.6v4.642h1.253a7.08,7.08,0,0,0,0,2.321H4.321A2.32,2.32,0,0,1,2,19.247V5.321A2.328,2.328,0,0,1,4.321,3m0,4.642v4.642h6.963V7.642H4.321m9.284,0v4.642h6.963V7.642H13.6M4.321,14.6v4.642h6.963V14.6H4.321m17.918,9.284V21.568H17.6V19.247h4.642V16.926l3.481,3.481-3.481,3.481" transform="translate(11 11)" fill="#fff"/>
  </g>
</svg>
