<svg xmlns="http://www.w3.org/2000/svg" xmlns:xlink="http://www.w3.org/1999/xlink" width="48" height="48" viewBox="0 0 48 48">
  <defs>
    <clipPath id="clip-path">
      <rect id="Rectangle_154661" data-name="Rectangle 154661" width="48" height="48"/>
    </clipPath>
  </defs>
  <g id="Arrow" clip-path="url(#clip-path)">
    <rect width="48" height="48" fill="rgba(255,255,255,0)"/>
    <g id="forcast" clip-path="url(#clip-path)">
      <rect id="Rectangle_154660" data-name="Rectangle 154660" width="48" height="48" fill="rgba(255,255,255,0)"/>
    </g>
    <path id="Union_439" data-name="Union 439" d="M4,36a4,4,0,0,1-4-4V4A4,4,0,0,1,4,0H32a4,4,0,0,1,4,4V32a4,4,0,0,1-4,4ZM1.568,5.22V30.781a3.655,3.655,0,0,0,3.651,3.651H30.781a3.655,3.655,0,0,0,3.651-3.651V5.22a3.655,3.655,0,0,0-3.651-3.651H5.219A3.655,3.655,0,0,0,1.568,5.22ZM17.645,16.646,9.5,24.166,7,21.851,17.645,12l10.645,9.851-2.5,2.315Z" transform="translate(6 6)" fill="#059cdf" stroke="rgba(0,0,0,0)" stroke-miterlimit="10" stroke-width="1"/>
  </g>
</svg>
