<svg id="closed-lock" xmlns="http://www.w3.org/2000/svg" width="46" height="46" viewBox="0 0 46 46">
  <path id="Path_111074" data-name="Path 111074" d="M201.958,71.578c0-5.03-.225-5.254-5.2-5.422,0-2.235,0-5.03-.055-6.763-.28-6.6-4.36-10.564-10.9-10.675H182.4c-7.266.056-11.514,4.471-11.4,11.682v5.813h-1.23c-3.242,0-3.968.783-3.968,4.024,0,6.875.055,13.75-.056,20.624-.055,2.627,1.006,3.856,3.633,3.856h29.119c2.459,0,3.578-1.118,3.521-3.633-.112-6.484-.056-12.967-.056-19.506Zm-16.1,10v3.242a1.944,1.944,0,0,1-1.956,1.956,2.03,2.03,0,0,1-2.012-1.956V81.583a4.763,4.763,0,1,1,6.708-4.36A4.648,4.648,0,0,1,185.861,81.583Zm4.806-15.426c-4.526,0-9,.056-13.525.056V61.461a5.721,5.721,0,0,0,.056-.95c-.056-4.08,2.235-5.757,7.265-5.645,4.137.056,6.2,2.012,6.2,5.924Z" transform="translate(-162.165 -48.717)" fill="#7a2b04"/>
  <rect id="Rectangle_154721" data-name="Rectangle 154721" width="46" height="46" fill="none" opacity="0.1"/>
</svg>
