<svg xmlns="http://www.w3.org/2000/svg" width="45.688" height="48" viewBox="0 0 45.688 48">
  <g id="compliance" transform="translate(-192.181 -61.09)">
    <path id="Path_111096" data-name="Path 111096" d="M237.869,91.23a2.19,2.19,0,0,0-.966-1.814,2.144,2.144,0,0,0,.174-2.032,2.28,2.28,0,0,0-1.608-1.317,2.172,2.172,0,0,0-.647-1.942,2.375,2.375,0,0,0-2.012-.62,2.234,2.234,0,0,0-1.365-1.557,2.423,2.423,0,0,0-2.105.167,2.291,2.291,0,0,0-1.3-.86V69.462a2.843,2.843,0,0,0-2.891-2.791h-6.941V65.555a2.273,2.273,0,0,0-2.313-2.233h-2.95a2.915,2.915,0,0,0-5.667,0h-2.95a2.273,2.273,0,0,0-2.313,2.233v1.116h-6.94a2.843,2.843,0,0,0-2.892,2.791V106.3a2.843,2.843,0,0,0,2.892,2.791h30.073a2.843,2.843,0,0,0,2.892-2.791v-2.919l1.423,3.143a.59.59,0,0,0,.439.329.567.567,0,0,0,.093.005.6.6,0,0,0,.428-.2l2.018-2.144,3.076.168c.018,0,.03-.061.041-.061h.012a.518.518,0,0,0,.578-.5.363.363,0,0,0-.1-.251l-2.25-4.973a2.306,2.306,0,0,0,1.03-.569,2.171,2.171,0,0,0,.647-1.942,2.291,2.291,0,0,0,1.608-1.317,2.145,2.145,0,0,0-.173-2.032,2.189,2.189,0,0,0,.967-1.815Zm-34.7-25.674a1.141,1.141,0,0,1,1.157-1.117h4.048v-.558a1.736,1.736,0,0,1,3.47,0v.558h4.048a1.141,1.141,0,0,1,1.157,1.117v3.349H203.169ZM226.881,106.3a1.71,1.71,0,0,1-1.735,1.674H195.073a1.711,1.711,0,0,1-1.735-1.674V69.463a1.71,1.71,0,0,1,1.735-1.674h6.94v2.232h16.194V67.789h6.94a1.71,1.71,0,0,1,1.735,1.674V81.256a2.29,2.29,0,0,0-1.3.86,2.423,2.423,0,0,0-2.105-.167,2.235,2.235,0,0,0-1.365,1.557,2.372,2.372,0,0,0-2.012.62,2.171,2.171,0,0,0-.647,1.942,2.291,2.291,0,0,0-1.608,1.317,2.144,2.144,0,0,0,.173,2.032,2.186,2.186,0,0,0,0,3.628,2.145,2.145,0,0,0-.173,2.032,2.28,2.28,0,0,0,1.608,1.317,2.172,2.172,0,0,0,.647,1.942,2.266,2.266,0,0,0,1.029.564l-2.3,5.074a.539.539,0,0,0,.058.541.588.588,0,0,0,.515.234l3.076-.2,2.018,2.126a.589.589,0,0,0,.428.184.518.518,0,0,0,.093-.006.59.59,0,0,0,.439-.329l1.424-3.143Zm-3.406-5.788a2.423,2.423,0,0,0,2.105-.167,2.262,2.262,0,0,0,1.058.787l-1.886,4.158-1.608-1.691a.585.585,0,0,0-.422-.184.086.086,0,0,0-.04.006l-2.406.156,1.943-4.292a2.233,2.233,0,0,0,1.254,1.228Zm11.168,3.064-2.406-.156a.572.572,0,0,0-.463.179l-1.608,1.691-1.886-4.158a2.268,2.268,0,0,0,1.058-.787,2.422,2.422,0,0,0,2.105.167,2.235,2.235,0,0,0,1.255-1.228Zm1.174-11.263a.57.57,0,0,0-.439.435.546.546,0,0,0,.231.564,1.082,1.082,0,0,1,.4,1.334,1.16,1.16,0,0,1-1.261.67.586.586,0,0,0-.572.24.543.543,0,0,0-.012.609A1.077,1.077,0,0,1,234,97.544a1.128,1.128,0,0,1-.688.313,1.183,1.183,0,0,1-.74-.156.583.583,0,0,0-.6-.006l-.035.017a.559.559,0,0,0-.248.552A1.1,1.1,0,0,1,231,99.481a1.2,1.2,0,0,1-1.382-.385.586.586,0,0,0-.585-.223.532.532,0,0,0-.132.044.562.562,0,0,0-.318.38,1.125,1.125,0,0,1-.544.714,1.138,1.138,0,0,1-.22.1,1.155,1.155,0,0,1-.359.054,1.121,1.121,0,0,1-.359-.056,1.109,1.109,0,0,1-.22-.1,1.124,1.124,0,0,1-.544-.714.562.562,0,0,0-.318-.38.521.521,0,0,0-.132-.044.756.756,0,0,0-.116-.012.576.576,0,0,0-.469.234,1.2,1.2,0,0,1-1.382.385,1.1,1.1,0,0,1-.694-1.217.558.558,0,0,0-.248-.552l-.035-.017a.583.583,0,0,0-.6.006,1.2,1.2,0,0,1-.746.156,1.129,1.129,0,0,1-.682-.313,1.077,1.077,0,0,1-.162-1.379.542.542,0,0,0-.012-.609.588.588,0,0,0-.572-.24,1.157,1.157,0,0,1-1.261-.67,1.084,1.084,0,0,1,.4-1.334.547.547,0,0,0,.231-.564.572.572,0,0,0-.439-.435,1.1,1.1,0,0,1,0-2.164.571.571,0,0,0,.439-.435.547.547,0,0,0-.231-.564,1.082,1.082,0,0,1-.4-1.334,1.153,1.153,0,0,1,1.261-.67.6.6,0,0,0,.572-.24.543.543,0,0,0,.012-.609,1.069,1.069,0,0,1,.162-1.379,1.2,1.2,0,0,1,1.428-.156.587.587,0,0,0,.625-.011.54.54,0,0,0,.248-.552,1.106,1.106,0,0,1,.7-1.217,1.2,1.2,0,0,1,1.382.385.585.585,0,0,0,.585.223.575.575,0,0,0,.45-.424,1.107,1.107,0,0,1,.544-.714,1.162,1.162,0,0,1,.577-.151,1.2,1.2,0,0,1,.578.151,1.12,1.12,0,0,1,.544.714.574.574,0,0,0,.45.424.6.6,0,0,0,.585-.223A1.2,1.2,0,0,1,231,82.982a1.1,1.1,0,0,1,.694,1.217.554.554,0,0,0,.248.552.6.6,0,0,0,.63.011,1.2,1.2,0,0,1,1.428.156,1.077,1.077,0,0,1,.162,1.379.542.542,0,0,0,.012.609.588.588,0,0,0,.572.24,1.16,1.16,0,0,1,1.261.67,1.084,1.084,0,0,1-.4,1.334.546.546,0,0,0-.231.564.572.572,0,0,0,.439.435,1.1,1.1,0,0,1,0,2.165Z" transform="translate(0 0)" fill="#999"/>
    <path id="Path_111097" data-name="Path 111097" d="M449.158,274.929c-.191-.017-.381-.022-.578-.022s-.387.006-.578.022a6.808,6.808,0,0,0-6.362,6.675,6.516,6.516,0,0,0,1.972,4.666,6.171,6.171,0,0,0,.914.764,6.878,6.878,0,0,0,2.036.977,7.141,7.141,0,0,0,1.376.263c.023,0,.046.006.063.006.191.017.382.022.578.022s.387-.006.578-.022c.017,0,.04-.006.063-.006a7.052,7.052,0,0,0,1.377-.263,6.892,6.892,0,0,0,2.036-.977,6.192,6.192,0,0,0,.914-.764,6.516,6.516,0,0,0,1.972-4.666A6.808,6.808,0,0,0,449.158,274.929Zm3.887,10.225a5.835,5.835,0,0,1-.885.831,5.471,5.471,0,0,1-.931.58,5.827,5.827,0,0,1-1.458.5c-.2.039-.4.067-.613.089-.191.017-.381.028-.578.028s-.387-.011-.578-.028c-.208-.022-.416-.05-.613-.089a5.84,5.84,0,0,1-1.458-.5,5.465,5.465,0,0,1-.931-.58,5.814,5.814,0,0,1-.885-.831,5.459,5.459,0,0,1-1.319-3.55,5.673,5.673,0,0,1,5.2-5.554c.191-.017.382-.028.578-.028s.387.011.578.028a5.673,5.673,0,0,1,5.2,5.554,5.451,5.451,0,0,1-1.318,3.55Z" transform="translate(-221.121 -190.375)" fill="#999"/>
    <path id="Path_111098" data-name="Path 111098" d="M474.208,310.673l-2.51,2.155-1.157.993-1.133.971-1.348-1.306a.6.6,0,0,0-.821,0,.549.549,0,0,0,0,.793l1.735,1.675a.6.6,0,0,0,.411.162.573.573,0,0,0,.382-.139l.775-.664,1.157-.993,3.274-2.807a.544.544,0,0,0,.052-.787.586.586,0,0,0-.815-.051Z" transform="translate(-243.661 -222.094)" fill="#999"/>
    <path id="Path_111099" data-name="Path 111099" d="M232.618,193.622l-3.061,2.954-.748-.722a.6.6,0,0,0-.818,0,.546.546,0,0,0,0,.79l1.157,1.117a.594.594,0,0,0,.818,0l3.47-3.349a.544.544,0,0,0,0-.789.593.593,0,0,0-.818,0Z" transform="translate(-31.592 -117.856)" fill="#999"/>
    <path id="Path_111100" data-name="Path 111100" d="M225.755,258.842a.592.592,0,0,0,.817,0l3.47-3.349a.543.543,0,0,0,0-.789.592.592,0,0,0-.818,0l-3.06,2.954-.748-.722a.6.6,0,0,0-.818,0,.546.546,0,0,0,0,.79Z" transform="translate(-28.584 -172.241)" fill="#999"/>
    <path id="Path_111101" data-name="Path 111101" d="M226.162,320.093a.587.587,0,0,0,.409-.164l3.47-3.349a.544.544,0,0,0,0-.789.592.592,0,0,0-.818,0l-3.061,2.954-.748-.721a.593.593,0,0,0-.818,0,.545.545,0,0,0,0,.789l1.157,1.116a.59.59,0,0,0,.409.164Z" transform="translate(-28.583 -226.631)" fill="#999"/>
    <path id="Path_111102" data-name="Path 111102" d="M308.929,208.73h-9.253a.558.558,0,1,0,0,1.116h9.253a.558.558,0,1,0,0-1.116Z" transform="translate(-94.77 -131.453)" fill="#999"/>
    <path id="Path_111103" data-name="Path 111103" d="M308.929,269.82h-9.253a.558.558,0,1,0,0,1.116h9.253a.558.558,0,1,0,0-1.116Z" transform="translate(-94.77 -185.846)" fill="#999"/>
    <path id="Path_111104" data-name="Path 111104" d="M308.929,330.91h-9.253a.558.558,0,1,0,0,1.116h9.253a.558.558,0,1,0,0-1.116Z" transform="translate(-94.77 -240.238)" fill="#999"/>
    <path id="Path_111105" data-name="Path 111105" d="M232.618,376.889l-3.061,2.954-.748-.721a.593.593,0,0,0-.818,0,.545.545,0,0,0,0,.789l1.157,1.116a.593.593,0,0,0,.818,0l3.47-3.349a.544.544,0,0,0,0-.789.593.593,0,0,0-.818,0Z" transform="translate(-31.592 -281.03)" fill="#999"/>
    <path id="Path_111106" data-name="Path 111106" d="M308.929,392h-9.253a.558.558,0,1,0,0,1.116h9.253a.558.558,0,1,0,0-1.116Z" transform="translate(-94.77 -294.63)" fill="#999"/>
  </g>
</svg>
