<svg id="referance-gray" xmlns="http://www.w3.org/2000/svg" width="47.28" height="48" viewBox="0 0 47.28 48">
  <g id="noun-files-4235167">
    <path id="Path_48089" data-name="Path 48089" d="M208.038,236.03H197.432a2.011,2.011,0,0,0,0,4.022h10.605a2.011,2.011,0,0,0,0-4.022Z" transform="translate(-186.136 -215.12)" fill="#b1b1b1"/>
    <path id="Path_48090" data-name="Path 48090" d="M208.038,337.25H197.432a2.011,2.011,0,0,0,0,4.022h10.605a2.011,2.011,0,0,0,0-4.022Z" transform="translate(-186.136 -306.967)" fill="#b1b1b1"/>
    <path id="Path_48091" data-name="Path 48091" d="M142.165,15.791a5.564,5.564,0,0,0-5.547-5.569h-20.7a5.565,5.565,0,0,0-5.549,5.569V19.5h-9.361a6.134,6.134,0,0,0-6.126,6.128V45.867a6.079,6.079,0,0,0,1.8,4.325l6.227,6.228a6.089,6.089,0,0,0,4.325,1.8h14.67a6.134,6.134,0,0,0,6.126-6.128v-.858h8.584a5.555,5.555,0,0,0,5.547-5.549Zm-18.122,36.3a2.137,2.137,0,0,1-2.134,2.136h-14.67a2.122,2.122,0,0,1-1.5-.633L99.508,47.37a2.117,2.117,0,0,1-.632-1.5V25.63a2.137,2.137,0,0,1,2.134-2.136h20.9a2.137,2.137,0,0,1,2.134,2.136V52.094Zm14.13-6.406a1.558,1.558,0,0,1-1.555,1.557h-8.584V25.63a6.134,6.134,0,0,0-6.126-6.128h-7.545V15.791a1.568,1.568,0,0,1,1.557-1.577h20.7a1.568,1.568,0,0,1,1.555,1.577Z" transform="translate(-94.885 -10.222)" fill="#b1b1b1"/>
  </g>
</svg>
