<svg id="referance" xmlns="http://www.w3.org/2000/svg" width="47.633" height="48.359" viewBox="0 0 47.633 48.359">
  <g id="noun-files-4235167">
    <path id="Path_48089" data-name="Path 48089" d="M208.038,236.03H197.432a2.011,2.011,0,0,0,0,4.022h10.605a2.011,2.011,0,0,0,0-4.022Z" transform="translate(-186.035 -214.95)" fill="#ec711c"/>
    <path id="Path_48090" data-name="Path 48090" d="M208.038,337.25H197.432a2.011,2.011,0,0,0,0,4.022h10.605a2.011,2.011,0,0,0,0-4.022Z" transform="translate(-186.035 -306.72)" fill="#ec711c"/>
    <path id="Path_48091" data-name="Path 48091" d="M142.518,15.832a5.606,5.606,0,0,0-5.589-5.61H116.078a5.606,5.606,0,0,0-5.59,5.61v3.74h-9.431a6.18,6.18,0,0,0-6.172,6.174V46.133A6.124,6.124,0,0,0,96.7,50.49l6.274,6.275a6.135,6.135,0,0,0,4.357,1.815h14.78a6.18,6.18,0,0,0,6.172-6.174v-.864h8.648a5.6,5.6,0,0,0,5.589-5.59ZM124.261,52.407a2.153,2.153,0,0,1-2.15,2.152h-14.78a2.138,2.138,0,0,1-1.514-.638l-6.274-6.274a2.133,2.133,0,0,1-.636-1.514V25.745a2.153,2.153,0,0,1,2.15-2.152H122.11a2.153,2.153,0,0,1,2.15,2.152V52.407ZM138.5,45.953a1.57,1.57,0,0,1-1.567,1.569h-8.648V25.745a6.18,6.18,0,0,0-6.172-6.174h-7.6v-3.74a1.58,1.58,0,0,1,1.569-1.589H136.93a1.58,1.58,0,0,1,1.567,1.589Z" transform="translate(-94.885 -10.222)" fill="#ec711c"/>
  </g>
</svg>
