<svg id="scheuduled" xmlns="http://www.w3.org/2000/svg" width="48" height="48" viewBox="0 0 48 48">
  <path id="Schedule" d="M42.9,53H14.1a7.2,7.2,0,0,1-7.2-7.2V19.4a7.2,7.2,0,0,1,7.2-7.2h2.4V5h4.8v7.2H35.7V5h4.8v7.2h2.4a7.2,7.2,0,0,1,7.2,7.2V45.8A7.2,7.2,0,0,1,42.9,53Zm2.4-36H11.7V48.2H45.3ZM28.5,35H16.158V23H28.5Z" transform="translate(-3.473 -5)" fill="#866cef" fill-rule="evenodd"/>
  <rect id="Rectangle_154712" data-name="Rectangle 154712" width="48" height="48" transform="translate(0 0)" fill="none"/>
</svg>
