<svg xmlns="http://www.w3.org/2000/svg" width="48" height="48" viewBox="0 0 48 48">
  <g id="scope" transform="translate(-138.881 -70.001)">
    <path id="Path_111095" data-name="Path 111095" d="M179.05,92.791a16.192,16.192,0,0,0-14.96-14.96V70h-2.419v7.83a16.251,16.251,0,0,0-5.857,1.528,14.448,14.448,0,0,0-2.674,1.655,15.869,15.869,0,0,0-2.8,2.674,16.037,16.037,0,0,0-3.629,9.1h-7.83v2.419h7.83a16.3,16.3,0,0,0,3.629,9.1,15.864,15.864,0,0,0,2.8,2.674,18.847,18.847,0,0,0,2.674,1.655,15.055,15.055,0,0,0,5.857,1.528V118h2.419v-7.83a16.192,16.192,0,0,0,14.96-14.96h7.83V92.791Zm-7.83,2.419h5.411a13.752,13.752,0,0,1-12.541,12.541v-5.538h-2.419v5.538A13.752,13.752,0,0,1,149.13,95.21h5.538V92.791H149.13A13.752,13.752,0,0,1,161.671,80.25v5.538h2.419V80.25a13.752,13.752,0,0,1,12.541,12.541h-5.539V95.21Z" transform="translate(0)" fill="#666"/>
  </g>
</svg>
