<svg xmlns="http://www.w3.org/2000/svg" xmlns:xlink="http://www.w3.org/1999/xlink" width="48" height="48" viewBox="0 0 48 48">
  <defs>
    <clipPath id="clip-Reports_Analytics_Orange_color_">
      <rect width="48" height="48"/>
    </clipPath>
  </defs>
  <g id="Reports_Analytics_Orange_color_" data-name="Reports &amp; Analytics– Orange color " clip-path="url(#clip-Reports_Analytics_Orange_color_)">
    <path id="Path_111114" data-name="Path 111114" d="M19.5,0A19.5,19.5,0,1,1,0,19.5,19.5,19.5,0,0,1,19.5,0Z" transform="translate(5 5)" fill="#ed7532"/>
    <path id="Path_chart-box-outline" data-name="Path / chart-box-outline" d="M9.693,18.616H7.462V10.808H9.693v7.808m4.462,0H11.924V7.462h2.231V18.616m4.462,0H16.385V14.155h2.231v4.462m2.231,2.231H5.231V5.231H20.847V20.959M20.847,3H5.231A2.237,2.237,0,0,0,3,5.231V20.847a2.237,2.237,0,0,0,2.231,2.231H20.847a2.237,2.237,0,0,0,2.231-2.231V5.231A2.237,2.237,0,0,0,20.847,3Z" transform="translate(11 11)" fill="#fff"/>
  </g>
</svg>
