<svg xmlns="http://www.w3.org/2000/svg" xmlns:xlink="http://www.w3.org/1999/xlink" width="48" height="48" viewBox="5 -1 48 48">
  <defs>
    <clipPath id="clip-Save_">
      <rect width="48" height="48"/>
    </clipPath>
  </defs>
  <g id="Save_" data-name="Save " clip-path="url(#clip-Save_)">
    <g id="save_48dp" transform="translate(7.72 4.646)">
      <path id="Path_110949" data-name="Path 110949" d="M30.44,34.709H7.12A2.107,2.107,0,0,1,5,32.615V6.094A2.107,2.107,0,0,1,7.12,4H26.128l6.432,6.23V32.615A2.107,2.107,0,0,1,30.44,34.709ZM26.2,8.886a1.4,1.4,0,0,0-1.413-1.4H9.24a1.4,1.4,0,0,0-1.413,1.4v6.281a1.4,1.4,0,0,0,1.413,1.4H24.786a1.405,1.405,0,0,0,1.413-1.4Z" transform="translate(0)" fill="#666" fill-rule="evenodd"/>
      <path id="Path_110950" data-name="Path 110950" d="M24.744,10.2h3.533v6.281H24.744Z" transform="translate(-4.197 -1.319)" fill="#666" fill-rule="evenodd"/>
    </g>
  </g>
</svg>
