<?xml version="1.0" standalone="no"?>
<!DOCTYPE svg PUBLIC "-//W3C//DTD SVG 1.1//EN" "http://www.w3.org/Graphics/SVG/1.1/DTD/svg11.dtd" >
<svg xmlns="http://www.w3.org/2000/svg">
<metadata>Generated by IcoMoon</metadata>
<defs>
<font id="common-webfont" horiz-adv-x="1024">
<font-face units-per-em="1024" ascent="960" descent="-64" />
<missing-glyph horiz-adv-x="1024" />
<glyph unicode="&#x20;" horiz-adv-x="512" d="" />
<glyph unicode="&#xe900;" glyph-name="delete11" horiz-adv-x="796" d="M565.276 573.337v-417.873h-334.228v417.873h334.228zM502.615 824.017h-208.818l-41.863-41.777h-146.217v-83.556h584.908v83.556h-146.217zM648.837 656.891h-501.354v-501.439c0.139-46.091 37.469-83.416 83.553-83.556h334.246c46.091 0.139 83.416 37.469 83.556 83.553v0.018z" />
<glyph unicode="&#xe901;" glyph-name="edit" d="M594.402 567.198l36.796-36.796-362.406-362.406h-36.796v36.796l362.406 362.406zM738.402 808c-10.924-0.049-20.813-4.475-28.008-11.6l-73.193-73.193 150.006-150.006 73.194 73.194c7.184 7.224 11.633 17.199 11.633 28.194s-4.438 20.97-11.633 28.196l-93.597 93.597c-7.121 7.172-16.983 11.601-27.878 11.601-0.187 0-0.374-0.002-0.561-0.005h0.023zM594.402 680.404l-442.402-442.402v-150.006h150.006l442.402 442.402-150.006 150.006z" />
<glyph unicode="&#xe902;" glyph-name="add-comments" horiz-adv-x="1076" d="M949.838 200.573c0-19.788-16.047-35.837-35.837-35.837v0h-72.782v-72.859c0-19.803-16.047-35.849-35.849-35.849s-35.849 16.047-35.849 35.849v0 72.782h-72.859c-19.803 0-35.849 16.047-35.849 35.849s16.047 35.849 35.849 35.849v0h72.859v72.782c0 19.803 16.047 35.849 35.849 35.849s35.849-16.047 35.849-35.849v0-72.782h72.782c19.771-0.024 35.791-16.031 35.837-35.792v-0.006zM541.797 164.658h-239.176c-20.247 0-36.658 16.411-36.658 36.658v0 446.96l-129.124 129.163c-6.629 6.638-10.721 15.795-10.721 25.902 0 20.235 16.391 36.638 36.626 36.658h641.776c20.247 0 36.658-16.411 36.658-36.658v0-339.255c0.017-0.367 0.024-0.8 0.024-1.23 0-20.247-16.411-36.658-36.658-36.658s-36.658 16.411-36.658 36.658c0 0.429 0.010 0.857 0.024 1.296l-0.002-0.066v302.597h-516.691l76.692-76.692c7.009-6.671 11.368-16.066 11.368-26.484 0-0.019 0-0.024 0-0.042v0.003-425.542h202.557c20.247 0 36.658-16.411 36.658-36.658s-16.411-36.658-36.658-36.658v0zM643.861 592.376h-208.365c-19.803 0-35.849 16.047-35.849 35.849s16.047 35.849 35.849 35.849v0h208.365c19.803 0 35.849-16.047 35.849-35.849s-16.047-35.849-35.849-35.849v0zM643.861 342.668h-208.365c-19.803 0-35.849 16.047-35.849 35.849s16.047 35.849 35.849 35.849v0h208.365c19.803 0 35.849-16.047 35.849-35.849s-16.047-35.849-35.849-35.849v0zM643.861 467.624h-208.365c-19.803 0-35.849 16.047-35.849 35.849s16.047 35.849 35.849 35.849v0h208.365c19.803 0 35.849-16.047 35.849-35.849s-16.047-35.849-35.849-35.849v0z" />
<glyph unicode="&#xe903;" glyph-name="chat" d="M806.431 816h-588.827c-40.495-0.207-73.235-33.084-73.235-73.602 0 0 0-0.001 0-0.001v0l-0.368-662.431 147.207 147.207h515.224c40.597 0.12 73.483 33.007 73.603 73.587v441.637c-0.12 40.597-33.007 73.483-73.587 73.603h-0.017zM732.827 374.38h-441.62v73.603h441.62zM732.827 484.785h-441.62v73.603h441.62zM732.827 595.19h-441.62v73.603h441.62z" />
<glyph unicode="&#xe904;" glyph-name="chatting" horiz-adv-x="1078" d="M178.793 178.709c-0.264-1.368-0.41-2.952-0.41-4.569 0-7.513 3.278-14.264 8.473-18.891l0.024-0.024c4.205-3.783 9.812-6.102 15.949-6.102 2.812 0 5.52 0.49 8.034 1.38l-0.168-0.053 129.353 44.993c46.404-14.426 99.973-23.629 155.402-25.515l1.032-0.024c199.399 0 361.614 148.467 361.614 331.023s-162.216 331.062-361.614 331.062-361.744-148.467-361.744-331.023c0.046-73.309 25.598-140.634 68.249-193.614l-0.459 0.6zM183.489 500.954c0 155.022 140.392 281.142 312.911 281.142s312.873-126.12 312.873-281.142-140.392-281.1-312.873-281.1c-53.695 2.013-104.499 11.197-152.515 26.619l4.009-1.113c-2.37 0.86-5.099 1.364-7.945 1.364s-5.58-0.504-8.108-1.416l0.168 0.054-97.621-33.96 18.151 98.869c0.264 1.38 0.416 2.972 0.416 4.596 0 6.242-2.251 11.958-5.985 16.38l0.025-0.034c-39.3 45.233-63.321 104.662-63.501 169.693v0.035zM844.308 124.861l-97.985 32.819c-2.376 0.848-5.113 1.345-7.961 1.345s-5.593-0.497-8.137-1.399l0.168 0.054c-44.042-14.187-94.899-23.376-147.587-25.515l-1.128-0.033h-1.46c-0.439-0.003-0.953-0.004-1.467-0.004-72.808 0-140.327 22.683-195.855 61.376l1.125-0.744c-3.933 2.811-8.848 4.501-14.143 4.501-13.514 0-24.469-10.961-24.469-24.469 0-8.213 4.049-15.482 10.249-19.917l0.072-0.051c61.667-43.43 138.356-69.418 221.105-69.418 1.092 0 2.184 0.006 3.288 0.018l-0.168-0.001h1.779c56.611 2.097 110.246 11.317 161.148 26.8l-4.476-1.175 130.165-43.814c2.376-0.85 5.113-1.348 7.971-1.348 13.395 0 24.257 10.862 24.257 24.257 0 1.72-0.175 3.4-0.518 5.017l0.024-0.163-24.257 126.363c41.789 50.654 67.133 116.222 67.133 187.713 0 59.406-17.498 114.711-47.614 161.072l0.696-1.146c-4.398 6.848-11.982 11.326-20.619 11.326-13.489 0-24.42-10.931-24.42-24.42 0-4.864 1.416-9.385 3.865-13.191l-0.062 0.097c24.732-37.881 39.437-84.257 39.437-134.063 0-63.527-23.928-121.46-63.248-165.29l0.208 0.228c-3.669-4.249-5.892-9.823-5.892-15.92 0-1.63 0.165-3.226 0.459-4.769l-0.024 0.159zM282.078 561.223h390.315c13.497 0 24.435 10.938 24.435 24.435s-10.938 24.435-24.435 24.435h-390.315c-13.497 0-24.435-10.938-24.435-24.435s10.938-24.435 24.435-24.435v0zM290.159 431.462h98.266c13.497 0 24.435 10.938 24.435 24.435s-10.938 24.435-24.435 24.435v0h-98.266c-13.497 0-24.435-10.938-24.435-24.435s10.938-24.435 24.435-24.435v0zM560.019 480.332h-98.304c-13.497 0-24.435-10.938-24.435-24.435s10.938-24.435 24.435-24.435v0h98.342c13.497 0 24.435 10.938 24.435 24.435s-10.938 24.435-24.435 24.435v0z" />
<glyph unicode="&#xe905;" glyph-name="close" d="M863.769 178.913l-100.783-101.457-260.875 259.2-259.2-260.854-101.457 100.783 259.2 260.875-260.854 259.2 100.783 101.457 260.875-259.2 259.2 260.854 101.457-100.783-259.2-260.875 260.854-259.2z" />
<glyph unicode="&#xe906;" glyph-name="company1" horiz-adv-x="811" d="M626.364 787.996h-441.997v51c0 9.39 7.614 17.004 17.004 17.004v0h408c9.382-0.019 16.985-7.622 17.004-17.002v-0.002zM218.364 346h135.996v102h-135.996zM456.372 346h135.996v102h-135.996zM728.364 736.996v-680.004c-0.026-9.375-7.625-16.966-17.001-17.004h-612.004c-9.382 0.019-16.985 7.622-17.004 17.002v680.006c0 9.39 7.614 17.004 17.004 17.004v0h612c9.382-0.019 16.985-7.622 17.004-17.002v-0.002zM388.368 261.004c-0.019 9.382-7.622 16.985-17.002 17.004h-170.006c-9.382-0.019-16.985-7.622-17.004-17.002v-135.998c0.019-9.382 7.622-16.985 17.002-17.004h170.006c9.382 0.019 16.985 7.622 17.004 17.002v0.002zM388.368 465.004c0 9.39-7.614 17.004-17.004 17.004v0h-170.004c-9.39 0-17.004-7.614-17.004-17.004v0-135.996c0.019-9.382 7.622-16.985 17.002-17.004h170.006c9.382 0.019 16.985 7.622 17.004 17.002v0.002zM388.368 669.004c0 9.39-7.614 17.004-17.004 17.004v0h-170.004c-9.39 0-17.004-7.614-17.004-17.004v0-135.996c0-9.39 7.614-17.004 17.004-17.004v0h170.004c9.39 0 17.004 7.614 17.004 17.004v0zM626.364 261.004c-0.026 9.375-7.625 16.966-17.001 17.004h-170.008c-9.375-0.026-16.966-7.625-17.004-17.001v-136c0.026-9.375 7.625-16.966 17.001-17.004h170.008c9.375 0.026 16.966 7.625 17.004 17.001v0.004zM626.364 465.004c-0.019 9.382-7.622 16.985-17.002 17.004h-170.006c-9.382-0.019-16.985-7.622-17.004-17.002v-135.998c0.026-9.375 7.625-16.966 17.001-17.004h170.008c9.375 0.026 16.966 7.625 17.004 17.001v0.004zM626.364 669.004c-0.019 9.382-7.622 16.985-17.002 17.004h-170.006c-9.382-0.019-16.985-7.622-17.004-17.002v-135.998c0.019-9.382 7.622-16.985 17.002-17.004h170.006c9.382 0.019 16.985 7.622 17.004 17.002v0.002zM218.364 550h135.996v102h-135.996zM456.372 142h135.996v102h-135.996zM218.364 142h135.996v102h-135.996zM456.372 550h135.996v102h-135.996z" />
<glyph unicode="&#xe907;" glyph-name="filter1" d="M566.543 344.516l-137.297 1.893c-5.927 10.147-13.837 25.655-20.201 36.557-90.175 154.432-218.894 374.893-218.894 374.893 7.782 13.974 47.691 68.117 47.691 68.117 130.802-1.005 418.455 1.005 548.31 0 0 0 39.87-54.901 47.691-68.117-53.823-86.803-184.872-287.558-267.305-413.344zM429.246 69.357v295.531h128.741c0 0 0-133.242 0-220.787z" />
<glyph unicode="&#xe908;" glyph-name="item" horiz-adv-x="814" d="M478.89 347.3h-144.156c-9.945 0-18.007-8.063-18.007-18.007s8.063-18.007 18.007-18.007h144.156c9.945 0 18.007 8.063 18.007 18.007s-8.063 18.007-18.007 18.007v0zM478.89 415.139h-144.156c-9.945 0-18.007-8.063-18.007-18.007s8.063-18.007 18.007-18.007h144.156c9.945 0 18.007 8.063 18.007 18.007s-8.063 18.007-18.007 18.007v0zM262.795 639.871v205.003l-175.519-195.84c-2.103-2.475-3.545-5.585-4.011-8.995l-0.013-0.091zM478.89 482.977h-144.156c-9.945 0-18.007-8.063-18.007-18.007s8.063-18.007 18.007-18.007h144.156c9.945 0 18.007 8.063 18.007 18.007s-8.063 18.007-18.007 18.007v0zM713.031 856h-414.231v-221.004c-0.297-9.46-8.033-17.009-17.534-17.009-0.169 0-0.332 0.003-0.491 0.009l0.026-0.001h-198.122v-561c0.297-9.46 8.033-17.009 17.534-17.009 0.169 0 0.332 0.003 0.491 0.009l-0.026-0.001h612.353c0.128-0.004 0.284-0.007 0.441-0.007 9.51 0 17.251 7.548 17.566 16.975l0.001 0.026v782.004c-0.297 9.46-8.033 17.009-17.534 17.009-0.169 0-0.332-0.003-0.491-0.009l0.026 0.001zM586.957 159.004c-0.316-9.461-8.056-17.009-17.567-17.009-0.157 0-0.314 0.003-0.469 0.008l0.026-0.001h-324.194c-0.137-0.005-0.305-0.008-0.474-0.008-9.504 0-17.236 7.552-17.533 16.978l-0.001 0.026v84.996h360.209zM586.957 277.996h-360.132v255c0.297 9.46 8.033 17.009 17.534 17.009 0.169 0 0.332-0.003 0.491-0.009l-0.026 0.001h324.118c0.137 0.005 0.305 0.008 0.474 0.008 9.504 0 17.236-7.552 17.533-16.978l0.001-0.026z" />
<glyph unicode="&#xe909;" glyph-name="resize" d="M912 314.671h-266.671v-266.671h-88.875v355.546h355.546zM467.546 848v-355.546h-355.546v88.875h266.671v266.671z" />
<glyph unicode="&#xe90a;" glyph-name="search" d="M409.652 274.008c-146.975 0-266.107 119.132-266.107 266.107s119.132 266.107 266.107 266.107c146.975 0 266.107-119.132 266.107-266.107s-119.132-266.107-266.107-266.107zM409.652 739.697c-110.229 0-199.582-89.353-199.582-199.582s89.353-199.582 199.582-199.582c110.229 0 199.582 89.353 199.582 199.582s-89.353 199.582-199.582 199.582zM593.877 355.885v-61.412l225.166-204.701 61.412 61.412-225.166 204.701h-61.412z" />
<glyph unicode="&#xe90b;" glyph-name="smartapp" d="M921.963 321.536c-9.505-10.006-20.397-18.568-32.398-25.408l-0.69-0.362-325.675-204.8c-27.91-19.919-60.355-40.402-93.923-59.112l-5.384-2.755c-9.533-5.090-20.851-8.079-32.867-8.079-20.914 0-39.712 9.056-52.688 23.461l-0.056 0.064c-16.999 15.328-29.809 34.988-36.707 57.248l-0.242 0.907c46.784 7.872 91.733 9.643 136.533 28.032 43.584 17.899 94.528 50.667 112.768 96.213 10.015 21.487 15.858 46.647 15.858 73.172 0 18.24-2.763 35.835-7.893 52.389l0.334-1.252c-20.053 64.661-53.781 124.117-79.424 186.773-10.187 20.064-16.154 43.75-16.154 68.829 0 3.638 0.126 7.247 0.373 10.822l-0.027-0.482c5.054 28.861 21.108 53.26 43.592 69.174l0.333 0.224q1.451 1.067 2.923 2.133c20.037 13.355 43.823 22.806 69.439 26.675l0.961 0.119c10.375 2.398 22.288 3.772 34.522 3.772 16.402 0 32.227-2.47 47.123-7.059l-1.133 0.3c10.432-3.351 19.269-7.059 27.716-11.416l-1.006 0.472c1.941-1.024 3.925-2.005 5.824-3.136 3.733-2.261 7.595-4.565 10.987-7.083 1-0.725 1.869-1.424 2.702-2.164l-0.035 0.031 170.261-267.264c7.313-10.241 13.459-22.022 17.856-34.622l0.299-0.983c1.645-5.704 2.59-12.256 2.59-19.029 0-17.494-6.31-33.514-16.779-45.909l0.087 0.106zM567.211 790.464c-51.348-8.157-97.078-27.436-136.257-55.32l0.983 0.664c-22.996-14.41-41.881-33.288-55.873-55.552l-0.425-0.725c-13.526-23.211-22.802-50.528-26.008-79.673l-0.083-0.924c-0.040-1.704-0.063-3.712-0.063-5.726 0-24.093 3.294-47.416 9.456-69.544l-0.432 1.819c18.206-47.391 37.748-87.486 60.249-125.625l-2.115 3.876c1.835-3.669 3.755-7.296 5.717-10.901 15.299-23.059 27.696-49.744 35.779-78.243l0.488-2.013c1.551-6.568 2.44-14.109 2.44-21.857 0-21.846-7.068-42.041-19.041-58.423l0.195 0.28c-28.339-32.352-69.191-53.139-114.923-54.755l-0.277-0.008c-1.518-0.076-3.297-0.119-5.086-0.119-7.447 0-14.719 0.75-21.745 2.179l0.697-0.118c-5.264 0.258-9.93 2.62-13.212 6.255l-0.015 0.017c-2.411 3.435-4.523 7.125-6.741 10.667l-174.977 276.586c-7.263 10.18-13.366 21.89-17.73 34.415l-0.296 0.977c-1.642 5.699-2.586 12.246-2.586 19.013 0 17.492 6.308 33.51 16.774 45.904l-0.087-0.106c9.505 10.006 20.397 18.568 32.398 25.408l0.69 0.362 325.696 204.885c27.909 19.917 60.353 40.4 93.921 59.111l5.386 2.756c9.69 5.848 21.391 9.308 33.9 9.308 20.842 0 39.441-9.604 51.613-24.629l0.097-0.124c1.664-2.133 3.563-4.267 5.291-6.571 2.432-3.179 4.821-6.293 7.083-9.387 4.8-6.571 9.387-12.501 13.611-19.307 1.835-2.987 5.376-8.021 8.939-13.589 2.775-4.293 5.617-9.368 8.154-14.617l0.379-0.871c1.768-2.588 2.89-5.744 3.070-9.15l0.002-0.045c-20.757 3.989-41.195 12.096-62.656 14.379-8.186 0.911-17.678 1.431-27.291 1.431-12.374 0-24.547-0.861-36.463-2.527l1.375 0.157zM103.595 477.077l2.368-3.733 0.128-0.213z" />
<glyph unicode="&#xe90c;" glyph-name="streams" d="M852.693 151.595c0.021 5.291 0.043 0.747 0 0zM723.499 107.072c-110.187 0-129.195 38.4-129.195 38.4 0 4.459 0 7.019 0 8.384 0.235 1.055 0.37 2.267 0.37 3.511 0 0.861-0.065 1.708-0.189 2.534l0.012-0.093c1.451 77.76 12.523 100.267 91.563 114.432 9.893-8.884 23.043-14.316 37.461-14.316s27.568 5.432 37.513 14.362l-0.052-0.046c79.893-14.4 90.325-37.163 91.605-117.013-0.014-0.439-0.023-0.955-0.023-1.473 0-1.426 0.062-2.838 0.185-4.233l-0.013 0.181c0-1.365 0-3.349 0-6.208-0.043-0.107-19.072-38.421-129.259-38.421zM368.853 542.251c-1.068-0.238-2.294-0.374-3.552-0.374-8.168 0-14.995 5.738-16.672 13.402l-0.021 0.113-1.771 8.341c-0.238 1.068-0.374 2.294-0.374 3.552 0 8.168 5.738 14.995 13.402 16.672l0.113 0.021 275.456 58.539c1.068 0.238 2.294 0.374 3.552 0.374 8.168 0 14.995-5.738 16.672-13.402l0.021-0.113 1.771-8.341c0.238-1.068 0.374-2.294 0.374-3.552 0-8.168-5.738-14.995-13.402-16.672l-0.113-0.021zM723.499 446.507c58.347 0 68.395-37.163 68.395-83.008s-30.635-83.008-68.395-83.008-68.416 37.163-68.416 83.008 10.048 83.029 68.416 83.029zM374.208 452.907l-1.771 8.341c-0.238 1.068-0.374 2.294-0.374 3.552 0 8.168 5.738 14.995 13.402 16.672l0.113 0.021 275.435 58.539c1.068 0.238 2.294 0.374 3.552 0.374 8.168 0 14.995-5.738 16.672-13.402l0.021-0.113 1.771-8.341c0.238-1.068 0.374-2.294 0.374-3.552 0-8.168-5.738-14.995-13.402-16.672l-0.113-0.021-275.435-58.453c-1.066-0.237-2.291-0.373-3.548-0.373-8.175 0-15.008 5.748-16.677 13.423l-0.021 0.113zM834.133 398.933c-0.765-0.143-1.644-0.224-2.543-0.224-7.138 0-13.074 5.148-14.297 11.933l-0.013 0.088-61.141 346.987-495.296-82.603 82.24-466.304 218.411 41.003c0.805 0.158 1.731 0.248 2.677 0.248 8.037 0 14.552-6.515 14.552-14.552 0-7.090-5.071-12.996-11.784-14.289l-0.091-0.015-232.896-43.712c-0.796-0.163-1.711-0.256-2.648-0.256-0.007 0-0.013 0-0.020 0h0.001c-3.084 0.004-5.94 0.977-8.28 2.633l0.045-0.030c-3.131 2.182-5.343 5.498-6.045 9.34l-0.014 0.089-5.675 32.171-127.168 14.123c-7.32 0.843-12.951 7.004-12.951 14.48 0 0.287 0.008 0.572 0.025 0.855l-0.002-0.039 29.12 524.395c0.437 7.683 6.774 13.747 14.527 13.747 0.428 0 0.852-0.019 1.271-0.055l-0.054 0.004 366.933-30.592 182.613 30.464c0.73 0.131 1.571 0.205 2.429 0.205 7.13 0 13.057-5.152 14.262-11.936l0.013-0.087 63.701-361.28c0.134-0.741 0.21-1.593 0.21-2.463 0-7.171-5.196-13.129-12.028-14.314l-0.087-0.012z" />
<glyph unicode="&#xe90d;" glyph-name="users" d="M706.005 704c0-94.622-76.706-171.328-171.328-171.328s-171.328 76.706-171.328 171.328c0 94.622 76.706 171.328 171.328 171.328s171.328-76.706 171.328-171.328zM544 495.403c194.411 0 352-101.867 352-227.541s-157.589-227.563-352-227.563c-194.411 0-352 101.888-352 227.563s157.589 227.541 352 227.541zM192 305.771h704v-284.437h-704v284.437z" />
<glyph unicode="&#xe90e;" glyph-name="join" d="M937.707 120.32c-0.002-17.585-12.475-32.256-29.056-35.651l-0.235-0.040-364.416-72.811c-2.095-0.461-4.502-0.726-6.97-0.726-0.062 0-0.124 0-0.186 0h0.010c-20.111 0.012-36.413 16.306-36.437 36.414v36.397h-182.251c-0.006 0-0.014 0-0.021 0-20.112 0-36.416 16.304-36.416 36.416v0 150.187c0 20.124 16.314 36.437 36.437 36.437s36.437-16.314 36.437-36.437v0-113.771h145.771v582.528c0.019 16.383 10.842 30.234 25.726 34.812l0.258 0.068 126.571 37.931h-298.325v-113.771c0-20.124-16.314-36.437-36.437-36.437s-36.437 16.314-36.437 36.437v0 150.187c0 20.112 16.304 36.416 36.416 36.416 0.008 0 0.015 0 0.023 0h583.103c1.458-0.179 2.732-0.419 3.978-0.73l-0.224 0.047c5.799-0.64 11.043-2.565 15.589-5.483l-0.143 0.086c0.789-0.512 1.792-0.555 2.539-1.131 0.299-0.213 0.405-0.619 0.704-0.832 3.969-3.107 7.219-6.935 9.591-11.308l0.094-0.19c0.327-0.786 0.677-1.8 0.972-2.837l0.052-0.213c1.239-2.46 2.235-5.316 2.843-8.312l0.037-0.221c0.009-0.244 0.015-0.53 0.015-0.818 0-0.824-0.044-1.638-0.13-2.439l0.009 0.099c0-0.725 0.512-1.387 0.512-2.133v-728.171zM294.251 567.893c-6.694 6.607-10.841 15.781-10.841 25.924 0 20.112 16.304 36.416 36.416 36.416 10.153 0 19.336-4.155 25.941-10.858l109.295-109.188c3.298-3.312 5.971-7.25 7.824-11.62l0.091-0.241c1.739-4.108 2.749-8.884 2.749-13.897 0-10.066-4.075-19.18-10.664-25.784l-109.29-109.183c-6.593-6.601-15.705-10.684-25.771-10.684-20.116 0-36.423 16.307-36.423 36.423 0 10.050 4.070 19.149 10.652 25.739v0l47.104 47.061h-203.541c-0.262-0.007-0.571-0.011-0.881-0.011-20.112 0-36.416 16.304-36.416 36.416s16.304 36.416 36.416 36.416c0.31 0 0.619-0.004 0.927-0.012l-0.046 0.001h203.541z" />
<glyph unicode="&#xe90f;" glyph-name="exit" d="M435.499 846.379v-58.091h-184.789v-679.723l184.789-0.149v-58.773l337.408 60.544 0.341 675.221zM491.456 474.688c11.775-1.776 20.699-11.824 20.699-23.957 0-0.962-0.056-1.912-0.165-2.845l0.011 0.113c0.097-0.814 0.152-1.757 0.152-2.713 0-12.124-8.911-22.167-20.541-23.937l-0.134-0.017c-11.774 1.777-20.696 11.825-20.696 23.957 0 0.955 0.055 1.897 0.163 2.823l-0.011-0.113c-0.099 0.821-0.155 1.771-0.155 2.734 0 12.125 8.912 22.168 20.543 23.937l0.134 0.017zM305.579 163.328v570.155h129.92v-570.261z" />
<glyph unicode="&#xe910;" glyph-name="QR-Code" d="M96 42.667h378.176v378.24h-378.176v-378.24zM171.605 345.28h226.923v-226.347h-226.923v226.347zM247.253 269.653h75.648v-75.648h-75.648v75.627zM701.099 118.357h75.648v-75.691h-75.648v75.669zM852.373 118.357h75.627v-75.691h-75.627v75.669zM852.373 345.301h-75.627v75.627h-226.944v-378.261h75.648v226.965h75.627v-75.648h226.923v226.923h-75.627v-75.648zM96 496.555h378.176v378.112h-378.176v-378.112zM171.605 799.125h226.923v-226.923h-226.923v226.923zM247.253 723.477h75.648v-75.648h-75.648v75.648zM549.803 874.667v-378.112h378.197v378.112h-378.197zM852.373 572.203h-226.923v226.923h226.923v-226.923zM701.077 723.477h75.669v-75.648h-75.648v75.648z" />
<glyph unicode="&#xe911;" glyph-name="capture-canvas" horiz-adv-x="1444" d="M1089.58 60.17h-630.559c-0.023 0-0.045 0-0.070 0-26.059 0-47.19 21.097-47.25 47.138v282.896c0.037 26.043 21.157 47.146 47.207 47.146 0.033 0 0.070 0 0.115 0h141.906v62.866c0.037 17.359 14.126 31.414 31.487 31.414 0.016 0 0.023 0 0.033 0h283.824c0.014 0 0.023 0 0.031 0 17.359 0 31.45-14.058 31.487-31.414v-62.871h141.913c0.026 0 0.070 0 0.108 0 26.050 0 47.17-21.103 47.207-47.141v-282.894c-0.037-26.043-21.157-47.146-47.207-47.146-0.083 0-0.166 0-0.258 0.001h0.017zM774.235 123.036c77.894 0.275 140.945 63.491 140.945 141.423 0 78.11-63.321 141.423-141.423 141.423s-141.423-63.321-141.423-141.423v0c0.137-78.135 63.508-141.423 141.667-141.423 0.083 0 0.166 0 0.258 0h-0.018zM774.235 377.635c62.35-0.201 112.824-50.79 112.824-113.171 0-62.502-50.671-113.171-113.171-113.171s-113.171 50.671-113.171 113.171c0 0.016 0 0.023 0 0.033v-0.002c0.074 62.535 50.796 113.208 113.346 113.208 0.066 0 0.117 0 0.182 0h-0.013z" />
<glyph unicode="&#xe912;" glyph-name="manage-version" horiz-adv-x="1470" d="M667.23 120v656h538.849v-656zM1065.521 635.431h-257.709v-374.861h257.709zM616.834 260.532v-70.295h-140.568v515.468h140.568v-70.295h-70.266v-374.861zM404.713 330.873v-70.295h-140.569v374.861h140.569v-70.294h-70.266v-234.254z" />
<glyph unicode="&#xe913;" glyph-name="create-version" horiz-adv-x="1381" d="M978.754 80c-115.672 3.013-208.277 97.503-208.277 213.614 0 1.808 0.023 3.609 0.069 5.403l-0.007-0.261c-0.037 1.532-0.068 3.332-0.068 5.129 0 116.13 92.627 210.62 208.041 213.612l0.277 0.008c115.652-3.032 208.245-97.503 208.245-213.614 0-1.817-0.023-3.624-0.069-5.434l0.007 0.264c0.037-1.532 0.068-3.333 0.068-5.129 0-116.114-92.618-210.593-208.001-213.61l-0.28-0.008zM1008.54 329.88v93.881h-59.434v-93.881h-89.355v-62.311h89.355v-93.881h59.173v93.881h89.355v62.277h-89.355zM954.073 590.54v84.622h-245.949v-281.284c-11.050-30.534-17.435-65.78-17.435-102.517 0-48.234 11.015-93.881 30.656-134.588l-0.805 1.859h-146.466v657.386h513.922v-248.198c-32.799 15.066-71.16 23.854-111.58 23.854-0.053 0-0.105 0-0.158 0h0.011c-7.443 0.028-14.886-0.697-22.376-1.127zM417.635 229.179h-22.334v516.245h134.060v-70.417h-67.109v-375.234h67.049v-70.417h-111.657zM194.199 299.756v375.406h134.060v-70.417h-67.007v-234.729h67.007v-70.259z" />
<glyph unicode="&#xe914;" glyph-name="delete-fill" horiz-adv-x="781" d="M128.142 681.684v55.148h126.734v18.468h36.215v18.34h18.090v18.34h162.961v-18.34h18.090v-18.34h36.215v-18.34h126.734v-55.274zM616.399 177.556c0.003-0.193 0.004-0.413 0.004-0.645 0-40.031-32.27-72.521-72.212-72.904h-307.069c-39.973 0.369-72.244 32.872-72.244 72.904 0 0.233 0.002 0.451 0.005 0.676v-0.030c0.089 6.557 1.010 12.872 2.67 18.865l-0.12-0.525h-2.55v441.305h451.509v-441.257h-2.55c1.533-5.49 2.467-11.814 2.549-18.339l0.001-0.052z" />
<glyph unicode="&#xe915;" glyph-name="edit-fill" horiz-adv-x="1078" d="M881.93 637.149l-58.689-58.238-132.574 137.037 60.739 60.033 30.225-1.729 102.606-106.112zM339.24 146.546l6.908-7.113-152.449-19.423 18.142 147.86-1.086 1.055 1.374 1.291 0.553 5.186 2.416-2.305 458.048 425.824 127.279-123.507z" />
<glyph unicode="&#xe916;" glyph-name="play" horiz-adv-x="943" d="M162.664 48c-0.106-0.001-0.225-0.001-0.353-0.001-10.578 0-20.688 2.033-29.952 5.736l0.542-0.19c-8.669 3.343-15.975 8.525-21.727 15.113l-0.056 0.067c-4.833 5.515-7.838 12.733-7.999 20.663l-0.001 0.028v717.2c0.162 7.958 3.167 15.177 8.027 20.725l-0.027-0.033c5.813 6.633 13.125 11.818 21.419 15.025l0.375 0.125c8.714 3.514 18.815 5.547 29.384 5.547 0.126 0 0.265 0 0.391-0.001h-0.025c0.108 0.001 0.227 0.001 0.36 0.001 10.576 0 20.684-2.033 29.946-5.737l-0.542 0.19 617.654-358.583c8.654-3.337 15.956-8.52 21.708-15.079l0.055-0.067c4.957-5.45 7.987-12.725 7.987-20.709s-3.030-15.259-8.016-20.727l0.025 0.025c-5.802-6.631-13.106-11.815-21.385-15.025l-0.375-0.125-617.654-358.617c-8.718-3.514-18.823-5.547-29.397-5.547-0.125 0-0.256 0-0.377 0.001h0.025z" />
<glyph unicode="&#xe917;" glyph-name="daily-tick" d="M72 448c0.005 243.004 196.995 439.991 440 439.991 122.056 0 232.504-49.693 312.206-129.959l0.027-0.027c6.76-6.654 10.951-15.905 10.951-26.134 0-20.246-16.416-36.657-36.657-36.657-10.321 0-19.654 4.264-26.317 11.137l-0.010 0.011c-66.448 66.907-158.486 108.322-260.205 108.322-202.515 0-366.685-164.17-366.685-366.685s164.17-366.685 366.685-366.685c202.515 0 366.685 164.17 366.685 366.685v0c0 20.246 16.416 36.657 36.657 36.657s36.657-16.416 36.657-36.657v0c0-243.008-196.992-440-440-440s-440 196.992-440 440v0zM428.923 300.6l-106.15 108.047c-7.687 7.874-12.432 18.653-12.432 30.541s4.745 22.667 12.442 30.551l-0.010-0.010c7.62 7.807 18.254 12.65 30.014 12.65s22.394-4.842 30.005-12.64l0.009-0.010 76.12-77.44 182.325 185.486c7.62 7.807 18.254 12.65 30.014 12.65s22.394-4.842 30.005-12.64l0.009-0.010c7.689-7.879 12.435-18.664 12.435-30.552s-4.746-22.678-12.445-30.558l0.010 0.010-212.271-216.095c-7.62-7.807-18.254-12.65-30.014-12.65s-22.394 4.842-30.005 12.64l-0.009 0.010z" />
<glyph unicode="&#xe918;" glyph-name="version-delete" horiz-adv-x="983" d="M394.911 157.93c18.619 0 33.707 15.088 33.707 33.707v0 425.818c0 18.619-15.088 33.707-33.707 33.707s-33.707-15.088-33.707-33.707v0-425.787c0-0.009 0-0.020 0-0.027 0-18.619 15.088-33.707 33.707-33.707 0 0 0 0 0 0v0zM588.261 157.93c18.619 0 33.707 15.088 33.707 33.707v0 425.818c0 18.619-15.088 33.707-33.707 33.707s-33.707-15.088-33.707-33.707v0-425.787c0-0.009 0-0.020 0-0.027 0-18.619 15.088-33.707 33.707-33.707 0 0 0 0 0 0v0zM118.63 715.396h37.826v-514.523c0-97.689 86.696-176.885 193.673-176.885h282.867c106.845 0 193.673 79.195 193.673 176.885v514.523h37.705c0.845-0.080 1.829-0.132 2.823-0.132 17.307 0 31.345 14.029 31.345 31.345s-14.029 31.345-31.345 31.345c-0.99 0-1.978-0.045-2.942-0.133l0.128 0.011h-206.191v21.321c-1.973 40.685-35.435 72.931-76.44 72.931-1.166 0-2.325-0.027-3.475-0.080l0.165 0.007h-173.834c-0.986 0.044-2.147 0.076-3.313 0.076-40.994 0-74.45-32.23-76.43-72.731l-0.008-0.181v-21.321h-206.221c-0.845 0.080-1.829 0.132-2.823 0.132-17.307 0-31.345-14.029-31.345-31.345s14.029-31.345 31.345-31.345c0.99 0 1.978 0.045 2.942 0.133l-0.128-0.011zM393.185 799.175c0.292 5.808 5.065 10.416 10.928 10.416 0.167 0 0.333-0.004 0.497-0.013l-0.027 0.001h173.856c0.137 0.008 0.302 0.012 0.469 0.012 5.857 0 10.636-4.602 10.927-10.39l0.001-0.027v-21.321h-196.626zM224.693 715.396h533.633v-514.523c-3.103-63.935-55.696-114.591-120.123-114.591-1.829 0-3.643 0.038-5.452 0.125l0.255-0.011h-282.973c-1.553-0.075-3.366-0.114-5.196-0.114-64.428 0-117.011 50.656-120.11 114.311l-0.013 0.28z" />
<glyph unicode="&#xe919;" glyph-name="version-download" horiz-adv-x="1141" d="M867.014 347.075v-168.070h-592.66v168.070h-113.866v-217.478c2.137-27.762 25.179-49.491 53.317-49.491 1.311 0 2.611 0.048 3.9 0.141l-0.168-0.014h706.311c1.109-0.078 2.403-0.125 3.702-0.125 28.123 0 51.179 21.727 53.301 49.307l0.016 0.181v217.478zM560.187 363.729l-163.035 170.915s-24.828 20.314 2.047 20.314h91.911v248.844s-3.638 12.142 17.395 12.142h129.295c15.177 0 14.74-10.141 14.74-10.141v-245.701h84.776c32.676 0 8.209-21.27 8.209-21.27s-138.674-159.786-157.998-176.461c-3.449-2.995-7.979-4.812-12.946-4.812-5.656 0-10.757 2.368-14.372 6.181l-0.012 0.012z" />
<glyph unicode="&#xe91a;" glyph-name="loading" horiz-adv-x="716" d="M334.603 509.039l0.452-0.236 0.451-0.258c6.494-3.965 14.025-7.104 22.034-9.007l0.537-0.107c8.511 2.012 16.015 5.15 22.831 9.308l-0.342-0.193 0.451 0.258 0.452 0.236c39.023 19.541 74.949 75.089 98.040 135.020h-242.929c23.091-59.921 59.018-115.498 98.040-135.020zM240.003 181.12h235.845l-118.342 90.137zM339.247 370.675c-0.006-0.147-0.009-0.309-0.009-0.473 0-10.383 8.406-18.791 18.791-18.791s18.791 8.406 18.791 18.791c0 10.383-8.406 18.791-18.791 18.791-0.004 0-0.009 0-0.013 0h0.001c-0.064 0.001-0.15 0.002-0.236 0.002-10.166 0-18.415-8.179-18.531-18.303v-0.017zM376.81 311.905c0.006 0.147 0.009 0.309 0.009 0.473 0 10.383-8.406 18.791-18.791 18.791s-18.791-8.406-18.791-18.791c0-10.383 8.406-18.791 18.791-18.791 0.004 0 0.009 0 0.013 0h-0.001c0.073-0.002 0.167-0.003 0.261-0.003 10.129 0 18.375 8.14 18.529 18.234v0.021zM118.071 777.036c-0.31-1.62-0.519-3.539-0.58-5.482l-0.003-0.064c0.061-2.067 0.271-4.042 0.623-5.962l-0.033 0.236v-34.847h38.378c12.535-103.114 73.423-230.953 152.479-270.535v-24.618c-79.056-39.56-139.944-167.441-152.479-270.556h-38.378v-61.125h480.568v61.073h-38.974c-12.533 103.114-73.423 230.953-152.479 270.556v24.618c79.056 39.576 139.965 167.399 152.479 270.535h38.974v61.125h-480.568zM521.873 730.838c-12.49-91.16-66.586-205.39-131.86-238.038l-20.358-10.191v-69.209l20.358-10.17c65.253-32.68 119.368-146.933 131.86-238.091h-327.66c12.49 91.169 66.577 205.433 131.86 238.070l20.358 10.191v69.209l-20.358 10.191c-65.244 32.637-119.347 146.89-131.86 238.038z" />
<glyph unicode="&#xe91b;" glyph-name="scope" d="M792.259 468.977c-10.523 138.771-120.531 248.791-258.366 259.25l-0.948 0.059v135.741h-41.933v-135.72c-37.347-2.608-71.891-12.096-103.201-27.222l1.688 0.734c-17.67-8.515-32.885-18.070-46.882-29.094l0.541 0.405c-18.278-13.702-34.206-28.938-48.156-45.879l-0.381-0.474c-35.562-42.855-58.599-97.253-62.848-156.846l-0.051-0.892h-135.72v-41.933h135.72c4.62-60.436 27.594-114.75 63.299-158.225l-0.39 0.494c14.326-17.41 30.258-32.652 47.82-45.839l0.705-0.508c13.415-10.056 28.586-19.578 44.532-27.831l1.822-0.858c29.58-14.898 64.211-24.463 100.856-26.454l0.663-0.026v-135.845h41.933v135.72c138.771 10.523 248.791 120.531 259.25 258.366l0.059 0.948h135.72v41.933zM656.539 427.044h93.787c-10.112-115.763-101.618-207.269-216.479-217.315l-0.903-0.066v95.992h-41.933v-95.992c-115.763 10.112-207.269 101.618-217.315 216.479l-0.066 0.903h95.992v41.933h-95.992c10.112 115.763 101.618 207.269 216.479 217.315l0.903 0.066v-95.992h41.933v95.992c115.763-10.112 207.269-101.618 217.315-216.479l0.066-0.903h-96.013v-41.933z" />
<glyph unicode="&#xe91c;" glyph-name="back" d="M938.667 384.192h-618.667l234.667-277.397-87.467-85.632-360.533 426.368v18.368l377.6 408.597 91.733-82.048-259.413-280.747h622.080v-127.509z" />
<glyph unicode="&#xe91d;" glyph-name="livelink" d="M806.4 465.451c-16.247-11.904-36.632-19.048-58.685-19.048-26.549 0-50.679 10.353-68.574 27.243l-78.181-56.643c9.041-21.735 14.293-46.982 14.293-73.455 0-40.321-12.181-77.796-33.064-108.947l91.945-47.272c18.484 23.133 46.695 37.824 78.336 37.824 16.981 0 32.974-4.231 46.982-11.697 32.093-17.296 53.901-51.207 53.901-90.212 0-17.142-4.212-33.3-11.658-47.496-16.65-32.285-50.327-54.362-89.16-54.362-16.961 0-32.939 4.211-46.944 11.646-32.077 17.299-53.874 51.204-53.874 90.199 0 9.941 1.417 19.551 4.059 28.64l-99.188 51.18c-38.885-39.049-92.692-63.212-152.143-63.212-0.28 0-0.56 0.001-0.84 0.002-1.098-0.023-2.443-0.036-3.792-0.036-113.395 0-205.581 90.805-207.809 203.667 1.719 103.967 79.754 188.982 180.315 201.64l1.015 106.408c-46.332 9.702-80.629 50.218-80.629 98.744 0 55.659 45.12 100.779 100.779 100.779s100.779-45.12 100.779-100.779c0-48.526-34.297-89.042-79.973-98.629l-0.656-104.649c69.958-2.876 130.898-39.042 167.718-92.982l74.18 52.598c-5.549 12.224-8.783 26.507-8.783 41.546 0 33.935 16.466 64.024 41.844 82.713 16.548 12.117 36.955 19.269 59.033 19.269 33.71 0 63.526-16.675 81.649-42.226 12.018-16.813 19.092-37.405 19.092-59.649 0-33.868-16.397-63.906-41.686-82.608z" />
<glyph unicode="&#xe91e;" glyph-name="next-arrow" d="M362.795 729.045l60.587 60.16 344.299-341.205-344.299-341.205-60.587 60.16 283.605 281.045z" />
<glyph unicode="&#xe91f;" glyph-name="previous-arrow" d="M661.205 166.955l-60.587-60.16-344.299 341.205 344.299 341.205 60.587-60.16-283.605-281.045z" />
<glyph unicode="&#xe920;" glyph-name="session" d="M506.716 441.083c0.015 0 0.030 0 0.047 0 14.94 0 27.050-12.11 27.050-27.050 0-0.018 0-0.032 0-0.050v0.003-97.099l46.218-46.218c4.917-4.917 7.959-11.714 7.959-19.22 0-15.012-12.167-27.179-27.179-27.179-7.506 0-14.299 3.042-19.22 7.959l-54.146 54.146c-4.9 4.897-7.928 11.661-7.928 19.132 0 0.030 0 0.061 0 0.091v-0.005 108.391c0 0.015 0 0.030 0 0.047 0 14.94 12.11 27.050 27.050 27.050 0.018 0 0.032 0 0.050 0h-0.003zM506.716 549.376c134.585 0 243.686-109.102 243.686-243.686s-109.102-243.686-243.686-243.686c-134.585 0-243.686 109.102-243.686 243.686v0c0 134.585 109.102 243.686 243.686 243.686v0zM506.716 495.23c-104.681 0-189.54-84.859-189.54-189.54s84.859-189.54 189.54-189.54c104.681 0 189.54 84.859 189.54 189.54v0c0 104.681-84.859 189.54-189.54 189.54v0zM885.796 657.673v-541.523c0-0.015 0-0.030 0-0.047 0-89.699-72.702-162.414-162.393-162.443h-433.327c-89.712 0-162.443 72.727-162.443 162.443 0 0.018 0 0.032 0 0.050v-0.003 649.863c0 89.712 72.727 162.443 162.443 162.443v0h324.934zM615.009 851.871v-140.052c0.029-29.892 24.254-54.121 54.144-54.146h140.055zM831.646 603.522h-162.443c-59.808 0-108.294 48.484-108.294 108.294v0 162.49h-270.834c-59.777-0.083-108.213-48.52-108.294-108.288v-649.871c0.083-59.777 48.52-108.213 108.288-108.294h433.329c59.777 0.083 108.213 48.52 108.294 108.288v0.008z" />
<glyph unicode="&#xe921;" glyph-name="vertical-menu" d="M640 768c0-58.91-47.756-106.667-106.667-106.667s-106.667 47.756-106.667 106.667c0 58.91 47.756 106.667 106.667 106.667s106.667-47.756 106.667-106.667zM640 448c0-58.91-47.756-106.667-106.667-106.667s-106.667 47.756-106.667 106.667c0 58.91 47.756 106.667 106.667 106.667s106.667-47.756 106.667-106.667zM640 128c0-58.91-47.756-106.667-106.667-106.667s-106.667 47.756-106.667 106.667c0 58.91 47.756 106.667 106.667 106.667s106.667-47.756 106.667-106.667z" />
<glyph unicode="&#xe922;" glyph-name="video" horiz-adv-x="1582" d="M1223.574 708.891l-213.403-123.51v49.336c0 0.018 0 0.053 0 0.088 0 51.45-41.67 93.164-93.12 93.229h-465.55c-51.434-0.062-93.089-41.775-93.089-93.202 0-0.045 0-0.088 0-0.123v0.012-373.376c0-0.049 0-0.088 0-0.148 0-51.436 41.67-93.14 93.089-93.202h465.55c51.436 0.062 93.124 41.775 93.124 93.229 0 0.045 0 0.088 0 0.123v-0.011 49.511l213.403-123.51z" />
<glyph unicode="&#xe923;" glyph-name="upload-video" d="M832.511 781.333h-641.028c-0.11 0.001-0.236 0.001-0.363 0.001-35.072 0-63.528-28.323-63.744-63.338v-443.613c0.216-35.040 28.672-63.363 63.744-63.363 0.126 0 0.253 0 0.379 0.001h371.339c-1.696 9.534-2.7 20.545-2.766 31.783v0.068c1.569 114.012 94.361 205.838 208.595 205.838 48.424 0 92.998-16.5 128.403-44.182l-0.459 0.344v313.099c-0.216 35.040-28.672 63.363-63.744 63.363-0.126 0-0.253 0-0.379-0.001h0.016zM447.901 369.511v253.433l192.305-126.716zM639.383 211.128h96.461v-96.461h64.305v96.461h96.461l-128.617 160.766z" />
<glyph unicode="&#xe924;" glyph-name="barcode" d="M184.674 694.46h56.832v-492.921h-56.832v492.921zM725.683 694.46h56.811v-492.921h-56.811v492.921zM269.911 694.46h28.406v-492.921h-28.406v492.921zM327.353 694.46h13.583v-492.921h-13.583v492.921zM455.189 694.46h28.406v-492.921h-28.406v492.921zM612.040 694.46h27.796v-492.921h-27.796v492.921zM668.872 694.46h27.775v-492.921h-27.775v492.921zM810.9 694.46h28.426v-492.921h-28.426v492.921zM369.951 694.46h56.832v-492.921h-56.832v492.921zM512 694.46h71.024v-492.921h-71.024v492.921zM145.004 733.907v-98.596h-39.67v138.023h138.856v-39.426h-99.186zM878.996 635.311v98.596h-99.186v39.426h138.856v-138.023h-39.67zM244.19 122.667h-138.856v138.023h39.67v-98.596h99.186v-39.426zM878.996 122.667h-99.186v39.426h99.186v98.596h39.67v-138.023h-39.67z" />
<glyph unicode="&#xe925;" glyph-name="website" d="M536.464 374.986v-171.627c14.69 11.911 26.42 26.89 34.286 44.016l0.306 0.759c17.638 37.154 28.646 80.535 30.338 126.293l0.024 0.59zM570.981 549.92c-8.173 17.883-19.902 32.866-34.368 44.587l-0.224 0.175v-171.627h64.945c-1.715 46.352-12.719 89.721-31.21 128.872l0.856-2.006zM409.455 226.040c-20.844 43.577-33.788 94.501-35.628 148.261l-0.023 0.635h-64.792c8.337-66.462 47.339-122.33 102.163-153.676l1.010-0.536q-1.384 2.609-2.735 5.315zM453.038 549.92c-17.638-37.154-28.646-80.534-30.338-126.293l-0.024-0.59h64.945v171.627c-14.688-11.903-26.415-26.87-34.287-43.986l-0.305-0.758zM781.286 824h106.714v-73.867h-106.714v73.867zM422.683 374.986c1.716-46.363 12.717-89.744 31.21-128.897l-0.856 2.007c8.185-17.884 19.908-32.867 34.384-44.586l0.225-0.175v171.627zM136 700.877v-628.877h752v628.877zM512 145.491c-139.725 0.124-252.945 113.434-252.945 253.168 0 139.823 113.344 253.168 253.168 253.168s253.168-113.344 253.168-253.168v0c-0.226-139.806-113.575-253.072-253.394-253.168h-0.013zM136 824h599.19v-73.867h-599.19v73.867zM309.011 423.064h64.792c1.857 54.394 14.799 105.318 36.637 151.208l-0.99-2.312q1.35 2.683 2.735 5.287c-55.831-31.874-94.83-87.729-103.070-153.174l-0.107-1.011zM611.811 577.293c0.923-1.726 1.829-3.504 2.735-5.287 20.845-43.578 33.789-94.502 35.628-148.261l0.024-0.635h64.792c-8.342 66.449-47.347 122.317-102.163 153.659l-1.010 0.535zM650.095 374.936c-1.856-54.394-14.799-105.318-36.637-151.208l0.99 2.312q-1.35-2.702-2.735-5.287c55.839 31.881 94.84 87.749 103.071 153.197l0.107 1.010z" />
<glyph unicode="&#xe926;" glyph-name="phone" d="M303.3 715.567c2.42-36.234 8.535-70.009 18.038-102.326l-0.838 3.332-45.86-45.86c-15.049 42.582-25.399 91.906-28.96 143.092l-0.105 1.779h57.727zM680.169 256.113c29.046-8.552 62.93-14.674 97.838-17.114l1.531-0.086v-56.949c-53.142 3.762-102.584 13.966-149.393 29.898l4.149-1.225 45.86 45.472zM340 792h-133.769c-21.091-0.064-38.162-17.135-38.231-38.222v-0.009c0-0.021 0-0.024 0-0.047 0-358.832 290.89-649.721 649.721-649.721 0.021 0 0.028 0 0.052 0h-0.005c21.091 0.064 38.162 17.135 38.231 38.222v133.386c-0.064 21.091-17.135 38.162-38.222 38.231h-0.009c-0.107 0-0.234 0-0.355 0-48.662 0-95.476 7.976-139.171 22.682l3.074-0.896c-3.246 1.219-7.006 1.913-10.931 1.913-0.322 0-0.656-0.007-0.97-0.021l0.050 0.002c-10.556-0.044-20.124-4.262-27.142-11.081l-84.086-84.086c-108.852 56.48-195.413 143.041-250.362 248.69l-1.526 3.204 84.091 84.078c7.030 6.954 11.39 16.619 11.39 27.283 0 4.187-0.666 8.204-1.912 11.975l0.073-0.278c-13.819 40.542-21.78 87.25-21.78 135.815 0 0.229 0 0.451 0.001 0.666v-0.032c-0.064 21.091-17.135 38.162-38.222 38.231h-0.009z" />
<glyph unicode="&#xe927;" glyph-name="business" horiz-adv-x="1001" d="M881.94 666.42l-153.803 50.474c-1.311 0.439-2.82 0.696-4.378 0.696-0.112 0-0.223-0.002-0.325-0.005h0.021c-1.75-0.039-3.404-0.412-4.92-1.045l0.085 0.028-99.457-40.563v66.8c-0.016 6.074-3.94 11.222-9.395 13.069l-0.097 0.025-278.386 91.383c-1.241 0.435-2.674 0.69-4.174 0.69-0.716 0-1.414-0.060-2.090-0.174l0.075 0.013c-2.348-0.357-4.44-1.227-6.225-2.512l0.042 0.025-203.62-145.191c-3.517-2.524-5.774-6.596-5.783-11.198v-515.465c0.039-5.141 2.898-9.611 7.104-11.934l0.075-0.032 203.674-111.62c1.443-0.775 3.124-1.327 4.916-1.57l0.075-0.010c0.538-0.091 1.168-0.146 1.799-0.146 1.133 0 2.229 0.175 3.27 0.484l-0.075-0.025 550.609 138.874c6.011 1.575 10.373 6.935 10.4 13.325v452.464c0 0.025 0 0.063 0 0.091 0 6.024-3.882 11.153-9.288 12.998l-0.096 0.025zM191.148 223.827c0-0.003 0-0.007 0-0.011 0-1.553-0.766-2.924-1.928-3.774l-0.018-0.012c-0.746-0.518-1.675-0.825-2.67-0.825h-0.001c-0.001 0-0.003 0-0.005 0-0.569 0-1.105 0.11-1.599 0.305l0.025-0.013-40 14.746c-1.775 0.664-3.017 2.337-3.017 4.311 0 0.005 0 0.010 0 0.016v-0.001 77.837c0.017 2.534 2.075 4.587 4.617 4.587 0.255 0 0.505-0.025 0.746-0.063l-0.025 0.005 40-7.523c2.156-0.421 3.763-2.284 3.763-4.529v0-85.037zM191.148 351.397c0 0 0 0 0 0 0-2.528-2.055-4.583-4.583-4.583-0.012 0-0.024 0-0.025 0h-0.425l-40 3.891c-2.341 0.225-4.163 2.179-4.163 4.571 0 0.009 0 0.018 0 0.025v-0.001 77.807c0.023 2.398 1.853 4.366 4.193 4.581l40.016 3.311c0.115 0.012 0.24 0.019 0.375 0.019 2.524 0 4.575-2.046 4.583-4.574v-0.001zM191.148 478.963c-0.010-2.274-1.652-4.151-3.816-4.524l-40.021-6.914h-0.775c0 0 0 0 0 0-2.535 0-4.598 2.050-4.617 4.581v77.731c0.005 2 1.275 3.7 3.064 4.333l0.027 0.013 40 14.129c0.457 0.171 0.975 0.266 1.525 0.266 0.996 0 1.925-0.323 2.674-0.86l-0.018 0.012c1.175-0.848 1.938-2.219 1.946-3.762v-0.001zM191.148 606.529c0-0.025 0.001-0.040 0.001-0.069 0-1.827-1.075-3.415-2.636-4.133l-0.025-0.015-40-17.763c-0.542-0.253-1.175-0.4-1.851-0.4-0.007 0-0.015 0-0.022 0h0.001c0 0 0 0 0 0-2.535 0-4.598 2.050-4.617 4.581v77.807c0 0.011 0 0.023 0 0.025 0 1.63 0.856 3.074 2.139 3.876l0.024 0.014 40 24.983c0.694 0.445 1.541 0.714 2.454 0.714 2.528 0 4.583-2.055 4.583-4.583 0-0.008 0-0.016 0-0.024v0.001-85.037zM298.823 184.197c0-0.004 0-0.008 0-0.012 0-1.542-0.767-2.913-1.928-3.739l-0.018-0.012c-0.742-0.522-1.67-0.825-2.663-0.825-0.003 0-0.006 0-0.009 0v0c-0.57 0-1.109 0.11-1.604 0.305l0.025-0.013-59.361 21.837c-1.775 0.664-3.017 2.337-3.017 4.311 0 0.005 0 0.010 0 0.016v-0.001 93.753c0.006 1.425 0.655 2.696 1.675 3.538l0.010 0.008c0.802 0.661 1.836 1.061 2.974 1.061 0.286 0 0.575-0.025 0.845-0.075l59.331-11.14c2.152-0.406 3.76-2.273 3.763-4.508v0-104.474zM298.823 340.888c0-0.006 0-0.012 0-0.019 0-1.348-0.581-2.563-1.52-3.394l-0.005-0.005c-0.806-0.742-1.881-1.2-3.074-1.2-0.009 0-0.019 0-0.025 0h-0.399l-59.329 5.817c-2.341 0.225-4.163 2.179-4.163 4.571 0 0.009 0 0.018 0 0.025v-0.001 93.783c0 0.005 0 0.011 0 0.017 0 2.395 1.848 4.364 4.197 4.545l0.020 0.001 59.361 4.909c0.125 0.015 0.271 0.024 0.414 0.024 1.191 0 2.274-0.468 3.080-1.225l-0.003 0.003c0.913-0.834 1.477-2.026 1.491-3.36v-104.477zM298.823 497.546c-0.010-2.274-1.652-4.151-3.816-4.524l-59.358-10.242h-0.775c0 0 0 0 0 0-2.535 0-4.598 2.050-4.617 4.581v93.703c0.004 1.981 1.273 3.674 3.030 4.313l0.027 0.013 59.361 20.963c0.457 0.171 0.975 0.266 1.525 0.266 0.996 0 1.925-0.323 2.674-0.86l-0.018 0.012c1.175-0.848 1.938-2.219 1.946-3.762v-104.501zM298.823 654.203c0-0.002 0-0.003 0-0.005 0-1.839-1.075-3.425-2.636-4.174l-0.025-0.015-59.329-26.291c-0.55-0.257-1.193-0.407-1.875-0.407-0.926 0-1.796 0.275-2.521 0.766l0.021-0.013c-1.263 0.826-2.075 2.238-2.075 3.839 0 0.011 0 0.023 0 0.025v-0.002 93.729c0 0.006 0 0.013 0 0.020 0 1.625 0.856 3.063 2.138 3.871l0.024 0.014 59.309 37.016c0.672 0.401 1.475 0.634 2.329 0.634s1.67-0.233 2.355-0.649l-0.025 0.015c1.425-0.808 2.369-2.307 2.374-4.024v-104.348zM457.114 93.56c0-0.007 0-0.014 0-0.022 0-2.144-1.458-3.951-3.43-4.477l-0.028-0.009-94.503-23.837c-0.319-0.081-0.675-0.129-1.051-0.129-0.025 0-0.049 0-0.075 0.001h0.005c-0.004 0-0.008 0-0.012 0-1.070 0-2.046 0.364-2.824 0.973l0.013-0.010c-1.075 0.84-1.763 2.138-1.763 3.599 0 0.012 0 0.025 0 0.025v-0.002 215.566c0.006 2.404 1.846 4.374 4.194 4.581l94.497 8.165c0.125 0.014 0.262 0.022 0.4 0.022 2.531 0 4.591-2.044 4.617-4.574v-199.829zM457.114 343.343c-0.015-2.467-1.954-4.474-4.387-4.582l-0.013-0.001-94.637-4.237c-1.239 0.004-2.373 0.487-3.203 1.277l0.003-0.002c-0.875 0.831-1.415 2.010-1.417 3.308v0 107.729c0 0.001 0 0.003 0 0.005 0 2.528 2.055 4.583 4.583 4.583 0.070 0 0.126-0.002 0.195-0.005h-0.012l94.503-3.6c2.461-0.103 4.418-2.118 4.424-4.581v-99.893zM457.114 493.2c0 0 0 0 0 0 0-2.528-2.055-4.583-4.583-4.583-0.012 0-0.024 0-0.025 0h-0.344l-94.453 7.546c-2.374 0.182-4.237 2.166-4.237 4.574 0 0.006 0 0.012 0 0.018v-0.001 107.75c0.017 2.534 2.075 4.587 4.617 4.587 0.255 0 0.505-0.025 0.746-0.063l-0.025 0.005 94.474-15.363c2.215-0.362 3.876-2.249 3.891-4.527v-99.914zM457.114 643.057c0-2.547-2.070-4.617-4.617-4.617v0c-0.132-0.019-0.292-0.025-0.454-0.025s-0.322 0.011-0.475 0.025l0.025-0.002-94.474 19.383c-2.108 0.459-3.668 2.297-3.674 4.506v107.785c0.006 1.481 0.712 2.806 1.803 3.644l0.014 0.010c0.752 0.577 1.709 0.928 2.744 0.928 0.459 0 0.897-0.073 1.317-0.193l-0.027 0.011 94.474-27.119c1.937-0.568 3.329-2.324 3.329-4.416 0-0.007 0-0.013 0-0.020v0.001-99.891zM575.406 123.431c-0.009-2.13-1.466-3.924-3.43-4.445l-0.027-0.009-76.054-19.221c-0.326-0.075-0.721-0.125-1.114-0.128h-0.012c0 0 0 0-0.001 0-1.074 0-2.053 0.364-2.833 0.973l0.014-0.010c-1.075 0.872-1.753 2.175-1.763 3.653v192.788c0 0.006 0 0.013 0 0.019 0 2.402 1.845 4.374 4.196 4.574l0.022 0.001 76.207 6.583c0.126 0.017 0.279 0.025 0.434 0.025 1.175 0 2.257-0.455 3.062-1.197l-0.004 0.003c0.924-0.834 1.491-2.036 1.491-3.374 0-0.005 0-0.011 0-0.016v0.001zM575.558 348.671c0-0.011 0-0.024 0-0.025 0-2.466-1.952-4.474-4.39-4.559h-0.010l-76.42-3.437c-2.524 0.019-4.574 2.062-4.583 4.581v96.422c0 0.002 0 0.005 0 0.008 0 1.297 0.54 2.473 1.415 3.298l0.002 0.002c0.8 0.794 1.903 1.283 3.124 1.283 0.080 0 0.173-0.003 0.252-0.009l-0.015 0.001 76.207-2.874c2.461-0.103 4.418-2.118 4.424-4.581v-90.076zM575.558 483.817c0-0.020 0-0.030 0-0.054 0-2.524-2.039-4.563-4.563-4.563-0.012 0-0.024 0-0.025 0h-0.344l-76.207 6.074c-2.374 0.181-4.228 2.156-4.237 4.562v96.453c0.017 2.534 2.075 4.587 4.617 4.587 0.255 0 0.505-0.025 0.746-0.063l-0.025 0.005 76.207-12.4c2.2-0.375 3.859-2.259 3.871-4.527v-90.075zM575.558 618.929c0-0.011 0-0.024 0-0.025 0-1.425-0.666-2.708-1.697-3.534l-0.011-0.009c-0.781-0.644-1.8-1.034-2.908-1.037h-0.93l-76.207 15.546c-2.118 0.434-3.674 2.279-3.674 4.495 0 0.005 0 0.009 0 0.014v-0.001 96.503c0 0.003 0 0.006 0 0.009 0 1.497 0.723 2.824 1.825 3.669l0.015 0.011c0.755 0.575 1.715 0.925 2.751 0.925 0.456 0 0.892-0.072 1.31-0.189l-0.027 0.011 76.207-21.87c1.925-0.577 3.309-2.34 3.309-4.424 0-0.001 0-0.002 0-0.003v0-90.074zM701.478 314.509c-0.006-2.404-1.846-4.374-4.194-4.581l-0.023-0.002-59.461-5.091c-0.004 0-0.009 0-0.013 0-1.188 0-2.274 0.458-3.082 1.204l0.004-0.004c-0.924 0.825-1.491 2.025-1.491 3.351 0 0.004 0 0.008 0 0.012v-0.001 126.766c0 0.016 0 0.025 0 0.041 0 1.276 0.526 2.434 1.381 3.266l0.002 0.002c0.825 0.793 1.954 1.28 3.192 1.28 0.073 0 0.131-0.002 0.203-0.006h-0.012l59.061-2.237c2.461-0.103 4.418-2.118 4.424-4.581v-119.439zM701.478 473.783c0-0.008 0-0.017 0-0.025 0-1.325-0.575-2.52-1.486-3.331l-0.005-0.005c-0.806-0.742-1.881-1.2-3.074-1.2-0.009 0-0.019 0-0.025 0h-0.345l-59.061 4.671c-2.369 0.182-4.217 2.15-4.217 4.546 0 0.018 0 0.025 0 0.040v-0.003 126.796c0.012 2.538 2.075 4.596 4.617 4.596 0.325 0 0.63-0.028 0.933-0.094l-0.025 0.007 59.061-12.054c2.125-0.425 3.709-2.274 3.709-4.502 0-0.002 0-0.005 0-0.007v0-119.437zM813.812 637.986c0 0.006 0 0.012 0 0.019 0 2.528 2.055 4.583 4.583 4.583 0.445 0 0.875-0.068 1.282-0.178l-0.027 0.010 40.4-11.6c1.946-0.554 3.351-2.315 3.363-4.399v-66.21c0 0 0 0 0 0 0-2.528-2.055-4.583-4.583-4.583-0.024 0-0.034 0-0.058 0h0.004c-0.132-0.020-0.292-0.025-0.454-0.025s-0.322 0.011-0.475 0.025l0.024-0.002-40.42 8.237c-2.101 0.447-3.654 2.285-3.654 4.488 0 0.007 0 0.014 0 0.022v-0.001 69.62zM813.812 533.654c0 0.015 0 0.025 0 0.036 0 2.524 2.039 4.563 4.563 4.563 0.275 0 0.538-0.025 0.801-0.075l-0.025 0.005 40.42-6.563c2.186-0.377 3.828-2.269 3.837-4.528v-66.184c-0.001-1.326-0.575-2.524-1.487-3.358l-0.005-0.004c-0.825-0.743-1.917-1.2-3.118-1.2-0.003 0-0.006 0-0.008 0v0h-0.346l-40.4 3.2c-2.371 0.216-4.211 2.179-4.217 4.582v69.513zM813.812 429.329c0 0.012 0 0.025 0 0.025 0 2.524 2.039 4.563 4.563 4.563 0.070 0 0.126-0.002 0.195-0.005h-0.012l40.42-1.546c2.467-0.085 4.424-2.109 4.424-4.579 0-0.001 0-0.003 0-0.004v0-66.291c-0.015-2.467-1.954-4.474-4.387-4.582l-0.013-0.001-40.637-1.817c-1.239 0.004-2.373 0.487-3.203 1.277l0.003-0.002c-0.857 0.83-1.383 1.997-1.383 3.282 0 0.009 0 0.019 0 0.025v-0.001 69.6zM801.229 180.414c-0.009-2.13-1.466-3.924-3.43-4.445l-0.027-0.009-47.146-11.891c-0.342-0.101-0.735-0.161-1.145-0.163h-0.001c-2.525 0.025-4.574 2.075-4.583 4.615v150.531c0 0.007 0 0.014 0 0.022 0 2.39 1.826 4.359 4.174 4.573l47.164 4.076c0.13 0.019 0.288 0.025 0.449 0.025 1.177 0 2.257-0.471 3.044-1.225l-0.002 0.002c0.924-0.825 1.492-2.025 1.492-3.352 0-0.016 0-0.025 0-0.034v0.002-142.712zM801.229 358.8c0-0.001 0-0.003 0-0.005 0-2.472-1.948-4.474-4.388-4.578h-0.012l-47.363-2.129c-0.010 0-0.022 0-0.025 0-2.524 0-4.563 2.039-4.563 4.563 0 0.012 0 0.024 0 0.025v-0.002 75.274c0 0.016 0 0.025 0 0.041 0 1.276 0.526 2.434 1.381 3.266l0.002 0.002c0.814 0.813 1.925 1.314 3.171 1.314 0.073 0 0.132-0.002 0.204-0.006h-0.012l47.146-1.783c2.471-0.104 4.424-2.125 4.424-4.612 0-0.002 0-0.003 0-0.005v0-71.329zM801.229 465.837c-0.001-1.325-0.568-2.524-1.468-3.359l-0.004-0.003c-0.825-0.751-1.919-1.219-3.123-1.225h-0.349l-47.146 3.763c-2.372 0.199-4.217 2.174-4.217 4.574 0 0.007 0 0.014 0 0.021v-0.001 75.254c0 0.015 0 0.025 0 0.036 0 2.524 2.039 4.563 4.563 4.563 0.275 0 0.538-0.025 0.801-0.075l-0.025 0.005 47.146-7.654c2.206-0.363 3.871-2.251 3.871-4.524 0-0.002 0-0.003 0-0.005v0-71.329zM801.229 572.874c-0.019-2.524-2.062-4.574-4.581-4.583h-0.002c-0.137-0.020-0.303-0.025-0.471-0.025s-0.325 0.012-0.483 0.025l0.025-0.002-47.114 9.6c-2.103 0.461-3.654 2.306-3.654 4.516 0 0.009 0 0.019 0 0.025v-0.001 75.329c0 0.006 0 0.012 0 0.019 0 2.528 2.055 4.583 4.583 4.583 0.445 0 0.875-0.068 1.282-0.178l-0.027 0.010 47.114-13.522c1.925-0.575 3.309-2.324 3.309-4.406 0-0.010 0-0.020 0-0.025v0.002-71.358zM861.466 192.014l-41.783-10.671c-0.33-0.075-0.725-0.125-1.121-0.129h-0.005c-0.014 0-0.025 0-0.033 0-1.058 0-2.025 0.365-2.8 0.972l0.012-0.009c-1.075 0.853-1.763 2.161-1.763 3.624 0 0.013 0 0.025 0 0.025v-0.002 139.193c0 0.016 0 0.025 0 0.040 0 2.383 1.83 4.345 4.174 4.542l0.021 0.001 40.4 3.491c0.125 0.014 0.262 0.022 0.401 0.022 2.521 0 4.566-2.019 4.616-4.524v-0.006l1.383-132.044c0-0.014 0-0.025 0-0.034 0-2.157-1.475-3.972-3.464-4.486l-0.027-0.009z" />
<glyph unicode="&#xe928;" glyph-name="email" d="M661.333 426.667l277.333 256v-469.333zM87.339 725.333h829.995l-405.333-341.333zM362.667 426.667l-275.328-213.333v469.333zM512 341.333c41.728 28.779 106.667 64 106.667 64 123.883-99.328 298.667-256 298.667-256h-832s202.005 156.864 320 256c0 0 55.936-31.125 106.667-64z" />
<glyph unicode="&#xe929;" glyph-name="Shifts" horiz-adv-x="1041" d="M746.27 477.205c-64.873 0-117.477-52.589-117.477-117.477s52.589-117.477 117.477-117.477c64.873 0 117.477 52.589 117.477 117.477v0c0 64.873-52.589 117.477-117.477 117.477v0zM294.603 832c-65.065-0.888-117.477-53.832-117.477-119.026 0-0.026 0-0.069 0-0.095v0.007c0-64.921 52.632-117.541 117.541-117.541s117.541 52.632 117.541 117.541v0c0 0.024 0 0.061 0 0.086 0 65.247-52.488 118.229-117.536 119.028l-0.072 0.001zM861.552 629.035c-3.869 7.944-11.88 13.32-21.145 13.323h-24.866c-12.216 106.603-101.502 188.761-210.17 189.626l-0.088 0.001h-95.616c-12.982 0-23.496-10.522-23.496-23.496s10.522-23.496 23.496-23.496v0c83.198-0.738 151.889-61.897 164.339-141.695l0.12-0.939h-21.819c-0.024 0-0.040 0-0.070 0-12.976 0-23.493-10.517-23.493-23.493 0-5.592 1.951-10.728 5.215-14.76l-0.030 0.043 93.984-117.477c4.344-5.44 10.968-8.892 18.405-8.892s14.058 3.452 18.36 8.845l0.032 0.047 93.984 117.477c3.248 4.005 5.218 9.151 5.218 14.767 0 3.672-0.84 7.135-2.334 10.236l0.066-0.139zM531.324 111.019c-83.198 0.738-151.889 61.897-164.339 141.695l-0.12 0.939h21.819c0.024 0 0.040 0 0.070 0 12.976 0 23.493 10.517 23.493 23.493 0 5.592-1.951 10.728-5.215 14.76l0.030-0.043-93.909 117.456c-4.488 5.16-11.064 8.412-18.405 8.412s-13.911-3.24-18.372-8.376l-0.024-0.024-93.984-117.477c-3.234-3.992-5.185-9.129-5.185-14.715 0-12.954 10.488-23.457 23.443-23.493h24.819c12.216-106.61 101.514-188.762 210.18-189.626l0.087-0.001h95.595c12.982 0 23.496 10.522 23.496 23.496s-10.522 23.496-23.496 23.496v0zM861.147 253.621c-29.523-29.064-70.060-47.016-114.795-47.016s-85.273 17.947-114.823 47.035l0.024-0.024c-30.723-30.375-49.752-72.525-49.755-119.113v-46.995c0-0.006 0-0.014 0-0.021 0-12.976 10.517-23.493 23.493-23.493h282.096c12.976 0 23.493 10.517 23.493 23.493 0 0.007 0 0.015 0 0.022v-0.001 46.992c0 0.009 0 0.019 0 0.024 0 46.584-19.012 88.725-49.703 119.082l-0.019 0.019zM409.499 608.587c-29.524-29.067-70.065-47.018-114.805-47.018s-85.282 17.951-114.833 47.045l0.024-0.024c-30.67-29.784-49.711-71.401-49.755-117.466v-47.003c0-12.976 10.517-23.493 23.493-23.493h282.117c12.976 0 23.493 10.517 23.493 23.493v0 46.992c-0.025 46.058-19.060 87.673-49.671 117.433l-0.036 0.034z" />
<glyph unicode="&#xe92a;" glyph-name="mail" horiz-adv-x="1159" d="M535.829 422.858c-47.245 0.109-89.685 20.587-119.019 53.116l-0.127 0.143-277.184 303.098c-3.617 3.959-5.833 9.252-5.833 15.062 0 12.351 10.012 22.363 22.363 22.363 6.54 0 12.425-2.808 16.514-7.284l0.016-0.017 277.106-303.060c21.598-23.132 52.275-37.55 86.318-37.55s64.72 14.418 86.255 37.481l0.063 0.069 276.604 302.635c4.109 4.621 10.070 7.518 16.708 7.518 12.329 0 22.323-9.994 22.323-22.323 0-5.936-2.317-11.332-6.097-15.331l0.010 0.011-276.643-302.674c-29.52-32.715-72.051-53.205-119.368-53.258h-0.010zM155.952 282.238c-12.246 0.108-22.132 10.061-22.132 22.322 0 6.424 2.714 12.215 7.058 16.288l0.012 0.011 243.661 222.496c3.961 3.645 9.27 5.88 15.101 5.88 12.334 0 22.332-9.998 22.332-22.332 0-6.503-2.78-12.357-7.215-16.438l-0.016-0.014-243.661-222.573c-3.955-3.502-9.188-5.64-14.92-5.64-0.077 0-0.154 0-0.232 0.001h0.012zM819.27 368.17c-0.018 0-0.040 0-0.062 0-5.79 0-11.063 2.216-15.016 5.847l0.016-0.015-149.541 136.526c-4.113 4.051-6.661 9.681-6.661 15.906 0 12.329 9.994 22.323 22.323 22.323 5.514 0 10.561-1.999 14.455-5.312l-0.032 0.026 149.618-136.333c4.322-4.086 7.012-9.859 7.012-16.261 0-12.262-9.87-22.219-22.099-22.36h-0.013zM913.042-64c-135.637 0-245.592 109.955-245.592 245.592s109.955 245.592 245.592 245.592c135.637 0 245.592-109.955 245.592-245.592v0c0-12.329-9.994-22.323-22.323-22.323s-22.323 9.994-22.323 22.323v0c-0.069 110.863-89.957 200.709-200.83 200.709-110.915 0-200.83-89.915-200.83-200.83s89.915-200.83 200.83-200.83c54.278 0 103.526 21.532 139.669 56.521l-0.054-0.052c3.858 3.27 8.892 5.258 14.391 5.258 12.329 0 22.323-9.994 22.323-22.323 0-5.797-2.21-11.078-5.833-15.047l0.016 0.017c-43.958-42.694-104.017-69.016-170.225-69.016-0.142 0-0.283 0-0.425 0h0.022zM913.042 69.977c-61.665 0-111.654 49.989-111.654 111.654s49.989 111.654 111.654 111.654c61.665 0 111.654-49.989 111.654-111.654v0c-0.088-61.629-50.024-111.566-111.645-111.654h-0.008zM913.042 248.599c-36.986 0-66.969-29.983-66.969-66.969s29.983-66.969 66.969-66.969c36.986 0 66.969 29.983 66.969 66.969v0c-0.066 36.96-30.010 66.903-66.963 66.969h-0.006zM667.643 156.218h-556.376c-61.494 0.198-111.267 50.093-111.267 111.614 0 0.014 0 0.028 0 0.041v-0.002 580.475c0 0.012 0 0.025 0 0.039 0 61.521 49.774 111.417 111.249 111.614h845.821c61.46-0.241 111.19-50.12 111.19-111.614 0-0.014 0-0.028 0-0.042v0.002-468.86c0-12.286-9.96-22.246-22.246-22.246s-22.246 9.96-22.246 22.246v0 468.86c0 0 0 0 0 0 0 36.918-29.873 66.859-66.765 66.969h-845.735c-36.903-0.11-66.776-30.051-66.776-66.969 0 0 0 0 0 0v0-580.475c0 0 0 0 0 0 0-36.918 29.873-66.859 66.765-66.969h556.386c12.329 0 22.323-9.994 22.323-22.323s-9.994-22.323-22.323-22.323v0zM1068.221 91.759c-49.319 0.022-89.292 40.008-89.292 89.331v0c0 12.329 9.994 22.323 22.323 22.323s22.323-9.994 22.323-22.323v0c0-24.657 19.989-44.646 44.646-44.646s44.646 19.989 44.646 44.646v0c0 12.329 9.994 22.323 22.323 22.323s22.323-9.994 22.323-22.323v0c0-49.322-39.973-89.309-89.29-89.331h-0.002z" />
<glyph unicode="&#xe92b;" glyph-name="mobile" d="M692.608 21.333c0.277-0.004 0.603-0.006 0.93-0.006 41.237 0 74.667 33.429 74.667 74.667 0 1.015-0.020 2.025-0.060 3.030l0.005-0.144v698.176c0.037 0.88 0.058 1.912 0.058 2.95 0 41.237-33.429 74.667-74.667 74.667-0.328 0-0.656-0.002-0.983-0.006l0.050 0.001h-339.947c-0.277 0.004-0.604 0.006-0.931 0.006-41.237 0-74.667-33.429-74.667-74.667 0-1.022 0.021-2.040 0.061-3.052l-0.005 0.145v-698.112c-0.038-0.893-0.060-1.94-0.060-2.993 0-41.237 33.429-74.667 74.667-74.667 0.329 0 0.657 0.002 0.984 0.006l-0.050-0.001h339.947zM522.667 53.717c-0.292-0.008-0.636-0.012-0.981-0.012-21.396 0-38.741 17.345-38.741 38.741s17.345 38.741 38.741 38.741c21.396 0 38.741-17.345 38.741-38.741 0-0.003 0-0.006 0-0.009v0c0.002-0.134 0.003-0.293 0.003-0.451 0-20.958-16.846-37.981-37.736-38.268h-0.027zM428.203 827.328c-0.001 0.038-0.001 0.083-0.001 0.128 0 4.62 3.727 8.369 8.339 8.405h172.142c4.639-0.096 8.363-3.879 8.363-8.532 0-0.001 0-0.001 0-0.002v0-2.283c0.001-0.044 0.001-0.097 0.001-0.149 0-4.616-3.73-8.36-8.34-8.384h-172.162c-4.63 0.107-8.341 3.886-8.341 8.531 0 0.001 0 0.002 0 0.002v0 2.283zM314.88 777.813h415.488v-619.563h-415.488v619.563z" />
<glyph unicode="&#xe92c;" glyph-name="note" horiz-adv-x="804" d="M201.079 243.2h402.125v-102.4h-402.125zM201.079 448h402.125v-102.4h-402.125zM502.682 960h-402.159c-55.67-0.712-100.525-46.007-100.525-101.778 0-0.219 0.001-0.437 0.002-0.656v0.034-819.2c-0.004-0.317-0.006-0.691-0.006-1.066 0-55.515 44.639-100.605 99.982-101.333l0.069-0.001h603.716c55.67 0.712 100.525 46.007 100.525 101.778 0 0.219-0.001 0.437-0.002 0.656v-0.034 614.4zM703.761 38.4h-603.238v819.2h351.881v-256h251.324z" />
<glyph unicode="&#xe92d;" glyph-name="trade" d="M873.622 81.1c-20.548 15.887-43.812 30.161-68.549 41.794l-2.283 0.969-89.811 41.457c-9.751-26.617-22.951-49.628-39.359-69.935l0.36 0.457c-9.559-11.861-19.935-22.356-31.28-31.712l-0.364-0.298h253.811zM350.027 95.883c-16.052 19.844-29.248 42.851-38.462 67.797l-0.547 1.677-89.811-41.558c-27.031-12.612-50.288-26.877-71.699-43.414l0.87 0.649-22.515-17.157h253.811c-11.71 9.654-22.086 20.149-31.325 31.602l-0.319 0.409zM658.334 204.716v5.119c-39.246-33.197-90.424-53.38-146.317-53.38s-107.069 20.182-146.65 53.665l0.333-0.271v-5.119c0-0.016 0-0.024 0-0.037 0-9.012-5.284-16.783-12.921-20.392l-0.135-0.062s34.679-120.363 159.39-120.363 159.362 120.363 159.362 120.363c-7.772 3.67-13.056 11.439-13.056 20.452 0 0.019 0 0.024 0 0.040v-0.003zM512 201.742c100.945 0.127 182.729 81.947 182.818 182.889v80.962h-365.644v-80.951c0.084-100.953 81.88-182.77 182.813-182.9h0.017zM281.293 511.306h461.414c12.423 0 22.481 10.070 22.481 22.481s-10.070 22.481-22.481 22.481h-18.921v23.249c-0.035 72.315-36.408 136.131-91.829 174.185l-0.716 0.46v-94.757c-0.418-12.116-10.347-21.777-22.519-21.777s-22.099 9.661-22.519 21.742l-0.001 0.035v109.070c0.001 3.052 0.608 5.95 1.715 8.596l-0.057-0.148c-15.549 6.166-33.59 10.682-52.379 12.717l-0.937 0.078v-158.063c-0.418-12.116-10.347-21.777-22.519-21.777s-22.099 9.661-22.519 21.742l-0.001 0.035v158.063c-19.731-2.126-37.771-6.641-54.746-13.293l1.424 0.498c1.050-2.509 1.658-5.416 1.659-8.482v-109.175c-0.418-12.116-10.347-21.777-22.519-21.777s-22.099 9.661-22.519 21.742l-0.001 0.035v94.88c-56.163-38.524-92.533-102.332-92.576-174.647v-23.258h-18.921c-12.423 0-22.481-10.070-22.481-22.481s10.070-22.481 22.481-22.481v0zM631.054 768.473c0 0.024 0 0.064 0 0.092 0 12.405-10.058 22.463-22.463 22.463-9.397 0-17.435-5.765-20.788-13.955l-0.056-0.152c16.559-6.446 30.831-14.094 44.004-23.196l-0.698 0.457zM415.357 790.954c-12.423 0-22.481-10.070-22.481-22.481v0-14.156c12.473 8.648 26.736 16.295 41.844 22.241l1.426 0.501c-3.463 8.235-11.464 13.91-20.788 13.91-0.005 0-0.010 0-0.015 0h0.001zM534.463 789.771v19.875c0.011 0.221 0.017 0.496 0.017 0.755 0 12.423-10.070 22.481-22.481 22.481s-22.481-10.070-22.481-22.481c0-0.264 0.006-0.534 0.018-0.793l-0.001 0.035v-19.875c6.746 0.762 14.553 1.199 22.471 1.199s15.734-0.437 23.424-1.28l-0.944 0.081z" />
<glyph unicode="&#xe92e;" glyph-name="warning" d="M508.894 696.593c-0.015 0-0.034 0-0.052 0-20.096 0-36.386-16.291-36.386-36.386 0-0.684 0.019-1.364 0.056-2.039l-0.004 0.094 14.507-264.806c0.595-10.435 9.202-18.671 19.733-18.671 0.011 0 0.021 0 0.032 0h4.196c0.009 0 0.020 0 0.030 0 10.531 0 19.138 8.236 19.731 18.618l0.002 0.052 14.473 264.806c0.033 0.581 0.052 1.261 0.052 1.946 0 20.090-16.281 36.377-36.369 36.386h-0.001zM531.661 243.644c0-10.915-8.848-19.763-19.763-19.763s-19.763 8.848-19.763 19.763c0 10.915 8.848 19.763 19.763 19.763v0c10.915 0 19.763-8.848 19.763-19.763v0zM1018.334 461.653l-492.715 492.681c-3.495 3.492-8.322 5.651-13.653 5.651s-10.158-2.159-13.653-5.651v0l-492.646-492.681c-3.492-3.495-5.651-8.322-5.651-13.653s2.159-10.158 5.651-13.653v0l492.646-492.681c3.495-3.492 8.322-5.651 13.653-5.651s10.158 2.159 13.653 5.651v0l492.715 492.681c3.492 3.495 5.651 8.322 5.651 13.653s-2.159 10.158-5.651 13.653v0zM936.209 407.040l-383.283-383.283c-10.494-10.458-24.972-16.925-40.96-16.925s-30.466 6.466-40.962 16.926l-383.281 383.281c-10.458 10.494-16.925 24.972-16.925 40.96s6.466 30.466 16.926 40.962l383.281 383.281c10.494 10.458 24.972 16.925 40.96 16.925s30.466-6.466 40.962-16.926l383.281-383.281c10.458-10.494 16.925-24.972 16.925-40.96s-6.466-30.466-16.926-40.962l0.002 0.002zM525.585 842.547c-3.488 3.508-8.317 5.679-13.653 5.679s-10.166-2.171-13.652-5.678l-380.861-380.997c-3.508-3.488-5.679-8.317-5.679-13.653s2.171-10.166 5.678-13.652l380.963-380.861c3.488-3.508 8.317-5.679 13.653-5.679s10.166 2.171 13.652 5.678l380.895 380.963c3.508 3.488 5.679 8.317 5.679 13.653s-2.171 10.166-5.678 13.652l-0.001 0.001zM511.932 186.88c-31.878 0-57.719 25.842-57.719 57.719s25.842 57.719 57.719 57.719c31.878 0 57.719-25.842 57.719-57.719v0c-0.019-31.839-25.815-57.646-57.647-57.685h-0.004zM568.559 395.366c-1.695-30.513-26.851-54.613-57.636-54.613-0.029 0-0.059 0-0.088 0h-4.091c-0.025 0-0.054 0-0.084 0-30.785 0-55.941 24.101-57.629 54.464l-0.007 0.15-14.097 257.843c-0.076 1.255-0.119 2.723-0.119 4.2 0 40.813 33.086 73.899 73.899 73.899s73.899-33.086 73.899-73.899c0-1.478-0.043-2.945-0.129-4.401l0.009 0.201z" />
<glyph unicode="&#xe92f;" glyph-name="timelapse-icon" d="M509.815 875.247c0.209 0 0.457 0.001 0.705 0.001 223.857 0 408.287-168.804 432.945-386.066l0.184-1.997 3.857-34.748 76.527 76.493-23.893 23.893-28.194-28.16c-41.688 220.006-232.43 384.137-461.507 384.137-0.219 0-0.438 0-0.657 0h0.034c-11.605 0-23.347-0.41-34.816-1.263l2.458-33.485c10.684 0.785 21.572 1.195 32.358 1.195zM514.185 6.076c-0.211 0-0.46-0.001-0.709-0.001-223.845 0-408.268 168.786-432.941 386.031l-0.184 1.997-3.857 34.748-76.493-76.527 23.893-23.893 28.194 28.194c41.631-220.073 232.406-384.274 461.533-384.274 0.246 0 0.492 0 0.739 0.001h-0.038c11.639 0 23.381 0.41 34.816 1.263l-2.492 33.485c-10.752-0.649-21.641-1.024-32.461-1.024zM512 774.485c-0.051 0-0.111 0-0.171 0-184.366 0-333.824-149.458-333.824-333.824s149.458-333.824 333.824-333.824c184.366 0 333.824 149.458 333.824 333.824v0c-0.175 184.236-149.431 333.552-333.627 333.824h-0.026zM528.691 141.073v82.603h-33.348v-82.603c-152.465 8.977-273.859 130.418-282.723 282.084l-0.038 0.813h82.637v33.382h-82.637c8.902 152.479 130.296 273.92 281.941 282.858l0.819 0.039v-82.603h33.348v82.603c152.465-8.977 273.859-130.418 282.723-282.084l0.038-0.813h-82.739v-33.382h82.569c-8.893-152.424-130.198-273.835-281.764-282.858l-0.826-0.039zM912.794 438.647c0 0.095 0 0.207 0 0.319 0 222.446-180.328 402.773-402.773 402.773-105.207 0-200.993-40.337-272.736-106.39l0.284 0.258 22.699-24.747c65.455 60.020 153.070 96.802 249.276 96.802 203.99 0 369.357-165.367 369.357-369.357 0-96.206-36.782-183.82-97.049-249.549l0.247 0.274 24.781-22.699c65.661 71.304 105.916 166.887 105.916 271.871 0 0.156 0 0.312 0 0.468v-0.024zM144.759 442.641c0 0.106 0 0.231 0 0.357 0 96.243 36.909 183.865 97.344 249.484l-0.235-0.258-24.747 22.699c-67.466-71.84-108.913-168.804-108.913-275.449 0-222.446 180.328-402.773 402.773-402.773 106.645 0 203.609 41.447 275.663 109.111l-0.214-0.199-22.699 24.781c-65.497-60.216-153.247-97.127-249.617-97.127-203.971 0-369.323 165.351-369.323 369.323 0 0.018 0 0.036 0 0.054v-0.003zM528.623 487.629v137.421h-33.587v-137.421c-19.723-7.084-33.574-25.623-33.574-47.398 0-27.749 22.495-50.244 50.244-50.244 21.775 0 40.314 13.852 47.288 33.224l0.11 0.35h70.417v33.348h-70.246c-5.161 14.387-16.28 25.528-30.302 30.609l-0.35 0.111zM511.829 423.561c-9.275 0-16.794 7.519-16.794 16.794s7.519 16.794 16.794 16.794c9.275 0 16.794-7.519 16.794-16.794v0c0-0.030 0-0.066 0-0.102 0-9.275-7.519-16.794-16.794-16.794 0 0 0 0 0 0v0z" />
<glyph unicode="&#xe930;" glyph-name="telephone-gray" d="M250.705 871.994c-23.917-0.616-45.134-11.674-59.35-28.761l-0.105-0.133-76.114-86.982c-17.153-22.396-27.484-50.796-27.484-81.615 0-3.208 0.113-6.389 0.334-9.533l-0.027 0.424c0-109.665 77.739-271.301 223.899-417.556s307.891-223.899 417.556-223.899c2.716-0.192 5.88-0.305 9.075-0.305 30.723 0 59.027 10.332 81.628 27.71l-0.316-0.238 86.982 76.114c17.312 14.29 28.472 35.499 29.22 59.326l0.004 0.128c-0.858 23.738-11.585 44.822-28.178 59.367l-0.092 0.080-119.592 119.592c-14.035 17.047-35.143 27.829-58.775 27.829s-44.73-10.789-58.669-27.704l-0.104-0.133s-45.675-45.516-46.681-46.395c-8.829-8.405-15.9-9.434-23.993-4.579l-221.482 221.567c-7.685 7.685-1.516 15.709 3.233 22.016 1.134 1.505 47.699 48.324 47.699 48.324 17.259 13.993 28.189 35.191 28.189 58.945s-10.941 44.952-28.053 58.834l-0.137 0.111-119.592 119.592c-14.551 16.555-35.527 27.152-58.989 27.863l-0.126 0.004zM279.24 813.215l119.592-119.592c12.19-12.19 15.285-16.186 15.285-28.27s-4.473-17.047-15.285-27.863c0 0-46.66-46.819-47.985-48.335-8.726-9.222-15.032-20.823-17.842-33.736l-0.082-0.47c-0.716-3.324-1.127-7.147-1.127-11.064 0-13.396 4.794-25.683 12.752-35.225l-0.075 0.084 228.319-228.319c10.024-7.696 22.745-12.328 36.554-12.328 3.41 0 6.752 0.286 9.999 0.822l-0.349-0.048c13.048 2.817 24.364 8.962 33.385 17.505l-0.028-0.027c1.77 1.463 48.865 48.441 48.865 48.441 10.812 10.812 16.345 15.285 28.27 15.285s16.006-3.095 28.27-15.285l119.592-119.592c8.123-6.802 13.706-16.4 15.252-27.291l0.027-0.237c-0.371-17.066-1.092-15.9-14.278-27.528l-86.982-76.114c-15.581-10.552-34.799-16.842-55.485-16.842-2.238 0-4.455 0.078-6.654 0.22l0.295-0.019c-87.861 0-246.89 71.252-386.923 211.338s-210.988 298.797-210.988 386.658c-0.143 2.025-0.232 4.379-0.232 6.76 0 20.505 6.177 39.576 16.767 55.435l-0.232-0.363 76.114 86.982c6.323 8.362 16.050 13.865 27.086 14.412l0.081 0.004c11.415-1.489 21.289-7.138 28.215-15.354l0.055-0.069z" />
<glyph unicode="&#xe931;" glyph-name="upload-icon" horiz-adv-x="768" d="M642.357 641.605l-199.2 166.395c-18.286 14.245-41.359 23.143-66.48 23.993l-0.192 0.007h-229.659c-0.006 0-0.014 0-0.021 0-28.056 0-50.808-22.725-50.853-50.76v-0.006c0-6.699 0.357-670.395 0.357-673.92-0.032-0.648-0.060-1.403-0.060-2.16 0-22.614 18.33-40.944 40.944-40.944 0.57 0 1.136 0.016 1.704 0.031l-0.076-0.004 484.56-0.24c27.045 0.456 48.788 22.488 48.788 49.596 0 0.613-0.015 1.224-0.029 1.844l0.003-0.086v459.621c-0.529 26.328-11.857 49.917-29.724 66.594l-0.057 0.052zM376.485 829.861v0zM514.944 339.205c-2.614-4.589-7.464-7.647-13.033-7.647-0.312 0-0.63 0.013-0.936 0.024l0.041-0.003h-68.085v-164.805c0.005-0.141 0.008-0.312 0.008-0.476 0-10.488-8.31-19.045-18.701-19.442l-0.032-0.001h-58.464c-10.078 0.456-18.072 8.745-18.072 18.888 0 0.36 0.013 0.72 0.024 1.080l-0.003-0.050v164.805h-68.805c-0.264-0.023-0.583-0.024-0.892-0.024-5.572 0-10.436 3.048-12.998 7.564l-0.036 0.072c-0.971 1.953-1.534 4.256-1.534 6.696 0 3.517 1.176 6.746 3.159 9.336l114.775 166.155c2.881 4.509 7.856 7.462 13.525 7.462s10.644-2.952 13.49-7.392l0.035-0.070 114.885-166.197c1.982-2.568 3.172-5.825 3.172-9.357 0-2.42-0.552-4.698-1.551-6.738l0.037 0.090zM439.179 587.2c0.981 0 1.989-0.096 3.003-0.096v0q-1.536 0.096-3.003 0.096zM442.197 589.264c-0.362-0.019-0.794-0.024-1.228-0.024-18.504 0-33.504 15-33.504 33.504 0 0.643 0.024 1.272 0.055 1.896l-0.005-0.084v140.949l220.101-176.208z" />
<glyph unicode="&#xe932;" glyph-name="downarrow" d="M1024 857.6h-1024l512-804.557z" />
<glyph unicode="&#xe933;" glyph-name="calender-Icon" d="M497.698 729.122c21.978 0.078 39.765 17.912 39.765 39.902 0 0.036 0 0.072 0 0.108v-0.006 99.772c0 22.037-17.865 39.902-39.902 39.902s-39.902-17.865-39.902-39.902v-19.968h-94.618v-79.804h94.788c0-0.030 0-0.066 0-0.102 0-22.025 17.845-39.882 39.866-39.902h0.002zM753.596 729.122c22.037 0 39.902 17.865 39.902 39.902v0 99.874c0 22.037-17.865 39.902-39.902 39.902s-39.902-17.865-39.902-39.902v-19.968h-94.754v-79.804h94.788c0-0.030 0-0.066 0-0.102 0-22.025 17.845-39.882 39.866-39.902h0.002zM967.612 838.929h-120.934v-93.184h74.923v-139.742h-829.44v139.742h120.969c0-25.449 20.631-46.080 46.080-46.080s46.080 20.631 46.080 46.080v116.497c0 25.449-20.631 46.080-46.080 46.080s-46.080-20.631-46.080-46.080v0-23.279h-167.049c-25.479-0.135-46.081-20.821-46.081-46.318 0-0.108 0-0.216 0.001-0.324v0.017-698.675c-0.001-0.081-0.001-0.177-0.001-0.274 0-25.498 20.602-46.183 46.068-46.318h236.694c-19.162 26.55-34.052 57.645-42.848 91.207l-0.433 1.943h-147.319v419.226h829.44v-419.191h-147.354c-9.25-35.503-24.136-66.595-43.85-93.981l0.569 0.831h236.681c25.483 0.155 46.081 20.848 46.081 46.352 0 0.084 0 0.169-0.001 0.253v-0.013 698.641c0 0.071 0.001 0.155 0.001 0.24 0 25.516-20.617 46.217-46.102 46.352h-0.013zM607.983 181.35l-63.147 36.454c-0.82 9.622-5.848 17.924-13.214 23.145l-0.098 0.066v110.046c0 10.019-8.122 18.142-18.142 18.142s-18.142-8.122-18.142-18.142v0-110.046c-8.266-5.79-13.604-15.27-13.604-25.997 0-17.475 14.166-31.642 31.642-31.642 4.905 0 9.549 1.116 13.692 3.108l-0.19-0.082 63.078-36.42c2.6-1.526 5.726-2.428 9.062-2.428 10.012 0 18.129 8.117 18.129 18.129 0 6.676-3.608 12.509-8.981 15.655l-0.086 0.046zM513.399 201.421c-7.541 0-13.653 6.113-13.653 13.653s6.113 13.653 13.653 13.653c7.541 0 13.653-6.113 13.653-13.653v0c0 0 0 0 0 0 0-7.529-6.093-13.634-13.617-13.653h-0.002zM506.846 386.253c-0.010 0-0.022 0-0.034 0-110.205 0-199.543-89.339-199.543-199.543s89.339-199.543 199.543-199.543c110.205 0 199.543 89.339 199.543 199.543v0c-0.116 110.146-89.366 199.408-199.496 199.543h-0.013zM506.846 23.484c-90.147 0-163.226 73.079-163.226 163.226s73.079 163.226 163.226 163.226c90.135 0 163.206-73.059 163.226-163.19v-0.002c-0.078-90.122-73.106-163.162-163.216-163.26h-0.010z" />
<glyph unicode="&#xe934;" glyph-name="barcode1" horiz-adv-x="1280" d="M213.327 960h-170.498c-23.654 0-42.829-19.175-42.829-42.829v-170.654c-0.099-1.093-0.156-2.365-0.156-3.649 0-23.654 19.175-42.829 42.829-42.829s42.829 19.175 42.829 42.829c0 1.285-0.057 2.556-0.167 3.812l0.012-0.163v128.136h127.981c22.031 1.94 39.18 20.304 39.18 42.673s-17.149 40.733-39.017 42.662l-0.163 0.012zM1237.327 192c-23.654 0-42.829-19.175-42.829-42.829v0-128.019h-127.669c-22.031-1.94-39.18-20.304-39.18-42.673s17.149-40.733 39.017-42.662l0.163-0.012h170.654c23.654 0 42.829 19.175 42.829 42.829v0 170.537c0 0 0 0 0 0 0 23.654-19.175 42.829-42.829 42.829-0.055 0-0.109 0-0.164 0h0.008zM1237.327 960h-170.498c-22.031-1.94-39.18-20.304-39.18-42.673s17.149-40.733 39.017-42.662l0.163-0.012h128.019v-127.981c1.94-22.031 20.304-39.18 42.673-39.18s40.733 17.149 42.662 39.017l0.012 0.163v170.498c0 23.654-19.175 42.829-42.829 42.829-0.014 0-0.027 0-0.041 0h0.002zM213.327 21.346h-127.981v127.825c-1.94 22.031-20.304 39.18-42.673 39.18s-40.733-17.149-42.662-39.017l-0.012-0.163v-170.654c0-23.654 19.175-42.829 42.829-42.829v0h170.498c22.031 1.94 39.18 20.304 39.18 42.673s-17.149 40.733-39.017 42.662l-0.163 0.012zM170.654 789.346h85.346v-682.654h-85.346v682.654zM341.346 789.346h85.346v-512h-85.346v512zM512 789.346h85.346v-512h-85.346v512zM682.654 789.346h85.346v-682.654h-85.346v682.654zM853.346 789.346h85.346v-512h-85.346v512zM1024 789.346h85.346v-682.654h-85.346v682.654zM341.346 192h85.346v-85.346h-85.346v85.346zM512 192h85.346v-85.346h-85.346v85.346zM853.346 192h85.346v-85.346h-85.346v85.346z" />
<glyph unicode="&#xe935;" glyph-name="bluetooth" horiz-adv-x="649" d="M648.533 668.16l-291.089 291.84h-51.2v-389.12l-234.769 235.52-71.475-71.68 285.969-286.72-285.969-286.72 71.475-71.68 234.906 235.52v-389.12h51.2l291.089 291.84-219.716 220.16zM408.508 765.44l97.041-97.28-97.041-97.28zM505.549 227.84l-97.041-97.28v194.56z" />
<glyph unicode="&#xe936;" glyph-name="bluetooth-new" horiz-adv-x="922" d="M575.488 447.488l118.784-118.784c14.259 35.448 22.53 76.548 22.53 119.58 0 42.534-8.081 83.181-22.793 120.489l0.774-2.228-119.467-119.057zM846.336 718.575l-64.853-64.853c31.775-59.806 50.433-130.764 50.433-206.080s-18.658-146.274-51.604-208.504l1.17 2.424 61.44-61.44c49.331 77.064 78.633 171.069 78.633 271.918 0 98.577-27.997 190.616-76.473 268.598l1.254-2.165zM650.479 667.887l-292.079 292.113h-51.2v-388.335l-234.735 234.735-72.465-72.465 285.969-285.935-285.969-285.969 72.465-72.431 234.735 234.735v-388.335h51.2l292.079 292.113-219.648 219.887 219.648 219.887zM409.6 763.904l96.256-96.256-96.256-95.983zM505.856 228.011l-96.256-95.983v192.512z" />
<glyph unicode="&#xe937;" glyph-name="location11" d="M521.523 120.115c51.2 53.146 291.021 314.743 291.021 546.133-4.005 162.914-137.022 293.45-300.527 293.45s-296.522-130.537-300.52-293.079l-0.007-0.371c0-231.526 239.855-493.124 291.021-546.133 2.415-2.484 5.789-4.025 9.523-4.025s7.108 1.541 9.52 4.022l0.003 0.003zM303.070 666.249c2.591 113.457 95.178 204.44 209.015 204.44s206.425-90.983 209.011-204.2l0.004-0.24c-2.591-113.457-95.178-204.44-209.015-204.44s-206.425 90.983-209.011 204.2l-0.004 0.24zM680.38 197.871c-4.915-6.554-9.83-13.005-14.677-19.251 121.617-15.155 205.722-47.787 205.722-85.333 0-52.224-160.939-94.549-359.458-94.549s-359.458 42.325-359.458 94.549c0 37.751 84.139 70.315 205.722 85.333-4.847 6.246-9.728 12.698-14.677 19.251-199.953-18.159-343.552-68.335-343.552-127.181 0-74.377 229.239-134.69 512-134.69s512 60.314 512 134.69c0 58.846-143.599 109.022-343.62 127.181z" />
<glyph unicode="&#xe938;" glyph-name="verify-report" d="M672 15.616c-51.627 9.067-223.403 81.067-223.403 319.701 0 171.115 76.352 29.547 223.424 165.653 147.029-136.107 223.381 5.461 223.381-165.653 0-238.613-171.797-310.635-223.403-319.701zM763.264 307.883l-15.317 15.317c-1.31 1.295-3.111 2.094-5.099 2.094s-3.789-0.8-5.099-2.095l-91.732-91.732-43.669 43.989c-1.309 1.312-3.12 2.124-5.12 2.124s-3.811-0.812-5.12-2.124v0l-15.317-15.296c-1.286-1.317-2.079-3.121-2.079-5.109s0.793-3.792 2.081-5.111l-0.001 0.001 48.597-48.896 0.171-0.256 10.667-10.667 2.283-2.389 2.261-2.133c1.302-1.31 3.106-2.121 5.099-2.121s3.796 0.811 5.098 2.12v0l112.299 112.256c1.265 1.307 2.044 3.091 2.044 5.056s-0.779 3.749-2.046 5.058l0.002-0.002zM711.765 596.843h-40.533c-3.285 0-6.4 0.491-9.813 0.491s-6.528-0.405-9.813-0.491h-424.533v-39.68h279.168c-44.113-24.818-80.615-58.198-108.293-98.155l-0.699-1.066h-170.347v-39.808h147.435c-14.531-28.81-25.077-62.281-29.816-97.593l-0.179-1.628h-117.44v-39.68h114.432c0-0.661 0-1.323 0-1.984 0-0.006 0-0.014 0-0.022 0-34.731 5.541-68.168 15.787-99.475l-0.64 2.259h-129.579v-39.68h145.536c23.159-47.965 56.175-87.874 96.658-118.409l0.814-0.588h-249.472c-39.398 0.585-71.111 32.66-71.111 72.142 0 0.355 0.003 0.71 0.008 1.064l-0.001-0.054v707.029c-0.005 0.3-0.007 0.655-0.007 1.010 0 39.482 31.713 71.557 71.056 72.141l0.055 0.001h426.667l142.229-146.283v-157.867c-22.428 10.054-48.507 17.912-75.746 22.307l-1.822 0.242v3.776zM595.392 845.76v-170.667h165.931z" />
<glyph unicode="&#xe939;" glyph-name="manage-dashboard" d="M512.029 626.967c-0.010 0-0.022 0-0.029 0-98.806 0-178.906-80.098-178.906-178.906s80.098-178.906 178.906-178.906c98.763 0 178.836 80.029 178.906 178.775v0.007c-0.073 98.791-80.093 178.871-178.858 179.031h-0.017zM512.029 309.179c-0.010 0-0.022 0-0.029 0-76.634 0-138.758 62.124-138.758 138.758s62.124 138.758 138.758 138.758c76.634 0 138.758-62.124 138.758-138.758 0-0.031 0-0.067 0-0.098v0.006c-0.16-76.52-62.195-138.496-138.721-138.568h-0.007zM963.924 549.755h-101.409c-8.271 28.351-18.7 52.949-31.586 75.987l0.937-1.825 71.676 71.71c3.613 3.628 5.844 8.635 5.844 14.159s-2.232 10.531-5.845 14.16l-115.475 115.538c-3.688 3.474-8.675 5.611-14.159 5.611s-10.471-2.136-14.17-5.621l0.011 0.011-71.802-71.71c-21.238 11.947-45.869 22.379-71.701 30l-2.558 0.647v101.503c0 0.010 0 0.023 0 0.030 0 11.031-8.897 19.983-19.911 20.075h-163.372c-11.086 0-20.076-8.989-20.076-20.076v0-101.503c-28.407-8.288-53.043-18.729-76.126-31.62l1.837 0.942-71.71 71.612c-3.628 3.613-8.635 5.844-14.159 5.844s-10.531-2.232-14.16-5.845l0.001 0.001-115.476-115.349c-3.613-3.628-5.844-8.635-5.844-14.159s2.232-10.531 5.845-14.16l71.709-71.709c-11.941-21.207-22.389-45.799-30.055-71.59l-0.657-2.572h-101.473c0 0 0 0 0 0-11.086 0-20.076-8.989-20.076-20.076 0-0.043 0-0.088 0-0.134v0.007-163.393c0-11.086 8.989-20.076 20.076-20.076v0h101.444c8.304-28.397 18.755-53.019 31.652-76.092l-0.943 1.838-71.676-71.646c-3.604-3.63-5.83-8.638-5.83-14.159s2.226-10.529 5.832-14.16l115.412-115.348c3.628-3.613 8.635-5.844 14.159-5.844s10.531 2.232 14.16 5.845l71.738 71.675c21.244-11.994 45.87-22.453 71.71-30.096l2.547-0.645v-101.38c0-11.086 8.989-20.076 20.076-20.076v0h163.427c11.086 0 20.076 8.989 20.076 20.076v0 101.283c28.389 8.293 53.013 18.756 76.076 31.678l-1.821-0.937 71.676-71.676c3.628-3.613 8.635-5.844 14.159-5.844s10.531 2.232 14.16 5.845l-0.001-0.001 115.442 115.315c3.613 3.628 5.844 8.635 5.844 14.159s-2.232 10.531-5.845 14.16l0.001-0.001-71.676 71.769c11.948 21.24 22.383 45.87 30 71.705l0.646 2.555h101.409c11.062 0.034 20.012 9.008 20.012 20.076 0 0 0 0 0 0v0 163.393c0 0.010 0 0.022 0 0.029 0 11.062-8.95 20.037-20.009 20.075h-0.004zM943.849 386.489h-96.783c-9.41-0.002-17.309-6.477-19.48-15.216l-0.029-0.14c-8.525-34.818-21.57-65.461-38.74-93.295l0.796 1.386c-1.849-2.98-2.942-6.598-2.942-10.472 0-5.542 2.242-10.56 5.87-14.195v0l68.372-68.465-87.061-86.934-68.406 68.406c-3.635 3.628-8.653 5.87-14.195 5.87-3.871 0-7.489-1.093-10.558-2.99l0.088 0.049c-26.434-16.417-57.070-29.49-89.671-37.578l-2.206-0.462c-8.872-2.212-15.341-10.103-15.356-19.505v-96.755h-123.027v96.724c-0.002 9.41-6.477 17.309-15.216 19.48l-0.14 0.029c-34.796 8.549-65.42 21.623-93.218 38.833l1.375-0.794c-2.98 1.854-6.601 2.951-10.474 2.951-5.542 0-10.559-2.246-14.19-5.875l-68.465-68.406-87.032 86.968 68.406 68.465c3.634 3.631 5.883 8.652 5.883 14.198 0 3.861-1.091 7.463-2.979 10.526l0.049-0.088c-16.371 26.456-29.434 57.106-37.543 89.715l-0.467 2.221c-2.212 8.872-10.103 15.341-19.505 15.356h-96.818v123.091h96.783c9.399 0.011 17.285 6.464 19.479 15.186l0.029 0.14c8.594 34.798 21.656 65.416 38.81 93.243l-0.799-1.395c1.838 2.975 2.925 6.578 2.925 10.437 0 5.546-2.249 10.567-5.883 14.198v0l-68.372 68.435 86.997 86.997 68.406-68.343c3.635-3.629 8.657-5.874 14.203-5.874 3.858 0 7.462 1.088 10.521 2.97l-0.088-0.049c26.457 16.365 57.11 29.408 89.723 37.484l2.213 0.463c8.879 2.202 15.354 10.099 15.356 19.506v0 96.845h123.057v-96.816c0.002-9.41 6.477-17.309 15.216-19.48l0.14-0.029c34.818-8.533 65.461-21.577 93.298-38.741l-1.386 0.796c2.979-1.841 6.586-2.929 10.453-2.929 5.552 0 10.579 2.251 14.216 5.887l68.406 68.435 87.061-87.061-68.372-68.435c-3.641-3.632-5.896-8.659-5.896-14.211 0-3.865 1.091-7.478 2.986-10.541l-0.049 0.088c16.371-26.415 29.414-57.029 37.486-89.606l0.461-2.208c2.212-8.872 10.103-15.341 19.505-15.356h96.784v-123.091z" />
<glyph unicode="&#xe93a;" glyph-name="pause" horiz-adv-x="589" d="M418.679-64c-10.322 1.578-18.138 10.393-18.138 21.034 0 0.779 0.042 1.548 0.123 2.305l-0.008-0.094v977.613c-0.076 0.671-0.119 1.448-0.119 2.236 0 10.591 7.792 19.362 17.956 20.892l0.116 0.014h152.098c10.3-1.58 18.097-10.379 18.097-20.998 0-0.755-0.039-1.501-0.116-2.236l0.008 0.092v-977.613c0.074-0.665 0.116-1.435 0.116-2.216 0-10.629-7.798-19.436-17.985-21.014l-0.119-0.015zM18.022-64c-10.322 1.578-18.138 10.393-18.138 21.034 0 0.779 0.042 1.548 0.123 2.305l-0.008-0.094v977.613c-0.075 0.669-0.118 1.445-0.118 2.231 0 10.603 7.81 19.381 17.991 20.897l0.116 0.014h152.064c10.316-1.565 18.13-10.372 18.13-21.003 0-0.753-0.039-1.498-0.116-2.231l0.008 0.092v-977.613c0.073-0.663 0.115-1.432 0.115-2.211 0-10.641-7.816-19.456-18.019-21.019l-0.118-0.015z" />
<glyph unicode="&#xe93b;" glyph-name="add-user" horiz-adv-x="1177" d="M862.444 81.519c1.909 3.365 3.031 7.39 3.031 11.678 0 4.581-1.284 8.865-3.504 12.516l0.062-0.107c-2.222 3.264-4.744 6.087-7.601 8.532l-0.059 0.047c-15.32 10.802-33.704-6.093-39.066-8.579v0c-40.752-18.655-114.253-17.583-212.645-16.121-28.837 0.383-59.902 0.766-93.076 0.766s-64.156-0.425-92.993-0.766q-37.193-0.613-69.435-0.689c-145.541 0-181.049 17.277-181.049 88.397 0 125.319 123.716 211.041 315.1 218.314 11.501 0.722 20.754 9.474 22.243 20.673l0.017 0.127c0.198 1.176 0.315 2.528 0.315 3.907 0 10.355-6.409 19.223-15.466 22.845l-0.169 0.060c-55.494 20.223-95.751 103.143-95.751 197.135 0 101.458 47.374 166.954 120.61 166.954s120.687-65.535 120.687-166.954c0-94.337-40.41-177.254-96.057-197.218-9.325-3.583-15.831-12.468-15.831-22.869 0-1.394 0.12-2.755 0.335-4.082l-0.025 0.141c1.359-11.354 10.578-20.167 21.987-20.914l0.075-0.005c1.023-0.14 2.206-0.229 3.4-0.229 4.888 0 9.471 1.353 13.373 3.703l-0.122-0.069c10.393 5.388 19.315 11.109 27.652 17.544l-0.418-0.309c8.988 6.708 16.918 13.843 24.137 21.638l0.104 0.116c42.56 51.916 68.353 119.001 68.353 192.113 0 3.61-0.066 7.215-0.184 10.8l0.018-0.522c0 149.109-84.261 215.862-167.414 215.862s-167.379-66.761-167.379-215.862c-0.101-2.937-0.161-6.393-0.161-9.858 0-72.834 25.511-139.712 68.094-192.169l-0.441 0.567c-180.589-25.205-293.77-123.716-293.77-261.444 0-127.199 98.745-137.311 227.814-137.311 21.681 0 45.006 0.383 70.048 0.689 57.262 0.801 127.463 0.801 184.726 0 25.052-0.383 48.447-0.689 70.048-0.689v0c8.955-0.698 19.382-1.098 29.904-1.098 47.293 0 92.7 8.078 134.911 22.923l-2.844-0.874c11.791 3.676 21.572 10.952 28.309 20.507l0.117 0.175zM852.91 165.589c-13.47 0.281-24.285 11.262-24.285 24.777 0 0.187 0.003 0.383 0.008 0.571l-0.001-0.026v162.783h-156.195c-13.596 0.54-24.406 11.697-24.406 25.372s10.81 24.832 24.358 25.37l0.049 0.002h156.157v162.746c-0.015 0.283-0.024 0.629-0.024 0.964 0 13.432 10.892 24.324 24.324 24.324s24.324-10.892 24.324-24.324c0-0.335-0.009-0.68-0.026-1.011l0.002 0.047v-162.746h156.195c13.596-0.54 24.406-11.697 24.406-25.372s-10.81-24.832-24.358-25.37l-0.049-0.002h-156.195v-162.746c0.002-0.107 0.003-0.23 0.003-0.355 0-13.56-10.791-24.592-24.245-25.001l-0.034-0.001z" />
<glyph unicode="&#xe93c;" glyph-name="list" d="M759.467 192h-494.933c-4.713 0-8.533 3.821-8.533 8.533v0 494.933c0 4.713 3.821 8.533 8.533 8.533v0h494.933c4.713 0 8.533-3.821 8.533-8.533v0-494.933c0-4.713-3.821-8.533-8.533-8.533v0zM273.067 209.067h477.867v477.867h-477.867zM375.595 405.141c-23.682 0-42.88 19.198-42.88 42.88s19.198 42.88 42.88 42.88c23.682 0 42.88-19.198 42.88-42.88v0c-0.024-23.672-19.208-42.856-42.878-42.88h-0.002zM375.595 473.728c-14.209 0-25.728-11.519-25.728-25.728s11.519-25.728 25.728-25.728c14.209 0 25.728 11.519 25.728 25.728v0c-0.012 14.204-11.524 25.716-25.727 25.728h-0.001zM375.595 260.608c-23.682 0-42.88 19.198-42.88 42.88s19.198 42.88 42.88 42.88c23.682 0 42.88-19.198 42.88-42.88v0c-0.024-23.672-19.208-42.856-42.878-42.88h-0.002zM375.595 329.195c-14.209 0-25.728-11.519-25.728-25.728s11.519-25.728 25.728-25.728c14.209 0 25.728 11.519 25.728 25.728v0c0 0.006 0 0.014 0 0.021 0 14.213-11.516 25.737-25.727 25.749h-0.001zM682.88 567.275h-197.205c-4.713 0-8.533 3.821-8.533 8.533v0 34.325c0 4.713 3.821 8.533 8.533 8.533h197.205c4.713 0 8.533-3.821 8.533-8.533v0-34.304c0-0.006 0-0.014 0-0.021 0-4.713-3.821-8.533-8.533-8.533 0 0 0 0 0 0v0zM494.251 584.341h180.053v17.067h-180.053zM682.88 422.293h-197.205c-4.713 0-8.533 3.821-8.533 8.533v0 34.347c0 4.713 3.821 8.533 8.533 8.533h197.205c4.713 0 8.533-3.821 8.533-8.533v0-34.304c0-0.013 0-0.028 0-0.043 0-4.713-3.821-8.533-8.533-8.533 0 0 0 0 0 0v0zM494.251 439.36h180.053v17.067h-180.053zM682.88 277.312h-197.205c-4.713 0-8.533 3.821-8.533 8.533v0 34.304c0 4.713 3.821 8.533 8.533 8.533h197.205c4.713 0 8.533-3.821 8.533-8.533v0-34.304c0-4.713-3.821-8.533-8.533-8.533v0zM494.251 294.379h180.053v17.067h-180.053zM375.595 575.829c-0.002 0-0.004 0-0.007 0-2.365 0-4.506 0.962-6.052 2.517v0l-25.728 25.728c-1.551 1.551-2.51 3.693-2.51 6.059 0 4.732 3.836 8.568 8.568 8.568 2.366 0 4.508-0.959 6.059-2.51v0l25.728-25.728c1.585-1.551 2.568-3.711 2.568-6.102 0-4.713-3.821-8.533-8.533-8.533-0.033 0-0.066 0-0.098 0.001h0.005zM375.445 575.403c-0.021 0-0.046 0-0.071 0-4.713 0-8.533 3.821-8.533 8.533 0 1.884 0.611 3.626 1.645 5.038l-0.017-0.024 42.88 60.011c1.574 2.185 4.111 3.591 6.976 3.591 4.734 0 8.572-3.838 8.572-8.572 0-1.869-0.598-3.598-1.613-5.007l0.017 0.025-42.859-60.011c-1.566-2.181-4.095-3.584-6.951-3.584-0.016 0-0.032 0-0.048 0h0.002zM375.573 550.251c-19.827 0.030-36.49 13.538-41.32 31.851l-0.067 0.298c-0.171 0.64-0.27 1.375-0.27 2.133 0 4.732 3.836 8.568 8.568 8.568 3.974 0 7.316-2.706 8.285-6.375l0.013-0.060c2.955-11.113 12.926-19.167 24.779-19.167s21.823 8.055 24.738 18.989l0.041 0.179c0.982 3.73 4.324 6.435 8.299 6.435 4.732 0 8.568-3.836 8.568-8.568 0-0.758-0.098-1.493-0.283-2.193l0.013 0.060c-4.902-18.6-21.55-32.101-41.36-32.149h-0.005zM358.4 622.208c-0.029 0-0.064-0.001-0.098-0.001-4.713 0-8.533 3.821-8.533 8.533 0 3.182 1.741 5.957 4.323 7.424l0.042 0.022c6.187 3.628 13.626 5.771 21.565 5.771 3.783 0 7.452-0.486 10.949-1.4l-0.3 0.067c3.73-0.982 6.435-4.324 6.435-8.299 0-4.732-3.836-8.568-8.568-8.568-0.758 0-1.493 0.098-2.193 0.283l0.060-0.013c-1.903 0.503-4.088 0.792-6.341 0.792-4.734 0-9.169-1.276-12.981-3.504l0.122 0.066c-1.222-0.729-2.692-1.163-4.264-1.173h-0.003z" />
<glyph unicode="&#xe93d;" glyph-name="livehuddle" d="M818.731 207.531h-623.168l10.667-30.187h601.813zM192 225.301h630.272v408.469h-6.187l-6.4-6.4-63.68-63.552v-276.075h-477.76v283.52h345.216l62.656 62.507c-131.285 3.072-484.117 0-484.117 0zM498.667 392l61.675 17.067 222.592 222.592-44.672 44.672-222.571-222.571zM787.221 725.333l-34.816-34.816 44.672-44.693 34.795 34.795z" />
<glyph unicode="&#xe93e;" glyph-name="searching" d="M206.229 198.677l-10.667 30.208h623.168l-10.667-30.208zM515.2 248.661l-7.36 7.339h-315.84v426.667h618.667v-426.667h-271.595c-1.295-6.584-7.021-11.482-13.891-11.482-3.896 0-7.423 1.575-9.981 4.123v0zM746.667 298.667v341.333h-490.667v-341.333h209.195l-62.677 62.699c-12.257-8.906-27.606-14.248-44.203-14.248-41.803 0-75.691 33.888-75.691 75.691s33.888 75.691 75.691 75.691c41.803 0 75.691-33.888 75.691-75.691 0-0.016 0-0.032 0-0.048v0.003c0-0.060 0-0.132 0-0.204 0-15.144-4.497-29.238-12.229-41.019l0.175 0.284 83.2-83.2zM304.683 422.784c0-29.455 23.878-53.333 53.333-53.333s53.333 23.878 53.333 53.333c0 29.455-23.878 53.333-53.333 53.333v0c-29.455 0-53.333-23.878-53.333-53.333v0zM327.467 395.051c-0.872 0.958-1.406 2.237-1.406 3.641 0 0.288 0.023 0.572 0.066 0.848l-0.004-0.031c0.235 1.131 0.448 2.453 0.661 3.584 1.547 7.236 6.054 13.197 12.164 16.661l0.124 0.065c1.35 0.849 2.912 1.536 4.574 1.978l0.119 0.027 3.584 0.875 6.784-26.496 1.088 17.429c-1.253 0.438-2.136 1.61-2.136 2.988 0 0.045 0.001 0.089 0.003 0.133v-0.006 1.579c0.046 1.831 1.518 3.303 3.345 3.349h3.14c1.726-0.167 3.067-1.598 3.093-3.347v-1.582c0-0.007 0-0.015 0-0.023 0-1.405-0.876-2.605-2.111-3.084l-0.023-0.008 1.365-17.429 6.699 26.581 3.563-0.875c1.78-0.52 3.33-1.203 4.766-2.057l-0.094 0.052c3.237-1.793 5.926-4.196 7.994-7.075l0.049-0.072c1.97-2.718 3.45-5.929 4.234-9.405l0.033-0.174c0.183-0.711 0.289-1.527 0.289-2.368 0-0.429-0.027-0.851-0.080-1.265l0.005 0.049c0.054-0.279 0.085-0.599 0.085-0.927 0-1.373-0.545-2.619-1.431-3.533l0.001 0.001c-7.956-7.352-18.634-11.861-30.366-11.861-0.005 0-0.009 0-0.014 0h0.001c-11.663 0.005-22.274 4.507-30.193 11.865l0.028-0.025zM339.499 442.176c0 10.239 8.3 18.539 18.539 18.539s18.539-8.3 18.539-18.539c0-10.239-8.3-18.539-18.539-18.539v0c-10.232 0.024-18.517 8.325-18.517 18.56 0 0.008 0 0.015 0 0.023v-0.001z" />
<glyph unicode="&#xe93f;" glyph-name="stylus" d="M172.629 108.8c-1.217 1.216-1.97 2.897-1.97 4.754 0 0.765 0.128 1.499 0.363 2.184l-0.014-0.047 17.067 51.2c0.035 0.075 0.071 0.138 0.11 0.198l-0.004-0.006 9.877 29.653c0.356 1.019 0.91 1.889 1.622 2.603v0l555.648 555.541c8.198 8.587 19.734 13.925 32.517 13.925 24.813 0 44.928-20.115 44.928-44.928 0-12.778-5.334-24.309-13.897-32.49l-0.017-0.016-555.691-555.691c-0.725-0.716-1.61-1.271-2.597-1.607l-0.048-0.014-29.611-9.877c-0.067-0.045-0.144-0.088-0.225-0.124l-0.010-0.004-51.2-17.067c-0.636-0.211-1.369-0.335-2.13-0.341h-0.003c-1.866 0.065-3.531 0.88-4.711 2.15l-0.004 0.004zM188.053 124.224l31.531 10.517c-4.611 9.157-11.862 16.415-20.747 20.912l-0.266 0.122zM202.88 168.533c13.163-6.125 23.51-16.459 29.498-29.241l0.155-0.369 22.251 7.424-44.48 44.437zM699.733 680.299l44.437-44.437 17.451 17.451-44.331 44.437zM321.088 108.8c-1.217 1.226-1.969 2.914-1.969 4.779s0.752 3.553 1.969 4.779v0l323.947 323.776c1.223 1.222 2.913 1.977 4.779 1.977s3.555-0.756 4.779-1.978v0l53.973-53.973c1.227-1.221 1.986-2.911 1.986-4.779s-0.759-3.558-1.986-4.778v0l-269.931-269.931c-0.661-0.661-29.589-0.981-58.56-0.981s-58.325 0.341-58.987 1.109zM632.363 410.389l44.437-44.437 17.451 17.451-44.437 44.437zM699.029 405.611l-27.029 26.987c-1.216 1.222-1.967 2.907-1.967 4.768s0.751 3.546 1.967 4.768v0l27.008 26.987c1.22 1.221 2.906 1.976 4.768 1.976s3.548-0.755 4.768-1.976l26.987-26.987c1.221-1.22 1.976-2.906 1.976-4.768s-0.755-3.548-1.976-4.768v0l-26.987-27.008c-1.226-1.217-2.914-1.969-4.779-1.969s-3.553 0.752-4.779 1.969v0zM766.528 446.144l-53.995 53.888c-1.221 1.22-1.976 2.906-1.976 4.768s0.755 3.548 1.976 4.768v0l42.773 42.795c8.118 8.17 19.36 13.227 31.783 13.227 0.039 0 0.077 0 0.116 0h-0.006c24.771-0.133 44.8-20.245 44.8-45.034 0-0.008 0-0.015 0-0.023v0.001c-0.043-12.403-5.072-23.622-13.185-31.767l-42.772-42.794c-1.226-1.217-2.914-1.969-4.779-1.969s-3.553 0.752-4.779 1.969v0z" />
<glyph unicode="&#xe940;" glyph-name="export" d="M681.216 431.936v-79.893h-163.627v-128h163.627v-64l49.067 45.333v-22.592c0.007-0.321 0.011-0.699 0.011-1.077 0-29.324-23.469-53.166-52.648-53.77l-0.056-0.001h-368.875c-29.236 0.603-52.706 24.446-52.706 53.771 0 0.409 0.005 0.817 0.014 1.223l-0.001-0.061v530.283c-0.007 0.321-0.011 0.699-0.011 1.077 0 29.324 23.469 53.166 52.648 53.77l0.056 0.001h316.16l105.387-109.717v-271.68zM582.848 720.085v-128h114.432zM550.293 324.331h147.2v-65.387h-147.2zM697.237 389.952v-179.84l82.112 89.941z" />
<glyph unicode="&#xe941;" glyph-name="import" d="M719.509 224.085v-41.237c0.014-0.46 0.022-1.002 0.022-1.545 0-28.818-22.856-52.297-51.429-53.3l-0.092-0.003h-360.533c-28.646 1.028-51.478 24.498-51.478 53.301 0 0.544 0.008 1.086 0.024 1.626l-0.002-0.079v530.304c-0.014 0.46-0.022 1.002-0.022 1.545 0 28.818 22.856 52.297 51.429 53.3l0.092 0.003h309.035l102.997-109.717v-306.24h-80.171v79.893l-143.68-135.872 143.68-135.936v64zM575.467 592.064h111.851l-111.851 128zM622.592 321.749h145.216v-64.533h-145.216zM622.784 386.517v-177.493l-81.067 88.747z" />
<glyph unicode="&#xe942;" glyph-name="active" d="M672 154.219h-320l-160 285.547 160 285.568h320l160-285.547zM624 643.733h-224l-112-203.968 112-203.968h224l112 203.968zM608.299 268.437h-192l-96 171.328 96 171.328h192l96-171.328zM596.245 517.44c-1.559 1.644-3.759 2.667-6.197 2.667s-4.639-1.023-6.194-2.663l-0.004-0.004h-0.875l-118.741-122.603c-0.78-0.825-1.882-1.339-3.104-1.339s-2.324 0.514-3.102 1.337l-48.727 52.034-0.875 0.875c-1.56 1.651-3.764 2.679-6.208 2.679s-4.648-1.028-6.204-2.674l-0.004-0.004-12.395-12.352c-1.631-1.557-2.645-3.748-2.645-6.176s1.014-4.619 2.641-6.173l0.003-0.003 1.771-2.645 69.12-74.091c1.559-1.644 3.759-2.667 6.197-2.667s4.639 1.023 6.194 2.663l0.004 0.004 141.76 146.496c1.631 1.557 2.645 3.748 2.645 6.176s-1.014 4.619-2.641 6.173l-0.003 0.003z" />
<glyph unicode="&#xe943;" glyph-name="tick" d="M95.168 416.32c-6.045 5.584-9.817 13.552-9.817 22.4s3.772 16.816 9.797 22.381l45.973 44.819c5.856 5.933 13.987 9.607 22.976 9.607s17.12-3.675 22.973-9.604l3.289-3.203 180.501-189.013c2.929-2.964 6.994-4.799 11.488-4.799s8.559 1.835 11.486 4.798l439.788 445.399h3.285c5.856 5.933 13.987 9.607 22.976 9.607s17.12-3.675 22.973-9.604l45.955-44.803c6.045-5.584 9.817-13.552 9.817-22.4s-3.772-16.816-9.797-22.381l-0.021-0.019-525.12-531.883c-5.856-5.933-13.987-9.607-22.976-9.607s-17.12 3.675-22.973 9.604l-256.003 269.102z" />
<glyph unicode="&#xe944;" glyph-name="abc" d="M737.557 274.325c-21.35 27.212-34.239 61.948-34.239 99.695 0 2.062 0.038 4.114 0.115 6.157l-0.009-0.295h-55.659c0.064-1.768 0.1-3.846 0.1-5.932 0-37.182-11.536-71.67-31.224-100.080l0.382 0.583c-18.074-24.87-47.066-40.855-79.792-40.855-1.033 0-2.063 0.016-3.089 0.048l0.15-0.004c-1.765-0.104-3.829-0.163-5.907-0.163-36.404 0-68.557 18.2-87.856 45.998l-0.232 0.352-1.387-40.683h-30.784v140.8h-87.467v-72.917c-0.132-2.536-0.207-5.505-0.207-8.492 0-20.084 3.396-39.374 9.644-57.329l-0.371 1.224v-3.285h-35.115c-3.81 12.365-6.13 26.607-6.398 41.349l-0.002 0.144c-11.524-14.878-26.305-26.684-43.315-34.458l-0.717-0.294c-16.505-7.733-35.84-12.246-56.229-12.246-0.189 0-0.379 0-0.568 0.001h0.029c-1.341-0.065-2.913-0.101-4.493-0.101-24.849 0-47.575 9.090-65.035 24.126l0.13-0.11c-16.318 14.349-26.561 35.27-26.561 58.584 0 0.659 0.008 1.316 0.024 1.972l-0.002-0.097c-0.020 0.657-0.031 1.429-0.031 2.204 0 23.817 10.591 45.16 27.321 59.576l0.102 0.086h-54.869v28.139h117.504c13.516 2.556 29.063 4.018 44.952 4.018 0.697 0 1.393-0.003 2.088-0.008l-0.107 0.001h59.733v33.835c0.053 0.984 0.083 2.136 0.083 3.295 0 18.384-7.624 34.987-19.883 46.82l-0.019 0.018c-13.911 11.505-31.932 18.484-51.583 18.484-2.012 0-4.008-0.073-5.983-0.217l0.265 0.015c-1.036 0.043-2.253 0.067-3.474 0.067-20.124 0-38.698-6.634-53.655-17.835l0.233 0.167c-13.507-9.427-22.298-24.802-22.549-42.244v-0.039l-32.981 0.235c0.509 25.413 13.334 47.727 32.733 61.276l0.248 0.164c21.108 16.24 47.915 26.028 77.007 26.028 1.428 0 2.85-0.024 4.266-0.070l-0.206 0.005c1.957 0.118 4.246 0.185 6.55 0.185 27.291 0 52.377-9.443 72.168-25.24l-0.233 0.179c18.216-16.401 29.618-40.064 29.618-66.39 0-1.050-0.018-2.096-0.054-3.138l0.004 0.151v-39.744h87.467v253.291h32.704v-167.936c18.554 29.471 50.913 48.767 87.778 48.767 1.804 0 3.597-0.046 5.378-0.137l-0.25 0.010c1.067 0.041 2.319 0.065 3.577 0.065 32.623 0 61.568-15.748 79.648-40.056l0.188-0.265c18.429-26.181 29.631-58.615 30.121-93.639l0.001-0.121h56.491c1.127 23.161 6.512 44.787 15.385 64.504l-0.452-1.123c9.562 21.704 24.721 39.462 43.671 51.927l0.447 0.276c18.277 11.574 40.528 18.443 64.384 18.443 0.99 0 1.978-0.012 2.962-0.035l-0.146 0.003c1.245 0.048 2.707 0.076 4.175 0.076 29.426 0 56.265-11.078 76.573-29.291l-0.108 0.095c20.626-19.197 33.592-46.386 33.941-76.609l0.001-0.063h-31.595c-0.656 22.221-10.181 42.097-25.139 56.309l-0.035 0.033c-14.442 13.332-33.819 21.508-55.104 21.508-0.968 0-1.931-0.017-2.891-0.050l0.139 0.004c-1.177 0.060-2.556 0.095-3.943 0.095-26.494 0-50.051-12.57-65.034-32.072l-0.143-0.194c-14.558-20.61-23.48-46.114-24.062-73.671l-0.002-0.143h230.613v-28.139h-231.147c-0.107-2.051-0.168-4.454-0.168-6.87 0-29.797 9.256-57.432 25.049-80.186l-0.305 0.464c15.239-19.546 38.788-31.998 65.245-31.998 1.461 0 2.912 0.038 4.354 0.113l-0.202-0.008c0.857-0.030 1.863-0.048 2.874-0.048 20.818 0 39.925 7.327 54.882 19.542l-0.156-0.124c14.731 12.030 24.304 29.893 25.169 50.014l0.005 0.141h31.616c-0.895-18.688-7.155-35.754-17.259-49.883l0.192 0.283c-10.637-14.988-24.663-26.902-41.004-34.773l-0.639-0.277c-16.034-7.982-34.923-12.653-54.902-12.653-0.266 0-0.532 0.001-0.797 0.002h0.041c-1.486-0.069-3.229-0.108-4.981-0.108-35.129 0-66.574 15.773-87.639 40.624l-0.138 0.167zM440.832 318.315c13.146-33.195 44.968-56.244 82.173-56.244 1.862 0 3.711 0.058 5.545 0.172l-0.251-0.012c0.761-0.028 1.655-0.044 2.553-0.044 25.242 0 47.528 12.655 60.859 31.967l0.161 0.247c14.344 23.061 22.848 51.050 22.848 81.025 0 1.567-0.023 3.129-0.069 4.686l0.005-0.228h-173.824zM152.235 368.747c-16.692-9.401-27.781-27.008-27.781-47.205 0-0.265 0.002-0.529 0.006-0.793v0.040c-0.009-0.368-0.014-0.801-0.014-1.235 0-16.074 7.14-30.481 18.421-40.222l0.068-0.057c12.093-10.296 27.896-16.558 45.162-16.558 1.081 0 2.156 0.025 3.225 0.073l-0.152-0.005c0.525-0.009 1.145-0.014 1.765-0.014 21.131 0 40.876 5.933 57.661 16.225l-0.482-0.275c16.667 10.048 29.699 24.645 37.564 42.075l0.239 0.592v58.496h-110.4c-9.617-2.797-18.008-6.593-25.712-11.387l0.432 0.251zM614.293 408.021c-0.498 27.334-8.743 52.645-22.624 73.948l0.33-0.54c-13.597 19.481-35.906 32.067-61.155 32.067-1.113 0-2.221-0.024-3.322-0.073l0.157 0.005c-0.85 0.029-1.849 0.045-2.852 0.045-18.947 0-36.533-5.822-51.068-15.776l0.309 0.2c-15.224-11.354-26.778-26.86-33.057-44.841l-0.202-0.663v-44.416z" />
<glyph unicode="&#xe945;" glyph-name="add" d="M917.333 369.621h-348.288v-348.288h-135.424v348.288h-348.288v135.424h348.288v348.288h135.424v-348.288h348.288v-135.424z" />
<glyph unicode="&#xe946;" glyph-name="save" horiz-adv-x="973" d="M842.47 342.002l-29.379-28.61-1.077 1.077-215.26-213.106 5.213-5.213-96.676-24.218 24.167 96.7 3.64-3.64 215.892 213.687-1.983 2 30.313 29.482 15.040-0.855 51.273-52.042s-0.803-10.203-1.152-15.262zM430.068 203.549c0-0.022 0-0.031 0-0.056 0-49.318 15.921-94.934 42.89-131.957l-0.447 0.636h-297.023c-25.881 1.441-46.31 22.788-46.31 48.891 0 0.833 0.024 1.67 0.068 2.495l-0.006-0.118v649.351c-0.033 0.712-0.062 1.538-0.062 2.375 0 26.113 20.436 47.444 46.187 48.891l0.123 0.008h414.761s93.572-85.865 140.402-136.761v-271.147c-22.458 8.251-48.391 13.011-75.44 13.011-124.337 0-225.138-100.801-225.138-225.138 0-0.165 0-0.34 0.001-0.502v0.024zM617.778 714.105c0.009 0.255 0.014 0.541 0.014 0.836 0 18.415-14.686 33.417-32.988 33.908l-0.046 0.001h-346.986c-18.362-0.49-33.049-15.484-33.049-33.91 0-0.275 0.005-0.55 0.014-0.823l-0.001 0.039v-156.142c-0.010-0.259-0.016-0.58-0.016-0.887 0-18.427 14.698-33.422 33.009-33.909l0.044-0.001h346.986c18.362 0.49 33.049 15.484 33.049 33.91 0 0.275-0.005 0.55-0.014 0.823l0.001-0.039v156.194zM467.873 711.597h74.79v-150.981h-74.79z" />
<glyph unicode="&#xe947;" glyph-name="template" horiz-adv-x="760" d="M675.123-64h-590.711c-46.811 0.948-84.395 39.119-84.395 86.068 0 0.606 0.006 1.21 0.019 1.813l-0.001-0.090v848.418c-0.011 0.513-0.017 1.117-0.017 1.723 0 46.949 37.584 85.12 84.306 86.066l0.088 0.001h506.3l168.789-175.548v-760.661c0.011-0.513 0.017-1.117 0.017-1.723 0-46.949-37.584-85.12-84.306-86.066l-0.088-0.001zM209.34 141.107v562.654h235.964v51.132h-288.427v-664.951h445.747v485.922h-52.429v-434.756zM550.673 857.395v-178.825h130.594z" />
<glyph unicode="&#xe948;" glyph-name="upload1" d="M230.405 143.64h557.235v-79.669h-557.235v79.669zM399.488 290.509v243.355h-129.256l229.248 298.136 248.317-298.136h-129.227v-243.355z" />
<glyph unicode="&#xe949;" glyph-name="exesting-symbol" d="M438.827 304.896c-12.969-8.883-28.998-14.186-46.266-14.186-2.187 0-4.354 0.085-6.498 0.252l0.284-0.018c-2.263-0.19-4.897-0.298-7.556-0.298-21.048 0-40.514 6.774-56.337 18.26l0.278-0.192c-13.083 13.523-21.146 31.973-21.146 52.306 0 2.691 0.141 5.349 0.417 7.967l-0.028-0.327h-109.269l-0.661-1.984q-1.664-83.029 55.296-121.728c37.070-24.338 82.502-38.82 131.318-38.82 2.697 0 5.383 0.044 8.059 0.132l-0.39-0.010c3.287-0.175 7.135-0.275 11.007-0.275 45.139 0 87.112 13.554 122.071 36.814l-0.811-0.507c30.296 21.296 49.851 56.096 49.851 95.464 0 1.524-0.029 3.041-0.087 4.551l0.007-0.217c0.082 1.668 0.129 3.621 0.129 5.586 0 37.143-16.738 70.376-43.082 92.568l-0.183 0.15c-36.055 27.245-78.569 48.188-124.683 60.223l-2.506 0.555c-25.922 9.158-48.232 19.958-69.097 32.872l1.513-0.872c-10.961 7.191-18.099 19.423-18.099 33.321 0 0.286 0.003 0.57 0.009 0.854l-0.001-0.042c-0.002 0.156-0.003 0.34-0.003 0.524 0 14.661 6.794 27.736 17.405 36.248l0.091 0.071c12.046 9.385 27.394 15.047 44.064 15.047 1.422 0 2.835-0.041 4.236-0.122l-0.194 0.009c1.94 0.155 4.2 0.243 6.481 0.243 18.596 0 35.819-5.875 49.916-15.869l-0.268 0.181c11.628-11.129 18.856-26.774 18.856-44.107 0-1.957-0.092-3.892-0.272-5.801l0.019 0.244h108.928l0.661 1.984c0.229 2.839 0.359 6.145 0.359 9.483 0 40.466-19.158 76.458-48.899 99.399l-0.292 0.217c-34.189 24.362-76.811 38.95-122.841 38.95-3.638 0-7.255-0.091-10.848-0.271l0.505 0.020c-2.589 0.113-5.625 0.178-8.677 0.178-45.087 0-86.883-14.093-121.223-38.114l0.684 0.453c-30.841-21.307-50.792-56.47-50.792-96.292 0-0.737 0.007-1.473 0.020-2.207l-0.002 0.11c-0.11-1.86-0.173-4.035-0.173-6.225 0-36.118 17.081-68.247 43.605-88.75l0.259-0.192c38.369-26.295 82.811-47.564 130.4-61.448l3.296-0.824c23.381-7.123 43.757-17.139 62.101-29.874l-0.725 0.476c10.445-8.9 17.027-22.065 17.027-36.768 0-1.024-0.032-2.041-0.095-3.050l0.007 0.138c0.010-0.356 0.016-0.775 0.016-1.195 0-14.273-6.675-26.987-17.073-35.191l-0.095-0.072zM753.536 332.373h-71.083v96.533h-94.805v72.405h94.805v96.427h71.104v-96.427h94.699v-72.405h-94.699v-96.533z" />
<glyph unicode="&#xe94a;" glyph-name="insert" d="M443.243 615.381c0-40.872-33.133-74.005-74.005-74.005s-74.005 33.133-74.005 74.005c0 40.872 33.133 74.005 74.005 74.005s74.005-33.133 74.005-74.005zM565.717 568.875l-71.637-117.568c-3.383-6.387-9.987-10.663-17.59-10.663-5.995 0-11.369 2.659-15.007 6.862l-0.021 0.025-21.333 21.931c-4.722 4.871-11.325 7.894-18.635 7.894s-13.913-3.023-18.628-7.887l-0.006-0.007-129.835-123.307c-2.629-2.507-4.264-6.037-4.264-9.949 0-1.793 0.344-3.507 0.969-5.077l-0.033 0.093c1.936-5 6.688-8.49 12.261-8.533h447.322c5.034 0.035 9.392 2.896 11.571 7.074l0.034 0.073c0.974 1.846 1.545 4.034 1.545 6.356 0 2.8-0.831 5.406-2.26 7.584l0.032-0.053-146.539 225.152c-2.289 5.581-7.68 9.441-13.973 9.441s-11.685-3.859-13.937-9.341l-0.036-0.1zM778.368 810.667h-553.557c-41.683-0.024-75.465-33.814-75.477-75.498v-553.494c0-41.694 33.787-75.496 75.475-75.52h553.538c41.692 0.012 75.486 33.807 75.499 75.497v553.516c-0.012 41.684-33.795 75.474-75.475 75.499h-0.002zM780.971 300.501c-0.036-13.405-10.894-24.262-24.295-24.299h-510.168c-13.405 0.036-24.262 10.894-24.299 24.295v412.995c0.036 13.405 10.894 24.262 24.295 24.299h510.168c13.405-0.036 24.262-10.894 24.299-24.295v-0.003z" />
<glyph unicode="&#xe94b;" glyph-name="color-palette" d="M520.149 768c-1.008 0.011-2.198 0.018-3.39 0.018-178.131 0-322.768-143.407-324.758-321.067l-0.002-0.188c2.003-177.839 146.635-321.234 324.759-321.234 1.192 0 2.383 0.006 3.572 0.019l-0.181-0.002c0.191-0.002 0.417-0.004 0.642-0.004 29.677 0 53.769 23.914 54.056 53.523v0.027c-0.058 13.945-5.459 26.618-14.26 36.086l0.030-0.033c-8.5 9.291-13.742 21.688-13.845 35.307v0.021c0.287 29.636 24.379 53.55 54.056 53.55 0.226 0 0.451-0.001 0.677-0.004h64.499c0.542-0.006 1.183-0.009 1.825-0.009 98.967 0 179.329 79.658 180.468 178.355l0.001 0.108c0 157.739-146.944 285.525-328.149 285.525zM319.616 446.763c-29.073 0.645-52.395 24.366-52.395 53.534 0 29.573 23.974 53.547 53.547 53.547 29.569 0 53.54-23.967 53.547-53.534v-0.001c-0.287-29.636-24.379-53.55-54.056-53.55-0.226 0-0.451 0.001-0.677 0.004h0.034zM428.992 589.525c-29.073 0.645-52.395 24.366-52.395 53.534 0 29.573 23.974 53.547 53.547 53.547 29.569 0 53.54-23.967 53.547-53.534v-0.001c-0.299-29.627-24.386-53.529-54.056-53.529-0.226 0-0.452 0.001-0.677 0.004h0.034zM611.285 589.525c-29.073 0.645-52.395 24.366-52.395 53.534 0 29.573 23.974 53.547 53.547 53.547 29.569 0 53.54-23.967 53.547-53.534v-0.001c-0.3-29.627-24.387-53.529-54.056-53.529-0.218 0-0.437 0.001-0.654 0.004h0.033zM720.661 446.763c-29.073 0.645-52.395 24.366-52.395 53.534 0 29.573 23.974 53.547 53.547 53.547 29.569 0 53.54-23.967 53.547-53.534v-0.001c-0.288-29.636-24.379-53.55-54.056-53.55-0.218 0-0.436 0.001-0.654 0.004h0.033z" />
</font>
</defs>
</svg>
