<svg xmlns="http://www.w3.org/2000/svg" xmlns:xlink="http://www.w3.org/1999/xlink" width="48" height="48" viewBox="0 0 48 48">
  <defs>
    <clipPath id="clip-Budget_Details_-Orange_color">
      <rect width="48" height="48"/>
    </clipPath>
  </defs>
  <g id="Budget_Details_-Orange_color" data-name="Budget Details -Orange color" clip-path="url(#clip-Budget_Details_-Orange_color)">
    <path id="Path_111114" data-name="Path 111114" d="M19.5,0A19.5,19.5,0,1,1,0,19.5,19.5,19.5,0,0,1,19.5,0Z" transform="translate(5 5)" fill="#ed7532"/>
    <path id="Icon_awesome-file-invoice-dollar" data-name="Icon awesome-file-invoice-dollar" d="M16.264,4.115,12.041.274A1.09,1.09,0,0,0,11.307,0h-.263V5.016h5.522V4.777A.9.9,0,0,0,16.264,4.115ZM9.664,5.33V0H1.035A.989.989,0,0,0,0,.941V19.125a.989.989,0,0,0,1.035.941h14.5a.989.989,0,0,0,1.035-.941V6.27H10.7A.994.994,0,0,1,9.664,5.33Zm-6.9-2.508a.33.33,0,0,1,.345-.314H6.558a.33.33,0,0,1,.345.314v.627a.33.33,0,0,1-.345.314H3.106a.33.33,0,0,1-.345-.314Zm0,3.135V5.33a.33.33,0,0,1,.345-.314H6.558A.33.33,0,0,1,6.9,5.33v.627a.33.33,0,0,1-.345.314H3.106A.33.33,0,0,1,2.761,5.957ZM8.973,16.3v.945a.33.33,0,0,1-.345.314h-.69a.33.33,0,0,1-.345-.314v-.952a2.629,2.629,0,0,1-1.353-.445.3.3,0,0,1-.025-.476l.507-.439a.382.382,0,0,1,.437-.029,1.117,1.117,0,0,0,.553.146H8.925a.517.517,0,0,0,.131-1.016L7.114,13.5a1.8,1.8,0,0,1-1.362-1.7,1.829,1.829,0,0,1,1.841-1.766V9.092a.33.33,0,0,1,.345-.314h.69a.33.33,0,0,1,.345.314v.952a2.626,2.626,0,0,1,1.353.445.3.3,0,0,1,.025.476l-.507.439a.382.382,0,0,1-.437.029,1.113,1.113,0,0,0-.553-.146H7.641A.517.517,0,0,0,7.511,12.3l1.941.529a1.8,1.8,0,0,1,1.362,1.7A1.829,1.829,0,0,1,8.973,16.3Z" transform="translate(16 14)" fill="#fff"/>
  </g>
</svg>
