<svg xmlns="http://www.w3.org/2000/svg" xmlns:xlink="http://www.w3.org/1999/xlink" width="48" height="48" viewBox="0 0 48 48">
  <defs>
    <clipPath id="clip-Budget_Details">
      <rect width="48" height="48"/>
    </clipPath>
  </defs>
  <g id="Budget_Details" data-name="Budget Details" clip-path="url(#clip-Budget_Details)">
    <g id="Path_111114" data-name="Path 111114" transform="translate(5 5)" fill="none">
      <path d="M19.5,0A19.5,19.5,0,1,1,0,19.5,19.5,19.5,0,0,1,19.5,0Z" stroke="none"/>
      <path d="M 19.5 1 C 17.0020809173584 1 14.57939910888672 1.488998413085938 12.29927062988281 2.453411102294922 C 10.0964298248291 3.385139465332031 8.117860794067383 4.719188690185547 6.418529510498047 6.418529510498047 C 4.719188690185547 8.117860794067383 3.385139465332031 10.0964298248291 2.453411102294922 12.29927062988281 C 1.488998413085938 14.57939910888672 1 17.0020809173584 1 19.5 C 1 21.9979190826416 1.488998413085938 24.42060089111328 2.453411102294922 26.70072937011719 C 3.385139465332031 28.9035701751709 4.719188690185547 30.88214111328125 6.418529510498047 32.58147048950195 C 8.117860794067383 34.28081130981445 10.0964298248291 35.61486053466797 12.29927062988281 36.54658889770508 C 14.57939910888672 37.51100158691406 17.0020809173584 38 19.5 38 C 21.9979190826416 38 24.42060089111328 37.51100158691406 26.70072937011719 36.54658889770508 C 28.9035701751709 35.61486053466797 30.88214111328125 34.28081130981445 32.58147048950195 32.58147048950195 C 34.28081130981445 30.88214111328125 35.61486053466797 28.9035701751709 36.54658889770508 26.70072937011719 C 37.51100158691406 24.42060089111328 38 21.9979190826416 38 19.5 C 38 17.0020809173584 37.51100158691406 14.57939910888672 36.54658889770508 12.29927062988281 C 35.61486053466797 10.0964298248291 34.28081130981445 8.117860794067383 32.58147048950195 6.418529510498047 C 30.88214111328125 4.719188690185547 28.9035701751709 3.385139465332031 26.70072937011719 2.453411102294922 C 24.42060089111328 1.488998413085938 21.9979190826416 1 19.5 1 M 19.5 0 C 30.26955032348633 0 39 8.730449676513672 39 19.5 C 39 30.26955032348633 30.26955032348633 39 19.5 39 C 8.730449676513672 39 0 30.26955032348633 0 19.5 C 0 8.730449676513672 8.730449676513672 0 19.5 0 Z" stroke="none" fill="#707070"/>
    </g>
    <path id="Icon_awesome-file-invoice-dollar" data-name="Icon awesome-file-invoice-dollar" d="M16.264,4.115,12.041.274A1.09,1.09,0,0,0,11.307,0h-.263V5.016h5.522V4.777A.9.9,0,0,0,16.264,4.115ZM9.664,5.33V0H1.035A.989.989,0,0,0,0,.941V19.125a.989.989,0,0,0,1.035.941h14.5a.989.989,0,0,0,1.035-.941V6.27H10.7A.994.994,0,0,1,9.664,5.33Zm-6.9-2.508a.33.33,0,0,1,.345-.314H6.558a.33.33,0,0,1,.345.314v.627a.33.33,0,0,1-.345.314H3.106a.33.33,0,0,1-.345-.314Zm0,3.135V5.33a.33.33,0,0,1,.345-.314H6.558A.33.33,0,0,1,6.9,5.33v.627a.33.33,0,0,1-.345.314H3.106A.33.33,0,0,1,2.761,5.957ZM8.973,16.3v.945a.33.33,0,0,1-.345.314h-.69a.33.33,0,0,1-.345-.314v-.952a2.629,2.629,0,0,1-1.353-.445.3.3,0,0,1-.025-.476l.507-.439a.382.382,0,0,1,.437-.029,1.117,1.117,0,0,0,.553.146H8.925a.517.517,0,0,0,.131-1.016L7.114,13.5a1.8,1.8,0,0,1-1.362-1.7,1.829,1.829,0,0,1,1.841-1.766V9.092a.33.33,0,0,1,.345-.314h.69a.33.33,0,0,1,.345.314v.952a2.626,2.626,0,0,1,1.353.445.3.3,0,0,1,.025.476l-.507.439a.382.382,0,0,1-.437.029,1.113,1.113,0,0,0-.553-.146H7.641A.517.517,0,0,0,7.511,12.3l1.941.529a1.8,1.8,0,0,1,1.362,1.7A1.829,1.829,0,0,1,8.973,16.3Z" transform="translate(16 14)" fill="#666666"/>
  </g>
</svg>
