<svg xmlns="http://www.w3.org/2000/svg" xmlns:xlink="http://www.w3.org/1999/xlink" width="48" height="48" viewBox="0 0 48 48">
  <defs>
    <clipPath id="clip-path">
      <rect id="Rectangle_154661" data-name="Rectangle 154661" width="48" height="48"/>
    </clipPath>
  </defs>
  <g id="Dispatch_" data-name="Dispatch " clip-path="url(#clip-path)">
    <rect width="48" height="48" fill="rgba(255,255,255,0)"/>
    <g id="forcast" clip-path="url(#clip-path)">
      <rect id="Rectangle_154660" data-name="Rectangle 154660" width="48" height="48" fill="rgba(255,255,255,0)"/>
    </g>
    <g id="Group_145240" data-name="Group 145240" transform="translate(-16680 -14697)">
      <g id="Group_74153" data-name="Group 74153" transform="translate(16685 14706)">
        <path id="Path_20499" data-name="Path 20499" d="M-235.216,366.111a.812.812,0,0,1,.817-.807h8.511a.812.812,0,0,1,.817.807.776.776,0,0,1-.231.578.8.8,0,0,1-.586.228H-234.4A.873.873,0,0,1-235.216,366.111Zm10.145,3.609a.812.812,0,0,0-.817-.807H-234.4a.812.812,0,0,0-.817.807.812.812,0,0,0,.817.807h8.511A.841.841,0,0,0-225.071,369.72ZM-249.1,389.082v-3.015a2.435,2.435,0,0,1,2.45-2.42h2.321v-4.883a.812.812,0,0,1,.817-.807h12.6v-3.4h-5.029a3.228,3.228,0,0,1-3.224-3.185v-7.091a3.228,3.228,0,0,1,3.224-3.185h11.692a3.228,3.228,0,0,1,3.224,3.185v7.091a3.228,3.228,0,0,1-3.224,3.185h-5.029v3.4h12.6a.812.812,0,0,1,.817.807v4.883h2.321a2.435,2.435,0,0,1,2.45,2.42v3.015a2.435,2.435,0,0,1-2.45,2.42h-6.276a2.435,2.435,0,0,1-2.45-2.42v-3.015a2.435,2.435,0,0,1,2.45-2.42h2.321v-4.076h-11.778v4.076h2.321a2.435,2.435,0,0,1,2.45,2.42v3.015a2.435,2.435,0,0,1-2.45,2.42h-6.276a2.435,2.435,0,0,1-2.45-2.42v-3.015a2.435,2.435,0,0,1,2.45-2.42h2.321v-4.076H-242.7v4.076h2.321a2.435,2.435,0,0,1,2.45,2.42v3.015a2.435,2.435,0,0,1-2.45,2.42h-6.276A2.462,2.462,0,0,1-249.1,389.082Zm22.1-3.822h-6.276a.812.812,0,0,0-.817.807v3.015a.812.812,0,0,0,.817.807h6.276a.812.812,0,0,0,.817-.807v-3.015A.84.84,0,0,0-227.005,385.261Zm13.369,0h-6.276a.812.812,0,0,0-.817.807v3.015a.812.812,0,0,0,.817.807h6.276a.812.812,0,0,0,.817-.807v-3.015A.812.812,0,0,0-213.636,385.261Zm-22.353-12.229H-224.3a1.6,1.6,0,0,0,1.126-.459,1.557,1.557,0,0,0,.465-1.112V364.37a1.557,1.557,0,0,0-.465-1.112,1.6,1.6,0,0,0-1.126-.459h-11.692a1.6,1.6,0,0,0-1.126.459,1.557,1.557,0,0,0-.465,1.112v7.091A1.605,1.605,0,0,0-235.989,373.032Zm-11.477,16.051a.812.812,0,0,0,.817.807h6.276a.812.812,0,0,0,.817-.807v-3.015a.812.812,0,0,0-.817-.807h-6.276a.812.812,0,0,0-.817.807Z" transform="translate(249.1 -361.1)" fill="#ec711c"/>
      </g>
    </g>
  </g>
</svg>
