<svg xmlns="http://www.w3.org/2000/svg" width="23" height="27.999" viewBox="0 0 23 27.999">
  <g id="Group_145229" data-name="Group 145229" transform="translate(6549.499 -14820)">
    <g id="Group_145228" data-name="Group 145228" transform="translate(-6549.5 14820)">
      <g id="Subtraction_92" data-name="Subtraction 92" transform="translate(-6549.5 14820)" fill="none">
        <path d="M6572.5-14792h-23v-28h15a8.009,8.009,0,0,1,8,8v20Zm-21.94-27v26H6571.5v-19a7.008,7.008,0,0,0-7-7Z" stroke="none"/>
        <path d="M 6572.50146484375 -14792.0009765625 L 6549.50146484375 -14792.0009765625 L 6549.50146484375 -14820 L 6564.50146484375 -14820 C 6568.91259765625 -14820 6572.50146484375 -14816.4111328125 6572.50146484375 -14811.9990234375 L 6572.50146484375 -14792.0009765625 Z M 6550.5615234375 -14818.9990234375 L 6550.5615234375 -14793.0009765625 L 6571.5009765625 -14793.0009765625 L 6571.5009765625 -14811.9990234375 C 6571.5009765625 -14815.8583984375 6568.36083984375 -14818.9990234375 6564.50146484375 -14818.9990234375 L 6550.5615234375 -14818.9990234375 Z" stroke="none" fill="#059cdf"/>
      </g>
    </g>
    <path id="Path_paperclip" data-name="Path / paperclip" d="M14.958,5.188v9.633a3.351,3.351,0,1,1-6.7,0V4.351a2.094,2.094,0,1,1,4.188,0v8.8a.838.838,0,0,1-1.675,0V5.188H9.513v7.958a2.094,2.094,0,0,0,4.188,0v-8.8a3.351,3.351,0,1,0-6.7,0V14.821a4.607,4.607,0,1,0,9.214,0V5.188Z" transform="translate(-6549.605 14823.785)" fill="#059cdf"/>
  </g>
</svg>
