<svg xmlns="http://www.w3.org/2000/svg" xmlns:xlink="http://www.w3.org/1999/xlink" width="48" height="48" viewBox="0 0 48 48">
  <defs>
    <clipPath id="clip-path">
      <rect id="Rectangle_154661" data-name="Rectangle 154661" width="48" height="48"/>
    </clipPath>
  </defs>
  <g id="Payments" clip-path="url(#clip-path)">
    <rect width="48" height="48" fill="rgba(255,255,255,0)"/>
    <g id="forcast" clip-path="url(#clip-path)">
      <rect id="Rectangle_154660" data-name="Rectangle 154660" width="48" height="48" fill="rgba(255,255,255,0)"/>
    </g>
    <g id="Group_145226" data-name="Group 145226" transform="translate(6 6)">
      <g id="payments-2" data-name="payments">
        <path id="Path_54850" data-name="Path 54850" d="M103.492,9.869c-.519,1.113-1.038,2.189-1.52,3.265A14.545,14.545,0,0,0,81.435,25.005c-1.186-.111-2.336-.223-3.6-.3.741-6.084,3.559-10.8,8.786-13.912,5.412-3.228,11.047-3.376,16.867-.927Zm10.083,13.244c-1.149.186-2.336.408-3.522.631a14.484,14.484,0,0,1-12.975,16.88c.111,1.187.185,2.337.3,3.487,8.786-.26,18.165-9.052,16.2-21ZM94.261,44.185c.111-1.187.222-2.337.3-3.487Q83.27,38.862,81.4,27.528c-1.112.111-2.261.186-3.447.3.259,7.346,6.673,15.581,16.311,16.36ZM106.2,11.464c-.7.965-1.372,1.929-2.076,2.931a15.321,15.321,0,0,1,3.151,3.042,15.643,15.643,0,0,1,2.15,3.858c1.112-.408,2.224-.816,3.374-1.224a18.273,18.273,0,0,0-6.6-8.607Z" transform="translate(-77.839 -8.185)" fill="#666"/>
        <path id="Path_54894" data-name="Path 54894" d="M206.937,187.036a7.318,7.318,0,0,0-1.743-1.065,24.3,24.3,0,0,0-2.849-1.013,7.917,7.917,0,0,1-2.572-1.157,1.98,1.98,0,0,1-.758-1.624,2.079,2.079,0,0,1,.765-1.733,3.343,3.343,0,0,1,2.126-.606,2.861,2.861,0,0,1,2.176.844,3.22,3.22,0,0,1,.8,2.31h3.43a5.183,5.183,0,0,0-1.346-3.707,6.009,6.009,0,0,0-3.812-1.716v-2.56h-2.268v2.537A6.722,6.722,0,0,0,197,179.024a4.02,4.02,0,0,0-1.431,3.177q0,2.853,3.3,4.307a22.478,22.478,0,0,0,2.777.96,7.2,7.2,0,0,1,2.553,1.164,2.133,2.133,0,0,1-.079,3.335,4.025,4.025,0,0,1-2.46.64,3.7,3.7,0,0,1-2.544-.8,2.879,2.879,0,0,1-.9-2.268h-3.444a4.8,4.8,0,0,0,1.511,3.7,7.129,7.129,0,0,0,4.316,1.654v2.258h2.254v-2.27a7.185,7.185,0,0,0,4.089-1.443,3.951,3.951,0,0,0,1.467-3.188,4.1,4.1,0,0,0-.383-1.827,4.252,4.252,0,0,0-1.092-1.381Z" transform="translate(-183.713 -168.19)" fill="#666"/>
      </g>
    </g>
  </g>
</svg>
