<svg xmlns="http://www.w3.org/2000/svg" xmlns:xlink="http://www.w3.org/1999/xlink" width="48" height="48" viewBox="0 0 48 48">
  <defs>
    <clipPath id="clip-path">
      <rect id="Rectangle_154661" data-name="Rectangle 154661" width="48" height="48"/>
    </clipPath>
  </defs>
  <g id="Planner_Tag" data-name="Planner Tag" clip-path="url(#clip-path)">
    <rect width="48" height="48" fill="rgba(255,255,255,0)"/>
    <g id="forcast" clip-path="url(#clip-path)">
      <rect id="Rectangle_154660" data-name="Rectangle 154660" width="48" height="48" fill="rgba(255,255,255,0)"/>
    </g>
    <g id="Group_145269" data-name="Group 145269" transform="translate(-16680 -14696)">
      <g id="Group_64359" data-name="Group 64359" transform="translate(16685 14707)">
        <g id="noun_strategy_2815722" transform="translate(0)">
          <g id="Group_62862" data-name="Group 62862" transform="translate(0 0)">
            <g id="Group_62861" data-name="Group 62861" transform="translate(0 0)">
              <path id="Path_36178" data-name="Path 36178" d="M48.219,11.089H10.78c-.431,0-.78.108-.78.242s.349.242.78.242H48.219c.431,0,.78-.108.78-.242s-.349-.242-.78-.242Z" transform="translate(-10 -11.089)" fill="#0599da"/>
            </g>
            <path id="Path_36180" data-name="Path 36180" d="M49.363,11.091H13.16a.8.8,0,0,0-.835.764V36.332a.8.8,0,0,0,.835.764h36.2a.8.8,0,0,0,.835-.764V11.855A.8.8,0,0,0,49.363,11.091Zm-22.4,4.894a2.758,2.758,0,0,1,2.873,2.627,2.885,2.885,0,0,1-5.746,0,2.758,2.758,0,0,1,2.872-2.627ZM26.021,30.2a3.335,3.335,0,0,1-3.647,2.259,3.025,3.025,0,0,1,0-6.046,3.335,3.335,0,0,1,3.647,2.259c6.34-.176,11.61-4.522,12.452-10.272l-.827.756a.892.892,0,0,1-1.181,0,.719.719,0,0,1,0-1.08l2.364-2.153a.892.892,0,0,1,1.177,0l2.364,2.153a.719.719,0,0,1,0,1.08.892.892,0,0,1-1.181,0l-1.01-.924C39.411,24.9,33.355,30.02,26.021,30.2Zm16.811.58a.72.72,0,0,1-.006,1.082.893.893,0,0,1-1.184-.006L40.18,30.519l-1.461,1.336a.865.865,0,0,1-1.177,0,.718.718,0,0,1,0-1.077L39,29.442l-1.461-1.336a.719.719,0,0,1,0-1.08.892.892,0,0,1,1.181,0l1.461,1.336,1.461-1.336a.9.9,0,0,1,1.168.016.721.721,0,0,1,.018,1.068l-1.461,1.336Z" transform="translate(-11.762 -11.091)" fill="#0599da"/>
          </g>
        </g>
      </g>
    </g>
  </g>
</svg>
