<svg xmlns="http://www.w3.org/2000/svg" xmlns:xlink="http://www.w3.org/1999/xlink" width="48" height="48" viewBox="0 0 48 48">
  <defs>
    <clipPath id="clip-Transfer_Out">
      <rect width="48" height="48"/>
    </clipPath>
  </defs>
  <g id="Transfer_Out" data-name="Transfer Out" clip-path="url(#clip-Transfer_Out)">
    <path id="Path_48060" data-name="Path 48060" d="M88.3,30.081V27.124a6.567,6.567,0,0,1-1.265-.079,13.208,13.208,0,0,1-1.447-.308,8.781,8.781,0,0,1-2.736-1.289,2.705,2.705,0,0,1-1.241-2.293,2.041,2.041,0,0,1,.569-1.534,2.074,2.074,0,0,1,1.518-.554,1.174,1.174,0,0,1,.166.016,1.535,1.535,0,0,0,.2.016,2.327,2.327,0,0,1,1.139.554,1.437,1.437,0,0,1,.514,1.123v.15a.244.244,0,0,1-.016.063.813.813,0,0,1-.039.087.461.461,0,0,1-.016.1.461.461,0,0,0-.016.1.085.085,0,0,1-.016.055.114.114,0,0,0-.016.055,1.067,1.067,0,0,1-.016.158,1.058,1.058,0,0,0,.553,1.123,3.587,3.587,0,0,0,1.241.474c.261.055.506.087.751.119s.443.039.617.039q.285,0,.617-.024a6.466,6.466,0,0,0,.672-.079,4.8,4.8,0,0,0,1.795-.712,1.815,1.815,0,0,0,.814-1.637,1.4,1.4,0,0,0-.7-1.415,6.807,6.807,0,0,0-1.573-.514.1.1,0,0,0-.079-.024.118.118,0,0,1-.079-.024.285.285,0,0,1-.087-.016.244.244,0,0,0-.063-.016l-1.7-.411a1,1,0,0,1-.261-.039c-.087-.024-.174-.047-.261-.063a2.41,2.41,0,0,1-.4-.079c-.127-.032-.261-.071-.4-.1a12.818,12.818,0,0,1-3.392-1.3A3.338,3.338,0,0,1,82.1,15.659a4.051,4.051,0,0,1,1.74-3.574,8.219,8.219,0,0,1,3.835-1.431,2.746,2.746,0,0,1,.285-.039c.1-.008.206-.016.308-.016V7.855a.71.71,0,0,1,.024-.127,11.263,11.263,0,0,0,.024,22.487.792.792,0,0,1-.024-.134ZM89.87,7.744a.552.552,0,0,1,.024.111v2.68c.308.032.656.087,1.044.158a11.571,11.571,0,0,1,1.178.285,8.5,8.5,0,0,1,2.325,1.186A2.365,2.365,0,0,1,95.5,14.148a1.706,1.706,0,0,1-.411,1.17,1.434,1.434,0,0,1-1.139.474,1.855,1.855,0,0,1-1.352-.514,2.267,2.267,0,0,1-.656-1.313,1.826,1.826,0,0,0-.158-.569,1.106,1.106,0,0,0-.364-.387.515.515,0,0,0-.127-.087,1.56,1.56,0,0,1-.158-.087,3.794,3.794,0,0,0-.783-.324,5.323,5.323,0,0,0-.862-.166c-.119,0-.237-.008-.364-.016s-.237-.016-.364-.016-.285.008-.435.016a3.133,3.133,0,0,0-.466.063,3.091,3.091,0,0,0-.632.127,2.25,2.25,0,0,0-.554.261,1.8,1.8,0,0,0-.632.656,1.73,1.73,0,0,0-.245.894,1.591,1.591,0,0,0,.751,1.431,6.458,6.458,0,0,0,1.629.735c.277.071.546.127.8.182s.5.1.72.158l1.21.229a16.725,16.725,0,0,1,3.764,1.415,3.515,3.515,0,0,1,1.7,3.431,4.058,4.058,0,0,1-1.652,3.479,8.942,8.942,0,0,1-3.637,1.6c-.19.032-.38.063-.577.087s-.4.047-.577.063v2.926a.71.71,0,0,1-.024.127A11.257,11.257,0,0,0,89.87,7.744Zm5.115-3.985v3.25a13.384,13.384,0,0,0-16.533,3.724H77.266V13.9a.192.192,0,0,1-.119.182.207.207,0,0,1-.221-.039L70.071,7.19a.216.216,0,0,1,0-.285L76.926.051A.247.247,0,0,1,77.068,0a.281.281,0,0,1,.079.016.2.2,0,0,1,.119.182V3.364H94.59a.391.391,0,0,1,.4.4Z" transform="translate(-61.018 9.005)" fill="#666"/>
  </g>
</svg>
