<svg xmlns="http://www.w3.org/2000/svg" xmlns:xlink="http://www.w3.org/1999/xlink" width="48" height="48" viewBox="0 0 48 48">
  <defs>
    <clipPath id="clip-Transfer_In">
      <rect width="48" height="48"/>
    </clipPath>
  </defs>
  <g id="Transfer_In" data-name="Transfer In" clip-path="url(#clip-Transfer_In)">
    <path id="Path_48061" data-name="Path 48061" d="M88.7,30.745V27.722a6.712,6.712,0,0,1-1.293-.081,13.5,13.5,0,0,1-1.479-.315,8.975,8.975,0,0,1-2.8-1.317,2.765,2.765,0,0,1-1.269-2.343,2.086,2.086,0,0,1,.582-1.568A2.119,2.119,0,0,1,84,21.532a1.2,1.2,0,0,1,.17.016,1.569,1.569,0,0,0,.2.016,2.379,2.379,0,0,1,1.164.566,1.469,1.469,0,0,1,.525,1.147v.154a.249.249,0,0,1-.016.065.834.834,0,0,1-.04.089.47.47,0,0,1-.016.1.47.47,0,0,0-.016.1.087.087,0,0,1-.016.057.116.116,0,0,0-.016.057,1.089,1.089,0,0,1-.016.162,1.081,1.081,0,0,0,.566,1.147,3.666,3.666,0,0,0,1.269.485c.267.057.517.089.768.121s.453.04.63.04q.291,0,.63-.024a6.607,6.607,0,0,0,.687-.081,4.91,4.91,0,0,0,1.834-.727,1.855,1.855,0,0,0,.832-1.673,1.435,1.435,0,0,0-.711-1.447,6.957,6.957,0,0,0-1.608-.525.107.107,0,0,0-.081-.024.121.121,0,0,1-.081-.024.291.291,0,0,1-.089-.016.25.25,0,0,0-.065-.016l-1.737-.42a1.023,1.023,0,0,1-.267-.04c-.089-.024-.178-.048-.267-.065a2.464,2.464,0,0,1-.412-.081c-.129-.032-.267-.073-.412-.1a13.1,13.1,0,0,1-3.467-1.333A3.411,3.411,0,0,1,82.371,16a4.14,4.14,0,0,1,1.778-3.653,8.4,8.4,0,0,1,3.919-1.463,2.806,2.806,0,0,1,.291-.04c.1-.008.21-.016.315-.016v-2.8A.725.725,0,0,1,88.7,7.9a11.512,11.512,0,0,0,.024,22.983.809.809,0,0,1-.024-.137Zm1.608-22.83a.564.564,0,0,1,.024.113v2.74c.315.032.671.089,1.067.162a11.826,11.826,0,0,1,1.2.291,8.683,8.683,0,0,1,2.376,1.212,2.417,2.417,0,0,1,1.083,2.028,1.744,1.744,0,0,1-.42,1.2,1.466,1.466,0,0,1-1.164.485,1.9,1.9,0,0,1-1.382-.525,2.317,2.317,0,0,1-.671-1.342,1.867,1.867,0,0,0-.162-.582,1.131,1.131,0,0,0-.372-.4.526.526,0,0,0-.129-.089,1.594,1.594,0,0,1-.162-.089,3.878,3.878,0,0,0-.8-.331,5.441,5.441,0,0,0-.881-.17c-.121,0-.242-.008-.372-.016s-.242-.016-.372-.016-.291.008-.445.016a3.2,3.2,0,0,0-.477.065,3.159,3.159,0,0,0-.646.129,2.3,2.3,0,0,0-.566.267,1.84,1.84,0,0,0-.646.671,1.768,1.768,0,0,0-.251.913,1.626,1.626,0,0,0,.768,1.463,6.6,6.6,0,0,0,1.665.752c.283.073.558.129.816.186s.509.1.735.162l1.237.234a17.094,17.094,0,0,1,3.847,1.447c1.164.614,1.737,1.786,1.737,3.507a4.148,4.148,0,0,1-1.689,3.556,9.139,9.139,0,0,1-3.717,1.632c-.194.032-.388.065-.59.089s-.4.048-.59.065v2.99a.725.725,0,0,1-.024.129,11.506,11.506,0,0,0-.033-22.943Zm5.228-4.073V7.163a13.679,13.679,0,0,0-16.9,3.806H77.426V14.21a.2.2,0,0,1-.121.186.212.212,0,0,1-.226-.04L70.072,7.349a.221.221,0,0,1,0-.291L77.078.052A.252.252,0,0,1,77.224,0,.287.287,0,0,1,77.3.011.2.2,0,0,1,77.426.2V3.438H95.132a.4.4,0,0,1,.4.4Z" transform="translate(109.943 39.882) rotate(180)" fill="#666"/>
  </g>
</svg>
