<svg xmlns="http://www.w3.org/2000/svg" width="54.311" height="48" viewBox="0 0 54.311 48">
  <g id="mail-at-gray" transform="translate(0 -2)">
    <path id="Path_20551" data-name="Path 20551" d="M28.757,31.276a6.706,6.706,0,0,1-4.976-2.223L12.214,16.4a.933.933,0,0,1,1.379-1.258L25.158,27.793a4.924,4.924,0,0,0,7.2,0L43.905,15.162a.932.932,0,1,1,1.375,1.258L33.736,29.051A6.712,6.712,0,0,1,28.757,31.276Z" transform="translate(-6.394 -6.859)" fill="#a1a0a0"/>
    <path id="Path_20552" data-name="Path 20552" d="M12.9,50.076a.932.932,0,0,1-.628-1.619L22.442,39.17a.932.932,0,1,1,1.26,1.373L13.532,49.831A.941.941,0,0,1,12.9,50.076Z" transform="translate(-6.393 -16.934)" fill="#a1a0a0"/>
    <path id="Path_20553" data-name="Path 20553" d="M65.373,46.479a.927.927,0,0,1-.628-.244l-6.241-5.7a.931.931,0,0,1,1.256-1.375L66,44.86a.933.933,0,0,1-.63,1.619Z" transform="translate(-27.182 -17.215)" fill="#a1a0a0"/>
    <path id="Path_20554" data-name="Path 20554" d="M70.346,70.5A10.25,10.25,0,1,1,80.6,60.25a.932.932,0,0,1-1.864,0,8.386,8.386,0,1,0-2.555,6.027.932.932,0,1,1,1.3,1.34A10.2,10.2,0,0,1,70.346,70.5Z" transform="translate(-26.284 -20.499)" fill="#a1a0a0"/>
    <path id="Path_20555" data-name="Path 20555" d="M76.755,71.318a4.659,4.659,0,1,1,4.659-4.659A4.665,4.665,0,0,1,76.755,71.318Zm0-7.454a2.8,2.8,0,1,0,2.8,2.8A2.8,2.8,0,0,0,76.755,63.864Z" transform="translate(-32.694 -26.908)" fill="#a1a0a0"/>
    <path id="Path_20556" data-name="Path 20556" d="M31.587,35.544H5.264C2.363,35.544,0,33.453,0,30.885V6.659C0,4.091,2.363,2,5.264,2h40.01c2.9,0,5.264,2.091,5.264,4.659V26.226a1.061,1.061,0,0,1-2.106,0V6.659a3,3,0,0,0-3.159-2.8H5.264a3,3,0,0,0-3.159,2.8V30.885a3,3,0,0,0,3.159,2.8H31.587a.939.939,0,1,1,0,1.864Z" transform="translate(0 0)" fill="#a1a0a0"/>
    <path id="Path_20557" data-name="Path 20557" d="M91.727,74.659A3.728,3.728,0,0,1,88,70.932a.932.932,0,1,1,1.864,0,1.864,1.864,0,1,0,3.727,0,.932.932,0,1,1,1.864,0A3.728,3.728,0,0,1,91.727,74.659Z" transform="translate(-41.188 -32.059)" fill="#a1a0a0"/>
  </g>
</svg>
