<svg xmlns="http://www.w3.org/2000/svg" width="64.791" height="48" viewBox="0 0 64.791 48">
  <path id="message-send" d="M29.344,31.023H1.061A.114.114,0,0,1,.981,31H.971A.357.357,0,0,0,.9,30.973c0-.013,0-.032-.014-.032a.046.046,0,0,0-.041-.025.538.538,0,0,0-.085-.051A.511.511,0,0,1,.669,30.8a.05.05,0,0,0-.051-.051L.6,30.739a.278.278,0,0,0-.212-.1.049.049,0,0,1-.051-.057A.2.2,0,0,1,.285,30.5a.594.594,0,0,0-.063-.089l-.059-.051a.348.348,0,0,0-.024-.095.125.125,0,0,1-.032-.07c-.054-.057-.054-.057-.054-.12v-.063C0,30.011,0,29.96,0,29.9V1.234a.368.368,0,0,1,.022-.076l.009-.006a.266.266,0,0,0,.022-.082V1.012C.108,1.006.108.968.108.962A.183.183,0,0,1,.163.8L.221.747A.264.264,0,0,0,.275.652h0A.506.506,0,0,1,.334.563.06.06,0,0,0,.392.506,1.046,1.046,0,0,0,.669.291.061.061,0,0,1,.728.221L.75.209C.8.165.854.114.9.114A.055.055,0,0,1,.954.057.1.1,0,0,0,1.017.038h.022A.142.142,0,0,1,1.12,0H49.489a.141.141,0,0,1,.085.038h.017a.126.126,0,0,0,.063.019c0,.019,0,.038.014.038a.066.066,0,0,0,.044.019A.382.382,0,0,0,49.8.177a.362.362,0,0,1,.081.044c0,.051.059.07.059.07l.172.165a.051.051,0,0,1,.054.051A.224.224,0,0,1,50.217.6c.017.019.027.051.054.07l.059.076c0,.013.014.032.022.063h.009A.227.227,0,0,1,50.383.9c.055,0,.055.063.055.063v.051a.211.211,0,0,1,.054.165V12.864a17.735,17.735,0,1,1-21.147,18.16Zm19.8-2.3-5.3,8.245,4.244,7.7L57.116,20.3l-6.792,2.5-2.635.987v-.006l-2.373.886h0L42.225,25.8h0l-6.4,2.373h0l-3.1,1.139,7.7,4.239,8.243-5.315a.59.59,0,0,1,.185-.032h0a.358.358,0,0,1,.245.089.339.339,0,0,1,.04.43Zm-43.821-.55H29.449a17.554,17.554,0,0,1,4.144-9.453L31.98,17.4,26.2,22.222a1.393,1.393,0,0,1-.9.342,1.356,1.356,0,0,1-.9-.342L18.517,17.4ZM2.8,26.594,16.271,15.6,2.8,4.492ZM5.328,2.923,25.251,19.356,45.163,2.923Zm28.9,12.68,1.373,1.12a17.631,17.631,0,0,1,11.457-4.182c.214,0,.421,0,.628.006V4.492Z" fill="#cd3fd6"/>
</svg>
