<svg xmlns="http://www.w3.org/2000/svg" xmlns:xlink="http://www.w3.org/1999/xlink" width="48" height="48" viewBox="0 0 48 48">
  <defs>
    <clipPath id="clip-path">
      <rect id="Rectangle_154661" data-name="Rectangle 154661" width="48" height="48"/>
    </clipPath>
  </defs>
  <g id="Export" clip-path="url(#clip-path)">
    <rect width="48" height="48" fill="rgba(255,255,255,0)"/>
    <g id="forcast" clip-path="url(#clip-path)">
      <rect id="Rectangle_154660" data-name="Rectangle 154660" width="48" height="48" fill="rgba(255,255,255,0)"/>
    </g>
    <g id="upload" transform="translate(-115.913 -106.057)">
      <path id="Path_54841" data-name="Path 54841" d="M154.786,128.741c0-.124.009-.248.009-.373a10.311,10.311,0,0,0-18.6-6.132,7.448,7.448,0,0,0-10.067,5.782,7.782,7.782,0,0,0-4.215,6.769c0,4.366,3.905,7.906,8.723,7.906h18.531c4.818,0,8.724-3.539,8.724-7.906a7.62,7.62,0,0,0-3.1-6.046Zm-19.919.129,3.659-3.658a1.459,1.459,0,0,1,.233-.191L138.8,125a1.469,1.469,0,0,1,.21-.108l.069-.023a1.489,1.489,0,0,1,.205-.059.69.69,0,0,1,.084-.01l.047,0a1.224,1.224,0,0,1,.148-.013.776.776,0,0,1,.106.009l.064.007a1.041,1.041,0,0,1,.109.013,1.163,1.163,0,0,1,.167.048,1.018,1.018,0,0,1,.11.035,1.4,1.4,0,0,1,.166.085c.047.025.066.035.085.048a1.423,1.423,0,0,1,.23.189l3.661,3.66a1.462,1.462,0,0,1,0,2.068,1.5,1.5,0,0,1-2.068,0l-1.168-1.169v8.724a1.463,1.463,0,1,1-2.925,0V129.77l-1.167,1.169a1.5,1.5,0,0,1-2.068,0,1.462,1.462,0,0,1,0-2.068Z" transform="translate(0)" fill="#666"/>
    </g>
  </g>
</svg>
