<svg xmlns="http://www.w3.org/2000/svg" xmlns:xlink="http://www.w3.org/1999/xlink" width="45" height="45" viewBox="0 0 48 48">
  <defs>
    <clipPath id="clip-path">
      <rect id="Rectangle_154661" data-name="Rectangle 154661" width="48" height="48"/>
    </clipPath>
  </defs>
  <g id="Eye" clip-path="url(#clip-path)">
    <rect width="48" height="48" fill="rgba(255,255,255,0)"/>
    <g id="forcast" clip-path="url(#clip-path)">
      <rect id="Rectangle_154660" data-name="Rectangle 154660" width="48" height="48" fill="rgba(255,255,255,0)"/>
    </g>
    <g id="Group_145243" data-name="Group 145243" transform="translate(-1134 -198)">
      <g id="noun-page-view-4934692" transform="translate(1005.512 121.279)">
        <path id="Path_111088" data-name="Path 111088" d="M157.843,88.721H137.132a3.6,3.6,0,0,0-3.644,3.535v16.929a3.6,3.6,0,0,0,3.644,3.535h20.713a3.6,3.6,0,0,0,3.644-3.535V92.256a3.6,3.6,0,0,0-3.645-3.535Zm2.6,20.464a2.567,2.567,0,0,1-2.6,2.525H137.131a2.568,2.568,0,0,1-2.6-2.525V95.413h25.915Zm0-14.783H134.529V92.256a2.568,2.568,0,0,1,2.6-2.525h20.713a2.567,2.567,0,0,1,2.6,2.525V94.4Z" transform="translate(0 0)" fill="#666"/>
        <path id="Path_111089" data-name="Path 111089" d="M401.543,129.8a.852.852,0,1,1-.852-.852.852.852,0,0,1,.852.852" transform="translate(-249.134 -37.614)" fill="#666"/>
        <path id="Path_111090" data-name="Path 111090" d="M443.313,129.8a.852.852,0,1,1-.852-.852.852.852,0,0,1,.852.852" transform="translate(-288.204 -37.614)" fill="#666"/>
        <path id="Path_111091" data-name="Path 111091" d="M485.1,129.8a.852.852,0,1,1-.852-.852.852.852,0,0,1,.852.852" transform="translate(-327.307 -37.614)" fill="#666"/>
        <path id="Path_111092" data-name="Path 111092" d="M236.386,250.469c4.269,0,7.6-5.047,7.745-5.262a.522.522,0,0,0,0-.572c-.14-.215-3.476-5.262-7.745-5.262s-7.6,5.047-7.745,5.262a.522.522,0,0,0,0,.572C228.781,245.422,232.118,250.469,236.386,250.469Zm0-10.051c3.171,0,5.927,3.471,6.677,4.5-.748,1.033-3.5,4.5-6.677,4.5s-5.927-3.471-6.677-4.5C230.458,243.887,233.21,240.418,236.386,240.418Z" transform="translate(-88.899 -141.462)" fill="#666"/>
        <path id="Path_111093" data-name="Path 111093" d="M306.7,284.579a3.007,3.007,0,1,0-3-3.008A3.01,3.01,0,0,0,306.7,284.579Zm0-4.969a1.962,1.962,0,1,1-1.961,1.961A1.963,1.963,0,0,1,306.7,279.61Z" transform="translate(-159.212 -178.066)" fill="#666"/>
        <g id="Group_145209" data-name="Group 145209" transform="translate(163.487 100.721)">
          <path id="ic_chevron_right_24px" d="M.951,0,0,1.058,3.09,4.5,0,7.943.951,9,5,4.5Z" transform="translate(9) rotate(90)" fill="#666"/>
        </g>
      </g>
    </g>
  </g>
</svg>
