<svg xmlns="http://www.w3.org/2000/svg" xmlns:xlink="http://www.w3.org/1999/xlink" width="48" height="48" viewBox="0 0 48 48">
  <defs>
    <clipPath id="clip-path">
      <rect id="Rectangle_154661" data-name="Rectangle 154661" width="48" height="48"/>
    </clipPath>
  </defs>
  <g id="Filter" clip-path="url(#clip-path)">
    <rect width="48" height="48" fill="rgba(255,255,255,0)"/>
    <g id="forcast" clip-path="url(#clip-path)">
      <rect id="Rectangle_154660" data-name="Rectangle 154660" width="48" height="48" fill="rgba(255,255,255,0)"/>
    </g>
    <g id="Filter_by" data-name="Filter by" clip-path="url(#clip-path)">
      <rect id="Rectangle_154786" data-name="Rectangle 154786" width="48" height="48" fill="rgba(255,255,255,0)"/>
      <g id="forcast-2" data-name="forcast">
        <rect id="Rectangle_154660-2" data-name="Rectangle 154660" width="48" height="48" fill="rgba(255,255,255,0)"/>
      </g>
      <path id="Union_440" data-name="Union 440" d="M7.207,13a1.1,1.1,0,1,1,0-2.2h7.687a1.1,1.1,0,0,1,0,2.2ZM27.3,5.138,28.674,3.9l4.475,4.017L37.625,3.9,39,5.138,33.149,10.4ZM4.207,7.6a1.1,1.1,0,1,1,0-2.2H17.892a1.1,1.1,0,0,1,0,2.2ZM1.145,2.2A1.124,1.124,0,0,1,0,1.1,1.125,1.125,0,0,1,1.145,0H20.954A1.125,1.125,0,0,1,22.1,1.1a1.124,1.124,0,0,1-1.147,1.1Z" transform="translate(5 18)" fill="#059cdf"/>
    </g>
  </g>
</svg>
