<svg xmlns="http://www.w3.org/2000/svg" xmlns:xlink="http://www.w3.org/1999/xlink" width="48" height="48" viewBox="0 0 48 48">
  <defs>
    <clipPath id="clip-New_grid_view">
      <rect width="48" height="48"/>
    </clipPath>
  </defs>
  <g id="New_grid_view" data-name="New grid view" clip-path="url(#clip-New_grid_view)">
    <path id="Union_691" data-name="Union 691" d="M10.474,28a1,1,0,0,1-1-1V21a1,1,0,0,1,1-1h5.18a10.071,10.071,0,0,0-.089,1.334,9.828,9.828,0,0,0,1.99,5.948A1,1,0,0,1,16.6,28ZM1,28a1,1,0,0,1-1-1V21a1,1,0,0,1,1-1H7.121a1,1,0,0,1,1,1v6a1,1,0,0,1-1,1Zm27.354-3.2-2.732-2.691a.354.354,0,0,0-.424-.039,2.136,2.136,0,0,1-.238.149,4.216,4.216,0,0,1-2.075.541,4.126,4.126,0,1,1,4.189-4.126,4.056,4.056,0,0,1-.557,2.056,2.031,2.031,0,0,1-.141.219.338.338,0,0,0,.037.421l2.732,2.691a.544.544,0,0,1,0,.778.564.564,0,0,1-.79,0Zm-8.539-6.165a3.072,3.072,0,1,0,3.071-3.026A3.048,3.048,0,0,0,19.814,18.634ZM16.142,18H10.474a1,1,0,0,1-1-1V11a1,1,0,0,1,1-1H16.6a1,1,0,0,1,1,1v4.333A9.9,9.9,0,0,0,16.142,18h0ZM1,18a1,1,0,0,1-1-1V11a1,1,0,0,1,1-1H7.121a1,1,0,0,1,1,1v6a1,1,0,0,1-1,1Zm17.949-4.123V11a1,1,0,0,1,1-1h6.121a1,1,0,0,1,1,1v.422a10.372,10.372,0,0,0-1.354-.088,10.221,10.221,0,0,0-6.765,2.544l0,0Zm1-5.877a1,1,0,0,1-1-1V1a1,1,0,0,1,1-1h6.121a1,1,0,0,1,1,1V7a1,1,0,0,1-1,1ZM10.474,8a1,1,0,0,1-1-1V1a1,1,0,0,1,1-1H16.6a1,1,0,0,1,1,1V7a1,1,0,0,1-1,1ZM1,8A1,1,0,0,1,0,7V1A1,1,0,0,1,1,0H7.121a1,1,0,0,1,1,1V7a1,1,0,0,1-1,1Z" transform="translate(9 10)" fill="#666"/>
  </g>
</svg>
