<svg id="data_import_48dp" xmlns="http://www.w3.org/2000/svg" width="114.959" height="73.142" viewBox="0 0 114.959 73.142">
  <path id="Forma_1" data-name="Forma 1" d="M118.863,56.994V55.248a8.238,8.238,0,0,1,.07.851C118.933,56.375,118.894,56.689,118.863,56.994ZM90.158,82.114l-14.306-.177v.136H8.173a4.11,4.11,0,0,1-4.2-4V12.978a4.11,4.11,0,0,1,4.2-4.006l81.985.073A7.328,7.328,0,0,1,95.9,14.667v28.3H90.158V24.7H9.261V76.842c.235-.206,1.811-.916,0,.052l17.745-.4H90.158V66.456H95.9V76.493A7.328,7.328,0,0,1,90.158,82.114Zm-7.829-62.63a2.61,2.61,0,1,0-2.61-2.61A2.61,2.61,0,0,0,82.329,19.484Zm-10.438,0a2.61,2.61,0,1,0-2.61-2.61A2.61,2.61,0,0,0,71.891,19.484Zm-10.438,0a2.61,2.61,0,1,0-2.61-2.61A2.61,2.61,0,0,0,61.452,19.484ZM90.158,24.7C88.7,26.339,89.967,24.75,90.158,24.7ZM27.006,76.493C27.006,76.448,31.181,74.9,27.006,76.493Z" transform="translate(-3.974 -8.972)" fill="#d9d9d9" fill-rule="evenodd"/>
  <path id="Path_43126" data-name="Path 43126" d="M79.4,48.331H45.461V69.207L22.006,39.37,45.458,16.99V35.283H79.4Z" transform="translate(25.05 3.935)" fill="#d9d9d9" fill-rule="evenodd"/>
</svg>
