<svg xmlns="http://www.w3.org/2000/svg" xmlns:xlink="http://www.w3.org/1999/xlink" width="48" height="48" viewBox="0 0 48 48">
  <defs>
    <clipPath id="clip-path">
      <rect id="Rectangle_154661" data-name="Rectangle 154661" width="48" height="48"/>
    </clipPath>
  </defs>
  <g id="Pin" clip-path="url(#clip-path)">
    <rect width="48" height="48" fill="rgba(255,255,255,0)"/>
    <g id="forcast" clip-path="url(#clip-path)">
      <rect id="Rectangle_154660" data-name="Rectangle 154660" width="48" height="48" fill="rgba(255,255,255,0)"/>
    </g>
    <g id="Group_145230" data-name="Group 145230" transform="translate(9.501 -1.501)">
      <path id="Subtraction_93" data-name="Subtraction 93" d="M34,37.5H3.5A3.5,3.5,0,0,1,0,34V3.5A3.5,3.5,0,0,1,3.5,0H34a3.5,3.5,0,0,1,3.5,3.5V34A3.5,3.5,0,0,1,34,37.5ZM23.664,5.706a.6.6,0,0,0-.458.2L20.82,8.3a.652.652,0,0,0,0,.943L22,10.425l-5.278,5.291-4.74.2a.542.542,0,0,0-.437.2L9.86,17.772a.652.652,0,0,0,0,.943L14.13,23l-7.6,7.651a.654.654,0,0,0,0,.944.65.65,0,0,0,.941,0L15.1,23.973l4.27,4.315a.649.649,0,0,0,.941,0L22,26.6a.594.594,0,0,0,.2-.438l.2-4.752,5.278-5.291L28.854,17.3a.648.648,0,0,0,.941,0l2.387-2.393a.488.488,0,0,0,.235-.437.67.67,0,0,0-.2-.472L24.148,5.909A.688.688,0,0,0,23.664,5.706Zm-3.82,21.133h0l-4.268-4.281-4.27-4.279,1.009-1.012,4.706-.236a.542.542,0,0,0,.437-.2l5.95-5.932a.654.654,0,0,0,0-.943l-1.177-1.18,1.412-1.416L30.77,14.5l-1.412,1.382-1.176-1.18a.648.648,0,0,0-.941,0l-5.95,5.932a.591.591,0,0,0-.2.438l-.236,4.752-1.008,1.011Z" transform="translate(-4.501 6.501)" fill="#059cdf"/>
    </g>
  </g>
</svg>
