<svg xmlns="http://www.w3.org/2000/svg" xmlns:xlink="http://www.w3.org/1999/xlink" width="48" height="48" viewBox="0 0 48 48">
  <defs>
    <clipPath id="clip-path">
      <rect id="Rectangle_154661" data-name="Rectangle 154661" width="48" height="48"/>
    </clipPath>
  </defs>
  <g id="Save" clip-path="url(#clip-path)">
    <rect width="48" height="48" fill="rgba(255,255,255,0)"/>
    <g id="forcast" clip-path="url(#clip-path)">
      <rect id="Rectangle_154660" data-name="Rectangle 154660" width="48" height="48" fill="rgba(255,255,255,0)"/>
    </g>
    <g id="save_48dp" transform="translate(4.5 2.271)">
      <path id="Path_4317" data-name="Path 4317" d="M41,47.457H8a2.982,2.982,0,0,1-3-2.963V6.963A2.982,2.982,0,0,1,8,4H34.9L44,12.816V44.494A2.982,2.982,0,0,1,41,47.457ZM35,10.914a1.988,1.988,0,0,0-2-1.976H11a1.987,1.987,0,0,0-2,1.976V19.8a1.988,1.988,0,0,0,2,1.976H33A1.988,1.988,0,0,0,35,19.8Z" transform="translate(-5 -4)" fill="#fff" fill-rule="evenodd"/>
      <path id="Path_4318" data-name="Path 4318" d="M24.744,10.2h3.3v5.858h-3.3Z" transform="translate(-1.641 -2.685)" fill="#fff" fill-rule="evenodd"/>
    </g>
  </g>
</svg>
