<svg xmlns="http://www.w3.org/2000/svg" width="51.297" height="48" viewBox="0 0 51.297 48">
  <g id="Category" transform="translate(-4.71 -7.62)">
    <g id="Group_816" data-name="Group 816" transform="translate(4.71 7.62)">
      <path id="Path_4087" data-name="Path 4087" d="M10.379,7.62H16.69a5.683,5.683,0,0,1,5.669,5.669v2.2h2.277a6.691,6.691,0,0,1,6.671,6.671v8.512h7.053V28.465A5.69,5.69,0,0,1,44.028,22.8h6.311a5.69,5.69,0,0,1,5.669,5.669v6.3a5.687,5.687,0,0,1-5.669,5.674H44.028a5.687,5.687,0,0,1-5.669-5.674V32.559H31.306v8.518a6.69,6.69,0,0,1-6.671,6.665H22.357v2.209a5.683,5.683,0,0,1-5.669,5.669H10.378A5.683,5.683,0,0,1,4.71,49.953v-6.3a5.683,5.683,0,0,1,5.669-5.669H16.69a5.683,5.683,0,0,1,5.669,5.669v2.209h2.277a4.8,4.8,0,0,0,4.78-4.78V22.164a4.8,4.8,0,0,0-4.78-4.78H22.357v2.209a5.683,5.683,0,0,1-5.669,5.669H10.378a5.683,5.683,0,0,1-5.668-5.67v-6.3A5.683,5.683,0,0,1,10.379,7.62ZM20.466,43.651a3.8,3.8,0,0,0-3.777-3.783H10.378A3.8,3.8,0,0,0,6.6,43.651v6.3a3.8,3.8,0,0,0,3.777,3.783h6.311a3.8,3.8,0,0,0,3.777-3.783ZM50.34,24.684H44.029a3.792,3.792,0,0,0-3.777,3.783v6.3a3.792,3.792,0,0,0,3.777,3.783H50.34a3.8,3.8,0,0,0,3.777-3.783v-6.3A3.792,3.792,0,0,0,50.34,24.684ZM16.688,9.506H10.377A3.8,3.8,0,0,0,6.6,13.289v6.3a3.8,3.8,0,0,0,3.777,3.783h6.311a3.8,3.8,0,0,0,3.777-3.783v-6.3A3.8,3.8,0,0,0,16.688,9.506Z" transform="translate(-4.71 -7.62)" fill="#fff"/>
    </g>
  </g>
</svg>
