<svg id="construction-workers" xmlns="http://www.w3.org/2000/svg" width="48.361" height="48.361" viewBox="0 0 48.361 48.361">
  <path id="Path_21216" data-name="Path 21216" d="M357.227,449.6a23.658,23.658,0,0,0-4.473-2.7l-5.671-2.618a15.3,15.3,0,0,1-2.463,4.387,13.7,13.7,0,0,1-2,2.021h16.027Zm0,0" transform="translate(-310.287 -402.324)" fill="#ec711c"/>
  <path id="Path_21217" data-name="Path 21217" d="M14.028,448.665a15.3,15.3,0,0,1-2.463-4.387L5.894,446.9a23.661,23.661,0,0,0-4.473,2.7L0,450.685H16.027A13.691,13.691,0,0,1,14.028,448.665Zm0,0" transform="translate(0 -402.324)" fill="#ec711c"/>
  <path id="Path_21218" data-name="Path 21218" d="M168.944,414.905v-.323a14.347,14.347,0,0,1-18.479,0v.323a1.424,1.424,0,0,1-.825,1.289s2.19,7.606,10.064,7.606,10.064-7.606,10.064-7.606A1.423,1.423,0,0,1,168.944,414.905Zm0,0" transform="translate(-135.524 -375.439)" fill="#ec711c"/>
  <path id="Path_21219" data-name="Path 21219" d="M145.544,260.774a11.559,11.559,0,0,0,11.544-11.549v-5.112H134v5.112A11.559,11.559,0,0,0,145.544,260.774Zm0,0" transform="translate(-121.363 -221.077)" fill="#ec711c"/>
  <path id="Path_21220" data-name="Path 21220" d="M88.771,45.853h29a1.42,1.42,0,0,0,0-2.84H116.58V41.545a13.358,13.358,0,0,0-5.817-11.028v5.991a1.416,1.416,0,1,1-2.831,0V29.614a1.415,1.415,0,0,1,.1-.534,13.176,13.176,0,0,0-3.351-.81v9.98a1.416,1.416,0,1,1-2.831,0V28.27a13.165,13.165,0,0,0-3.35.81,1.423,1.423,0,0,1,.1.534v6.894a1.416,1.416,0,1,1-2.831,0V30.516A13.359,13.359,0,0,0,89.96,41.545v1.468H88.771a1.42,1.42,0,0,0,0,2.84Zm0,0" transform="translate(-79.09 -25.595)" fill="#ec711c"/>
  <path id="Path_21221" data-name="Path 21221" d="M309.246,28.889a1.419,1.419,0,0,0-2.734-.534,13.315,13.315,0,0,1,2.734,1.437Zm0,0" transform="translate(-277.563 -24.87)" fill="#ec711c"/>
  <path id="Path_21222" data-name="Path 21222" d="M178.025,27.469a1.42,1.42,0,0,0-1.419,1.42v.9a13.308,13.308,0,0,1,2.734-1.437A1.419,1.419,0,0,0,178.025,27.469Zm0,0" transform="translate(-159.926 -24.87)" fill="#ec711c"/>
  <path id="Path_21223" data-name="Path 21223" d="M243.839,2.675V1.42a1.419,1.419,0,1,0-2.839,0V2.675a13.33,13.33,0,0,1,2.839,0Zm0,0" transform="translate(-218.239)" fill="#ec711c"/>
</svg>
