<svg xmlns="http://www.w3.org/2000/svg" width="37.333" height="48" viewBox="0 0 37.333 48">
  <g id="Group_144855" data-name="Group 144855" transform="translate(-5 -3)">
    <path id="noun-sticky-note-3962993" d="M210.466,48.577H195.533V44.841a5.364,5.364,0,0,0,3.488-3.343,4.8,4.8,0,0,0-.852-4.562,5.9,5.9,0,0,0-9,0,4.8,4.8,0,0,0-.853,4.562,5.364,5.364,0,0,0,3.488,3.343v3.736H176.866a1.955,1.955,0,0,0-1.32.5A1.646,1.646,0,0,0,175,50.29V81.138a1.646,1.646,0,0,0,.547,1.212,1.955,1.955,0,0,0,1.32.5h33.6a1.955,1.955,0,0,0,1.32-.5,1.646,1.646,0,0,0,.547-1.212V50.29a1.646,1.646,0,0,0-.547-1.212A1.955,1.955,0,0,0,210.466,48.577Zm-16.8-10.283a1.955,1.955,0,0,1,1.32.5,1.617,1.617,0,0,1,0,2.424,1.987,1.987,0,0,1-2.64,0,1.616,1.616,0,0,1,0-2.424A1.955,1.955,0,0,1,193.666,38.294ZM208.6,79.424H178.733V52H191.8v1.714a1.693,1.693,0,0,0,.933,1.484,2.012,2.012,0,0,0,1.867,0,1.693,1.693,0,0,0,.933-1.484V52H208.6ZM203,58.859a1.9,1.9,0,0,1,1.617.857,1.593,1.593,0,0,1,0,1.714,1.9,1.9,0,0,1-1.617.857H184.333a1.9,1.9,0,0,1-1.617-.857,1.593,1.593,0,0,1,0-1.714,1.9,1.9,0,0,1,1.617-.857Zm1.867,8.569a1.646,1.646,0,0,1-.547,1.212,1.955,1.955,0,0,1-1.32.5H184.333a1.9,1.9,0,0,1-1.617-.857,1.593,1.593,0,0,1,0-1.714,1.9,1.9,0,0,1,1.617-.857H203a1.955,1.955,0,0,1,1.32.5A1.646,1.646,0,0,1,204.866,67.428ZM191.8,74.283a1.646,1.646,0,0,1-.547,1.212,1.955,1.955,0,0,1-1.32.5h-5.6a1.9,1.9,0,0,1-1.617-.857,1.593,1.593,0,0,1,0-1.714,1.9,1.9,0,0,1,1.617-.857h5.6a1.955,1.955,0,0,1,1.32.5A1.646,1.646,0,0,1,191.8,74.283Zm13.067,0a1.646,1.646,0,0,1-.547,1.212A1.955,1.955,0,0,1,203,76h-5.6a1.9,1.9,0,0,1-1.617-.857,1.593,1.593,0,0,1,0-1.714,1.9,1.9,0,0,1,1.617-.857H203a1.955,1.955,0,0,1,1.32.5A1.646,1.646,0,0,1,204.866,74.283Z" transform="translate(-170 -31.852)" fill="#ec711c"/>
  </g>
</svg>
