<svg xmlns="http://www.w3.org/2000/svg" width="48" height="48" viewBox="0 0 48 48">
  <g id="verified" transform="translate(-98.006 -27.996)">
    <path id="Path_111079" data-name="Path 111079" d="M240.386,158.85a11.552,11.552,0,1,0,8.155,3.383A11.54,11.54,0,0,0,240.386,158.85Zm7.763,8.131-9.192,9.193a1.683,1.683,0,0,1-2.378,0l-3.955-3.955h0A1.682,1.682,0,1,1,235,169.841l2.766,2.766,8.005-8a1.682,1.682,0,1,1,2.378,2.378Z" transform="translate(-118.381 -118.391)" fill="#fff"/>
    <path id="Path_111080" data-name="Path 111080" d="M143.891,56.008c.941-1.033,2.115-2.317,2.115-4.012s-1.173-2.979-2.115-4.011a5.761,5.761,0,0,1-1.162-1.542,5.754,5.754,0,0,1,.232-2.018c.306-1.412.653-3.012-.169-4.433-.833-1.44-2.4-1.939-3.792-2.38a5.7,5.7,0,0,1-1.828-.783A5.7,5.7,0,0,1,136.39,35c-.441-1.387-.941-2.959-2.38-3.792-1.422-.823-3.021-.475-4.433-.169a5.759,5.759,0,0,1-2.018.232,5.759,5.759,0,0,1-1.541-1.162C124.985,29.17,123.7,28,122.006,28s-2.979,1.173-4.011,2.115a5.761,5.761,0,0,1-1.542,1.162,5.755,5.755,0,0,1-2.017-.232c-1.412-.306-3.012-.653-4.433.169-1.44.833-1.939,2.4-2.38,3.792a5.7,5.7,0,0,1-.783,1.828,5.7,5.7,0,0,1-1.828.783c-1.387.441-2.959.941-3.792,2.38-.823,1.422-.475,3.021-.169,4.433a5.759,5.759,0,0,1,.232,2.018,5.777,5.777,0,0,1-1.162,1.541C99.179,49.017,98.006,50.3,98.006,52s1.173,2.979,2.115,4.011a5.76,5.76,0,0,1,1.162,1.542,5.755,5.755,0,0,1-.232,2.018c-.306,1.412-.653,3.012.169,4.433.833,1.44,2.4,1.939,3.792,2.38a5.7,5.7,0,0,1,1.828.783,5.7,5.7,0,0,1,.783,1.828c.441,1.387.941,2.959,2.38,3.792,1.422.822,3.021.475,4.433.169a5.754,5.754,0,0,1,2.017-.232,5.758,5.758,0,0,1,1.542,1.162c1.032.941,2.317,2.115,4.011,2.115s2.979-1.173,4.012-2.115a5.742,5.742,0,0,1,1.541-1.162,5.755,5.755,0,0,1,2.018.232c1.412.306,3.012.653,4.433-.169,1.44-.833,1.939-2.4,2.38-3.792a5.706,5.706,0,0,1,.783-1.828A5.7,5.7,0,0,1,139,66.38c1.387-.441,2.959-.941,3.792-2.38.823-1.422.475-3.021.169-4.433a5.758,5.758,0,0,1-.232-2.018,5.759,5.759,0,0,1,1.162-1.541ZM122.005,66.9a14.918,14.918,0,1,1,10.532-4.369A14.9,14.9,0,0,1,122.005,66.9Z" transform="translate(0 0)" fill="#fff"/>
  </g>
</svg>
