<svg xmlns="http://www.w3.org/2000/svg" xmlns:xlink="http://www.w3.org/1999/xlink" width="48" height="48" viewBox="0 0 48 48">
  <defs>
    <clipPath id="clip-path">
      <rect id="Rectangle_154661" data-name="Rectangle 154661" width="48" height="48"/>
    </clipPath>
  </defs>
  <g id="Pin_without_fill" data-name="Pin without fill" clip-path="url(#clip-path)">
    <rect width="48" height="48" fill="rgba(255,255,255,0)"/>
    <g id="forcast" clip-path="url(#clip-path)">
      <rect id="Rectangle_154660" data-name="Rectangle 154660" width="48" height="48" fill="rgba(255,255,255,0)"/>
    </g>
    <path id="Union_616" data-name="Union 616" d="M5997-14773a4,4,0,0,1-4-4v-28a4,4,0,0,1,4-4h28a4.007,4.007,0,0,1,4,4v28a4.006,4.006,0,0,1-4,4Zm-2.434-30.78v25.559a3.657,3.657,0,0,0,3.653,3.653h25.563a3.657,3.657,0,0,0,3.65-3.653v-25.559a3.658,3.658,0,0,0-3.65-3.654H5998.22A3.658,3.658,0,0,0,5994.566-14803.779Zm4.62,24.674a.6.6,0,0,1,0-.87l7.013-7.064-3.939-3.951a.6.6,0,0,1-.186-.435.6.6,0,0,1,.186-.435l1.55-1.528a.507.507,0,0,1,.4-.186l4.375-.186,4.873-4.884-1.085-1.089a.6.6,0,0,1,0-.873l2.2-2.208a.6.6,0,0,1,.87,0l7.448,7.467a.6.6,0,0,1,.186.435.45.45,0,0,1-.215.405l-2.2,2.211a.614.614,0,0,1-.435.187.621.621,0,0,1-.435-.187l-1.085-1.093-4.873,4.888-.186,4.386a.558.558,0,0,1-.186.405l-1.554,1.557a.612.612,0,0,1-.431.187.614.614,0,0,1-.435-.187l-3.943-3.983-7.043,7.031a.613.613,0,0,1-.435.186A.613.613,0,0,1,5999.186-14779.105Zm14.491-21.062,1.089,1.089a.6.6,0,0,1,0,.869l-5.493,5.475a.5.5,0,0,1-.405.189l-4.345.216-.929.933,3.939,3.955,3.943,3.95.929-.937.219-4.386a.542.542,0,0,1,.186-.4l5.489-5.475a.611.611,0,0,1,.435-.187.6.6,0,0,1,.435.187l1.085,1.089,1.3-1.275-6.578-6.6Z" transform="translate(-5987 14815)" fill="#059cdf" stroke="rgba(0,0,0,0)" stroke-miterlimit="10" stroke-width="1"/>
  </g>
</svg>
