<svg id="MDI_briefcase-clock-outline" data-name="MDI / briefcase-clock-outline" xmlns="http://www.w3.org/2000/svg" width="48" height="48" viewBox="0 0 48 48">
  <g id="Boundary" fill="#a7a7a7" stroke="rgba(0,0,0,0)" stroke-width="1" opacity="0">
    <rect width="48" height="48" stroke="none"/>
    <rect x="0.5" y="0.5" width="47" height="47" fill="none"/>
  </g>
  <path id="Path_briefcase-clock-outline" data-name="Path / briefcase-clock-outline" d="M42.783,22.117V13.533a4.177,4.177,0,0,0-1.212-2.945A3.907,3.907,0,0,0,38.6,9.355H30.248V5.178a3.968,3.968,0,0,0-1.212-2.966A3.97,3.97,0,0,0,26.07,1H17.713a3.97,3.97,0,0,0-2.967,1.211,3.968,3.968,0,0,0-1.212,2.966V9.355H5.178a3.907,3.907,0,0,0-2.967,1.232A4.177,4.177,0,0,0,1,13.533V36.507a4.177,4.177,0,0,0,1.212,2.945,3.907,3.907,0,0,0,2.967,1.232H20.345A14.623,14.623,0,1,0,42.783,22.117M17.713,5.178H26.07V9.355H17.713M5.178,36.507V13.533H38.6v5.6a14.292,14.292,0,0,0-6.267-1.42A14.622,14.622,0,0,0,17.713,32.33a14.429,14.429,0,0,0,.606,4.177M38.6,40.685a10.448,10.448,0,0,1-12.535,0,10.317,10.317,0,0,1-4.178-8.355A10.444,10.444,0,0,1,32.337,21.887,10.322,10.322,0,0,1,38.6,23.976a10.442,10.442,0,0,1,0,16.709m-8.357-14.62h3.134v5.89l5.1,2.945-1.567,2.715-6.664-3.843V26.064" transform="translate(0 0.001)" fill="#a7a7a7"/>
</svg>
