<svg xmlns="http://www.w3.org/2000/svg" xmlns:xlink="http://www.w3.org/1999/xlink" width="48" height="48" viewBox="0 0 48 48">
  <defs>
    <clipPath id="clip-Streams_Orange_color_">
      <rect width="48" height="48"/>
    </clipPath>
  </defs>
  <g id="Streams_Orange_color_" data-name="Streams– Orange color " clip-path="url(#clip-Streams_Orange_color_)">
    <path id="Path_111114" data-name="Path 111114" d="M19.5,0A19.5,19.5,0,1,1,0,19.5,19.5,19.5,0,0,1,19.5,0Z" transform="translate(5 5)" fill="#ed7532"/>
    <path id="streams" d="M22.3,26.463c-3.654,0-4.285-1.205-4.285-1.205v-.264a.543.543,0,0,0,.006-.187c.049-2.447.415-3.152,3.036-3.6a1.627,1.627,0,0,0,1.242.452,1.626,1.626,0,0,0,1.242-.452c2.65.452,3,1.169,3.038,3.682a1.536,1.536,0,0,0,0,.174c0,.042,0,.106,0,.2C26.586,25.258,25.956,26.463,22.3,26.463ZM10.542,12.771a.564.564,0,0,1-.671-.414l-.056-.262a.538.538,0,0,1,.436-.637l9.135-1.842a.564.564,0,0,1,.671.414l.056.262a.538.538,0,0,1-.438.637ZM22.3,15.784c1.935,0,2.269,1.169,2.269,2.612A2.459,2.459,0,0,1,22.3,21.007,2.459,2.459,0,0,1,20.033,18.4C20.033,16.953,20.364,15.784,22.3,15.784Zm-11.585-.2-.056-.262a.538.538,0,0,1,.436-.637l9.135-1.842a.564.564,0,0,1,.671.414l.056.262a.538.538,0,0,1-.436.637l-9.135,1.841a.564.564,0,0,1-.671-.413Zm15.257,1.7a.48.48,0,0,1-.559-.371L23.383,5.992,6.956,8.589,9.684,23.261l7.244-1.29a.48.48,0,0,1,.565.366.46.46,0,0,1-.385.535L9.383,24.248a.481.481,0,0,1-.089.008.5.5,0,0,1-.273-.082.456.456,0,0,1-.2-.3l-.189-1.012L4.414,22.42a.466.466,0,0,1-.428-.482l.968-16.5a.446.446,0,0,1,.165-.32.491.491,0,0,1,.357-.113l12.166.965,6.056-.96a.478.478,0,0,1,.554.372l2.112,11.367a.46.46,0,0,1-.391.532Z" transform="translate(9.014 8.996)" fill="#fff" fill-rule="evenodd"/>
  </g>
</svg>
