<svg xmlns="http://www.w3.org/2000/svg" xmlns:xlink="http://www.w3.org/1999/xlink" width="48" height="48" viewBox="0 0 48 48">
  <defs>
    <clipPath id="clip-path">
      <rect id="Rectangle_154661" data-name="Rectangle 154661" width="48" height="48"/>
    </clipPath>
  </defs>
  <g id="Forecast" clip-path="url(#clip-path)">
    <rect width="48" height="48" fill="rgba(255,255,255,0)"/>
    <g id="forcast" clip-path="url(#clip-path)">
      <rect id="Rectangle_154660" data-name="Rectangle 154660" width="48" height="48" fill="rgba(255,255,255,0)"/>
    </g>
    <path id="noun-budget-3265923" d="M133.437-.011a1.172,1.172,0,0,0-.745.366,1.108,1.108,0,0,0-.3.757V34.921a1.112,1.112,0,0,0,.34.8,1.178,1.178,0,0,0,.825.33h26.522a1.178,1.178,0,0,0,.825-.33,1.112,1.112,0,0,0,.34-.8V1.112a1.111,1.111,0,0,0-.343-.8,1.177,1.177,0,0,0-.822-.327H133.557a1.2,1.2,0,0,0-.12,0Zm1.276,2.254h24.211V33.8H134.713ZM151.763,4.1a1.177,1.177,0,0,0-.811.343,1.11,1.11,0,0,0-.327.8v8.877h0a1.111,1.111,0,0,0,.331.813,1.184,1.184,0,0,0,1.659,0,1.11,1.11,0,0,0,.33-.813V5.239h0a1.11,1.11,0,0,0-.343-.814,1.179,1.179,0,0,0-.84-.327ZM146.8,6.353a1.177,1.177,0,0,0-.812.342,1.11,1.11,0,0,0-.328.8v6.623h0a1.122,1.122,0,0,0,.581.977,1.191,1.191,0,0,0,1.161,0,1.122,1.122,0,0,0,.581-.977V7.493a1.109,1.109,0,0,0-.343-.813,1.179,1.179,0,0,0-.84-.327ZM141.83,8.609a1.177,1.177,0,0,0-.811.341,1.11,1.11,0,0,0-.329.8v4.369h0a1.122,1.122,0,0,0,.581.977,1.191,1.191,0,0,0,1.161,0,1.122,1.122,0,0,0,.581-.977V9.747a1.111,1.111,0,0,0-.344-.812,1.178,1.178,0,0,0-.839-.326ZM146.8,18.55a1.177,1.177,0,0,0-.812.342,1.111,1.111,0,0,0-.328.8v.652a3.1,3.1,0,0,0-2.293,2.943,3.144,3.144,0,0,0,3.168,3.086h.564a.832.832,0,1,1,0,1.664h-.075a1.106,1.106,0,0,0-.4,0h-1.643a1.179,1.179,0,0,0-.837.321,1.105,1.105,0,0,0,0,1.612,1.18,1.18,0,0,0,.837.321h.675V30.8a1.122,1.122,0,0,0,.581.977,1.191,1.191,0,0,0,1.161,0,1.122,1.122,0,0,0,.581-.977v-.647a3.115,3.115,0,0,0,2.3-2.947,3.153,3.153,0,0,0-3.179-3.086h-.564a.829.829,0,1,1,0-1.657h2.123a1.166,1.166,0,0,0,.984-.571,1.1,1.1,0,0,0,0-1.113,1.166,1.166,0,0,0-.984-.571h-.675V19.69a1.11,1.11,0,0,0-.343-.813,1.178,1.178,0,0,0-.84-.327Z" transform="translate(-122.393 6.012)" fill="#666"/>
  </g>
</svg>
