<svg xmlns="http://www.w3.org/2000/svg" xmlns:xlink="http://www.w3.org/1999/xlink" width="48" height="48" viewBox="0 0 48 48">
  <defs>
    <clipPath id="clip-path">
      <rect id="Rectangle_154661" data-name="Rectangle 154661" width="48" height="48"/>
    </clipPath>
  </defs>
  <g id="Transactions_Grey" data-name="Transactions Grey" clip-path="url(#clip-path)">
    <rect width="48" height="48" fill="rgba(255,255,255,0)"/>
    <g id="forcast" clip-path="url(#clip-path)">
      <rect id="Rectangle_154660" data-name="Rectangle 154660" width="48" height="48" fill="rgba(255,255,255,0)"/>
    </g>
    <path id="Path_table-arrow-right" data-name="Path / table-arrow-right" d="M5.557,3h24.9a3.556,3.556,0,0,1,3.557,3.557V19.149a10.69,10.69,0,0,0-7.683,1.636H19.785V27.9h1.921a10.851,10.851,0,0,0,0,3.557H5.557A3.556,3.556,0,0,1,2,27.9V6.557A3.567,3.567,0,0,1,5.557,3m0,7.114v7.114H16.228V10.114H5.557m14.228,0v7.114H30.456V10.114H19.785M5.557,20.785V27.9H16.228V20.785H5.557m27.46,14.228V31.456H25.9V27.9h7.114V24.342l5.335,5.335-5.335,5.335" transform="translate(4 5)" fill="#666"/>
  </g>
</svg>
