<svg xmlns="http://www.w3.org/2000/svg" xmlns:xlink="http://www.w3.org/1999/xlink" width="48" height="48" viewBox="0 0 48 48">
  <defs>
    <clipPath id="clip-Active">
      <rect width="48" height="48"/>
    </clipPath>
  </defs>
  <g id="Active" clip-path="url(#clip-Active)">
    <rect width="48" height="48" fill="rgba(255,255,255,0)"/>
    <path id="Union_622" data-name="Union 622" d="M32.453,28.711l-2.488-.563a.615.615,0,0,1-.477-.628l.058-1.3a7.288,7.288,0,0,1-1.216-.852l-1.2.488a.6.6,0,0,1-.748-.239L25.032,23.45a.619.619,0,0,1,.1-.786l.944-.877a7.221,7.221,0,0,1-.246-1.473l-1.191-.5a.61.61,0,0,1-.361-.7l.559-2.508a.592.592,0,0,1,.624-.479l1.289.058a7.4,7.4,0,0,1,.853-1.233l-.484-1.2a.611.611,0,0,1,.238-.753L29.5,11.62a.6.6,0,0,1,.78.1l.879.96a6.825,6.825,0,0,1,1.461-.257l.5-1.191a.615.615,0,0,1,.7-.364l2.48.554a.614.614,0,0,1,.484.629l-.058,1.3a7.55,7.55,0,0,1,1.216.861l1.191-.5a.612.612,0,0,1,.746.249l1.364,2.167a.621.621,0,0,1-.1.786l-.944.876a7.717,7.717,0,0,1,.255,1.473l1.174.5a.612.612,0,0,1,.362.7l-.55,2.507a.6.6,0,0,1-.632.488L39.521,23.4a7.3,7.3,0,0,1-.853,1.233l.484,1.2a.608.608,0,0,1-.238.752l-2.151,1.374a.6.6,0,0,1-.78-.1l-.869-.959a6.311,6.311,0,0,1-1.462.248l-.5,1.2a.617.617,0,0,1-.566.38A.778.778,0,0,1,32.453,28.711ZM29.94,19.065a3.275,3.275,0,1,0,6.387,1.448V20.5a3.274,3.274,0,1,0-6.387-1.439ZM10.7,25.393a.624.624,0,0,1-.607-.513l-.353-2.035A9.759,9.759,0,0,1,7.462,21.9L5.779,23.094a.618.618,0,0,1-.787-.075L2.363,20.364a.631.631,0,0,1-.073-.794l1.174-1.7a10.229,10.229,0,0,1-.935-2.284L.509,15.235A.62.62,0,0,1,0,14.623V10.875a.627.627,0,0,1,.509-.612l2.012-.355a10.556,10.556,0,0,1,.944-2.291L2.29,5.921a.631.631,0,0,1,.074-.795L4.991,2.479a.619.619,0,0,1,.789-.074L7.463,3.588a10.02,10.02,0,0,1,2.274-.944L10.089.61A.624.624,0,0,1,10.7.1h3.718a.619.619,0,0,1,.608.513l.353,2.035a10.066,10.066,0,0,1,2.265.942l1.683-1.183a.619.619,0,0,1,.789.074l2.635,2.648a.618.618,0,0,1,.066.794l-1.174,1.7a10.4,10.4,0,0,1,.944,2.291l2.011.357a.626.626,0,0,1,.509.612v3.747a.619.619,0,0,1-.509.612l-2.011.357a10.464,10.464,0,0,1-.944,2.283l1.174,1.695a.619.619,0,0,1-.066.795l-2.635,2.656a.608.608,0,0,1-.789.066L17.641,21.9a9.825,9.825,0,0,1-2.265.942l-.353,2.035a.619.619,0,0,1-.608.513Zm-3.2-12.647a5.062,5.062,0,1,0,5.057-5.1A5.086,5.086,0,0,0,7.495,12.746Zm21.952-1.906-1.575-.357a.388.388,0,0,1-.3-.4l.036-.822a4.735,4.735,0,0,1-.769-.539l-.758.309a.382.382,0,0,1-.474-.152L24.749,7.51a.392.392,0,0,1,.061-.5l.6-.554a4.517,4.517,0,0,1-.155-.933l-.754-.32a.387.387,0,0,1-.229-.445l.354-1.587a.373.373,0,0,1,.395-.3l.816.036a4.629,4.629,0,0,1,.54-.779l-.306-.76A.385.385,0,0,1,26.219.89L27.575.022a.381.381,0,0,1,.494.062l.556.608A4.325,4.325,0,0,1,29.55.529l.317-.754a.388.388,0,0,1,.441-.23l1.57.351a.389.389,0,0,1,.306.4l-.036.822a4.907,4.907,0,0,1,.769.545l.753-.313a.389.389,0,0,1,.474.157l.863,1.372a.394.394,0,0,1-.063.5l-.6.555a4.843,4.843,0,0,1,.161.932l.743.32a.388.388,0,0,1,.229.445l-.347,1.587a.383.383,0,0,1-.4.309l-.811-.041a4.629,4.629,0,0,1-.54.779l.306.76a.384.384,0,0,1-.151.476l-1.361.87a.378.378,0,0,1-.494-.063l-.55-.608a3.893,3.893,0,0,1-.926.158l-.316.76a.39.39,0,0,1-.359.24A.433.433,0,0,1,29.447,10.841ZM27.856,4.735a2.073,2.073,0,1,0,4.043.916V5.646a2.072,2.072,0,1,0-4.043-.911Z" transform="translate(3 9.464)" fill="#fff"/>
  </g>
</svg>
