<svg xmlns="http://www.w3.org/2000/svg" width="194.494" height="194.044" viewBox="0 0 194.494 194.044">
  <path id="Path_111137" data-name="Path 111137" d="M248.289,55.51c0-2.332.224-4.76-.942-6.9a7.616,7.616,0,0,0-6.775-3.785H223.433v-1.55a5.866,5.866,0,0,0-6.007-5.591H141.168c-1.678,0-3.355-.048-5.049,0a5.89,5.89,0,0,0-5.75,6.118v1.039H117.862c-1.79,0-3.61-.128-5.384.032a7.52,7.52,0,0,0-6.98,7.444c-.016.559,0,1.1,0,1.661V71.692c0,5.7-.351,11.533,1.71,16.964a28.493,28.493,0,0,0,8.705,12.332,29.2,29.2,0,0,0,14.473,6.294,26.143,26.143,0,0,0,2.732.256,44.424,44.424,0,0,0,2.075,4.952,46.452,46.452,0,0,0,31.486,24.759V149.98h-15.1c-.35,0-.7-.016-1.07,0a5.793,5.793,0,0,0-5.431,4.186q-2.946,8.649-5.781,17.332a5.959,5.959,0,0,0,2.538,6.932,6.421,6.421,0,0,0,3.388.831h63.912a5.915,5.915,0,0,0,5.431-7.572c-.207-.719-.478-1.422-.7-2.125-1.181-3.562-2.38-7.124-3.562-10.687-.463-1.374-.91-2.747-1.374-4.121-.08-.256-.161-.527-.255-.783a5.744,5.744,0,0,0-3.419-3.594c-1.438-.559-3.275-.367-4.792-.367H187.125V137.249a47.158,47.158,0,0,0,18.962-9.153A46.631,46.631,0,0,0,220.7,107.569a28.85,28.85,0,0,0,24.121-14.951,29.341,29.341,0,0,0,3.465-13.705V55.51ZM126.727,96.5a22.6,22.6,0,0,1-3.387-1.885c-.319-.207-.638-.447-.941-.671h-.016c.1.08.223.209.32.272-.24-.159-.879-.671-.32-.272-.047-.047-.08-.064-.08-.079a20.287,20.287,0,0,1-1.614-1.486c-.51-.527-1-1.054-1.484-1.629a1.723,1.723,0,0,0-.144-.176c-.192-.256-.367-.511-.543-.767a24.4,24.4,0,0,1-1.933-3.45c.08.207.159.415.255.623l-.479-1.15c.081.176.161.351.224.527a24.743,24.743,0,0,1-1.326-4.872,98.223,98.223,0,0,1-.143-10.383V55.734c0-.431-.016-.878-.031-1.325h15.3V91.07A51.116,51.116,0,0,0,130.8,97.7a25.919,25.919,0,0,1-4.072-1.2Zm75.717-17.092c-.494.511-.99,1.006-1.484,1.517q-4.7,4.745-9.409,9.5c.031.207.064.415.111.623q1.2,7.187,2.4,14.36a2.481,2.481,0,0,1-.863,2.524,2.425,2.425,0,0,1-2.668.192c-.607-.32-1.229-.639-1.836-.959-3.883-2.029-7.78-4.073-11.661-6.1-.225.111-.432.224-.655.335q-6.52,3.355-13.036,6.725a2.424,2.424,0,0,1-3.514-2.7c.111-.7.24-1.389.351-2.092.735-4.3,1.47-8.61,2.2-12.907q-.31-.313-.623-.623l-10.4-10.4c-1.151-1.15-.8-3.738,1.054-4.01.7-.1,1.39-.207,2.092-.3,4.473-.655,8.931-1.294,13.4-1.949.161-.319.3-.623.447-.926q3.235-6.614,6.469-13.212a2.107,2.107,0,0,1,1.279-1.054l.143-.048a.638.638,0,0,0,.08-.016c.032,0,.049-.016.081-.016a1.865,1.865,0,0,1,.319-.032h.32a2.034,2.034,0,0,1,.319.032c.049.016.081.016.128.031h.064c.049.017.081.017.127.032a2.1,2.1,0,0,1,1.279,1.054c.319.639.639,1.278.943,1.917,2.029,4.105,4.057,8.195,6.1,12.3l1.055.144c4.776.671,9.536,1.358,14.312,2.029,1.869.288,2.2,2.859,1.07,4.026Zm36.117,2.109a24.076,24.076,0,0,1-1.325,4.84,22.575,22.575,0,0,1-1.884,3.387c-.209.319-.447.639-.673.942a2.151,2.151,0,0,0,.257-.287c-.176.255-.655.847-.257.287-.047.048-.062.08-.078.1q-.695.839-1.486,1.63c-.528.527-1.055,1.006-1.614,1.485l-.192.144c-.255.192-.511.367-.766.544a26.085,26.085,0,0,1-3.45,1.932c.207-.079.415-.159.621-.255l-1.149.479c.176-.08.351-.144.528-.224a24.182,24.182,0,0,1-4.106,1.2,68.569,68.569,0,0,0,.446-8.1V54.409h15.288V76.661C238.706,78.29,238.722,79.9,238.561,81.517Z" transform="translate(-110.175 91.537) rotate(-30)" fill="#faf2b5"/>
</svg>
