<svg xmlns="http://www.w3.org/2000/svg" xmlns:xlink="http://www.w3.org/1999/xlink" width="48" height="48" viewBox="0 0 48 48">
  <defs>
    <clipPath id="clip-Bid_Calculator_">
      <rect width="48" height="48"/>
    </clipPath>
  </defs>
  <g id="Bid_Calculator_" data-name="Bid Calculator " clip-path="url(#clip-Bid_Calculator_)">
    <rect width="48" height="48" fill="rgba(255,255,255,0)"/>
    <g id="Group_145953" data-name="Group 145953" transform="translate(8 8)">
      <g id="Group_73449" data-name="Group 73449">
        <path id="Path_43441" data-name="Path 43441" d="M14.662,18.549H6.887A3.892,3.892,0,0,1,3,14.662V6.887A3.892,3.892,0,0,1,6.887,3h7.775a3.892,3.892,0,0,1,3.887,3.887v7.775A3.892,3.892,0,0,1,14.662,18.549ZM6.887,5.592a1.3,1.3,0,0,0-1.3,1.3v7.775a1.3,1.3,0,0,0,1.3,1.3h7.775a1.3,1.3,0,0,0,1.3-1.3V6.887a1.3,1.3,0,0,0-1.3-1.3Z" transform="translate(-3 -3)" fill="#ec711c"/>
        <path id="Path_43442" data-name="Path 43442" d="M28.662,18.549H20.887A3.892,3.892,0,0,1,17,14.662V6.887A3.892,3.892,0,0,1,20.887,3h7.775a3.892,3.892,0,0,1,3.887,3.887v7.775A3.892,3.892,0,0,1,28.662,18.549ZM20.887,5.592a1.3,1.3,0,0,0-1.3,1.3v7.775a1.3,1.3,0,0,0,1.3,1.3h7.775a1.3,1.3,0,0,0,1.3-1.3V6.887a1.3,1.3,0,0,0-1.3-1.3Z" transform="translate(0.451 -3)" fill="#ec711c"/>
        <path id="Path_43443" data-name="Path 43443" d="M14.662,32.549H6.887A3.892,3.892,0,0,1,3,28.662V20.887A3.892,3.892,0,0,1,6.887,17h7.775a3.892,3.892,0,0,1,3.887,3.887v7.775A3.892,3.892,0,0,1,14.662,32.549ZM6.887,19.592a1.3,1.3,0,0,0-1.3,1.3v7.775a1.3,1.3,0,0,0,1.3,1.3h7.775a1.3,1.3,0,0,0,1.3-1.3V20.887a1.3,1.3,0,0,0-1.3-1.3Z" transform="translate(-3 0.451)" fill="#ec711c"/>
        <path id="Path_43444" data-name="Path 43444" d="M28.662,32.549H20.887A3.892,3.892,0,0,1,17,28.662V20.887A3.892,3.892,0,0,1,20.887,17h7.775a3.892,3.892,0,0,1,3.887,3.887v7.775A3.892,3.892,0,0,1,28.662,32.549ZM20.887,19.592a1.3,1.3,0,0,0-1.3,1.3v7.775a1.3,1.3,0,0,0,1.3,1.3h7.775a1.3,1.3,0,0,0,1.3-1.3V20.887a1.3,1.3,0,0,0-1.3-1.3Z" transform="translate(0.451 0.451)" fill="#ec711c"/>
      </g>
    </g>
  </g>
</svg>
