<svg xmlns="http://www.w3.org/2000/svg" xmlns:xlink="http://www.w3.org/1999/xlink" width="48" height="48" viewBox="0 0 48 48">
  <defs>
    <clipPath id="clip-Bidding_Instructions">
      <rect width="48" height="48"/>
    </clipPath>
  </defs>
  <g id="Bidding_Instructions" data-name="Bidding Instructions" clip-path="url(#clip-Bidding_Instructions)">
    <rect width="48" height="48" fill="rgba(255,255,255,0)"/>
    <path id="noun-sticky-note-3962993" d="M199.383,44.288H189.116V41.719a3.688,3.688,0,0,0,2.4-2.3,3.3,3.3,0,0,0-.586-3.136,4.06,4.06,0,0,0-6.19,0,3.3,3.3,0,0,0-.586,3.136,3.688,3.688,0,0,0,2.4,2.3v2.568H176.283a1.344,1.344,0,0,0-.908.345,1.132,1.132,0,0,0-.376.833V66.674a1.132,1.132,0,0,0,.376.833,1.344,1.344,0,0,0,.908.345h23.1a1.344,1.344,0,0,0,.908-.345,1.132,1.132,0,0,0,.376-.833V45.466a1.132,1.132,0,0,0-.376-.833A1.344,1.344,0,0,0,199.383,44.288Zm-11.55-7.069a1.344,1.344,0,0,1,.908.345,1.111,1.111,0,0,1,0,1.666,1.366,1.366,0,0,1-1.815,0,1.111,1.111,0,0,1,0-1.666A1.344,1.344,0,0,1,187.833,37.218ZM198.1,65.5H177.566V46.644h8.983v1.178a1.164,1.164,0,0,0,.642,1.02,1.383,1.383,0,0,0,1.283,0,1.164,1.164,0,0,0,.642-1.02V46.644H198.1Zm-3.85-14.139a1.308,1.308,0,0,1,1.111.589,1.1,1.1,0,0,1,0,1.178,1.308,1.308,0,0,1-1.111.589H181.416a1.308,1.308,0,0,1-1.111-.589,1.1,1.1,0,0,1,0-1.178,1.308,1.308,0,0,1,1.111-.589Zm1.283,5.891a1.132,1.132,0,0,1-.376.833,1.344,1.344,0,0,1-.907.345H181.416a1.308,1.308,0,0,1-1.111-.589,1.1,1.1,0,0,1,0-1.178,1.308,1.308,0,0,1,1.111-.589H194.25a1.344,1.344,0,0,1,.907.345A1.132,1.132,0,0,1,195.533,57.248Zm-8.983,4.713a1.132,1.132,0,0,1-.376.833,1.344,1.344,0,0,1-.908.345h-3.85a1.308,1.308,0,0,1-1.111-.589,1.1,1.1,0,0,1,0-1.178,1.308,1.308,0,0,1,1.111-.589h3.85a1.344,1.344,0,0,1,.908.345A1.132,1.132,0,0,1,186.55,61.961Zm8.983,0a1.132,1.132,0,0,1-.376.833,1.344,1.344,0,0,1-.907.345H190.4a1.308,1.308,0,0,1-1.111-.589,1.1,1.1,0,0,1,0-1.178,1.308,1.308,0,0,1,1.111-.589h3.85a1.344,1.344,0,0,1,.907.345A1.132,1.132,0,0,1,195.533,61.961Z" transform="translate(-164.001 -26.852)" fill="#ec711c"/>
  </g>
</svg>
