<svg xmlns="http://www.w3.org/2000/svg" width="47.958" height="48" viewBox="0 0 47.958 48">
  <path id="Bid-details" d="M2.706,45.791,25.628,22.868l-3.343-3.391-1.719,1.7a2.378,2.378,0,0,1-3.367,0l-1.7-1.7a2.378,2.378,0,0,1,0-3.367L29.019,2.6a2.378,2.378,0,0,1,3.367,0l1.7,1.7a2.378,2.378,0,0,1,0,3.367l-1.7,1.648,3.391,3.415a2.378,2.378,0,0,1,3.367,0,2.407,2.407,0,0,1,0,3.391l3.367,3.367,1.7-1.7a2.407,2.407,0,0,1,3.391,0l1.671,1.7a2.407,2.407,0,0,1,0,3.391L35.776,36.359a2.407,2.407,0,0,1-3.391,0l-1.671-1.671a2.364,2.364,0,0,1,0-3.391l1.671-1.7-3.367-3.367L6.073,49.181a2.378,2.378,0,0,1-3.367,0,2.407,2.407,0,0,1,0-3.391m42.263-3.056a4.776,4.776,0,0,1,4.776,4.776V49.9H25.867V47.51a4.776,4.776,0,0,1,4.776-4.776Z" transform="translate(-2.007 -1.897)" fill="#ec711c"/>
</svg>
