<svg xmlns="http://www.w3.org/2000/svg" xmlns:xlink="http://www.w3.org/1999/xlink" width="48" height="48" viewBox="0 0 48 48">
  <defs>
    <clipPath id="clip-Bid_Package_Name">
      <rect width="48" height="48"/>
    </clipPath>
  </defs>
  <g id="Bid_Package_Name" data-name="Bid Package Name" clip-path="url(#clip-Bid_Package_Name)">
    <rect width="48" height="48" fill="rgba(255,255,255,0)"/>
    <path id="noun-name-card-4017777" d="M155.192,92.731h-5.231V88.808a1.308,1.308,0,0,0-1.308-1.308H130.346a1.308,1.308,0,0,0-1.308,1.308v3.923h-5.231a1.307,1.307,0,0,0-1.308,1.308v24.846a1.307,1.307,0,0,0,1.308,1.308h31.385a1.307,1.307,0,0,0,1.308-1.308V94.038a1.307,1.307,0,0,0-1.308-1.308Zm-23.538-2.615h15.692v2.615H131.654Zm22.231,27.462H125.115V95.346h28.769ZM129.038,104.5h5.231a1.308,1.308,0,0,0,1.308-1.308V97.962a1.308,1.308,0,0,0-1.308-1.308h-5.231a1.307,1.307,0,0,0-1.308,1.308v5.231a1.308,1.308,0,0,0,1.308,1.308Zm1.308-5.231h2.615v2.615h-2.615Zm-2.615,9.154a1.308,1.308,0,0,1,1.308-1.308h7.846a1.308,1.308,0,0,1,0,2.615h-7.846a1.308,1.308,0,0,1-1.308-1.308Zm15.692,5.231a1.307,1.307,0,0,1-1.308,1.308H129.038a1.308,1.308,0,1,1,0-2.615h13.077a1.308,1.308,0,0,1,1.308,1.308Z" transform="translate(-115.5 -79.5)" fill="#ec711c"/>
  </g>
</svg>
