<svg xmlns="http://www.w3.org/2000/svg" xmlns:xlink="http://www.w3.org/1999/xlink" width="48" height="48" viewBox="0 0 48 48">
  <defs>
    <clipPath id="clip-Bid_Queries">
      <rect width="48" height="48"/>
    </clipPath>
  </defs>
  <g id="Bid_Queries" data-name="Bid Queries" clip-path="url(#clip-Bid_Queries)">
    <rect width="48" height="48" fill="rgba(255,255,255,0)"/>
    <g id="faq" transform="translate(8 8)">
      <path id="Path_48099" data-name="Path 48099" d="M209.327,113.12H189.011a5.9,5.9,0,0,0-5.891,5.891v20.317a5.9,5.9,0,0,0,5.891,5.891h20.317a5.9,5.9,0,0,0,5.891-5.891V119.011a5.9,5.9,0,0,0-5.891-5.891Zm4.208,26.207h0a4.213,4.213,0,0,1-4.208,4.208H189.011a4.214,4.214,0,0,1-4.208-4.208V119.011a4.214,4.214,0,0,1,4.208-4.208h20.317a4.213,4.213,0,0,1,4.208,4.208Zm-8.295-15.634a7.014,7.014,0,0,1-2.51,5.385l-.887.744a6.717,6.717,0,0,0-2.4,5.156.842.842,0,0,1-1.683,0,8.4,8.4,0,0,1,3-6.446l.887-.744h0a5.337,5.337,0,0,0,1.909-4.1,3.762,3.762,0,0,0-3.757-3.757h-1.262a3.761,3.761,0,0,0-3.757,3.757.842.842,0,0,1-1.683,0,5.446,5.446,0,0,1,5.44-5.44H199.8a5.446,5.446,0,0,1,5.44,5.44Zm-5.426,14.718h0a1.217,1.217,0,1,1-1.216-1.216,1.217,1.217,0,0,1,1.216,1.216Z" transform="translate(-183.12 -113.12)" fill="#666"/>
    </g>
  </g>
</svg>
