<svg xmlns="http://www.w3.org/2000/svg" xmlns:xlink="http://www.w3.org/1999/xlink" width="48" height="48" viewBox="0 0 48 48">
  <defs>
    <clipPath id="clip-Budget">
      <rect width="48" height="48"/>
    </clipPath>
  </defs>
  <g id="Budget" clip-path="url(#clip-Budget)">
    <rect width="48" height="48" fill="rgba(255,255,255,0)"/>
    <path id="Icon_awesome-file-invoice-dollar" data-name="Icon awesome-file-invoice-dollar" d="M25.889,6.084,19.166.406A1.814,1.814,0,0,0,18,0H17.58V7.417h8.79V7.063A1.286,1.286,0,0,0,25.889,6.084ZM15.382,7.88V0H1.648A1.532,1.532,0,0,0,0,1.391V28.275a1.532,1.532,0,0,0,1.648,1.391H24.722a1.532,1.532,0,0,0,1.648-1.391v-19H17.03A1.54,1.54,0,0,1,15.382,7.88ZM4.395,4.172a.512.512,0,0,1,.549-.464h5.494a.512.512,0,0,1,.549.464V5.1a.512.512,0,0,1-.549.464H4.944A.512.512,0,0,1,4.395,5.1Zm0,4.635V7.88a.512.512,0,0,1,.549-.464h5.494a.512.512,0,0,1,.549.464v.927a.512.512,0,0,1-.549.464H4.944A.512.512,0,0,1,4.395,8.807ZM14.284,24.1v1.4a.512.512,0,0,1-.549.464h-1.1a.512.512,0,0,1-.549-.464V24.087a4.406,4.406,0,0,1-2.154-.658.42.42,0,0,1-.039-.7l.807-.65a.646.646,0,0,1,.7-.042,1.884,1.884,0,0,0,.88.216h1.93a.79.79,0,0,0,.81-.764.775.775,0,0,0-.6-.738l-3.09-.782a2.711,2.711,0,0,1-2.169-2.514,2.822,2.822,0,0,1,2.93-2.611v-1.4a.512.512,0,0,1,.549-.464h1.1a.512.512,0,0,1,.549.464V14.85a4.4,4.4,0,0,1,2.154.658.42.42,0,0,1,.039.7l-.807.65a.646.646,0,0,1-.7.042,1.877,1.877,0,0,0-.88-.216h-1.93a.79.79,0,0,0-.81.764.775.775,0,0,0,.6.738l3.09.782a2.711,2.711,0,0,1,2.169,2.514A2.821,2.821,0,0,1,14.284,24.1Z" transform="translate(10.999 8.999)" fill="#ed7532"/>
  </g>
</svg>
