<svg id="closed" xmlns="http://www.w3.org/2000/svg" width="16" height="16" viewBox="0 0 16 16">
  <path id="Path_111074" data-name="Path 111074" d="M178.336,56.669c0-1.75-.078-1.828-1.808-1.886,0-.778,0-1.75-.019-2.352a3.582,3.582,0,0,0-3.791-3.713h-1.186a3.677,3.677,0,0,0-3.966,4.063V54.8h-.428c-1.128,0-1.38.272-1.38,1.4,0,2.391.019,4.783-.02,7.174-.019.914.35,1.341,1.264,1.341h10.129c.855,0,1.244-.389,1.225-1.264-.039-2.255-.02-4.51-.02-6.785Zm-5.6,3.48v1.128a.676.676,0,0,1-.681.68.706.706,0,0,1-.7-.68V60.149a1.657,1.657,0,1,1,2.333-1.516A1.617,1.617,0,0,1,172.737,60.149Zm1.672-5.366c-1.574,0-3.13.019-4.7.019V53.15a1.99,1.99,0,0,0,.02-.33c-.02-1.419.777-2,2.527-1.963,1.439.019,2.158.7,2.158,2.061Z" transform="translate(-164.597 -48.718)" fill="#7a2b04"/>
  <rect id="Rectangle_154721" data-name="Rectangle 154721" width="16" height="16" fill="none" opacity="0.1"/>
</svg>
