<svg xmlns="http://www.w3.org/2000/svg" xmlns:xlink="http://www.w3.org/1999/xlink" width="48" height="48" viewBox="0 0 48 48">
  <defs>
    <clipPath id="clip-CSV">
      <rect width="48" height="48"/>
    </clipPath>
  </defs>
  <g id="CSV" clip-path="url(#clip-CSV)">
    <rect width="48" height="48" fill="rgba(255,255,255,0)"/>
    <g id="csv-2" data-name="csv" transform="translate(-97.699 -0.157)">
      <path id="Union_615" data-name="Union 615" d="M22467.4,22891.965v-3.619h-2.7v-11.467h2.7v-18.725h15.053l9.9,10.113v8.611h2.705v11.467h-2.705v3.619Zm1-1h22.957v-2.619H22468.4Zm-2.7-3.619h28.365v-9.467H22465.7Zm25.658-10.467v-8.107h-9.617v-9.617h-13.34v17.725Zm-8.617-9.105h7.734l-7.734-7.9Zm-8.791,16.867a2.423,2.423,0,0,1,1.764-4.172,2.187,2.187,0,0,1,1.139.293,2.136,2.136,0,0,1,.811.846l-.852.43a1.271,1.271,0,0,0-1.1-.672,1.527,1.527,0,0,0,0,3.051,1.223,1.223,0,0,0,.639-.178,1.253,1.253,0,0,0,.459-.488l.852.414a2.137,2.137,0,0,1-1.949,1.143c-.041,0-.082,0-.123,0A2.352,2.352,0,0,1,22473.949,22884.641Zm3.994-.08.539-.754a2.066,2.066,0,0,0,1.482.627c.547,0,.811-.254.811-.518,0-.826-2.684-.258-2.684-2.01,0-.771.66-1.414,1.77-1.414a2.559,2.559,0,0,1,1.811.654l-.564.719a1.99,1.99,0,0,0-1.344-.506c-.426,0-.654.184-.654.461,0,.746,2.672.246,2.672,1.969,0,.857-.609,1.494-1.867,1.494-.049,0-.1,0-.146,0A2.653,2.653,0,0,1,22477.943,22884.561Zm5.809.654-1.8-4.654h1.131l1.293,3.58,1.281-3.58h1.133l-1.793,4.654Z" transform="translate(-22358.498 -22850.5)" fill="#999"/>
    </g>
  </g>
</svg>
