<svg xmlns="http://www.w3.org/2000/svg" xmlns:xlink="http://www.w3.org/1999/xlink" width="48" height="48" viewBox="0 0 48 48">
  <defs>
    <clipPath id="clip-Draft">
      <rect width="48" height="48"/>
    </clipPath>
  </defs>
  <g id="Draft" clip-path="url(#clip-Draft)">
    <rect width="48" height="48" fill="rgba(255,255,255,0)"/>
    <path id="Union_621" data-name="Union 621" d="M-20-12410.214v-37.579a2.212,2.212,0,0,1,2.21-2.209H1v8.842a1.1,1.1,0,0,0,1.1,1.1h8.845v3.79l-12.095,12.091-2.6,10.419,10.418-2.606,4.27-4.277v10.426a2.207,2.207,0,0,1-2.21,2.209l-26.526,0A2.211,2.211,0,0,1-20-12410.214Zm4.423-7.734a1.106,1.106,0,0,0,1.1,1.1h8.845a1.1,1.1,0,0,0,1.1-1.1,1.105,1.105,0,0,0-1.1-1.107h-8.845A1.106,1.106,0,0,0-15.577-12417.948Zm0-6.633a1.1,1.1,0,0,0,1.1,1.1h12.16a1.1,1.1,0,0,0,1.1-1.1,1.1,1.1,0,0,0-1.1-1.108h-12.16A1.107,1.107,0,0,0-15.577-12424.581Zm0-5.53a1.1,1.1,0,0,0,1.1,1.108H1a1.1,1.1,0,0,0,1.1-1.108,1.1,1.1,0,0,0-1.1-1.1H-14.473A1.1,1.1,0,0,0-15.577-12430.111Zm0-5.523a1.1,1.1,0,0,0,1.1,1.107H4.32a1.1,1.1,0,0,0,1.1-1.107,1.1,1.1,0,0,0-1.1-1.1H-14.473A1.1,1.1,0,0,0-15.577-12435.635Zm0-5.525a1.1,1.1,0,0,0,1.1,1.1h12.16a1.1,1.1,0,0,0,1.1-1.1,1.1,1.1,0,0,0-1.1-1.1h-12.16A1.1,1.1,0,0,0-15.577-12441.16Zm16.436,18.114L15.7-12437.9a3.312,3.312,0,0,1,4.689,0h0a3.32,3.32,0,0,1,0,4.7l-14.851,14.845-6.249,1.563Zm2.356-19.219v-6.58l6.7,6.58Z" transform="translate(23 12453.002)" fill="#fff"/>
  </g>
</svg>
