<svg id="expired" xmlns="http://www.w3.org/2000/svg" width="15.882" height="15.88" viewBox="0 0 15.882 15.88">
  <path id="Union_612" data-name="Union 612" d="M10.125,14.991,7.869,12.724V9.188l2.256-2.273h3.5L15.88,9.188v3.528l-2.248,2.275Zm1.251-1.517h1v-1h-1Zm0-2.019h1V8.432h-1Zm-9.527.968A1.86,1.86,0,0,1,0,10.557V3.727A1.858,1.858,0,0,1,1.849,1.864h.614V0H3.694V1.864h3.7V0H8.622V1.864h.615a1.859,1.859,0,0,1,1.849,1.864v2.45H9.854V3.1H1.232v8.072H7.168v1.248Zm.527-4.66V4.656H5.543V7.763Z" transform="translate(0 0.512)" fill="#d85e0e"/>
  <rect id="Rectangle_154717" data-name="Rectangle 154717" width="15.88" height="15.88" transform="translate(0.001)" fill="none"/>
</svg>
