<svg xmlns="http://www.w3.org/2000/svg" xmlns:xlink="http://www.w3.org/1999/xlink" width="48" height="48" viewBox="0 0 48 48">
  <defs>
    <clipPath id="clip-forward_">
      <rect width="48" height="48"/>
    </clipPath>
  </defs>
  <g id="forward_" data-name="forward " clip-path="url(#clip-forward_)">
    <rect width="48" height="48" fill="rgba(255,255,255,0)"/>
    <path id="Union_618" data-name="Union 618" d="M4.266,0A4.267,4.267,0,0,0,0,4.266V27.734A4.267,4.267,0,0,0,4.266,32H27.734A4.267,4.267,0,0,0,32,27.734V4.266A4.267,4.267,0,0,0,27.734,0Zm-3.2,27.734V4.266a3.2,3.2,0,0,1,3.2-3.2H27.734a3.2,3.2,0,0,1,3.2,3.2V27.734a3.2,3.2,0,0,1-3.2,3.2H4.266A3.2,3.2,0,0,1,1.067,27.734ZM19.378,5.691l-9.261,9.28a1.535,1.535,0,0,0,.044,2.121l9.224,9.217a1.538,1.538,0,1,0,2.177-2.172L13.421,16l8.135-8.141a1.538,1.538,0,0,0-2.178-2.172Z" transform="translate(40 40) rotate(180)" fill="#059cdf"/>
  </g>
</svg>
