<svg id="paused" xmlns="http://www.w3.org/2000/svg" width="16" height="16" viewBox="0 0 16 16">
  <path id="Path_111070" data-name="Path 111070" d="M106,28a8,8,0,1,0,8,8A8.008,8.008,0,0,0,106,28Zm0,.979A7.021,7.021,0,1,1,98.979,36,7.014,7.014,0,0,1,106,28.979Zm-2.409,3.1a1.1,1.1,0,0,0-1.1,1.1v5.631a1.1,1.1,0,0,0,1.1,1.1h.55a1.1,1.1,0,0,0,1.1-1.1V33.184a1.1,1.1,0,0,0-1.1-1.1Zm4.267,0a1.1,1.1,0,0,0-1.1,1.1v5.631a1.1,1.1,0,0,0,1.1,1.1h.55a1.1,1.1,0,0,0,1.1-1.1V33.184a1.1,1.1,0,0,0-1.1-1.1Z" transform="translate(-98 -28)" fill="#c6b80f" fill-rule="evenodd"/>
  <rect id="Rectangle_154716" data-name="Rectangle 154716" width="16" height="16" fill="none"/>
</svg>
