<svg xmlns="http://www.w3.org/2000/svg" xmlns:xlink="http://www.w3.org/1999/xlink" width="48" height="48" viewBox="0 0 48 48">
  <defs>
    <clipPath id="clip-Ready_to_Submit">
      <rect width="48" height="48"/>
    </clipPath>
  </defs>
  <g id="Ready_to_Submit" data-name="Ready to Submit" clip-path="url(#clip-Ready_to_Submit)">
    <rect width="48" height="48" fill="rgba(255,255,255,0)"/>
    <g id="complete" transform="translate(-156.273 -86.535)">
      <path id="Path_111060" data-name="Path 111060" d="M246.706,152.906l-6.041-4.226a.505.505,0,0,0-.733.126l-1.81,2.588a.506.506,0,0,0,.126.733l9.494,6.647a.506.506,0,0,0,.733-.132l13.866-19.826a.505.505,0,0,0-.187-.773,4.21,4.21,0,0,0-5.353,1.34l-9.362,13.4a.506.506,0,0,1-.733.127Z" transform="translate(-68.01 -40.077)" fill="#fafafa"/>
      <path id="Path_111061" data-name="Path 111061" d="M195.17,102.812a.505.505,0,0,0-.9-.03l-2.142,3.032h0a.506.506,0,0,0-.061.465,12.46,12.46,0,0,1,.293,7.191,12.634,12.634,0,1,1-6.413-14.311A.505.505,0,0,0,186.62,99l1.819-2.6a.536.536,0,0,0-.172-.768,16.847,16.847,0,1,0,6.9,7.176Z" transform="translate(0 0)" fill="#fafafa"/>
    </g>
  </g>
</svg>
