<svg xmlns="http://www.w3.org/2000/svg" xmlns:xlink="http://www.w3.org/1999/xlink" width="48" height="48" viewBox="0 0 48 48">
  <defs>
    <clipPath id="clip-Ready_to_Post">
      <rect width="48" height="48"/>
    </clipPath>
  </defs>
  <g id="Ready_to_Post" data-name="Ready to Post" clip-path="url(#clip-Ready_to_Post)">
    <rect width="48" height="48" fill="rgba(255,255,255,0)"/>
    <path id="Union_619" data-name="Union 619" d="M5482.02,17651.109h-18.333a.062.062,0,0,1-.053-.021h-.007a.154.154,0,0,0-.049-.016s0-.016-.01-.016a.027.027,0,0,0-.026-.021.34.34,0,0,0-.055-.031.351.351,0,0,1-.056-.045c0-.029-.032-.029-.032-.029l-.014-.01a.2.2,0,0,0-.139-.064c-.032,0-.032-.031-.032-.039a.1.1,0,0,1-.032-.051.308.308,0,0,0-.042-.059l-.038-.031a.228.228,0,0,0-.014-.061.09.09,0,0,1-.021-.045c-.034-.037-.034-.037-.034-.078v-.041c-.036,0-.036-.035-.036-.072v-18.588a.213.213,0,0,1,.015-.043l.006-.008a.15.15,0,0,0,.015-.053v-.035a.034.034,0,0,0,.034-.035.119.119,0,0,1,.036-.105l.038-.033a.167.167,0,0,0,.035-.057h0a.461.461,0,0,1,.039-.064c.039-.006.039-.031.039-.031a.72.72,0,0,0,.179-.143c0-.047.038-.047.038-.047l.015-.006c.034-.027.067-.064.094-.064a.035.035,0,0,1,.037-.037.064.064,0,0,0,.041-.01h.015a.112.112,0,0,1,.053-.021h31.354a.106.106,0,0,1,.056.021h.012a.083.083,0,0,0,.042.01c0,.016,0,.027.008.027a.05.05,0,0,0,.029.01.1.1,0,0,0,.053.041l.053.029a.051.051,0,0,0,.039.047l.111.105a.036.036,0,0,1,.036.037.1.1,0,0,1,.035.057c.012.014.017.039.036.049l.038.047a.132.132,0,0,0,.015.039h.005a.181.181,0,0,1,.015.059c.036,0,.036.041.036.041v.035a.132.132,0,0,1,.035.107v7.572a11.5,11.5,0,1,1-13.708,11.777Zm12.838-1.492-3.438,5.346,2.751,4.99,5.85-15.8-4.4,1.623-1.707.639v-.006l-1.538.574h0l-2,.74h0l-4.147,1.539h0l-2.007.738,4.989,2.748,5.344-3.443a.311.311,0,0,1,.12-.025h0a.261.261,0,0,1,.159.057.225.225,0,0,1,.026.281Zm-28.406-.355h15.636a11.376,11.376,0,0,1,2.686-6.127l-1.046-.857-3.744,3.121a.9.9,0,0,1-.583.223.873.873,0,0,1-.58-.223l-3.82-3.121Zm-1.639-1.025,8.732-7.125-8.732-7.2Zm1.639-15.348,12.913,10.65,12.91-10.65Zm18.735,8.223.891.727a11.421,11.421,0,0,1,7.427-2.717c.138,0,.273,0,.407.012v-5.225Z" transform="translate(-5459.997 -17622.998)" fill="#fff"/>
  </g>
</svg>
