<svg xmlns="http://www.w3.org/2000/svg" width="15" height="15.139" viewBox="0 0 15 15.139">
  <g id="bid_submitted" data-name="bid submitted" transform="translate(-1414.5 -993.428)">
    <path id="Path_gavel" data-name="Path / gavel" d="M2.211,14.7,8.9,8.014l-.976-.989-.5.494a.7.7,0,0,1-.983,0l-.495-.494a.693.693,0,0,1,0-.982L9.893,2.1a.7.7,0,0,1,.983,0l.495.494a.693.693,0,0,1,0,.982l-.495.481.99,1a.7.7,0,0,1,.983.989l.983.982.495-.494a.7.7,0,0,1,.99,0l.488.494a.7.7,0,0,1,0,.989l-3.938,3.935a.7.7,0,0,1-.99,0l-.488-.488a.689.689,0,0,1,0-.989l.488-.494L9.893,9l-6.7,6.693a.7.7,0,0,1-.983-.989m12.338-.891A1.393,1.393,0,0,1,15.943,15.2v.7H8.973v-.7a1.393,1.393,0,0,1,1.394-1.393Z" transform="translate(1412.993 992.103)" fill="#0a8427" stroke="rgba(0,0,0,0)" stroke-miterlimit="10" stroke-width="1"/>
  </g>
</svg>
