<svg xmlns="http://www.w3.org/2000/svg" width="48" height="48" viewBox="0 0 48 48">
  <g id="bid-queries" transform="translate(-995 -339)">
    <g id="Rectangle_154825" data-name="Rectangle 154825" transform="translate(995 339)" fill="#fff" stroke="#ec711c" stroke-width="1">
      <rect width="48" height="48" rx="3" stroke="none"/>
      <rect x="0.5" y="0.5" width="47" height="47" rx="2.5" fill="none"/>
    </g>
    <g id="noun-question-4609920" transform="translate(1009.13 346.086)">
      <path id="Path_111131" data-name="Path 111131" d="M223.94,66.623a1.328,1.328,0,0,0,1.328-1.328,6.6,6.6,0,0,1,6.784-6.592,6.672,6.672,0,0,1,6.405,6.405,6.575,6.575,0,0,1-3.425,5.974,8.824,8.824,0,0,0-4.5,7.773v2.292a1.328,1.328,0,1,0,2.655,0V78.855a6.159,6.159,0,0,1,3.119-5.44,9.224,9.224,0,0,0,4.8-8.376,9.368,9.368,0,0,0-8.991-8.991,9.25,9.25,0,0,0-9.516,9.247,1.34,1.34,0,0,0,1.339,1.328Z" transform="translate(-222.601 -56.043)" fill="#ec711c"/>
      <path id="Path_111132" data-name="Path 111132" d="M322.22,450.353a2.02,2.02,0,1,0,2.02-2.02A2.026,2.026,0,0,0,322.22,450.353Z" transform="translate(-314.976 -419.808)" fill="#ec711c"/>
    </g>
  </g>
</svg>
