<svg xmlns="http://www.w3.org/2000/svg" xmlns:xlink="http://www.w3.org/1999/xlink" width="48" height="48" viewBox="0 0 48 48">
  <defs>
    <clipPath id="clip-Block">
      <rect width="48" height="48"/>
    </clipPath>
  </defs>
  <g id="Block" clip-path="url(#clip-Block)">
    <rect width="48" height="48" fill="rgba(255,255,255,0)"/>
    <path id="stop1_48dp" d="M21,38A17,17,0,1,1,38,21,17,17,0,0,1,21,38Zm0-3.4a13.569,13.569,0,0,0,10.549-5.023L8.633,15.365A13.58,13.58,0,0,0,21,34.6ZM21,7.4a13.569,13.569,0,0,0-10.546,5.015L33.369,26.627A13.58,13.58,0,0,0,21,7.4Z" transform="translate(3 3)" fill="#999" fill-rule="evenodd"/>
  </g>
</svg>
