<svg xmlns="http://www.w3.org/2000/svg" xmlns:xlink="http://www.w3.org/1999/xlink" width="48" height="48" viewBox="0 0 48 48">
  <defs>
    <clipPath id="clip-Draft">
      <rect width="48" height="48"/>
    </clipPath>
  </defs>
  <g id="Draft" clip-path="url(#clip-Draft)">
    <rect width="48" height="48" fill="rgba(255,255,255,0)"/>
    <g id="Group_145420" data-name="Group 145420" transform="translate(-318.312 -550.661)">
      <g id="Group_144954" data-name="Group 144954" transform="translate(324.312 557.661)">
        <g id="Group_144955" data-name="Group 144955" transform="translate(0 0)">
          <path id="Icon_awesome-edit" data-name="Icon awesome-edit" d="M25.363,5.477l5.682,5.937a.664.664,0,0,1,0,.908L17.287,26.7l-5.846.678a1.254,1.254,0,0,1-1.354-1.415l.649-6.108L24.494,5.477A.6.6,0,0,1,25.363,5.477ZM35.569,3.97,32.495.757a2.39,2.39,0,0,0-3.478,0l-2.23,2.33a.664.664,0,0,0,0,.908l5.682,5.937a.6.6,0,0,0,.869,0l2.23-2.33a2.657,2.657,0,0,0,0-3.633ZM24.191,22.789v6.7H4.032V8.426H18.509a.758.758,0,0,0,.535-.23l2.52-2.633a.8.8,0,0,0-.535-1.349h-18A3.1,3.1,0,0,0,0,7.373v23.17A3.1,3.1,0,0,0,3.024,33.7H25.2a3.1,3.1,0,0,0,3.024-3.16V20.156a.754.754,0,0,0-1.291-.56l-2.52,2.633A.828.828,0,0,0,24.191,22.789Z" transform="translate(0 -0.007)" fill="#fafafa"/>
        </g>
      </g>
    </g>
  </g>
</svg>
