<svg xmlns="http://www.w3.org/2000/svg" xmlns:xlink="http://www.w3.org/1999/xlink" width="48" height="48" viewBox="0 0 48 48">
  <defs>
    <clipPath id="clip-Calendar">
      <rect width="48" height="48"/>
    </clipPath>
  </defs>
  <g id="Calendar" clip-path="url(#clip-Calendar)">
    <rect width="48" height="48" fill="rgba(255,255,255,0)"/>
    <g id="noun-data-table-1503806" transform="translate(-120.552 -87.52)">
      <path id="Path_47939" data-name="Path 47939" d="M208.321,95.52h-23.4a3.366,3.366,0,0,0-3.366,3.366v25.959a3.366,3.366,0,0,0,3.366,3.366h23.4a3.365,3.365,0,0,0,3.365-3.366V98.886a3.365,3.365,0,0,0-3.365-3.366Zm-17.162,29.869a.777.777,0,0,1-.807.743h-5.611a.777.777,0,0,1-.807-.743v-5.172a.777.777,0,0,1,.807-.744h5.611a.777.777,0,0,1,.807.744Zm9.048,0a.776.776,0,0,1-.807.743H193.79a.777.777,0,0,1-.808-.743v-5.172a.777.777,0,0,1,.808-.744h5.61a.776.776,0,0,1,.806.744v5.172Zm9.049,0a.776.776,0,0,1-.807.743h-5.611a.776.776,0,0,1-.807-.743v-5.172a.776.776,0,0,1,.807-.744h5.611a.776.776,0,0,1,.806.744v5.172Zm-18.1-8.537a.777.777,0,0,1-.807.744h-5.611a.777.777,0,0,1-.807-.744v-5.173a.777.777,0,0,1,.807-.744h5.611a.777.777,0,0,1,.807.744Zm9.048,0a.777.777,0,0,1-.807.744H193.79a.778.778,0,0,1-.808-.744v-5.173a.777.777,0,0,1,.808-.744h5.61a.777.777,0,0,1,.806.744v5.173Zm9.049,0a.777.777,0,0,1-.807.744h-5.611a.777.777,0,0,1-.807-.744v-5.173a.777.777,0,0,1,.807-.744h5.611a.777.777,0,0,1,.806.744v5.173Zm-18.1-8.656a.777.777,0,0,1-.807.744h-5.611a.777.777,0,0,1-.807-.744v-5.173a.778.778,0,0,1,.807-.744h5.611a.777.777,0,0,1,.807.744Zm9.048,0a.776.776,0,0,1-.807.744H193.79a.777.777,0,0,1-.808-.744v-5.173a.778.778,0,0,1,.808-.744h5.61a.777.777,0,0,1,.806.744V108.2Zm9.049,0a.776.776,0,0,1-.807.744h-5.611a.776.776,0,0,1-.807-.744v-5.173a.777.777,0,0,1,.807-.744h5.611a.777.777,0,0,1,.806.744V108.2Z" transform="translate(-52)" fill="#fff"/>
    </g>
  </g>
</svg>
