<svg id="draft" xmlns="http://www.w3.org/2000/svg" width="14" height="14" viewBox="0 0 14 14">
  <path id="Union_610" data-name="Union 610" d="M5581,17542.264v-12.527a.737.737,0,0,1,.736-.736H5588v2.947a.367.367,0,0,0,.369.367h2.948v1.264l-4.032,4.031-.866,3.475,3.474-.869,1.423-1.426v3.475a.737.737,0,0,1-.737.734l-8.842,0A.737.737,0,0,1,5581,17542.264Zm1.474-2.58a.368.368,0,0,0,.369.369h2.948a.368.368,0,0,0,0-.736h-2.948A.368.368,0,0,0,5582.473,17539.684Zm0-2.209a.368.368,0,0,0,.369.367h4.052a.369.369,0,0,0,0-.738h-4.052A.371.371,0,0,0,5582.473,17537.475Zm0-1.844a.369.369,0,0,0,.369.369H5588a.369.369,0,0,0,0-.738h-5.157A.369.369,0,0,0,5582.473,17535.631Zm0-1.842a.369.369,0,0,0,.369.369h6.264a.369.369,0,0,0,0-.738h-6.264A.369.369,0,0,0,5582.473,17533.789Zm0-1.842a.367.367,0,0,0,.369.367h4.052a.367.367,0,1,0,0-.734h-4.052A.368.368,0,0,0,5582.473,17531.947Zm5.479,6.039,4.949-4.951a1.1,1.1,0,0,1,1.563,0h0a1.105,1.105,0,0,1,0,1.564l-4.95,4.949-2.084.521Zm.786-6.406v-2.193l2.232,2.193Z" transform="translate(-5580.998 -17529)" fill="#333"/>
  <rect id="Rectangle_154714" data-name="Rectangle 154714" width="14" height="14" fill="none"/>
</svg>
