<svg xmlns="http://www.w3.org/2000/svg" xmlns:xlink="http://www.w3.org/1999/xlink" width="48" height="48" viewBox="0 0 48 48">
  <defs>
    <clipPath id="clip-Play">
      <rect width="48" height="48"/>
    </clipPath>
  </defs>
  <g id="Play" clip-path="url(#clip-Play)">
    <rect width="48" height="48" fill="rgba(255,255,255,0)"/>
    <g id="Group" transform="translate(6 3)">
      <path id="Compound_Path" data-name="Compound Path" d="M28.387,15.3a18.186,18.186,0,1,0-.031,36.368A18.339,18.339,0,0,0,46.875,33.529,18.382,18.382,0,0,0,28.387,15.3Zm0,32.785a14.558,14.558,0,1,1,14.8-14.556,14.679,14.679,0,0,1-14.8,14.556Z" transform="translate(-9.9 -9.668)" fill="#30840a"/>
      <rect id="Path" width="11.368" height="4.134" transform="translate(12.803)" fill="#30840a"/>
      <path id="Polygon_121" data-name="Polygon 121" d="M7.7,0l7.7,14H0Z" transform="translate(27.587 16.1) rotate(90)" fill="#30840a"/>
    </g>
  </g>
</svg>
