<svg id="ready_to_post" xmlns="http://www.w3.org/2000/svg" width="14" height="14" viewBox="0 0 14 14">
  <path id="Union_608" data-name="Union 608" d="M5469.339,17637.7h-6.111a.024.024,0,0,1-.018-.006h0a.056.056,0,0,0-.017-.006s0-.006,0-.006a.01.01,0,0,0-.009-.006c-.007-.006-.014-.008-.019-.012a.069.069,0,0,1-.019-.014c0-.01-.011-.01-.011-.01l0,0a.064.064,0,0,0-.046-.021.01.01,0,0,1-.011-.012.057.057,0,0,1-.011-.018.079.079,0,0,0-.014-.02l-.013-.012a.072.072,0,0,0,0-.02.028.028,0,0,1-.007-.016c-.012-.012-.012-.012-.012-.025v-.014c-.012,0-.012-.012-.012-.023v-6.2a.069.069,0,0,1,0-.016l0,0a.059.059,0,0,0,0-.018v-.012c.012,0,.012-.01.012-.012a.039.039,0,0,1,.012-.035l.013-.012a.052.052,0,0,0,.012-.02h0a.1.1,0,0,1,.013-.02c.013,0,.013-.012.013-.012a.239.239,0,0,0,.06-.047c0-.016.013-.016.013-.016l0,0c.012-.01.022-.021.031-.021a.012.012,0,0,1,.013-.012.028.028,0,0,0,.014,0h0a.032.032,0,0,1,.018-.008h10.451a.032.032,0,0,1,.019.008h0a.036.036,0,0,0,.014,0s0,.008,0,.008a.015.015,0,0,0,.01,0,.047.047,0,0,0,.018.014l.018.01a.018.018,0,0,0,.013.016l.037.035a.011.011,0,0,1,.012.012.041.041,0,0,1,.012.02s.006.012.012.016l.013.016a.059.059,0,0,0,0,.014h0a.057.057,0,0,1,0,.02c.012,0,.012.014.012.014v.012a.043.043,0,0,1,.012.035v2.525a3.832,3.832,0,1,1-4.569,3.924Zm4.279-.5-1.146,1.781.917,1.664,1.95-5.268-1.468.541-.569.213v0l-.513.191h0l-.668.246h0l-1.383.514h0l-.669.246,1.663.916,1.781-1.148a.133.133,0,0,1,.04-.008h0a.079.079,0,0,1,.053.02.074.074,0,0,1,.009.094Zm-9.469-.119h5.212a3.794,3.794,0,0,1,.9-2.043l-.349-.285-1.248,1.041a.3.3,0,0,1-.194.074.294.294,0,0,1-.193-.074l-1.273-1.041Zm-.546-.342,2.91-2.375-2.91-2.4Zm.546-5.115,4.3,3.551,4.3-3.551Zm6.245,2.74.3.242a3.806,3.806,0,0,1,2.476-.9c.046,0,.091,0,.136,0v-1.74Z" transform="translate(-5462.998 -17629)" fill="#cd3fd6"/>
  <rect id="Rectangle_154713" data-name="Rectangle 154713" width="14" height="14" fill="none"/>
</svg>
