<svg id="scheuduled" xmlns="http://www.w3.org/2000/svg" width="14" height="14" viewBox="0 0 14 14">
  <path id="Schedule" d="M17.4,19H9a2.1,2.1,0,0,1-2.1-2.1V9.2A2.1,2.1,0,0,1,9,7.1h.7V5h1.4V7.1h4.2V5h1.4V7.1h.7a2.1,2.1,0,0,1,2.1,2.1v7.7A2.1,2.1,0,0,1,17.4,19Zm.7-10.5H8.3v9.1h9.8Zm-4.9,5.25H9.6v-3.5h3.6Z" transform="translate(-5.9 -5)" fill="#846bed" fill-rule="evenodd"/>
  <rect id="Rectangle_154712" data-name="Rectangle 154712" width="14" height="14" transform="translate(0 0)" fill="none"/>
</svg>
