<svg id="Status_icon" data-name="Status icon" xmlns="http://www.w3.org/2000/svg" width="48" height="28.235" viewBox="0 0 48 28.235">
  <g id="Group_6947" data-name="Group 6947" transform="translate(0 0)">
    <g id="Group_6944" data-name="Group 6944">
      <path id="Path_21735" data-name="Path 21735" d="M262.168,237.767H219.146a2.395,2.395,0,1,1,0-4.785h43.022a2.395,2.395,0,1,1,0,4.785Z" transform="translate(-216.657 -232.982)" fill="#059cdf"/>
    </g>
    <g id="Group_6945" data-name="Group 6945" transform="translate(6.612 11.725)">
      <path id="Path_21736" data-name="Path 21736" d="M260.181,256.706H230.458a2.4,2.4,0,1,1,0-4.785h29.723a2.4,2.4,0,1,1,0,4.785Z" transform="translate(-227.931 -251.921)" fill="#059cdf"/>
    </g>
    <g id="Group_6946" data-name="Group 6946" transform="translate(13.26 23.45)">
      <path id="Path_21737" data-name="Path 21737" d="M256.773,275.645H240.079a2.392,2.392,0,1,1,0-4.785h16.695a2.392,2.392,0,1,1,0,4.785Z" transform="translate(-237.686 -270.86)" fill="#059cdf"/>
    </g>
  </g>
</svg>
