<svg xmlns="http://www.w3.org/2000/svg" xmlns:xlink="http://www.w3.org/1999/xlink" width="48" height="48" viewBox="0 0 48 48">
  <defs>
    <clipPath id="clip-Submitted_on">
      <rect width="48" height="48"/>
    </clipPath>
  </defs>
  <g id="Submitted_on" data-name="Submitted on" clip-path="url(#clip-Submitted_on)">
    <rect width="48" height="48" fill="rgba(255,255,255,0)"/>
    <g id="MDI_briefcase-clock-outline" data-name="MDI / briefcase-clock-outline">
      <g id="Boundary" fill="#a7a7a7" stroke="rgba(0,0,0,0)" stroke-width="1" opacity="0">
        <rect width="48" height="48" stroke="none"/>
        <rect x="0.5" y="0.5" width="47" height="47" fill="none"/>
      </g>
      <path id="Path_briefcase-clock-outline" data-name="Path / briefcase-clock-outline" d="M41,21.221V13a4,4,0,0,0-1.16-2.82A3.74,3.74,0,0,0,37,9H29V5a3.8,3.8,0,0,0-1.16-2.84A3.8,3.8,0,0,0,25,1H17a3.8,3.8,0,0,0-2.84,1.16A3.8,3.8,0,0,0,13,5V9H5a3.74,3.74,0,0,0-2.84,1.18A4,4,0,0,0,1,13V35a4,4,0,0,0,1.16,2.82A3.74,3.74,0,0,0,5,39H19.52A14,14,0,1,0,41,21.221M17,5h8V9H17M5,35V13H37v5.36A13.68,13.68,0,0,0,31,17,14,14,0,0,0,17,31a13.82,13.82,0,0,0,.58,4M37,39a10,10,0,0,1-12,0,9.88,9.88,0,0,1-4-8A10,10,0,0,1,31,21a9.88,9.88,0,0,1,6,2,10,10,0,0,1,0,16M29,25h3v5.64l4.88,2.82-1.5,2.6L29,32.381V25" transform="translate(1 1.001)" fill="#a7a7a7"/>
    </g>
  </g>
</svg>
