<svg xmlns="http://www.w3.org/2000/svg" xmlns:xlink="http://www.w3.org/1999/xlink" width="48" height="48" viewBox="0 0 48 48">
  <defs>
    <clipPath id="clip-Selected_transactions_">
      <rect width="48" height="48"/>
    </clipPath>
  </defs>
  <g id="Selected_transactions_" data-name="Selected transactions " clip-path="url(#clip-Selected_transactions_)">
    <rect width="48" height="48" fill="rgba(255,255,255,0)"/>
    <g id="Group_144617" data-name="Group 144617" transform="translate(-1010.997 -381)">
      <path id="Subtraction_194" data-name="Subtraction 194" d="M19970.5,23974a19.505,19.505,0,1,1,13.787-5.713A19.37,19.37,0,0,1,19970.5,23974Zm3.939-14V23962h4v2l3-3-3-3v2h-4Zm-11.437-14a2.006,2.006,0,0,0-2,2v12a2.006,2.006,0,0,0,2,2h9.08a6.214,6.214,0,0,1,0-2H19971v-4h3.684a5.966,5.966,0,0,1,4.318-.916V23948a2.005,2.005,0,0,0-2-2Zm6,14h-6v-4h6v4Zm8-6h-6v-4h6v4Zm-8,0h-6v-4h6v4Z" transform="translate(-18936 -23549)" fill="#ed7532"/>
    </g>
  </g>
</svg>
