<svg xmlns="http://www.w3.org/2000/svg" width="14" height="13.105" viewBox="0 0 14 13.105">
  <path id="expired" d="M5515.925,17266.1l-1.989-1.982v-3.092l1.989-1.986h3.083l1.99,1.986v3.086l-1.982,1.988Zm1.1-1.326h.885v-.877h-.885Zm0-1.766h.885v-2.643h-.885Zm-8.4.846a1.633,1.633,0,0,1-1.63-1.631v-5.971a1.631,1.631,0,0,1,1.63-1.629h.542V17253h1.085v1.629h3.259V17253h1.086v1.629h.542a1.631,1.631,0,0,1,1.629,1.629v2.143h-1.085v-2.687h-7.6v7.057h5.233v1.09Zm.465-4.072v-2.717h2.792v2.717Z" transform="translate(-5506.999 -17252.998)" fill="#d85e0e"/>
</svg>
