<!-- Generated by IcoMoon.io -->
<svg version="1.1" xmlns="http://www.w3.org/2000/svg" width="1024" height="1024" viewBox="0 0 1024 1024">
<title></title>
<g id="icomoon-ignore">
</g>
<path d="M926.198 900.447h-87.697v-519.182l26.688 10.964c2.975 1.305 6.442 2.050 10.083 2.050 14.241 0 25.787-11.546 25.787-25.787 0-10.822-6.66-20.078-16.109-23.911l-0.171-0.060-46.279-19.035v-33.728l26.688 10.964c2.975 1.305 6.442 2.050 10.083 2.050 14.241 0 25.787-11.546 25.787-25.787 0-10.822-6.66-20.078-16.109-23.911l-0.171-0.060-440.54-181.071c-2.975-1.305-6.442-2.050-10.083-2.050-14.241 0-25.787 11.546-25.787 25.787 0 10.822 6.66 20.078 16.109 23.911l0.171 0.060 27.374 11.267v33.728l-7.768-3.195c-2.813-1.151-6.089-1.816-9.508-1.816-14.241 0-25.787 11.546-25.787 25.787 0 10.601 6.388 19.696 15.523 23.66l0.166 0.062 27.374 11.267v51.307l-219.047 113.311c-28.201 14.732-47.102 43.766-47.102 77.213 0 0.066 0 0.148 0 0.214v-0.008 435.989h-88c-14.241 0-25.787 11.546-25.787 25.787s11.546 25.787 25.787 25.787h828.338c14.241 0 25.787-11.546 25.787-25.787s-11.546-25.787-25.787-25.787v0zM503.582 154.18l283.345 116.448v33.728l-283.345-116.448zM370.508 900.447v-82.128c0-14.241-11.546-25.787-25.787-25.787s-25.787 11.546-25.787 25.787v0 82.128h-81.515v-159.626h107.381c14.241 0 25.787-11.546 25.787-25.787s-11.546-25.787-25.787-25.787h-107.381v-43.005h107.381c14.241 0 25.787-11.546 25.787-25.787s-11.546-25.787-25.787-25.787h-107.381v-44.519h107.381c14.241 0 25.787-11.546 25.787-25.787s-11.546-25.787-25.787-25.787h-107.381v-34.147c0-0.018 0-0.055 0-0.092 0-13.656 7.719-25.521 19.043-31.448l0.202-0.098 195.381-101.048v568.659zM722.493 900.447v-82.128c0-14.241-11.546-25.787-25.787-25.787s-25.787 11.546-25.787 25.787v82.128h-51.444v-82.128c0-14.241-11.546-25.787-25.787-25.787s-25.787 11.546-25.787 25.787v82.128h-64.319v-656.868l283.345 116.448v540.421z"></path>
<path d="M592.787 607.177c15.641 0 28.333-12.692 28.333-28.333v0-57.467c0-15.662-12.696-28.344-28.344-28.344s-28.344 12.696-28.344 28.344v0 57.467c0 15.641 12.692 28.333 28.333 28.333 0.007 0 0.015 0 0.037 0h-0.001z"></path>
<path d="M695.732 607.177c15.641 0 28.333-12.692 28.333-28.333v0-57.467c0-15.641-12.692-28.333-28.333-28.333s-28.333 12.692-28.333 28.333v57.467c0 15.641 12.692 28.333 28.333 28.333v0z"></path>
<path d="M593.133 629.559c-15.641 0-28.333 12.692-28.333 28.333v0 57.467c0 15.662 12.696 28.344 28.344 28.344s28.344-12.696 28.344-28.344v0-57.467c0-15.641-12.692-28.333-28.333-28.333-0.007 0-0.015 0-0.037 0h0.001z"></path>
<path d="M696.093 629.559c-15.641 0-28.333 12.692-28.333 28.333v0 57.467c0 15.662 12.696 28.344 28.344 28.344s28.344-12.696 28.344-28.344v0-57.467c0-15.641-12.692-28.333-28.333-28.333-0.007 0-0.015 0-0.037 0h0.001z"></path>
<path d="M592.981 471.138c15.641 0 28.333-12.692 28.333-28.333v0-57.467c0-15.641-12.692-28.333-28.333-28.333s-28.333 12.692-28.333 28.333v57.467c0 15.641 12.692 28.333 28.333 28.333v0z"></path>
<path d="M695.92 471.138c15.637-0.012 28.321-12.696 28.333-28.332v-57.468c0-15.662-12.696-28.344-28.344-28.344s-28.344 12.696-28.344 28.344v0 57.467c0 15.641 12.692 28.333 28.333 28.333 0.007 0 0.015 0 0.037 0h-0.001z"></path>
</svg>
