<svg xmlns="http://www.w3.org/2000/svg" xmlns:xlink="http://www.w3.org/1999/xlink" width="48" height="48" viewBox="0 0 48 48">
  <defs>
    <clipPath id="clip-path">
      <rect id="Rectangle_154661" data-name="Rectangle 154661" width="48" height="48"/>
    </clipPath>
  </defs>
  <g id="forecast_select" data-name="forecast select" clip-path="url(#clip-path)">
    <rect width="48" height="48" fill="#fff"/>
    <g id="forcast" clip-path="url(#clip-path)">
      <rect id="Rectangle_154660" data-name="Rectangle 154660" width="48" height="48" fill="rgba(255,255,255,0)"/>
    </g>
    <path id="Subtraction_91" data-name="Subtraction 91" d="M4362.5,2560a19.5,19.5,0,1,1,13.789-5.712A19.4,19.4,0,0,1,4362.5,2560Zm-6.924-30a.689.689,0,0,0-.417.206.6.6,0,0,0-.164.418v18.752a.649.649,0,0,0,.189.443.664.664,0,0,0,.461.184h14.708a.668.668,0,0,0,.46-.184.633.633,0,0,0,.189-.442l0-18.752a.588.588,0,0,0-.2-.441.636.636,0,0,0-.445-.183h-14.786Zm14.133,18.753h-13.422v-17.5h13.422v17.5Zm-7.733-1.948h.379v.281a.621.621,0,0,0,.32.541.687.687,0,0,0,.321.081.653.653,0,0,0,.322-.083.611.611,0,0,0,.322-.537v-.364a1.7,1.7,0,0,0-.479-3.341h-.347a.45.45,0,0,1-.315-.129.454.454,0,0,1-.134-.337.463.463,0,0,1,.134-.33.448.448,0,0,1,.309-.124h.028l1.178,0a.654.654,0,0,0,.551-.318.646.646,0,0,0,0-.616.656.656,0,0,0-.552-.314h-.373v-.292a.592.592,0,0,0-.188-.448.658.658,0,0,0-.452-.178h-.021a.619.619,0,0,0-.447.19.611.611,0,0,0-.178.438v.366a1.717,1.717,0,0,0-1.273,1.63,1.75,1.75,0,0,0,1.741,1.71h.331a.462.462,0,0,1,0,.924h-.05a.646.646,0,0,0-.125-.011l-.046.005-.048.006h-.937a.62.62,0,0,0-.437.18.6.6,0,0,0-.192.445.622.622,0,0,0,.191.448.642.642,0,0,0,.445.18Zm3.767-14.523a.664.664,0,0,0-.448.189.632.632,0,0,0-.186.443v4.92a.628.628,0,0,0,.184.455l.007.013a.658.658,0,0,0,.446.176h.007a.646.646,0,0,0,.458-.187.594.594,0,0,0,.184-.458v-4.92a.6.6,0,0,0-.189-.451.672.672,0,0,0-.463-.181Zm-5.489,2.5h-.021a.673.673,0,0,0-.455.186.6.6,0,0,0-.177.443l0,2.422a.62.62,0,0,0,.322.544l-.021.024a.657.657,0,0,0,.282.064.6.6,0,0,0,.062,0,.641.641,0,0,0,.319-.086.623.623,0,0,0,.323-.543v-2.422a.607.607,0,0,0-.189-.45A.628.628,0,0,0,4360.253,2534.782Zm2.742-1.25a.658.658,0,0,0-.461.188.615.615,0,0,0-.179.441v3.672a.621.621,0,0,0,.32.544.673.673,0,0,0,.322.083.65.65,0,0,0,.321-.083.62.62,0,0,0,.322-.544v-3.672a.6.6,0,0,0-.192-.448A.656.656,0,0,0,4362.995,2533.532Z" transform="translate(-4339 -2516)" fill="#ed7532"/>
  </g>
</svg>
