<svg xmlns="http://www.w3.org/2000/svg" xmlns:xlink="http://www.w3.org/1999/xlink" width="48" height="48" viewBox="0 0 48 48">
  <defs>
    <clipPath id="clip-path">
      <rect id="Rectangle_154661" data-name="Rectangle 154661" width="48" height="48"/>
    </clipPath>
  </defs>
  <g id="Budget_Details" data-name="Budget Details" clip-path="url(#clip-path)">
    <rect width="48" height="48" fill="rgba(255,255,255,0)"/>
    <g id="forcast" clip-path="url(#clip-path)">
      <rect id="Rectangle_154660" data-name="Rectangle 154660" width="48" height="48" fill="rgba(255,255,255,0)"/>
    </g>
    <path id="Icon_awesome-file-invoice-dollar" data-name="Icon awesome-file-invoice-dollar" d="M29.3,7.412,21.689.494A1.964,1.964,0,0,0,20.368,0h-.474V9.036h9.947V8.605A1.614,1.614,0,0,0,29.3,7.412ZM17.407,9.6V0H1.865A1.781,1.781,0,0,0,0,1.694V34.449a1.781,1.781,0,0,0,1.865,1.694H27.976a1.781,1.781,0,0,0,1.865-1.694V11.295H19.272A1.791,1.791,0,0,1,17.407,9.6ZM4.973,5.083A.6.6,0,0,1,5.6,4.518h6.217a.6.6,0,0,1,.622.565V6.212a.6.6,0,0,1-.622.565H5.6a.6.6,0,0,1-.622-.565Zm0,5.647V9.6A.6.6,0,0,1,5.6,9.036h6.217a.6.6,0,0,1,.622.565V10.73a.6.6,0,0,1-.622.565H5.6A.6.6,0,0,1,4.973,10.73Zm11.19,18.628v1.7a.6.6,0,0,1-.622.565H14.3a.6.6,0,0,1-.622-.565V29.346a4.736,4.736,0,0,1-2.438-.8.533.533,0,0,1-.044-.857l.913-.791a.688.688,0,0,1,.787-.052,2.012,2.012,0,0,0,1,.263h2.184a.932.932,0,0,0,.235-1.83l-3.5-.953a3.243,3.243,0,0,1-2.454-3.063,3.3,3.3,0,0,1,3.316-3.182v-1.7a.6.6,0,0,1,.622-.565h1.243a.6.6,0,0,1,.622.565v1.715a4.729,4.729,0,0,1,2.438.8.533.533,0,0,1,.044.857l-.913.791a.688.688,0,0,1-.787.052,2,2,0,0,0-1-.263H13.764a.932.932,0,0,0-.235,1.83l3.5.953a3.243,3.243,0,0,1,2.454,3.063A3.294,3.294,0,0,1,16.164,29.358Z" transform="translate(9 6)" fill="#e45718"/>
  </g>
</svg>
