<svg xmlns="http://www.w3.org/2000/svg" xmlns:xlink="http://www.w3.org/1999/xlink" width="48" height="48" viewBox="0 0 48 48">
  <defs>
    <clipPath id="clip-Award_Bid">
      <rect width="48" height="48"/>
    </clipPath>
  </defs>
  <g id="Award_Bid" data-name="Award Bid" clip-path="url(#clip-Award_Bid)">
    <rect width="48" height="48" fill="rgba(255,255,255,0)"/>
    <path id="Path_111134" data-name="Path 111134" d="M137.849,41.707a3.154,3.154,0,0,0-.213-1.564,1.726,1.726,0,0,0-1.536-.858h-3.885v-.351a1.33,1.33,0,0,0-1.362-1.267H113.566c-.38,0-.761-.011-1.144,0a1.335,1.335,0,0,0-1.3,1.387v.235h-2.835c-.406,0-.818-.029-1.22.007a1.7,1.7,0,0,0-1.582,1.687c0,.127,0,.25,0,.377v4.016a10.659,10.659,0,0,0,.388,3.845,6.459,6.459,0,0,0,1.973,2.8,6.62,6.62,0,0,0,3.281,1.427,5.924,5.924,0,0,0,.619.058,10.068,10.068,0,0,0,.47,1.123,10.53,10.53,0,0,0,7.137,5.613v2.886h-3.422c-.079,0-.159,0-.243,0a1.313,1.313,0,0,0-1.231.949q-.668,1.961-1.31,3.929a1.351,1.351,0,0,0,.575,1.571,1.456,1.456,0,0,0,.768.188h14.488a1.341,1.341,0,0,0,1.231-1.716c-.047-.163-.108-.322-.159-.482-.268-.807-.539-1.615-.807-2.423-.105-.311-.206-.623-.311-.934-.018-.058-.036-.119-.058-.177a1.3,1.3,0,0,0-.775-.815,3.121,3.121,0,0,0-1.086-.083h-3.024V60.236a10.69,10.69,0,0,0,4.3-2.075,10.57,10.57,0,0,0,3.313-4.653,6.54,6.54,0,0,0,5.468-3.389,6.651,6.651,0,0,0,.785-3.107v-5.3ZM110.293,51a5.122,5.122,0,0,1-.768-.427c-.072-.047-.145-.1-.213-.152h0c.022.018.051.047.073.062-.054-.036-.2-.152-.073-.062-.011-.011-.018-.014-.018-.018a4.6,4.6,0,0,1-.366-.337c-.116-.119-.228-.239-.337-.369a.39.39,0,0,0-.033-.04c-.043-.058-.083-.116-.123-.174a5.531,5.531,0,0,1-.438-.782c.018.047.036.094.058.141l-.109-.261c.018.04.036.08.051.12a5.609,5.609,0,0,1-.3-1.1,22.27,22.27,0,0,1-.032-2.354V41.758c0-.1,0-.2-.007-.3h3.469v8.311a11.589,11.589,0,0,0,.094,1.5,5.876,5.876,0,0,1-.923-.271Zm17.164-3.875c-.112.116-.224.228-.337.344q-1.065,1.076-2.133,2.155c.007.047.014.094.025.141q.272,1.629.543,3.255a.562.562,0,0,1-.2.572.55.55,0,0,1-.6.043l-.416-.217L121.7,52.035l-.148.076q-1.478.761-2.955,1.524a.549.549,0,0,1-.8-.612c.025-.159.054-.315.08-.474.167-.974.333-1.952.5-2.926l-.141-.141-2.357-2.357a.548.548,0,0,1,.239-.909c.16-.022.315-.047.474-.069,1.014-.148,2.024-.293,3.038-.442.036-.072.069-.141.1-.21q.733-1.5,1.466-2.995a.478.478,0,0,1,.29-.239l.032-.011a.145.145,0,0,0,.018,0c.007,0,.011,0,.018,0a.424.424,0,0,1,.072-.007h.073a.462.462,0,0,1,.072.007l.029.007h.014l.029.007a.476.476,0,0,1,.29.239c.072.145.145.29.214.434.46.931.92,1.858,1.383,2.788l.239.033c1.083.152,2.162.308,3.244.46a.552.552,0,0,1,.243.913Zm8.187.478a5.457,5.457,0,0,1-.3,1.1,5.119,5.119,0,0,1-.427.768c-.047.072-.1.145-.152.214a.488.488,0,0,0,.058-.065c-.04.058-.148.192-.058.065-.011.011-.014.018-.018.022q-.158.19-.337.369c-.12.119-.239.228-.366.337l-.044.033c-.058.043-.116.083-.174.123a5.913,5.913,0,0,1-.782.438c.047-.018.094-.036.141-.058l-.261.109c.04-.018.08-.033.12-.051a5.482,5.482,0,0,1-.931.272,15.544,15.544,0,0,0,.1-1.836V41.458h3.466V46.5C135.677,46.871,135.68,47.237,135.644,47.6Z" transform="translate(-97.475 -29.662)" fill="#666"/>
  </g>
</svg>
