<svg xmlns="http://www.w3.org/2000/svg" xmlns:xlink="http://www.w3.org/1999/xlink" width="48" height="48" viewBox="0 0 48 48">
  <defs>
    <clipPath id="clip-Bid_Manager">
      <rect width="48" height="48"/>
    </clipPath>
  </defs>
  <g id="Bid_Manager" data-name="Bid Manager" clip-path="url(#clip-Bid_Manager)">
    <g id="Path_111114" data-name="Path 111114" transform="translate(5 5)" fill="none">
      <path d="M19.5,0A19.5,19.5,0,1,1,0,19.5,19.5,19.5,0,0,1,19.5,0Z" stroke="none"/>
      <path d="M 19.5 1 C 17.0020809173584 1 14.57939910888672 1.488998413085938 12.29927062988281 2.453411102294922 C 10.0964298248291 3.385139465332031 8.117860794067383 4.719188690185547 6.418529510498047 6.418529510498047 C 4.719188690185547 8.117860794067383 3.385139465332031 10.0964298248291 2.453411102294922 12.29927062988281 C 1.488998413085938 14.57939910888672 1 17.0020809173584 1 19.5 C 1 21.9979190826416 1.488998413085938 24.42060089111328 2.453411102294922 26.70072937011719 C 3.385139465332031 28.9035701751709 4.719188690185547 30.88214111328125 6.418529510498047 32.58147048950195 C 8.117860794067383 34.28081130981445 10.0964298248291 35.61486053466797 12.29927062988281 36.54658889770508 C 14.57939910888672 37.51100158691406 17.0020809173584 38 19.5 38 C 21.9979190826416 38 24.42060089111328 37.51100158691406 26.70072937011719 36.54658889770508 C 28.9035701751709 35.61486053466797 30.88214111328125 34.28081130981445 32.58147048950195 32.58147048950195 C 34.28081130981445 30.88214111328125 35.61486053466797 28.9035701751709 36.54658889770508 26.70072937011719 C 37.51100158691406 24.42060089111328 38 21.9979190826416 38 19.5 C 38 17.0020809173584 37.51100158691406 14.57939910888672 36.54658889770508 12.29927062988281 C 35.61486053466797 10.0964298248291 34.28081130981445 8.117860794067383 32.58147048950195 6.418529510498047 C 30.88214111328125 4.719188690185547 28.9035701751709 3.385139465332031 26.70072937011719 2.453411102294922 C 24.42060089111328 1.488998413085938 21.9979190826416 1 19.5 1 M 19.5 0 C 30.26955032348633 0 39 8.730449676513672 39 19.5 C 39 30.26955032348633 30.26955032348633 39 19.5 39 C 8.730449676513672 39 0 30.26955032348633 0 19.5 C 0 8.730449676513672 8.730449676513672 0 19.5 0 Z" stroke="none" fill="#707070"/>
    </g>
    <g id="MDI_gavel" data-name="MDI / gavel" transform="translate(12 12)">
      <rect id="Boundary" width="24.693" height="24.693" fill="#0854a0" opacity="0"/>
      <path id="Path_gavel" data-name="Path / gavel" d="M2.308,20.811l9.877-9.877-1.44-1.461L10,10.2a1.025,1.025,0,0,1-1.451,0l-.731-.731a1.025,1.025,0,0,1,0-1.451L13.647,2.2a1.025,1.025,0,0,1,1.451,0l.731.731a1.025,1.025,0,0,1,0,1.451l-.731.71,1.461,1.471a1.025,1.025,0,0,1,1.451,0,1.037,1.037,0,0,1,0,1.461L19.46,9.473l.731-.731a1.037,1.037,0,0,1,1.461,0l.72.731a1.037,1.037,0,0,1,0,1.461l-5.813,5.813a1.037,1.037,0,0,1-1.461,0l-.72-.72a1.019,1.019,0,0,1,0-1.461l.72-.731-1.451-1.451L3.759,22.272a1.025,1.025,0,0,1-1.451,0,1.037,1.037,0,0,1,0-1.461M20.52,19.494a2.058,2.058,0,0,1,2.058,2.058v1.029H12.289V21.552a2.058,2.058,0,0,1,2.058-2.058Z" transform="translate(0.05 0.16)" fill="#666666"/>
    </g>
  </g>
</svg>
