<svg xmlns="http://www.w3.org/2000/svg" xmlns:xlink="http://www.w3.org/1999/xlink" width="48" height="48" viewBox="0 0 48 48">
  <defs>
    <clipPath id="clip-Draft">
      <rect width="48" height="48"/>
    </clipPath>
  </defs>
  <g id="Draft" clip-path="url(#clip-Draft)">
    <rect width="48" height="48" fill="rgba(255,255,255,0)"/>
    <path id="Union_617" data-name="Union 617" d="M0,30.41V1.688A1.69,1.69,0,0,1,1.688,0H16.049V6.757A.842.842,0,0,0,16.9,7.6h6.76v2.9L14.41,19.74,12.424,27.7l7.964-1.99,3.262-3.269V30.41a1.688,1.688,0,0,1-1.69,1.683L1.688,32.1A1.692,1.692,0,0,1,0,30.41ZM3.378,24.5a.844.844,0,0,0,.846.846h6.76a.845.845,0,0,0,0-1.69H4.225A.844.844,0,0,0,3.378,24.5Zm0-5.065a.844.844,0,0,0,.846.843h9.29a.846.846,0,0,0,0-1.693H4.225A.851.851,0,0,0,3.378,19.43Zm0-4.225a.848.848,0,0,0,.846.846H16.049a.846.846,0,0,0,0-1.693H4.225A.846.846,0,0,0,3.378,15.2Zm0-4.222a.848.848,0,0,0,.846.846H18.585a.846.846,0,0,0,0-1.693H4.225A.846.846,0,0,0,3.378,10.982Zm0-4.225a.842.842,0,0,0,.846.843h9.29a.842.842,0,1,0,0-1.683H4.225A.843.843,0,0,0,3.378,6.757ZM15.939,20.605,27.286,9.252a2.53,2.53,0,0,1,3.582,0h0a2.532,2.532,0,0,1,0,3.586L19.521,24.185l-4.778,1.2Zm1.8-14.688V.889l5.118,5.028Z" transform="translate(8 7.997)" fill="#333"/>
  </g>
</svg>
