<svg xmlns="http://www.w3.org/2000/svg" xmlns:xlink="http://www.w3.org/1999/xlink" width="48" height="48" viewBox="0 0 48 48">
  <defs>
    <clipPath id="clip-File">
      <rect width="48" height="48"/>
    </clipPath>
  </defs>
  <g id="File" clip-path="url(#clip-File)">
    <rect width="48" height="48" fill="rgba(255,255,255,0)"/>
    <g id="import" transform="translate(-139.396 -45.076)">
      <path id="Path_47849" data-name="Path 47849" d="M174.544,60.974a.041.041,0,0,0-.042-.042c-.042-.084-.042-.125-.084-.167a.146.146,0,0,1-.042-.084c-.042-.042-.084-.125-.125-.167a.041.041,0,0,0-.042-.042l-7.936-7.936a.041.041,0,0,1-.042-.042c-.042-.042-.125-.084-.167-.125-.042,0-.042-.042-.084-.042a.317.317,0,0,0-.167-.084.041.041,0,0,1-.042-.042,1.155,1.155,0,0,0-.543-.125H149.9a1.5,1.5,0,0,0-1.5,1.5V84.573a1.5,1.5,0,0,0,1.5,1.5h23.223a1.5,1.5,0,0,0,1.5-1.5V77.18a.4.4,0,0,0-.418-.418h-2.172a.4.4,0,0,0-.418.418v5.472a.508.508,0,0,1-.5.5H151.906a.508.508,0,0,1-.5-.5V55.586a.508.508,0,0,1,.5-.5h11.82v6.432a1.5,1.5,0,0,0,1.5,1.5h6.432v7.393a.4.4,0,0,0,.418.418h2.172a.4.4,0,0,0,.418-.418v-8.9a1.289,1.289,0,0,0-.125-.543Z" fill="#666"/>
      <path id="Path_47850" data-name="Path 47850" d="M378.449,287.08v2.464a.374.374,0,0,1-.376.376h-6.892a.2.2,0,0,0-.209.209v2.256a.379.379,0,0,1-.626.292l-4.929-4.052a.391.391,0,0,1,0-.626l4.887-4.01a.389.389,0,0,1,.626.292v2.172a.2.2,0,0,0,.209.209h6.892a.447.447,0,0,1,.418.417Z" transform="translate(-200.689 -214.537)" fill="#666"/>
    </g>
  </g>
</svg>
