<svg xmlns="http://www.w3.org/2000/svg" xmlns:xlink="http://www.w3.org/1999/xlink" width="48" height="48" viewBox="0 0 48 48">
  <defs>
    <clipPath id="clip-Lock">
      <rect width="48" height="48"/>
    </clipPath>
  </defs>
  <g id="Lock" clip-path="url(#clip-Lock)">
    <rect width="48" height="48" fill="rgba(255,255,255,0)"/>
    <g id="Group" transform="translate(6 3)">
      <path id="Compound_Path" data-name="Compound Path" d="M28.387,15.3a18.186,18.186,0,1,0-.031,36.368A18.339,18.339,0,0,0,46.875,33.529,18.382,18.382,0,0,0,28.387,15.3Zm0,32.786a14.558,14.558,0,1,1,14.8-14.556,14.679,14.679,0,0,1-14.8,14.556Z" transform="translate(-9.9 -9.668)" fill="#7a2b04"/>
      <rect id="Path" width="11.368" height="4.134" transform="translate(12.803)" fill="#7a2b04"/>
      <path id="Icon_awesome-lock" data-name="Icon awesome-lock" d="M13.979,7.611H13.14V5.164A5.246,5.246,0,0,0,7.828,0,5.246,5.246,0,0,0,2.516,5.164V7.611H1.677A1.655,1.655,0,0,0,0,9.242v6.524A1.655,1.655,0,0,0,1.677,17.4h12.3a1.655,1.655,0,0,0,1.677-1.631V9.242A1.655,1.655,0,0,0,13.979,7.611Zm-3.635,0H5.312V5.164a2.517,2.517,0,0,1,5.032,0Z" transform="translate(10.658 13.702)" fill="#7a2b04"/>
    </g>
  </g>
</svg>
