<svg xmlns="http://www.w3.org/2000/svg" xmlns:xlink="http://www.w3.org/1999/xlink" width="48" height="48" viewBox="0 0 48 48">
  <defs>
    <clipPath id="clip-Not_Responded">
      <rect width="48" height="48"/>
    </clipPath>
  </defs>
  <g id="Not_Responded" data-name="Not Responded" clip-path="url(#clip-Not_Responded)">
    <rect width="48" height="48" fill="rgba(255,255,255,0)"/>
    <path id="Icon_material-help-outline" data-name="Icon material-help-outline" d="M17.735,29.2h3.274V25.921H17.735ZM19.372,3A16.372,16.372,0,1,0,35.744,19.372,16.378,16.378,0,0,0,19.372,3Zm0,29.47a13.1,13.1,0,1,1,13.1-13.1A13.115,13.115,0,0,1,19.372,32.47Zm0-22.921A6.547,6.547,0,0,0,12.823,16.1H16.1a3.274,3.274,0,1,1,6.549,0c0,3.274-4.912,2.865-4.912,8.186h3.274c0-3.684,4.912-4.093,4.912-8.186A6.547,6.547,0,0,0,19.372,9.549Z" transform="translate(5 5)" fill="#fafafa"/>
  </g>
</svg>
