<svg xmlns="http://www.w3.org/2000/svg" xmlns:xlink="http://www.w3.org/1999/xlink" width="48" height="48" viewBox="0 0 48 48">
  <defs>
    <clipPath id="clip-Pause">
      <rect width="48" height="48"/>
    </clipPath>
  </defs>
  <g id="Pause" clip-path="url(#clip-Pause)">
    <rect width="48" height="48" fill="rgba(255,255,255,0)"/>
    <g id="Group" transform="translate(6 3)">
      <path id="Compound_Path" data-name="Compound Path" d="M28.387,15.3a18.186,18.186,0,1,0-.031,36.368A18.339,18.339,0,0,0,46.875,33.529,18.382,18.382,0,0,0,28.387,15.3Zm0,32.785a14.558,14.558,0,1,1,14.8-14.556,14.679,14.679,0,0,1-14.8,14.556Z" transform="translate(-9.9 -9.668)" fill="#c6b80f"/>
      <rect id="Path" width="11.368" height="4.134" transform="translate(12.803)" fill="#c6b80f"/>
      <rect id="Rectangle_154703" data-name="Rectangle 154703" width="4.2" height="16.8" transform="translate(12.6 15.4)" fill="#c6b80f"/>
      <rect id="Rectangle_154704" data-name="Rectangle 154704" width="4.2" height="16.8" transform="translate(21 15.4)" fill="#c6b80f"/>
    </g>
  </g>
</svg>
