<svg xmlns="http://www.w3.org/2000/svg" xmlns:xlink="http://www.w3.org/1999/xlink" width="48" height="48" viewBox="0 0 48 48">
  <defs>
    <clipPath id="clip-Reference_Files">
      <rect width="48" height="48"/>
    </clipPath>
  </defs>
  <g id="Reference_Files" data-name="Reference Files" clip-path="url(#clip-Reference_Files)">
    <rect width="48" height="48" fill="rgba(255,255,255,0)"/>
    <g id="noun-files-4235167" transform="translate(9 9.001)">
      <path id="Path_48089" data-name="Path 48089" d="M203.272,236.03h-6.6a1.251,1.251,0,0,0,0,2.5h6.6a1.251,1.251,0,0,0,0-2.5Z" transform="translate(-189.581 -222.912)" fill="#666"/>
      <path id="Path_48090" data-name="Path 48090" d="M203.272,337.25h-6.6a1.251,1.251,0,0,0,0,2.5h6.6a1.251,1.251,0,0,0,0-2.5Z" transform="translate(-189.581 -318.252)" fill="#666"/>
      <path id="Path_48091" data-name="Path 48091" d="M124.526,13.713a3.488,3.488,0,0,0-3.478-3.491H108.073a3.488,3.488,0,0,0-3.479,3.491V16.04H98.725a3.845,3.845,0,0,0-3.84,3.842V32.568a3.811,3.811,0,0,0,1.129,2.711l3.9,3.9a3.817,3.817,0,0,0,2.711,1.13h9.2a3.845,3.845,0,0,0,3.84-3.842v-.538h5.381a3.482,3.482,0,0,0,3.478-3.479ZM113.165,36.472a1.34,1.34,0,0,1-1.338,1.339h-9.2a1.33,1.33,0,0,1-.942-.4l-3.9-3.9a1.327,1.327,0,0,1-.4-.942V19.882a1.34,1.34,0,0,1,1.338-1.339h13.1a1.34,1.34,0,0,1,1.338,1.339v16.59Zm8.858-4.016a.977.977,0,0,1-.975.976h-5.381V19.882a3.845,3.845,0,0,0-3.84-3.842H107.1V13.713a.983.983,0,0,1,.976-.988h12.975a.983.983,0,0,1,.975.988Z" transform="translate(-94.885 -10.222)" fill="#666"/>
    </g>
  </g>
</svg>
